<?xml version="1.0" encoding="UTF-8"?><svg xmlns="http://www.w3.org/2000/svg" width="2954.05" height="1661.66" xmlns:xlink="http://www.w3.org/1999/xlink" viewBox="0 0 2954.05 1661.66"><defs><style>.cls-1{fill:url(#linear-gradient-2);}.cls-2{fill:#21243a;}.cls-3{fill:url(#linear-gradient-6);}.cls-4{fill:#252b3d;}.cls-5{fill:#2e3d60;}.cls-6{fill:url(#linear-gradient-11);}.cls-7{fill:url(#linear-gradient-10);}.cls-8{fill:#47517a;}.cls-9{fill:#2f6630;}.cls-10{fill:url(#linear-gradient-5);}.cls-11{fill:#569658;}.cls-12{fill:#040;}.cls-13{fill:url(#linear-gradient-7);}.cls-14{fill:url(#linear-gradient-9);}.cls-15{fill:url(#linear-gradient-3);}.cls-16{fill:url(#linear-gradient);}.cls-17{fill:url(#linear-gradient-4);}.cls-18{fill:url(#linear-gradient-8);}</style><linearGradient id="linear-gradient" x1="1488" y1="1661" x2="1488" y2="0" gradientUnits="userSpaceOnUse"><stop offset="0" stop-color="#cce0f4"/><stop offset="0" stop-color="#c6def3"/><stop offset="0" stop-color="#c6def3"/><stop offset="0" stop-color="#c4ddf3"/><stop offset="0" stop-color="#c3ddf3"/><stop offset=".67" stop-color="#c3ddf3"/><stop offset=".78" stop-color="#c0dcf2"/><stop offset=".83" stop-color="#b9d9f1"/><stop offset=".86" stop-color="#acd4ef"/><stop offset=".9" stop-color="#9accec"/><stop offset=".92" stop-color="#82c3e8"/><stop offset=".95" stop-color="#65b8e3"/><stop offset=".97" stop-color="#43aadd"/><stop offset=".99" stop-color="#1e9cd7"/><stop offset="1" stop-color="#51b0e0"/><stop offset="1" stop-color="#1b98d4"/><stop offset="1" stop-color="#0075be"/><stop offset="1" stop-color="#005b97"/><stop offset="1" stop-color="#005e9b"/></linearGradient><linearGradient id="linear-gradient-2" x1="543.28" y1="357.27" x2="543.28" y2="246" gradientUnits="userSpaceOnUse"><stop offset="0" stop-color="#cecece"/><stop offset=".39" stop-color="#e0e0e0"/><stop offset="1" stop-color="#fff"/></linearGradient><linearGradient id="linear-gradient-3" x1="2271.5" y1="389" x2="2271.5" y2="325" xlink:href="#linear-gradient-2"/><linearGradient id="linear-gradient-4" x1="2658.28" y1="268.55" x2="2658.28" y2="174" xlink:href="#linear-gradient-2"/><linearGradient id="linear-gradient-5" x1="265.92" y1="145.85" x2="265.92" y2="98.14" xlink:href="#linear-gradient-2"/><linearGradient id="linear-gradient-6" x1="2483.14" y1="617.79" x2="2483.14" y2="617.38" xlink:href="#linear-gradient"/><linearGradient id="linear-gradient-7" x1="2483.05" y1="617.62" x2="2483.05" y2="617.55" xlink:href="#linear-gradient"/><linearGradient id="linear-gradient-8" x1="283.69" y1="692.61" x2="283.69" y2="692.2" xlink:href="#linear-gradient"/><linearGradient id="linear-gradient-9" x1="283.61" y1="692.44" x2="283.61" y2="692.37" xlink:href="#linear-gradient"/><linearGradient id="linear-gradient-10" x1="870.4" y1="641.18" x2="870.4" y2="640.77" xlink:href="#linear-gradient"/><linearGradient id="linear-gradient-11" x1="870.32" y1="641.01" x2="870.32" y2="640.94" xlink:href="#linear-gradient"/></defs><g id="Layer_7"><rect class="cls-16" width="2976" height="1661"/></g><g id="Layer_14"><path class="cls-1" d="m809,303.5c0,5.86-10.21,11.39-28.34,16.29-3,2.54-8.27,4.81-14.48,5.95-4.83.89-9.37.93-12.89.29.15-.13.3-.28.44-.42-.44.08-.88.15-1.33.23.29.07.58.13.89.18-5.48,5.1-13.94,8.36-23.42,8.36-3.65,0-7.15-.48-10.38-1.37-3.38,5-9.09,8.29-15.56,8.29-4.04,0-7.8-1.28-10.86-3.48-12.81,11.52-39.75,19.45-70.92,19.45-27.49,0-51.69-6.17-65.81-15.53-3.35,3.34-7.97,5.41-13.06,5.41-4.73,0-9.06-1.79-12.33-4.73-6.48,1.99-14.03,3.13-22.07,3.13-11.98,0-22.85-2.53-30.77-6.63.12-.1.24-.2.36-.31-.33-.01-.67-.02-1.01-.03.21.12.43.23.65.34-4.12,3.39-10.5,5.57-17.66,5.57-7.84,0-14.75-2.61-18.77-6.56-8.09,2.45-18.18,3.9-29.13,3.9-17.03,0-32.01-3.52-40.57-8.83-6.02,1.24-12.6,1.91-19.51,1.91-21,0-39.07-6.27-47.13-15.28-17.77-4.86-27.77-10.33-27.77-16.13,0-4.14,5.1-8.12,14.5-11.83-.01-.07-.02-.14-.03-.21-.69-5.99,10.76-12.25,25.56-13.98,3.67-.43,7.2-.54,10.44-.37,6.69-8.52,24.45-14.61,45.33-14.61,12.11,0,23.17,2.04,31.64,5.44,5.9-4.34,14.09-7.03,23.15-7.03,7.32,0,14.07,1.76,19.52,4.73,8.36-10.71,25.4-18.04,45.06-18.04s36.87,7.41,45.18,18.2c6.59-11.59,22.98-19.8,42.15-19.8s35.41,8.13,42.06,19.64c4.38-7.03,11.76-11.65,20.13-11.65,9.36,0,17.49,5.78,21.56,14.25,4.65-2.25,10.6-3.6,17.08-3.6,11.5,0,21.33,4.25,25.21,10.25,2.55.27,5.05.54,7.51.83,2.9-1.29,6.28-2.03,9.89-2.03,5.41,0,10.31,1.66,13.81,4.32,6.13-2.97,14.79-3.8,23.84-1.74,8.59,1.96,15.74,6.12,20.09,11.11,17.76,4.85,27.75,10.33,27.75,16.12Z"/><path class="cls-15" d="m2471,358.07c0,3.37-7.67,6.55-21.28,9.37-2.25,1.46-6.21,2.77-10.87,3.42-3.63.51-7.03.54-9.68.17.11-.08.22-.16.33-.24-.33.05-.66.09-1,.13.21.04.44.07.67.1-4.11,2.93-10.46,4.81-17.59,4.81-2.74,0-5.37-.28-7.79-.79-2.54,2.88-6.82,4.77-11.68,4.77-3.04,0-5.85-.74-8.15-2-9.62,6.62-29.85,11.19-53.25,11.19-20.64,0-38.81-3.55-49.41-8.93-2.51,1.92-5.98,3.11-9.8,3.11-3.55,0-6.8-1.03-9.26-2.72-4.87,1.15-10.53,1.8-16.57,1.8-9,0-17.16-1.45-23.11-3.82.09-.06.18-.12.27-.18-.25,0-.5-.01-.76-.02.16.07.32.13.48.2-3.09,1.95-7.88,3.2-13.26,3.2-5.89,0-11.07-1.5-14.09-3.78-6.07,1.41-13.65,2.24-21.87,2.24-12.79,0-24.03-2.02-30.46-5.08-4.52.71-9.46,1.1-14.64,1.1-15.77,0-29.33-3.61-35.38-8.79-13.34-2.79-20.85-5.94-20.85-9.28,0-2.38,3.83-4.67,10.89-6.8,0-.04-.01-.08-.02-.12-.52-3.44,8.08-7.04,19.19-8.04,2.75-.24,5.4-.31,7.84-.21,5.02-4.9,18.36-8.4,34.03-8.4,9.09,0,17.4,1.18,23.75,3.13,4.43-2.5,10.58-4.05,17.38-4.05,5.5,0,10.57,1.01,14.65,2.72,6.28-6.16,19.07-10.37,33.83-10.37s27.68,4.26,33.92,10.47c4.95-6.67,17.26-11.39,31.65-11.39s26.59,4.68,31.58,11.29c3.29-4.05,8.83-6.7,15.11-6.7,7.03,0,13.13,3.32,16.19,8.2,3.49-1.3,7.96-2.07,12.82-2.07,8.64,0,16.01,2.45,18.92,5.9,1.91.15,3.79.31,5.64.47,2.17-.74,4.71-1.17,7.43-1.17,4.06,0,7.74.95,10.37,2.49,4.61-1.71,11.11-2.19,17.9-1,6.45,1.13,11.82,3.52,15.08,6.39,13.33,2.79,20.83,5.94,20.83,9.27Z"/><path class="cls-17" d="m2854,222.86c0,4.98-7.52,9.68-20.87,13.84-2.21,2.16-6.09,4.09-10.67,5.05-3.56.76-6.9.79-9.49.24.11-.11.22-.24.32-.35-.32.07-.65.13-.98.2.21.06.43.11.66.15-4.04,4.33-10.27,7.1-17.25,7.1-2.69,0-5.26-.41-7.65-1.16-2.49,4.25-6.69,7.04-11.46,7.04-2.98,0-5.74-1.09-8-2.95-9.43,9.79-29.28,16.53-52.24,16.53-20.25,0-38.08-5.24-48.47-13.2-2.46,2.84-5.87,4.6-9.62,4.6-3.49,0-6.67-1.52-9.08-4.02-4.78,1.69-10.33,2.66-16.26,2.66-8.83,0-16.83-2.15-22.67-5.64.09-.09.18-.17.27-.26-.25,0-.5-.02-.74-.03.16.1.32.19.48.29-3.03,2.88-7.73,4.73-13.01,4.73-5.77,0-10.86-2.22-13.82-5.58-5.96,2.08-13.39,3.32-21.46,3.32-12.55,0-23.58-2.99-29.88-7.51-4.43,1.05-9.28,1.62-14.37,1.62-15.47,0-28.78-5.33-34.71-12.98-13.09-4.13-20.46-8.78-20.46-13.71,0-3.52,3.76-6.9,10.68-10.05,0-.06-.01-.12-.02-.18-.51-5.09,7.92-10.41,18.83-11.88,2.7-.36,5.3-.46,7.69-.32,4.92-7.24,18.01-12.41,33.39-12.41,8.92,0,17.07,1.74,23.3,4.62,4.35-3.69,10.38-5.98,17.05-5.98,5.39,0,10.37,1.49,14.37,4.02,6.16-9.1,18.71-15.33,33.19-15.33s27.16,6.29,33.28,15.46c4.85-9.85,16.93-16.82,31.05-16.82s26.08,6.91,30.98,16.68c3.22-5.98,8.66-9.9,14.83-9.9,6.9,0,12.89,4.91,15.88,12.11,3.42-1.91,7.81-3.06,12.58-3.06,8.47,0,15.71,3.61,18.57,8.71,1.88.23,3.72.46,5.53.7,2.13-1.09,4.62-1.72,7.29-1.72,3.98,0,7.59,1.41,10.17,3.67,4.52-2.52,10.9-3.23,17.56-1.47,6.32,1.66,11.59,5.2,14.8,9.44,13.08,4.12,20.44,8.78,20.44,13.7Z"/><path class="cls-10" d="m419,122.79c0,2.51-5.88,4.89-16.33,6.98-1.73,1.09-4.77,2.06-8.34,2.55-2.78.38-5.4.4-7.43.12.09-.06.17-.12.25-.18-.25.03-.51.07-.77.1.16.03.34.05.51.08-3.16,2.18-8.03,3.58-13.49,3.58-2.1,0-4.12-.21-5.98-.59-1.95,2.15-5.24,3.55-8.96,3.55-2.33,0-4.49-.55-6.26-1.49-7.38,4.94-22.9,8.34-40.85,8.34-15.84,0-29.78-2.65-37.91-6.66-1.93,1.43-4.59,2.32-7.52,2.32-2.73,0-5.22-.77-7.1-2.03-3.74.85-8.08,1.34-12.72,1.34-6.9,0-13.16-1.08-17.73-2.84.07-.04.14-.09.21-.13-.19,0-.39,0-.58-.01.12.05.25.1.37.15-2.37,1.45-6.05,2.39-10.17,2.39-4.52,0-8.5-1.12-10.81-2.81-4.66,1.05-10.47,1.67-16.78,1.67-9.81,0-18.44-1.51-23.37-3.79-3.47.53-7.26.82-11.24.82-12.1,0-22.51-2.69-27.15-6.55-10.24-2.08-16-4.43-16-6.92,0-1.78,2.94-3.48,8.35-5.07,0-.03,0-.06-.02-.09-.4-2.57,6.2-5.25,14.73-5.99,2.11-.18,4.15-.23,6.02-.16,3.85-3.65,14.09-6.26,26.11-6.26,6.98,0,13.35.88,18.23,2.33,3.4-1.86,8.12-3.02,13.33-3.02,4.22,0,8.11.75,11.24,2.03,4.81-4.59,14.63-7.73,25.96-7.73s21.24,3.18,26.03,7.8c3.8-4.97,13.24-8.49,24.28-8.49s20.4,3.49,24.23,8.42c2.52-3.02,6.78-4.99,11.6-4.99,5.39,0,10.08,2.48,12.42,6.11,2.68-.97,6.1-1.55,9.84-1.55,6.63,0,12.29,1.82,14.52,4.4,1.47.11,2.91.23,4.33.35,1.67-.55,3.62-.87,5.7-.87,3.12,0,5.94.71,7.96,1.85,3.53-1.27,8.52-1.63,13.73-.74,4.95.84,9.07,2.62,11.57,4.76,10.23,2.08,15.98,4.43,15.98,6.91Z"/></g><g id="Layer_5"><polyline class="cls-8" points="-1.18 1620.72 0 408.69 184.5 193.5 362.5 541.5 488.65 367.5 592 541.5 740 278.93 938.5 636.5 1036 513.13 1080.5 557.5 1137.5 481.5 1270.5 677.5 1457.5 405.5 1529.5 509.5 1710.5 209.5 1776 310.58 1859.5 146.5 1972.5 367.5 2033.5 266.5 2166.5 513.5 2241.5 392.5 2362 582.76 2438.5 490.5 2526.5 614.5 2658 288.43 2710.5 427.5 2806 146.5 2843.5 297.5 2897.5 199.5 2953.28 326.41 2952.84 1662.05 -1.22 1662.05 -1.18 1620.72"/></g><g id="Layer_6"><polyline class="cls-5" points="-127.52 1609.01 3261.58 1620.72 3264.15 472.61 3053.16 274.76 2847.85 592.83 2703.67 432.94 2584.55 591.92 2415.58 350.82 2186.72 677.57 2075.25 564.17 2024.05 604.64 1958.9 534.8 1805.69 713.81 1592.01 463.91 1509.08 558.89 1302.37 283.37 1226.91 375.7 1131.63 225.06 1001.29 427.06 931.62 334.3 778.25 560.03 692.59 448.89 553.74 622.7 466.27 537.88 364.92 651.12 215.08 351.91 154.41 479.09 45.74 221.31 2.23 359.48"/><line class="cls-5" x1="2.23" y1="359.48" x2="-59.41" y2="269.5"/></g><g id="Layer_11"><path class="cls-4" d="m2432.9,828.53c-15.28-3.23-30.55-6.46-45.82-9.69-15.18,3.18-30.36,6.36-45.55,9.54-2.18.55-3.57-2.39-1.85-3.91l23.88-21.09c1.7-1.5.36-4.41-1.8-3.92l-14.83,3.37c-2.1.48-3.46-2.27-1.9-3.83l24.19-24.17c1.64-1.64.04-4.51-2.11-3.77l-11.37,3.89c-2.05.7-3.67-1.92-2.24-3.63l20.32-24.26c1.44-1.72-.19-4.34-2.25-3.62l-11.72,4.1c-2.03.71-3.66-1.84-2.29-3.57l16.36-20.71c1.4-1.78-.34-4.37-2.39-3.54l-7.81,3.18c-2.01.82-3.75-1.69-2.43-3.48l25.92-35.05.02-.02.1.13,26,35.11c1.33,1.8-.44,4.29-2.46,3.47l-7.86-3.2c-2.05-.84-3.82,1.74-2.41,3.53l16.41,20.76c1.37,1.74-.28,4.28-2.32,3.56l-11.8-4.14c-2.07-.73-3.72,1.89-2.28,3.61l20.39,24.31c1.44,1.72-.2,4.33-2.26,3.62l-11.45-3.92c-2.16-.74-3.78,2.11-2.13,3.76l24.29,24.23c1.57,1.56.19,4.3-1.93,3.82l-14.92-3.42c-2.18-.5-3.54,2.41-1.83,3.91l23.99,21.16c1.73,1.52.32,4.45-1.87,3.9Z"/><path class="cls-4" d="m2515.55,845.15c-21.74-4.59-43.47-9.19-65.2-13.78-21.61,4.52-43.21,9.05-64.81,13.57-3.1.78-5.08-3.4-2.63-5.56l33.99-30.01c2.42-2.14.52-6.28-2.56-5.58l-21.1,4.8c-2.98.68-4.92-3.23-2.7-5.45l34.42-34.39c2.34-2.34.06-6.41-3-5.37l-16.18,5.53c-2.92,1-5.22-2.73-3.18-5.16l28.92-34.52c2.05-2.44-.27-6.18-3.2-5.15l-16.68,5.84c-2.88,1.01-5.21-2.62-3.26-5.09l23.28-29.48c2-2.53-.49-6.21-3.4-5.03l-11.12,4.52c-2.86,1.16-5.34-2.4-3.46-4.95l36.88-49.88.02-.03.14.19,36.99,49.96c1.89,2.56-.62,6.11-3.5,4.94l-11.18-4.56c-2.92-1.19-5.44,2.48-3.44,5.02l23.36,29.53c1.95,2.47-.4,6.09-3.3,5.07l-16.79-5.89c-2.94-1.03-5.3,2.69-3.24,5.14l29.02,34.59c2.05,2.44-.28,6.15-3.22,5.15l-16.29-5.58c-3.08-1.06-5.38,3.01-3.03,5.35l34.56,34.48c2.23,2.22.26,6.12-2.74,5.43l-21.23-4.86c-3.1-.71-5.03,3.42-2.6,5.56l34.13,30.11c2.46,2.17.46,6.34-2.67,5.55Z"/><path class="cls-4" d="m2724.89,846.54c-15.38-3.46-30.76-6.93-46.15-10.39-15.29,3.41-30.58,6.82-45.87,10.24-2.2.59-3.59-2.56-1.86-4.19l24.05-22.63c1.71-1.61.37-4.73-1.81-4.21l-14.93,3.62c-2.11.51-3.48-2.44-1.91-4.11l24.36-25.93c1.66-1.76.04-4.83-2.12-4.05l-11.45,4.17c-2.07.75-3.7-2.06-2.25-3.89l20.47-26.03c1.45-1.84-.19-4.66-2.27-3.89l-11.81,4.4c-2.04.76-3.69-1.97-2.31-3.84l16.48-22.23c1.41-1.91-.35-4.69-2.4-3.8l-7.87,3.41c-2.02.88-3.78-1.81-2.45-3.73l26.1-37.61.02-.02.1.14,26.18,37.67c1.34,1.93-.44,4.61-2.48,3.72l-7.91-3.44c-2.07-.9-3.85,1.87-2.43,3.78l16.53,22.27c1.38,1.86-.28,4.59-2.34,3.82l-11.88-4.44c-2.08-.78-3.75,2.03-2.29,3.87l20.54,26.08c1.45,1.84-.2,4.64-2.28,3.88l-11.53-4.21c-2.18-.8-3.81,2.27-2.15,4.03l24.46,26c1.58,1.68.19,4.61-1.94,4.1l-15.03-3.67c-2.2-.54-3.56,2.58-1.84,4.2l24.16,22.7c1.74,1.63.32,4.78-1.89,4.18Z"/><path class="cls-4" d="m2679.38,858.65c-19.69-4.43-39.37-8.87-59.05-13.3-19.57,4.37-39.13,8.73-58.7,13.1-2.81.75-4.6-3.28-2.38-5.37l30.78-28.96c2.19-2.06.47-6.06-2.32-5.38l-19.11,4.63c-2.7.65-4.46-3.12-2.45-5.26l31.17-33.18c2.12-2.25.06-6.19-2.71-5.18l-14.66,5.34c-2.65.96-4.73-2.63-2.88-4.98l26.19-33.31c1.85-2.36-.25-5.96-2.9-4.97l-15.11,5.63c-2.61.97-4.72-2.53-2.95-4.91l21.08-28.44c1.81-2.44-.44-6-3.08-4.86l-10.07,4.36c-2.59,1.12-4.84-2.32-3.13-4.78l33.4-48.13.02-.03.13.18,33.5,48.21c1.71,2.47-.56,5.89-3.17,4.76l-10.13-4.4c-2.65-1.15-4.93,2.4-3.11,4.84l21.15,28.5c1.77,2.39-.36,5.87-2.99,4.89l-15.2-5.68c-2.67-1-4.8,2.6-2.94,4.96l26.28,33.38c1.85,2.36-.25,5.94-2.92,4.96l-14.75-5.39c-2.79-1.02-4.87,2.9-2.75,5.16l31.3,33.27c2.02,2.14.24,5.9-2.48,5.24l-19.23-4.69c-2.81-.69-4.56,3.3-2.36,5.37l30.91,29.05c2.23,2.09.41,6.12-2.42,5.35Z"/><polygon class="cls-4" points="2620.66 660.5 2620.66 660.86 2620.54 660.68 2620.66 660.5"/><polygon class="cls-4" points="2620.54 660.68 2620.51 660.71 2620.51 660.65 2620.54 660.68"/><path class="cls-4" d="m2806.12,861.9c-22.5-5.07-44.99-10.13-67.49-15.2-22.37,4.99-44.72,9.98-67.09,14.97-3.21.86-5.25-3.75-2.72-6.13l35.18-33.1c2.51-2.36.54-6.92-2.65-6.15l-21.84,5.29c-3.09.75-5.1-3.56-2.8-6.01l35.63-37.93c2.42-2.58.06-7.07-3.1-5.92l-16.75,6.1c-3.03,1.1-5.41-3.01-3.3-5.69l29.94-38.07c2.12-2.69-.28-6.81-3.31-5.68l-17.27,6.44c-2.99,1.11-5.39-2.89-3.38-5.61l24.1-32.51c2.07-2.79-.51-6.85-3.52-5.55l-11.51,4.99c-2.96,1.28-5.53-2.65-3.58-5.46l38.18-55.01.02-.03.14.21,38.29,55.1c1.96,2.82-.65,6.74-3.62,5.45l-11.57-5.02c-3.03-1.31-5.63,2.74-3.56,5.53l24.18,32.57c2.02,2.73-.41,6.71-3.42,5.59l-17.37-6.5c-3.05-1.14-5.48,2.97-3.35,5.67l30.04,38.15c2.12,2.69-.29,6.79-3.33,5.67l-16.86-6.16c-3.19-1.17-5.57,3.32-3.14,5.9l35.77,38.03c2.31,2.45.27,6.75-2.84,5.99l-21.98-5.36c-3.21-.78-5.21,3.77-2.69,6.14l35.33,33.2c2.54,2.39.47,6.99-2.76,6.12Z"/><path class="cls-4" d="m698.68,874.41c-17.85-3.29-35.71-6.59-53.56-9.88-17.75,3.25-35.49,6.49-53.24,9.74-2.55.56-4.17-2.44-2.16-3.99l27.92-21.53c1.99-1.53.43-4.5-2.11-4l-17.33,3.44c-2.45.48-4.04-2.32-2.22-3.91l28.28-24.67c1.92-1.68.05-4.6-2.46-3.85l-13.29,3.97c-2.4.72-4.29-1.96-2.62-3.7l23.76-24.76c1.68-1.75-.23-4.43-2.63-3.7l-13.7,4.19c-2.37.72-4.28-1.88-2.68-3.65l19.12-21.14c1.64-1.81-.4-4.46-2.79-3.61l-9.13,3.24c-2.35.83-4.39-1.72-2.84-3.55l30.3-35.77.02-.02.11.13,30.39,35.83c1.55,1.84-.51,4.38-2.87,3.54l-9.18-3.27c-2.4-.85-4.47,1.78-2.82,3.6l19.19,21.18c1.6,1.77-.33,4.36-2.71,3.64l-13.79-4.23c-2.42-.74-4.35,1.93-2.66,3.69l23.84,24.81c1.68,1.75-.23,4.41-2.65,3.69l-13.38-4c-2.53-.76-4.42,2.16-2.49,3.84l28.39,24.73c1.83,1.59.22,4.39-2.25,3.9l-17.44-3.49c-2.55-.51-4.13,2.45-2.14,3.99l28.04,21.59c2.02,1.55.37,4.55-2.19,3.98Z"/><path class="cls-4" d="m641.62,898.56c-20.76-5.57-41.51-11.15-62.27-16.72-20.64,5.49-41.26,10.98-61.9,16.47-2.96.95-4.85-4.13-2.51-6.75l32.46-36.41c2.31-2.6.49-7.62-2.45-6.77l-20.15,5.82c-2.85.82-4.7-3.92-2.58-6.61l32.87-41.72c2.23-2.83.06-7.78-2.86-6.51l-15.46,6.71c-2.79,1.21-4.99-3.31-3.04-6.26l27.62-41.87c1.95-2.96-.26-7.49-3.06-6.25l-15.93,7.08c-2.75,1.22-4.98-3.18-3.11-6.17l22.23-35.75c1.91-3.07-.47-7.54-3.24-6.11l-10.62,5.48c-2.73,1.41-5.1-2.91-3.3-6.01l35.22-60.51.02-.04.13.23,35.33,60.61c1.81,3.1-.6,7.41-3.34,5.99l-10.68-5.53c-2.79-1.44-5.19,3.01-3.28,6.09l22.31,35.83c1.87,3-.38,7.38-3.15,6.15l-16.03-7.15c-2.81-1.25-5.06,3.27-3.1,6.23l27.71,41.96c1.95,2.96-.27,7.47-3.08,6.24l-15.55-6.77c-2.94-1.28-5.14,3.65-2.9,6.49l33.01,41.83c2.13,2.7.25,7.42-2.62,6.59l-20.28-5.9c-2.96-.86-4.81,4.15-2.48,6.75l32.6,36.52c2.35,2.63.43,7.69-2.55,6.73Z"/><path class="cls-4" d="m274.37,929.76c-17.85-3.29-35.71-6.59-53.56-9.88-17.75,3.25-35.49,6.49-53.24,9.74-2.55.56-4.17-2.44-2.16-3.99l27.92-21.53c1.99-1.53.43-4.5-2.11-4l-17.33,3.44c-2.45.48-4.04-2.32-2.22-3.91l28.28-24.67c1.92-1.68.05-4.6-2.46-3.85l-13.29,3.97c-2.4.72-4.29-1.96-2.62-3.7l23.76-24.76c1.68-1.75-.23-4.43-2.63-3.7l-13.7,4.19c-2.37.72-4.28-1.88-2.68-3.65l19.12-21.14c1.64-1.81-.4-4.46-2.79-3.61l-9.13,3.24c-2.35.83-4.39-1.72-2.84-3.55l30.3-35.77.02-.02.11.13,30.39,35.83c1.55,1.84-.51,4.38-2.87,3.54l-9.18-3.27c-2.4-.85-4.47,1.78-2.82,3.6l19.19,21.18c1.6,1.77-.33,4.36-2.71,3.64l-13.79-4.23c-2.42-.74-4.35,1.93-2.66,3.69l23.84,24.81c1.68,1.75-.23,4.41-2.65,3.69l-13.38-4c-2.53-.76-4.42,2.16-2.49,3.84l28.39,24.73c1.83,1.59.22,4.39-2.25,3.9l-17.44-3.49c-2.55-.51-4.13,2.45-2.14,3.99l28.04,21.59c2.02,1.55.37,4.55-2.19,3.98Z"/><path class="cls-4" d="m217.32,953.91c-20.76-5.57-41.51-11.15-62.27-16.72-20.64,5.49-41.26,10.98-61.9,16.47-2.96.95-4.85-4.13-2.51-6.75l32.46-36.41c2.31-2.6.49-7.62-2.45-6.77l-20.15,5.82c-2.85.82-4.7-3.92-2.58-6.61l32.87-41.72c2.23-2.83.06-7.78-2.86-6.51l-15.46,6.71c-2.79,1.21-4.99-3.31-3.04-6.26l27.62-41.87c1.95-2.96-.26-7.49-3.06-6.25l-15.93,7.08c-2.75,1.22-4.98-3.18-3.11-6.17l22.23-35.75c1.91-3.07-.47-7.54-3.24-6.11l-10.62,5.48c-2.73,1.41-5.1-2.91-3.3-6.01l35.22-60.51.02-.04.13.23,35.33,60.61c1.81,3.1-.6,7.41-3.34,5.99l-10.68-5.53c-2.79-1.44-5.19,3.01-3.28,6.09l22.31,35.83c1.87,3-.38,7.38-3.15,6.15l-16.03-7.15c-2.81-1.25-5.06,3.27-3.1,6.23l27.71,41.96c1.95,2.96-.27,7.47-3.08,6.24l-15.55-6.77c-2.94-1.28-5.14,3.65-2.9,6.49l33.01,41.83c2.13,2.7.25,7.42-2.62,6.59l-20.28-5.9c-2.96-.86-4.81,4.15-2.48,6.75l32.6,36.52c2.35,2.63.43,7.69-2.55,6.73Z"/><path class="cls-4" d="m1485.81,855.15c-15.28-3.23-30.55-6.46-45.82-9.69-15.18,3.18-30.36,6.36-45.55,9.54-2.18.55-3.57-2.39-1.85-3.91l23.88-21.09c1.7-1.5.36-4.41-1.8-3.92l-14.83,3.37c-2.1.48-3.46-2.27-1.9-3.83l24.19-24.17c1.64-1.64.04-4.51-2.11-3.77l-11.37,3.89c-2.05.7-3.67-1.92-2.24-3.63l20.32-24.26c1.44-1.72-.19-4.34-2.25-3.62l-11.72,4.1c-2.03.71-3.66-1.84-2.29-3.57l16.36-20.71c1.4-1.78-.34-4.37-2.39-3.54l-7.81,3.18c-2.01.82-3.75-1.69-2.43-3.48l25.92-35.05.02-.02.1.13,26,35.11c1.33,1.8-.44,4.29-2.46,3.47l-7.86-3.2c-2.05-.84-3.82,1.74-2.41,3.53l16.41,20.76c1.37,1.74-.28,4.28-2.32,3.56l-11.8-4.14c-2.07-.73-3.72,1.89-2.28,3.61l20.39,24.31c1.44,1.72-.2,4.33-2.26,3.62l-11.45-3.92c-2.16-.74-3.78,2.11-2.13,3.76l24.29,24.23c1.57,1.56.19,4.3-1.93,3.82l-14.92-3.42c-2.18-.5-3.54,2.41-1.83,3.91l23.99,21.16c1.73,1.52.32,4.45-1.87,3.9Z"/><path class="cls-4" d="m1568.46,871.76c-21.74-4.59-43.47-9.19-65.2-13.78-21.61,4.52-43.21,9.05-64.81,13.57-3.1.78-5.08-3.4-2.63-5.56l33.99-30.01c2.42-2.14.52-6.28-2.56-5.58l-21.1,4.8c-2.98.68-4.92-3.23-2.7-5.45l34.42-34.39c2.34-2.34.06-6.41-3-5.37l-16.18,5.53c-2.92,1-5.22-2.73-3.18-5.16l28.92-34.52c2.05-2.44-.27-6.18-3.2-5.15l-16.68,5.84c-2.88,1.01-5.21-2.62-3.26-5.09l23.28-29.48c2-2.53-.49-6.21-3.4-5.03l-11.12,4.52c-2.86,1.16-5.34-2.4-3.46-4.95l36.88-49.88.02-.03.14.19,36.99,49.96c1.89,2.56-.62,6.11-3.5,4.94l-11.18-4.56c-2.92-1.19-5.44,2.48-3.44,5.02l23.36,29.53c1.95,2.47-.4,6.09-3.3,5.07l-16.79-5.89c-2.94-1.03-5.3,2.69-3.24,5.14l29.02,34.59c2.05,2.44-.28,6.15-3.22,5.15l-16.29-5.58c-3.08-1.06-5.38,3.01-3.03,5.35l34.56,34.48c2.23,2.22.26,6.12-2.74,5.43l-21.23-4.86c-3.1-.71-5.03,3.42-2.6,5.56l34.13,30.11c2.46,2.17.46,6.34-2.67,5.55Z"/><path class="cls-4" d="m1157.52,851.52c-15.38-3.46-30.76-6.93-46.15-10.39-15.29,3.41-30.58,6.82-45.87,10.24-2.2.59-3.59-2.56-1.86-4.19l24.05-22.63c1.71-1.61.37-4.73-1.81-4.21l-14.93,3.62c-2.11.51-3.48-2.44-1.91-4.11l24.36-25.93c1.66-1.76.04-4.83-2.12-4.05l-11.45,4.17c-2.07.75-3.7-2.06-2.25-3.89l20.47-26.03c1.45-1.84-.19-4.66-2.27-3.89l-11.81,4.4c-2.04.76-3.69-1.97-2.31-3.84l16.48-22.23c1.41-1.91-.35-4.69-2.4-3.8l-7.87,3.41c-2.02.88-3.78-1.81-2.45-3.73l26.1-37.61.02-.02.1.14,26.18,37.67c1.34,1.93-.44,4.61-2.48,3.72l-7.91-3.44c-2.07-.9-3.85,1.87-2.43,3.78l16.53,22.27c1.38,1.86-.28,4.59-2.34,3.82l-11.88-4.44c-2.08-.78-3.75,2.03-2.29,3.87l20.54,26.08c1.45,1.84-.2,4.64-2.28,3.88l-11.53-4.21c-2.18-.8-3.81,2.27-2.15,4.03l24.46,26c1.58,1.68.19,4.61-1.94,4.1l-15.03-3.67c-2.2-.54-3.56,2.58-1.84,4.2l24.16,22.7c1.74,1.63.32,4.78-1.89,4.18Z"/><path class="cls-4" d="m1112.02,863.63c-19.69-4.43-39.37-8.87-59.05-13.3-19.57,4.37-39.13,8.73-58.7,13.1-2.81.75-4.6-3.28-2.38-5.37l30.78-28.96c2.19-2.06.47-6.06-2.32-5.38l-19.11,4.63c-2.7.65-4.46-3.12-2.45-5.26l31.17-33.18c2.12-2.25.06-6.19-2.71-5.18l-14.66,5.34c-2.65.96-4.73-2.63-2.88-4.98l26.19-33.31c1.85-2.36-.25-5.96-2.9-4.97l-15.11,5.63c-2.61.97-4.72-2.53-2.95-4.91l21.08-28.44c1.81-2.44-.44-6-3.08-4.86l-10.07,4.36c-2.59,1.12-4.84-2.32-3.13-4.78l33.4-48.13.02-.03.13.18,33.5,48.21c1.71,2.47-.56,5.89-3.17,4.76l-10.13-4.4c-2.65-1.15-4.93,2.4-3.11,4.84l21.15,28.5c1.77,2.39-.36,5.87-2.99,4.89l-15.2-5.68c-2.67-1-4.8,2.6-2.94,4.96l26.28,33.38c1.85,2.36-.25,5.94-2.92,4.96l-14.75-5.39c-2.79-1.02-4.87,2.9-2.75,5.16l31.3,33.27c2.02,2.14.24,5.9-2.48,5.24l-19.23-4.69c-2.81-.69-4.56,3.3-2.36,5.37l30.91,29.05c2.23,2.09.41,6.12-2.42,5.35Z"/><polygon class="cls-4" points="1053.3 665.47 1053.3 665.84 1053.17 665.65 1053.3 665.47"/><polygon class="cls-4" points="1053.17 665.65 1053.15 665.68 1053.15 665.62 1053.17 665.65"/><path class="cls-4" d="m1238.76,866.87c-22.5-5.07-44.99-10.13-67.49-15.2-22.37,4.99-44.72,9.98-67.09,14.97-3.21.86-5.25-3.75-2.72-6.13l35.18-33.1c2.51-2.36.54-6.92-2.65-6.15l-21.84,5.29c-3.09.75-5.1-3.56-2.8-6.01l35.63-37.93c2.42-2.58.06-7.07-3.1-5.92l-16.75,6.1c-3.03,1.1-5.41-3.01-3.3-5.69l29.94-38.07c2.12-2.69-.28-6.81-3.31-5.68l-17.27,6.44c-2.99,1.11-5.39-2.89-3.38-5.61l24.1-32.51c2.07-2.79-.51-6.85-3.52-5.55l-11.51,4.99c-2.96,1.28-5.53-2.65-3.58-5.46l38.18-55.01.02-.03.14.21,38.29,55.1c1.96,2.82-.65,6.74-3.62,5.45l-11.57-5.02c-3.03-1.31-5.63,2.74-3.56,5.53l24.18,32.57c2.02,2.73-.41,6.71-3.42,5.59l-17.37-6.5c-3.05-1.14-5.48,2.97-3.35,5.67l30.04,38.15c2.12,2.69-.29,6.79-3.33,5.67l-16.86-6.16c-3.19-1.17-5.57,3.32-3.14,5.9l35.77,38.03c2.31,2.45.27,6.75-2.84,5.99l-21.98-5.36c-3.21-.78-5.21,3.77-2.69,6.14l35.33,33.2c2.54,2.39.47,6.99-2.76,6.12Z"/><path class="cls-4" d="m882.73,856.27c-15.38-3.46-30.76-6.93-46.15-10.39-15.29,3.41-30.58,6.82-45.87,10.24-2.2.59-3.59-2.56-1.86-4.19l24.05-22.63c1.71-1.61.37-4.73-1.81-4.21l-14.93,3.62c-2.11.51-3.48-2.44-1.91-4.11l24.36-25.93c1.66-1.76.04-4.83-2.12-4.05l-11.45,4.17c-2.07.75-3.7-2.06-2.25-3.89l20.47-26.03c1.45-1.84-.19-4.66-2.27-3.89l-11.81,4.4c-2.04.76-3.69-1.97-2.31-3.84l16.48-22.23c1.41-1.91-.35-4.69-2.4-3.8l-7.87,3.41c-2.02.88-3.78-1.81-2.45-3.73l26.1-37.61.02-.02.1.14,26.18,37.67c1.34,1.93-.44,4.61-2.48,3.72l-7.91-3.44c-2.07-.9-3.85,1.87-2.43,3.78l16.53,22.27c1.38,1.86-.28,4.59-2.34,3.82l-11.88-4.44c-2.08-.78-3.75,2.03-2.29,3.87l20.54,26.08c1.45,1.84-.2,4.64-2.28,3.88l-11.53-4.21c-2.18-.8-3.81,2.27-2.15,4.03l24.46,26c1.58,1.68.19,4.61-1.94,4.1l-15.03-3.67c-2.2-.54-3.56,2.58-1.84,4.2l24.16,22.7c1.74,1.63.32,4.78-1.89,4.18Z"/><path class="cls-4" d="m837.22,868.37c-19.69-4.43-39.37-8.87-59.05-13.3-19.57,4.37-39.13,8.73-58.7,13.1-2.81.75-4.6-3.28-2.38-5.37l30.78-28.96c2.19-2.06.47-6.06-2.32-5.38l-19.11,4.63c-2.7.65-4.46-3.12-2.45-5.26l31.17-33.18c2.12-2.25.06-6.19-2.71-5.18l-14.66,5.34c-2.65.96-4.73-2.63-2.88-4.98l26.19-33.31c1.85-2.36-.25-5.96-2.9-4.97l-15.11,5.63c-2.61.97-4.72-2.53-2.95-4.91l21.08-28.44c1.81-2.44-.44-6-3.08-4.86l-10.07,4.36c-2.59,1.12-4.84-2.32-3.13-4.78l33.4-48.13.02-.03.13.18,33.5,48.21c1.71,2.47-.56,5.89-3.17,4.76l-10.13-4.4c-2.65-1.15-4.93,2.4-3.11,4.84l21.15,28.5c1.77,2.39-.36,5.87-2.99,4.89l-15.2-5.68c-2.67-1-4.8,2.6-2.94,4.96l26.28,33.38c1.85,2.36-.25,5.94-2.92,4.96l-14.75-5.39c-2.79-1.02-4.87,2.9-2.75,5.16l31.3,33.27c2.02,2.14.24,5.9-2.48,5.24l-19.23-4.69c-2.81-.69-4.56,3.3-2.36,5.37l30.91,29.05c2.23,2.09.41,6.12-2.42,5.35Z"/><polygon class="cls-4" points="778.51 670.22 778.51 670.58 778.38 670.4 778.51 670.22"/><polygon class="cls-4" points="778.38 670.4 778.36 670.43 778.36 670.37 778.38 670.4"/><path class="cls-4" d="m963.97,871.62c-22.5-5.07-44.99-10.13-67.49-15.2-22.37,4.99-44.72,9.98-67.09,14.97-3.21.86-5.25-3.75-2.72-6.13l35.18-33.1c2.51-2.36.54-6.92-2.65-6.15l-21.84,5.29c-3.09.75-5.1-3.56-2.8-6.01l35.63-37.93c2.42-2.58.06-7.07-3.1-5.92l-16.75,6.1c-3.03,1.1-5.41-3.01-3.3-5.69l29.94-38.07c2.12-2.69-.28-6.81-3.31-5.68l-17.27,6.44c-2.99,1.11-5.39-2.89-3.38-5.61l24.1-32.51c2.07-2.79-.51-6.85-3.52-5.55l-11.51,4.99c-2.96,1.28-5.53-2.65-3.58-5.46l38.18-55.01.02-.03.14.21,38.29,55.1c1.96,2.82-.65,6.74-3.62,5.45l-11.57-5.02c-3.03-1.31-5.63,2.74-3.56,5.53l24.18,32.57c2.02,2.73-.41,6.71-3.42,5.59l-17.37-6.5c-3.05-1.14-5.48,2.97-3.35,5.67l30.04,38.15c2.12,2.69-.29,6.79-3.33,5.67l-16.86-6.16c-3.19-1.17-5.57,3.32-3.14,5.9l35.77,38.03c2.31,2.45.27,6.75-2.84,5.99l-21.98-5.36c-3.21-.78-5.21,3.77-2.69,6.14l35.33,33.2c2.54,2.39.47,6.99-2.76,6.12Z"/><path class="cls-4" d="m2072.73,829.27c-15.38-3.46-30.76-6.93-46.15-10.39-15.29,3.41-30.58,6.82-45.87,10.24-2.2.59-3.59-2.56-1.86-4.19l24.05-22.63c1.71-1.61.37-4.73-1.81-4.21l-14.93,3.62c-2.11.51-3.48-2.44-1.91-4.11l24.36-25.93c1.66-1.76.04-4.83-2.12-4.05l-11.45,4.17c-2.07.75-3.7-2.06-2.25-3.89l20.47-26.03c1.45-1.84-.19-4.66-2.27-3.89l-11.81,4.4c-2.04.76-3.69-1.97-2.31-3.84l16.48-22.23c1.41-1.91-.35-4.69-2.4-3.8l-7.87,3.41c-2.02.88-3.78-1.81-2.45-3.73l26.1-37.61.02-.02.1.14,26.18,37.67c1.34,1.93-.44,4.61-2.48,3.72l-7.91-3.44c-2.07-.9-3.85,1.87-2.43,3.78l16.53,22.27c1.38,1.86-.28,4.59-2.34,3.82l-11.88-4.44c-2.08-.78-3.75,2.03-2.29,3.87l20.54,26.08c1.45,1.84-.2,4.64-2.28,3.88l-11.53-4.21c-2.18-.8-3.81,2.27-2.15,4.03l24.46,26c1.58,1.68.19,4.61-1.94,4.1l-15.03-3.67c-2.2-.54-3.56,2.58-1.84,4.2l24.16,22.7c1.74,1.63.32,4.78-1.89,4.18Z"/><path class="cls-4" d="m2027.22,841.37c-19.69-4.43-39.37-8.87-59.05-13.3-19.57,4.37-39.13,8.73-58.7,13.1-2.81.75-4.6-3.28-2.38-5.37l30.78-28.96c2.19-2.06.47-6.06-2.32-5.38l-19.11,4.63c-2.7.65-4.46-3.12-2.45-5.26l31.17-33.18c2.12-2.25.06-6.19-2.71-5.18l-14.66,5.34c-2.65.96-4.73-2.63-2.88-4.98l26.19-33.31c1.85-2.36-.25-5.96-2.9-4.97l-15.11,5.63c-2.61.97-4.72-2.53-2.95-4.91l21.08-28.44c1.81-2.44-.44-6-3.08-4.86l-10.07,4.36c-2.59,1.12-4.84-2.32-3.13-4.78l33.4-48.13.02-.03.13.18,33.5,48.21c1.71,2.47-.56,5.89-3.17,4.76l-10.13-4.4c-2.65-1.15-4.93,2.4-3.11,4.84l21.15,28.5c1.77,2.39-.36,5.87-2.99,4.89l-15.2-5.68c-2.67-1-4.8,2.6-2.94,4.96l26.28,33.38c1.85,2.36-.25,5.94-2.92,4.96l-14.75-5.39c-2.79-1.02-4.87,2.9-2.75,5.16l31.3,33.27c2.02,2.14.24,5.9-2.48,5.24l-19.23-4.69c-2.81-.69-4.56,3.3-2.36,5.37l30.91,29.05c2.23,2.09.41,6.12-2.42,5.35Z"/><polygon class="cls-4" points="1968.51 643.22 1968.51 643.58 1968.38 643.4 1968.51 643.22"/><polygon class="cls-4" points="1968.38 643.4 1968.36 643.43 1968.36 643.37 1968.38 643.4"/><path class="cls-4" d="m2153.97,844.62c-22.5-5.07-44.99-10.13-67.49-15.2-22.37,4.99-44.72,9.98-67.09,14.97-3.21.86-5.25-3.75-2.72-6.13l35.18-33.1c2.51-2.36.54-6.92-2.65-6.15l-21.84,5.29c-3.09.75-5.1-3.56-2.8-6.01l35.63-37.93c2.42-2.58.06-7.07-3.1-5.92l-16.75,6.1c-3.03,1.1-5.41-3.01-3.3-5.69l29.94-38.07c2.12-2.69-.28-6.81-3.31-5.68l-17.27,6.44c-2.99,1.11-5.39-2.89-3.38-5.61l24.1-32.51c2.07-2.79-.51-6.85-3.52-5.55l-11.51,4.99c-2.96,1.28-5.53-2.65-3.58-5.46l38.18-55.01.02-.03.14.21,38.29,55.1c1.96,2.82-.65,6.74-3.62,5.45l-11.57-5.02c-3.03-1.31-5.63,2.74-3.56,5.53l24.18,32.57c2.02,2.73-.41,6.71-3.42,5.59l-17.37-6.5c-3.05-1.14-5.48,2.97-3.35,5.67l30.04,38.15c2.12,2.69-.29,6.79-3.33,5.67l-16.86-6.16c-3.19-1.17-5.57,3.32-3.14,5.9l35.77,38.03c2.31,2.45.27,6.75-2.84,5.99l-21.98-5.36c-3.21-.78-5.21,3.77-2.69,6.14l35.33,33.2c2.54,2.39.47,6.99-2.76,6.12Z"/><path class="cls-4" d="m2993.69,832.65c-15.38-3.46-30.76-6.93-46.15-10.39-15.29,3.41-30.58,6.82-45.87,10.24-2.2.59-3.59-2.56-1.86-4.19l24.05-22.63c1.71-1.61.37-4.73-1.81-4.21l-14.93,3.62c-2.11.51-3.48-2.44-1.91-4.11l24.36-25.93c1.66-1.76.04-4.83-2.12-4.05l-11.45,4.17c-2.07.75-3.7-2.06-2.25-3.89l20.47-26.03c1.45-1.84-.19-4.66-2.27-3.89l-11.81,4.4c-2.04.76-3.69-1.97-2.31-3.84l16.48-22.23c1.41-1.91-.35-4.69-2.4-3.8l-7.87,3.41c-2.02.88-3.78-1.81-2.45-3.73l26.1-37.61.02-.02.1.14,26.18,37.67c1.34,1.93-.44,4.61-2.48,3.72l-7.91-3.44c-2.07-.9-3.85,1.87-2.43,3.78l16.53,22.27c1.38,1.86-.28,4.59-2.34,3.82l-11.88-4.44c-2.08-.78-3.75,2.03-2.29,3.87l20.54,26.08c1.45,1.84-.2,4.64-2.28,3.88l-11.53-4.21c-2.18-.8-3.81,2.27-2.15,4.03l24.46,26c1.58,1.68.19,4.61-1.94,4.1l-15.03-3.67c-2.2-.54-3.56,2.58-1.84,4.2l24.16,22.7c1.74,1.63.32,4.78-1.89,4.18Z"/><path class="cls-4" d="m2948.18,844.76c-19.69-4.43-39.37-8.87-59.05-13.3-19.57,4.37-39.13,8.73-58.7,13.1-2.81.75-4.6-3.28-2.38-5.37l30.78-28.96c2.19-2.06.47-6.06-2.32-5.38l-19.11,4.63c-2.7.65-4.46-3.12-2.45-5.26l31.17-33.18c2.12-2.25.06-6.19-2.71-5.18l-14.66,5.34c-2.65.96-4.73-2.63-2.88-4.98l26.19-33.31c1.85-2.36-.25-5.96-2.9-4.97l-15.11,5.63c-2.61.97-4.72-2.53-2.95-4.91l21.08-28.44c1.81-2.44-.44-6-3.08-4.86l-10.07,4.36c-2.59,1.12-4.84-2.32-3.13-4.78l33.4-48.13.02-.03.13.18,33.5,48.21c1.71,2.47-.56,5.89-3.17,4.76l-10.13-4.4c-2.65-1.15-4.93,2.4-3.11,4.84l21.15,28.5c1.77,2.39-.36,5.87-2.99,4.89l-15.2-5.68c-2.67-1-4.8,2.6-2.94,4.96l26.28,33.38c1.85,2.36-.25,5.94-2.92,4.96l-14.75-5.39c-2.79-1.02-4.87,2.9-2.75,5.16l31.3,33.27c2.02,2.14.24,5.9-2.48,5.24l-19.23-4.69c-2.81-.69-4.56,3.3-2.36,5.37l30.91,29.05c2.23,2.09.41,6.12-2.42,5.35Z"/><polygon class="cls-4" points="2889.46 646.61 2889.46 646.97 2889.34 646.79 2889.46 646.61"/><polygon class="cls-4" points="2889.34 646.79 2889.32 646.82 2889.32 646.76 2889.34 646.79"/><path class="cls-4" d="m3074.93,848.01c-22.5-5.07-44.99-10.13-67.49-15.2-22.37,4.99-44.72,9.98-67.09,14.97-3.21.86-5.25-3.75-2.72-6.13l35.18-33.1c2.51-2.36.54-6.92-2.65-6.15l-21.84,5.29c-3.09.75-5.1-3.56-2.8-6.01l35.63-37.93c2.42-2.58.06-7.07-3.1-5.92l-16.75,6.1c-3.03,1.1-5.41-3.01-3.3-5.69l29.94-38.07c2.12-2.69-.28-6.81-3.31-5.68l-17.27,6.44c-2.99,1.11-5.39-2.89-3.38-5.61l24.1-32.51c2.07-2.79-.51-6.85-3.52-5.55l-11.51,4.99c-2.96,1.28-5.53-2.65-3.58-5.46l38.18-55.01.02-.03.14.21,38.29,55.1c1.96,2.82-.65,6.74-3.62,5.45l-11.57-5.02c-3.03-1.31-5.63,2.74-3.56,5.53l24.18,32.57c2.02,2.73-.41,6.71-3.42,5.59l-17.37-6.5c-3.05-1.14-5.48,2.97-3.35,5.67l30.04,38.15c2.12,2.69-.29,6.79-3.33,5.67l-16.86-6.16c-3.19-1.17-5.57,3.32-3.14,5.9l35.77,38.03c2.31,2.45.27,6.75-2.84,5.99l-21.98-5.36c-3.21-.78-5.21,3.77-2.69,6.14l35.33,33.2c2.54,2.39.47,6.99-2.76,6.12Z"/><path class="cls-4" d="m1359.05,849.89c-15.38-3.46-30.76-6.93-46.15-10.39-15.29,3.41-30.58,6.82-45.87,10.24-2.2.59-3.59-2.56-1.86-4.19l24.05-22.63c1.71-1.61.37-4.73-1.81-4.21l-14.93,3.62c-2.11.51-3.48-2.44-1.91-4.11l24.36-25.93c1.66-1.76.04-4.83-2.12-4.05l-11.45,4.17c-2.07.75-3.7-2.06-2.25-3.89l20.47-26.03c1.45-1.84-.19-4.66-2.27-3.89l-11.81,4.4c-2.04.76-3.69-1.97-2.31-3.84l16.48-22.23c1.41-1.91-.35-4.69-2.4-3.8l-7.87,3.41c-2.02.88-3.78-1.81-2.45-3.73l26.1-37.61.02-.02.1.14,26.18,37.67c1.34,1.93-.44,4.61-2.48,3.72l-7.91-3.44c-2.07-.9-3.85,1.87-2.43,3.78l16.53,22.27c1.38,1.86-.28,4.59-2.34,3.82l-11.88-4.44c-2.08-.78-3.75,2.03-2.29,3.87l20.54,26.08c1.45,1.84-.2,4.64-2.28,3.88l-11.53-4.21c-2.18-.8-3.81,2.27-2.15,4.03l24.46,26c1.58,1.68.19,4.61-1.94,4.1l-15.03-3.67c-2.2-.54-3.56,2.58-1.84,4.2l24.16,22.7c1.74,1.63.32,4.78-1.89,4.18Z"/><path class="cls-4" d="m1313.54,862c-19.69-4.43-39.37-8.87-59.05-13.3-19.57,4.37-39.13,8.73-58.7,13.1-2.81.75-4.6-3.28-2.38-5.37l30.78-28.96c2.19-2.06.47-6.06-2.32-5.38l-19.11,4.63c-2.7.65-4.46-3.12-2.45-5.26l31.17-33.18c2.12-2.25.06-6.19-2.71-5.18l-14.66,5.34c-2.65.96-4.73-2.63-2.88-4.98l26.19-33.31c1.85-2.36-.25-5.96-2.9-4.97l-15.11,5.63c-2.61.97-4.72-2.53-2.95-4.91l21.08-28.44c1.81-2.44-.44-6-3.08-4.86l-10.07,4.36c-2.59,1.12-4.84-2.32-3.13-4.78l33.4-48.13.02-.03.13.18,33.5,48.21c1.71,2.47-.56,5.89-3.17,4.76l-10.13-4.4c-2.65-1.15-4.93,2.4-3.11,4.84l21.15,28.5c1.77,2.39-.36,5.87-2.99,4.89l-15.2-5.68c-2.67-1-4.8,2.6-2.94,4.96l26.28,33.38c1.85,2.36-.25,5.94-2.92,4.96l-14.75-5.39c-2.79-1.02-4.87,2.9-2.75,5.16l31.3,33.27c2.02,2.14.24,5.9-2.48,5.24l-19.23-4.69c-2.81-.69-4.56,3.3-2.36,5.37l30.91,29.05c2.23,2.09.41,6.12-2.42,5.35Z"/><polygon class="cls-4" points="1254.83 663.85 1254.83 664.21 1254.7 664.03 1254.83 663.85"/><polygon class="cls-4" points="1254.7 664.03 1254.68 664.06 1254.68 664 1254.7 664.03"/><path class="cls-4" d="m1440.29,865.25c-22.5-5.07-44.99-10.13-67.49-15.2-22.37,4.99-44.72,9.98-67.09,14.97-3.21.86-5.25-3.75-2.72-6.13l35.18-33.1c2.51-2.36.54-6.92-2.65-6.15l-21.84,5.29c-3.09.75-5.1-3.56-2.8-6.01l35.63-37.93c2.42-2.58.06-7.07-3.1-5.92l-16.75,6.1c-3.03,1.1-5.41-3.01-3.3-5.69l29.94-38.07c2.12-2.69-.28-6.81-3.31-5.68l-17.27,6.44c-2.99,1.11-5.39-2.89-3.38-5.61l24.1-32.51c2.07-2.79-.51-6.85-3.52-5.55l-11.51,4.99c-2.96,1.28-5.53-2.65-3.58-5.46l38.18-55.01.02-.03.14.21,38.29,55.1c1.96,2.82-.65,6.74-3.62,5.45l-11.57-5.02c-3.03-1.31-5.63,2.74-3.56,5.53l24.18,32.57c2.02,2.73-.41,6.71-3.42,5.59l-17.37-6.5c-3.05-1.14-5.48,2.97-3.35,5.67l30.04,38.15c2.12,2.69-.29,6.79-3.33,5.67l-16.86-6.16c-3.19-1.17-5.57,3.32-3.14,5.9l35.77,38.03c2.31,2.45.27,6.75-2.84,5.99l-21.98-5.36c-3.21-.78-5.21,3.77-2.69,6.14l35.33,33.2c2.54,2.39.47,6.99-2.76,6.12Z"/><path class="cls-4" d="m377.91,894.84c-15.28-3.23-30.55-6.46-45.82-9.69-15.18,3.18-30.36,6.36-45.55,9.54-2.18.55-3.57-2.39-1.85-3.91l23.88-21.09c1.7-1.5.36-4.41-1.8-3.92l-14.83,3.37c-2.1.48-3.46-2.27-1.9-3.83l24.19-24.17c1.64-1.64.04-4.51-2.11-3.77l-11.37,3.89c-2.05.7-3.67-1.92-2.24-3.63l20.32-24.26c1.44-1.72-.19-4.34-2.25-3.62l-11.72,4.1c-2.03.71-3.66-1.84-2.29-3.57l16.36-20.71c1.4-1.78-.34-4.37-2.39-3.54l-7.81,3.18c-2.01.82-3.75-1.69-2.43-3.48l25.92-35.05.02-.02.1.13,26,35.11c1.33,1.8-.44,4.29-2.46,3.47l-7.86-3.2c-2.05-.84-3.82,1.74-2.41,3.53l16.41,20.76c1.37,1.74-.28,4.28-2.32,3.56l-11.8-4.14c-2.07-.73-3.72,1.89-2.28,3.61l20.39,24.31c1.44,1.72-.2,4.33-2.26,3.62l-11.45-3.92c-2.16-.74-3.78,2.11-2.13,3.76l24.29,24.23c1.57,1.56.19,4.3-1.93,3.82l-14.92-3.42c-2.18-.5-3.54,2.41-1.83,3.91l23.99,21.16c1.73,1.52.32,4.45-1.87,3.9Z"/><path class="cls-4" d="m460.56,911.45c-21.74-4.59-43.47-9.19-65.2-13.78-21.61,4.52-43.21,9.05-64.81,13.57-3.1.78-5.08-3.4-2.63-5.56l33.99-30.01c2.42-2.14.52-6.28-2.56-5.58l-21.1,4.8c-2.98.68-4.92-3.23-2.7-5.45l34.42-34.39c2.34-2.34.06-6.41-3-5.37l-16.18,5.53c-2.92,1-5.22-2.73-3.18-5.16l28.92-34.52c2.05-2.44-.27-6.18-3.2-5.15l-16.68,5.84c-2.88,1.01-5.21-2.62-3.26-5.09l23.28-29.48c2-2.53-.49-6.21-3.4-5.03l-11.12,4.52c-2.86,1.16-5.34-2.4-3.46-4.95l36.88-49.88.02-.03.14.19,36.99,49.96c1.89,2.56-.62,6.11-3.5,4.94l-11.18-4.56c-2.92-1.19-5.44,2.48-3.44,5.02l23.36,29.53c1.95,2.47-.4,6.09-3.3,5.07l-16.79-5.89c-2.94-1.03-5.3,2.69-3.24,5.14l29.02,34.59c2.05,2.44-.28,6.15-3.22,5.15l-16.29-5.58c-3.08-1.06-5.38,3.01-3.03,5.35l34.56,34.48c2.23,2.22.26,6.12-2.74,5.43l-21.23-4.86c-3.1-.71-5.03,3.42-2.6,5.56l34.13,30.11c2.46,2.17.46,6.34-2.67,5.55Z"/><path class="cls-4" d="m1785.97,836.86c-15.28-3.23-30.55-6.46-45.82-9.69-15.18,3.18-30.36,6.36-45.55,9.54-2.18.55-3.57-2.39-1.85-3.91l23.88-21.09c1.7-1.5.36-4.41-1.8-3.92l-14.83,3.37c-2.1.48-3.46-2.27-1.9-3.83l24.19-24.17c1.64-1.64.04-4.51-2.11-3.77l-11.37,3.89c-2.05.7-3.67-1.92-2.24-3.63l20.32-24.26c1.44-1.72-.19-4.34-2.25-3.62l-11.72,4.1c-2.03.71-3.66-1.84-2.29-3.57l16.36-20.71c1.4-1.78-.34-4.37-2.39-3.54l-7.81,3.18c-2.01.82-3.75-1.69-2.43-3.48l25.92-35.05.02-.02.1.13,26,35.11c1.33,1.8-.44,4.29-2.46,3.47l-7.86-3.2c-2.05-.84-3.82,1.74-2.41,3.53l16.41,20.76c1.37,1.74-.28,4.28-2.32,3.56l-11.8-4.14c-2.07-.73-3.72,1.89-2.28,3.61l20.39,24.31c1.44,1.72-.2,4.33-2.26,3.62l-11.45-3.92c-2.16-.74-3.78,2.11-2.13,3.76l24.29,24.23c1.57,1.56.19,4.3-1.93,3.82l-14.92-3.42c-2.18-.5-3.54,2.41-1.83,3.91l23.99,21.16c1.73,1.52.32,4.45-1.87,3.9Z"/><path class="cls-4" d="m1868.63,853.48c-21.74-4.59-43.47-9.19-65.2-13.78-21.61,4.52-43.21,9.05-64.81,13.57-3.1.78-5.08-3.4-2.63-5.56l33.99-30.01c2.42-2.14.52-6.28-2.56-5.58l-21.1,4.8c-2.98.68-4.92-3.23-2.7-5.45l34.42-34.39c2.34-2.34.06-6.41-3-5.37l-16.18,5.53c-2.92,1-5.22-2.73-3.18-5.16l28.92-34.52c2.05-2.44-.27-6.18-3.2-5.15l-16.68,5.84c-2.88,1.01-5.21-2.62-3.26-5.09l23.28-29.48c2-2.53-.49-6.21-3.4-5.03l-11.12,4.52c-2.86,1.16-5.34-2.4-3.46-4.95l36.88-49.88.02-.03.14.19,36.99,49.96c1.89,2.56-.62,6.11-3.5,4.94l-11.18-4.56c-2.92-1.19-5.44,2.48-3.44,5.02l23.36,29.53c1.95,2.47-.4,6.09-3.3,5.07l-16.79-5.89c-2.94-1.03-5.3,2.69-3.24,5.14l29.02,34.59c2.05,2.44-.28,6.15-3.22,5.15l-16.29-5.58c-3.08-1.06-5.38,3.01-3.03,5.35l34.56,34.48c2.23,2.22.26,6.12-2.74,5.43l-21.23-4.86c-3.1-.71-5.03,3.42-2.6,5.56l34.13,30.11c2.46,2.17.46,6.34-2.67,5.55Z"/></g><g id="Layer_8"><path class="cls-2" d="m2602.13,829.66c-17.55-3.95-35.1-7.91-52.66-11.86-17.45,3.89-34.89,7.79-52.34,11.68-2.51.67-4.1-2.93-2.12-4.79l27.45-25.82c1.96-1.84.42-5.4-2.07-4.8l-17.04,4.13c-2.41.58-3.98-2.78-2.18-4.69l27.8-29.59c1.89-2.01.05-5.52-2.42-4.62l-13.07,4.76c-2.36.86-4.22-2.35-2.57-4.44l23.36-29.7c1.65-2.1-.22-5.32-2.59-4.43l-13.47,5.02c-2.33.87-4.21-2.25-2.63-4.38l18.8-25.36c1.61-2.17-.39-5.35-2.74-4.33l-8.98,3.89c-2.31,1-4.31-2.06-2.79-4.26l29.78-42.92.02-.03.11.16,29.87,42.99c1.53,2.2-.5,5.26-2.83,4.25l-9.03-3.92c-2.36-1.02-4.39,2.14-2.77,4.32l18.86,25.41c1.58,2.13-.32,5.24-2.67,4.36l-13.56-5.07c-2.38-.89-4.28,2.32-2.62,4.42l23.43,29.76c1.65,2.1-.23,5.3-2.6,4.43l-13.15-4.8c-2.49-.91-4.35,2.59-2.45,4.6l27.91,29.67c1.8,1.91.21,5.27-2.21,4.67l-17.15-4.19c-2.51-.61-4.06,2.94-2.1,4.79l27.57,25.9c1.99,1.86.37,5.45-2.15,4.77Z"/><path class="cls-2" d="m2550.21,843.48c-22.46-5.06-44.92-10.12-67.38-15.17-22.33,4.98-44.65,9.96-66.97,14.95-3.21.86-5.25-3.74-2.72-6.12l35.12-33.04c2.5-2.36.54-6.91-2.65-6.14l-21.8,5.28c-3.08.74-5.09-3.56-2.79-6l35.57-37.86c2.42-2.57.06-7.06-3.1-5.91l-16.72,6.09c-3.02,1.1-5.4-3-3.29-5.68l29.89-38.01c2.11-2.69-.28-6.8-3.31-5.67l-17.24,6.42c-2.98,1.11-5.39-2.88-3.37-5.6l24.06-32.45c2.06-2.78-.5-6.84-3.51-5.54l-11.49,4.98c-2.95,1.28-5.52-2.64-3.57-5.45l38.11-54.92.02-.03.14.21,38.22,55.01c1.95,2.82-.64,6.73-3.62,5.44l-11.55-5.02c-3.02-1.31-5.62,2.73-3.55,5.52l24.14,32.52c2.02,2.72-.41,6.7-3.41,5.58l-17.35-6.49c-3.04-1.14-5.47,2.97-3.35,5.66l29.98,38.08c2.11,2.69-.29,6.78-3.33,5.67l-16.83-6.15c-3.18-1.16-5.56,3.31-3.13,5.89l35.71,37.96c2.3,2.45.27,6.74-2.83,5.98l-21.94-5.36c-3.21-.78-5.2,3.77-2.69,6.13l35.27,33.15c2.54,2.39.47,6.98-2.76,6.11Z"/><polygon class="cls-3" points="2483.21 617.38 2483.21 617.79 2483.07 617.58 2483.21 617.38"/><polygon class="cls-13" points="2483.07 617.58 2483.04 617.62 2483.04 617.55 2483.07 617.58"/><path class="cls-2" d="m2694.83,847.18c-25.67-5.78-51.34-11.56-77.01-17.34-25.52,5.69-51.03,11.39-76.55,17.08-3.66.98-6-4.28-3.11-7l40.14-37.77c2.86-2.69.61-7.9-3.03-7.02l-24.92,6.03c-3.52.85-5.82-4.07-3.19-6.85l40.66-43.28c2.76-2.94.07-8.07-3.54-6.75l-19.12,6.96c-3.45,1.26-6.17-3.43-3.76-6.49l34.16-43.44c2.42-3.07-.32-7.78-3.78-6.48l-19.7,7.34c-3.41,1.27-6.15-3.29-3.85-6.4l27.5-37.09c2.36-3.18-.58-7.82-4.01-6.34l-13.13,5.69c-3.38,1.46-6.31-3.02-4.08-6.23l43.56-62.77.03-.04.16.24,43.69,62.87c2.23,3.22-.74,7.69-4.13,6.21l-13.21-5.73c-3.45-1.5-6.42,3.12-4.06,6.31l27.59,37.16c2.31,3.11-.47,7.66-3.9,6.38l-19.83-7.41c-3.48-1.3-6.26,3.39-3.83,6.47l34.27,43.53c2.42,3.07-.33,7.74-3.8,6.47l-19.24-7.02c-3.64-1.33-6.36,3.78-3.58,6.73l40.82,43.39c2.63,2.8.31,7.7-3.24,6.84l-25.08-6.12c-3.66-.89-5.94,4.31-3.07,7l40.32,37.88c2.9,2.73.54,7.98-3.15,6.98Z"/><path class="cls-2" d="m402.68,904.48c-17.55-3.95-35.1-7.91-52.66-11.86-17.45,3.89-34.89,7.79-52.34,11.68-2.51.67-4.1-2.93-2.12-4.79l27.45-25.82c1.96-1.84.42-5.4-2.07-4.8l-17.04,4.13c-2.41.58-3.98-2.78-2.18-4.69l27.8-29.59c1.89-2.01.05-5.52-2.42-4.62l-13.07,4.76c-2.36.86-4.22-2.35-2.57-4.44l23.36-29.7c1.65-2.1-.22-5.32-2.59-4.43l-13.47,5.02c-2.33.87-4.21-2.25-2.63-4.38l18.8-25.36c1.61-2.17-.39-5.35-2.74-4.33l-8.98,3.89c-2.31,1-4.31-2.06-2.79-4.26l29.78-42.92.02-.03.11.16,29.87,42.99c1.53,2.2-.5,5.26-2.83,4.25l-9.03-3.92c-2.36-1.02-4.39,2.14-2.77,4.32l18.86,25.41c1.58,2.13-.32,5.24-2.67,4.36l-13.56-5.07c-2.38-.89-4.28,2.32-2.62,4.42l23.43,29.76c1.65,2.1-.23,5.3-2.6,4.43l-13.15-4.8c-2.49-.91-4.35,2.59-2.45,4.6l27.91,29.67c1.8,1.91.21,5.27-2.21,4.67l-17.15-4.19c-2.51-.61-4.06,2.94-2.1,4.79l27.57,25.9c1.99,1.86.37,5.45-2.15,4.77Z"/><path class="cls-2" d="m350.76,918.29c-22.46-5.06-44.92-10.12-67.38-15.17-22.33,4.98-44.65,9.96-66.97,14.95-3.21.86-5.25-3.74-2.72-6.12l35.12-33.04c2.5-2.36.54-6.91-2.65-6.14l-21.8,5.28c-3.08.74-5.09-3.56-2.79-6l35.57-37.86c2.42-2.57.06-7.06-3.1-5.91l-16.72,6.09c-3.02,1.1-5.4-3-3.29-5.68l29.89-38.01c2.11-2.69-.28-6.8-3.31-5.67l-17.24,6.42c-2.98,1.11-5.39-2.88-3.37-5.6l24.06-32.45c2.06-2.78-.5-6.84-3.51-5.54l-11.49,4.98c-2.95,1.28-5.52-2.64-3.57-5.45l38.11-54.92.02-.03.14.21,38.22,55.01c1.95,2.82-.64,6.73-3.62,5.44l-11.55-5.02c-3.02-1.31-5.62,2.73-3.55,5.52l24.14,32.52c2.02,2.72-.41,6.7-3.41,5.58l-17.35-6.49c-3.04-1.14-5.47,2.97-3.35,5.66l29.98,38.08c2.11,2.69-.29,6.78-3.33,5.67l-16.83-6.15c-3.18-1.16-5.56,3.31-3.13,5.89l35.71,37.96c2.3,2.45.27,6.74-2.83,5.98l-21.94-5.36c-3.21-.78-5.2,3.77-2.69,6.13l35.27,33.15c2.54,2.39.47,6.98-2.76,6.11Z"/><polygon class="cls-18" points="283.76 692.2 283.76 692.61 283.62 692.4 283.76 692.2"/><polygon class="cls-14" points="283.62 692.4 283.59 692.44 283.59 692.37 283.62 692.4"/><path class="cls-2" d="m495.38,922c-25.67-5.78-51.34-11.56-77.01-17.34-25.52,5.69-51.03,11.39-76.55,17.08-3.66.98-6-4.28-3.11-7l40.14-37.77c2.86-2.69.61-7.9-3.03-7.02l-24.92,6.03c-3.52.85-5.82-4.07-3.19-6.85l40.66-43.28c2.76-2.94.07-8.07-3.54-6.75l-19.12,6.96c-3.45,1.26-6.17-3.43-3.76-6.49l34.16-43.44c2.42-3.07-.32-7.78-3.78-6.48l-19.7,7.34c-3.41,1.27-6.15-3.29-3.85-6.4l27.5-37.09c2.36-3.18-.58-7.82-4.01-6.34l-13.13,5.69c-3.38,1.46-6.31-3.02-4.08-6.23l43.56-62.77.03-.04.16.24,43.69,62.87c2.23,3.22-.74,7.69-4.13,6.21l-13.21-5.73c-3.45-1.5-6.42,3.12-4.06,6.31l27.59,37.16c2.31,3.11-.47,7.66-3.9,6.38l-19.83-7.41c-3.48-1.3-6.26,3.39-3.83,6.47l34.27,43.53c2.42,3.07-.33,7.74-3.8,6.47l-19.24-7.02c-3.64-1.33-6.36,3.78-3.58,6.73l40.82,43.39c2.63,2.8.31,7.7-3.24,6.84l-25.08-6.12c-3.66-.89-5.94,4.31-3.07,7l40.32,37.88c2.9,2.73.54,7.98-3.15,6.98Z"/><path class="cls-2" d="m989.4,853.05c-17.55-3.95-35.1-7.91-52.66-11.86-17.45,3.89-34.89,7.79-52.34,11.68-2.51.67-4.1-2.93-2.12-4.79l27.45-25.82c1.96-1.84.42-5.4-2.07-4.8l-17.04,4.13c-2.41.58-3.98-2.78-2.18-4.69l27.8-29.59c1.89-2.01.05-5.52-2.42-4.62l-13.07,4.76c-2.36.86-4.22-2.35-2.57-4.44l23.36-29.7c1.65-2.1-.22-5.32-2.59-4.43l-13.47,5.02c-2.33.87-4.21-2.25-2.63-4.38l18.8-25.36c1.61-2.17-.39-5.35-2.74-4.33l-8.98,3.89c-2.31,1-4.31-2.06-2.79-4.26l29.78-42.92.02-.03.11.16,29.87,42.99c1.53,2.2-.5,5.26-2.83,4.25l-9.03-3.92c-2.36-1.02-4.39,2.14-2.77,4.32l18.86,25.41c1.58,2.13-.32,5.24-2.67,4.36l-13.56-5.07c-2.38-.89-4.28,2.32-2.62,4.42l23.43,29.76c1.65,2.1-.23,5.3-2.6,4.43l-13.15-4.8c-2.49-.91-4.35,2.59-2.45,4.6l27.91,29.67c1.8,1.91.21,5.27-2.21,4.67l-17.15-4.19c-2.51-.61-4.06,2.94-2.1,4.79l27.57,25.9c1.99,1.86.37,5.45-2.15,4.77Z"/><path class="cls-2" d="m937.47,866.87c-22.46-5.06-44.92-10.12-67.38-15.17-22.33,4.98-44.65,9.96-66.97,14.95-3.21.86-5.25-3.74-2.72-6.12l35.12-33.04c2.5-2.36.54-6.91-2.65-6.14l-21.8,5.28c-3.08.74-5.09-3.56-2.79-6l35.57-37.86c2.42-2.57.06-7.06-3.1-5.91l-16.72,6.09c-3.02,1.1-5.4-3-3.29-5.68l29.89-38.01c2.11-2.69-.28-6.8-3.31-5.67l-17.24,6.42c-2.98,1.11-5.39-2.88-3.37-5.6l24.06-32.45c2.06-2.78-.5-6.84-3.51-5.54l-11.49,4.98c-2.95,1.28-5.52-2.64-3.57-5.45l38.11-54.92.02-.03.14.21,38.22,55.01c1.95,2.82-.64,6.73-3.62,5.44l-11.55-5.02c-3.02-1.31-5.62,2.73-3.55,5.52l24.14,32.52c2.02,2.72-.41,6.7-3.41,5.58l-17.35-6.49c-3.04-1.14-5.47,2.97-3.35,5.66l29.98,38.08c2.11,2.69-.29,6.78-3.33,5.67l-16.83-6.15c-3.18-1.16-5.56,3.31-3.13,5.89l35.71,37.96c2.3,2.45.27,6.74-2.83,5.98l-21.94-5.36c-3.21-.78-5.2,3.77-2.69,6.13l35.27,33.15c2.54,2.39.47,6.98-2.76,6.11Z"/><polygon class="cls-7" points="870.48 640.77 870.48 641.18 870.33 640.97 870.48 640.77"/><polygon class="cls-6" points="870.33 640.97 870.31 641.01 870.31 640.94 870.33 640.97"/><path class="cls-2" d="m1082.09,870.57c-25.67-5.78-51.34-11.56-77.01-17.34-25.52,5.69-51.03,11.39-76.55,17.08-3.66.98-6-4.28-3.11-7l40.14-37.77c2.86-2.69.61-7.9-3.03-7.02l-24.92,6.03c-3.52.85-5.82-4.07-3.19-6.85l40.66-43.28c2.76-2.94.07-8.07-3.54-6.75l-19.12,6.96c-3.45,1.26-6.17-3.43-3.76-6.49l34.16-43.44c2.42-3.07-.32-7.78-3.78-6.48l-19.7,7.34c-3.41,1.27-6.15-3.29-3.85-6.4l27.5-37.09c2.36-3.18-.58-7.82-4.01-6.34l-13.13,5.69c-3.38,1.46-6.31-3.02-4.08-6.23l43.56-62.77.03-.04.16.24,43.69,62.87c2.23,3.22-.74,7.69-4.13,6.21l-13.21-5.73c-3.45-1.5-6.42,3.12-4.06,6.31l27.59,37.16c2.31,3.11-.47,7.66-3.9,6.38l-19.83-7.41c-3.48-1.3-6.26,3.39-3.83,6.47l34.27,43.53c2.42,3.07-.33,7.74-3.8,6.47l-19.24-7.02c-3.64-1.33-6.36,3.78-3.58,6.73l40.82,43.39c2.63,2.8.31,7.7-3.24,6.84l-25.08-6.12c-3.66-.89-5.94,4.31-3.07,7l40.32,37.88c2.9,2.73.54,7.98-3.15,6.98Z"/><g id="Layer_9"><path class="cls-2" d="m152.6,923.36c-20.45-3.77-40.89-7.55-61.34-11.32-20.33,3.72-40.65,7.43-60.97,11.15-2.92.64-4.77-2.79-2.47-4.57l31.97-24.65c2.28-1.76.49-5.16-2.41-4.58l-19.84,3.94c-2.81.56-4.63-2.65-2.54-4.47l32.38-28.25c2.2-1.92.06-5.27-2.82-4.41l-15.22,4.55c-2.75.82-4.91-2.24-3-4.24l27.21-28.35c1.92-2-.26-5.07-3.01-4.23l-15.69,4.79c-2.71.83-4.9-2.15-3.07-4.18l21.9-24.21c1.88-2.08-.46-5.1-3.19-4.13l-10.46,3.71c-2.69.95-5.03-1.97-3.25-4.07l34.69-40.97.02-.03.13.15,34.8,41.04c1.78,2.1-.59,5.02-3.29,4.06l-10.52-3.74c-2.75-.98-5.12,2.04-3.23,4.12l21.97,24.26c1.84,2.03-.38,5-3.1,4.16l-15.79-4.84c-2.77-.85-4.98,2.21-3.05,4.22l27.3,28.41c1.92,2-.26,5.05-3.03,4.23l-15.32-4.58c-2.9-.87-5.06,2.47-2.85,4.39l32.51,28.32c2.1,1.83.25,5.03-2.58,4.46l-19.97-4c-2.92-.58-4.73,2.81-2.45,4.57l32.11,24.73c2.31,1.78.43,5.21-2.51,4.56Z"/><path class="cls-2" d="m87.27,951.01c-23.77-6.38-47.54-12.76-71.31-19.15-23.63,6.29-47.25,12.57-70.88,18.86-3.39,1.08-5.55-4.73-2.88-7.73l37.17-41.69c2.65-2.97.57-8.72-2.8-7.75l-23.07,6.66c-3.26.94-5.39-4.49-2.96-7.57l37.65-47.77c2.56-3.25.07-8.91-3.28-7.46l-17.7,7.69c-3.2,1.39-5.71-3.79-3.48-7.17l31.63-47.95c2.24-3.39-.3-8.58-3.5-7.16l-18.25,8.11c-3.15,1.4-5.7-3.64-3.57-7.07l25.46-40.95c2.18-3.51-.53-8.63-3.71-6.99l-12.16,6.28c-3.13,1.61-5.84-3.33-3.78-6.88l40.34-69.29.03-.04.15.26,40.45,69.41c2.07,3.55-.68,8.49-3.83,6.86l-12.23-6.33c-3.2-1.65-5.95,3.45-3.76,6.97l25.54,41.03c2.14,3.43-.44,8.45-3.61,7.04l-18.36-8.18c-3.22-1.44-5.79,3.74-3.54,7.14l31.73,48.05c2.24,3.39-.31,8.55-3.52,7.15l-17.81-7.75c-3.37-1.47-5.89,4.18-3.32,7.43l37.8,47.9c2.44,3.09.29,8.5-3,7.55l-23.22-6.76c-3.39-.99-5.5,4.75-2.84,7.73l37.33,41.82c2.69,3.01.5,8.8-2.92,7.71Z"/><path class="cls-2" d="m2358.63,815.96c-20.45-3.77-40.89-7.55-61.34-11.32-20.33,3.72-40.65,7.43-60.97,11.15-2.92.64-4.77-2.79-2.47-4.57l31.97-24.65c2.28-1.76.49-5.16-2.41-4.58l-19.84,3.94c-2.81.56-4.63-2.65-2.54-4.47l32.38-28.25c2.2-1.92.06-5.27-2.82-4.41l-15.22,4.55c-2.75.82-4.91-2.24-3-4.24l27.21-28.35c1.92-2-.26-5.07-3.01-4.23l-15.69,4.79c-2.71.83-4.9-2.15-3.07-4.18l21.9-24.21c1.88-2.08-.46-5.1-3.19-4.13l-10.46,3.71c-2.69.95-5.03-1.97-3.25-4.07l34.69-40.97.02-.03.13.15,34.8,41.04c1.78,2.1-.59,5.02-3.29,4.06l-10.52-3.74c-2.75-.98-5.12,2.04-3.23,4.12l21.97,24.26c1.84,2.03-.38,5-3.1,4.16l-15.79-4.84c-2.77-.85-4.98,2.21-3.05,4.22l27.3,28.41c1.92,2-.26,5.05-3.03,4.23l-15.32-4.58c-2.9-.87-5.06,2.47-2.85,4.39l32.51,28.32c2.1,1.83.25,5.03-2.58,4.46l-19.97-4c-2.92-.58-4.73,2.81-2.45,4.57l32.11,24.73c2.31,1.78.43,5.21-2.51,4.56Z"/><path class="cls-2" d="m2293.3,843.61c-23.77-6.38-47.54-12.76-71.31-19.15-23.63,6.29-47.25,12.57-70.88,18.86-3.39,1.08-5.55-4.73-2.88-7.73l37.17-41.69c2.65-2.97.57-8.72-2.8-7.75l-23.07,6.66c-3.26.94-5.39-4.49-2.96-7.57l37.65-47.77c2.56-3.25.07-8.91-3.28-7.46l-17.7,7.69c-3.2,1.39-5.71-3.79-3.48-7.17l31.63-47.95c2.24-3.39-.3-8.58-3.5-7.16l-18.25,8.11c-3.15,1.4-5.7-3.64-3.57-7.07l25.46-40.95c2.18-3.51-.53-8.63-3.71-6.99l-12.16,6.28c-3.13,1.61-5.84-3.33-3.78-6.88l40.34-69.29.03-.04.15.26,40.45,69.41c2.07,3.55-.68,8.49-3.83,6.86l-12.23-6.33c-3.2-1.65-5.95,3.45-3.76,6.97l25.54,41.03c2.14,3.43-.44,8.45-3.61,7.04l-18.36-8.18c-3.22-1.44-5.79,3.74-3.54,7.14l31.73,48.05c2.24,3.39-.31,8.55-3.52,7.15l-17.81-7.75c-3.37-1.47-5.89,4.18-3.32,7.43l37.8,47.9c2.44,3.09.29,8.5-3,7.55l-23.22-6.76c-3.39-.99-5.5,4.75-2.84,7.73l37.33,41.82c2.69,3.01.5,8.8-2.92,7.71Z"/><path class="cls-2" d="m837.69,870.88c-20.45-3.77-40.89-7.55-61.34-11.32-20.33,3.72-40.65,7.43-60.97,11.15-2.92.64-4.77-2.79-2.47-4.57l31.97-24.65c2.28-1.76.49-5.16-2.41-4.58l-19.84,3.94c-2.81.56-4.63-2.65-2.54-4.47l32.38-28.25c2.2-1.92.06-5.27-2.82-4.41l-15.22,4.55c-2.75.82-4.91-2.24-3-4.24l27.21-28.35c1.92-2-.26-5.07-3.01-4.23l-15.69,4.79c-2.71.83-4.9-2.15-3.07-4.18l21.9-24.21c1.88-2.08-.46-5.1-3.19-4.13l-10.46,3.71c-2.69.95-5.03-1.97-3.25-4.07l34.69-40.97.02-.03.13.15,34.8,41.04c1.78,2.1-.59,5.02-3.29,4.06l-10.52-3.74c-2.75-.98-5.12,2.04-3.23,4.12l21.97,24.26c1.84,2.03-.38,5-3.1,4.16l-15.79-4.84c-2.77-.85-4.98,2.21-3.05,4.22l27.3,28.41c1.92,2-.26,5.05-3.03,4.23l-15.32-4.58c-2.9-.87-5.06,2.47-2.85,4.39l32.51,28.32c2.1,1.83.25,5.03-2.58,4.46l-19.97-4c-2.92-.58-4.73,2.81-2.45,4.57l32.11,24.73c2.31,1.78.43,5.21-2.51,4.56Z"/><path class="cls-2" d="m772.36,898.53c-23.77-6.38-47.54-12.76-71.31-19.15-23.63,6.29-47.25,12.57-70.88,18.86-3.39,1.08-5.55-4.73-2.88-7.73l37.17-41.69c2.65-2.97.57-8.72-2.8-7.75l-23.07,6.66c-3.26.94-5.39-4.49-2.96-7.57l37.65-47.77c2.56-3.25.07-8.91-3.28-7.46l-17.7,7.69c-3.2,1.39-5.71-3.79-3.48-7.17l31.63-47.95c2.24-3.39-.3-8.58-3.5-7.16l-18.25,8.11c-3.15,1.4-5.7-3.64-3.57-7.07l25.46-40.95c2.18-3.51-.53-8.63-3.71-6.99l-12.16,6.28c-3.13,1.61-5.84-3.33-3.78-6.88l40.34-69.29.03-.04.15.26,40.45,69.41c2.07,3.55-.68,8.49-3.83,6.86l-12.23-6.33c-3.2-1.65-5.95,3.45-3.76,6.97l25.54,41.03c2.14,3.43-.44,8.45-3.61,7.04l-18.36-8.18c-3.22-1.44-5.79,3.74-3.54,7.14l31.73,48.05c2.24,3.39-.31,8.55-3.52,7.15l-17.81-7.75c-3.37-1.47-5.89,4.18-3.32,7.43l37.8,47.9c2.44,3.09.29,8.5-3,7.55l-23.22-6.76c-3.39-.99-5.5,4.75-2.84,7.73l37.33,41.82c2.69,3.01.5,8.8-2.92,7.71Z"/><path class="cls-2" d="m1449.74,832.96c-20.45-3.77-40.89-7.55-61.34-11.32-20.33,3.72-40.65,7.43-60.97,11.15-2.92.64-4.77-2.79-2.47-4.57l31.97-24.65c2.28-1.76.49-5.16-2.41-4.58l-19.84,3.94c-2.81.56-4.63-2.65-2.54-4.47l32.38-28.25c2.2-1.92.06-5.27-2.82-4.41l-15.22,4.55c-2.75.82-4.91-2.24-3-4.24l27.21-28.35c1.92-2-.26-5.07-3.01-4.23l-15.69,4.79c-2.71.83-4.9-2.15-3.07-4.18l21.9-24.21c1.88-2.08-.46-5.1-3.19-4.13l-10.46,3.71c-2.69.95-5.03-1.97-3.25-4.07l34.69-40.97.02-.03.13.15,34.8,41.04c1.78,2.1-.59,5.02-3.29,4.06l-10.52-3.74c-2.75-.98-5.12,2.04-3.23,4.12l21.97,24.26c1.84,2.03-.38,5-3.1,4.16l-15.79-4.84c-2.77-.85-4.98,2.21-3.05,4.22l27.3,28.41c1.92,2-.26,5.05-3.03,4.23l-15.32-4.58c-2.9-.87-5.06,2.47-2.85,4.39l32.51,28.32c2.1,1.83.25,5.03-2.58,4.46l-19.97-4c-2.92-.58-4.73,2.81-2.45,4.57l32.11,24.73c2.31,1.78.43,5.21-2.51,4.56Z"/><path class="cls-2" d="m1384.41,860.61c-23.77-6.38-47.54-12.76-71.31-19.15-23.63,6.29-47.25,12.57-70.88,18.86-3.39,1.08-5.55-4.73-2.88-7.73l37.17-41.69c2.65-2.97.57-8.72-2.8-7.75l-23.07,6.66c-3.26.94-5.39-4.49-2.96-7.57l37.65-47.77c2.56-3.25.07-8.91-3.28-7.46l-17.7,7.69c-3.2,1.39-5.71-3.79-3.48-7.17l31.63-47.95c2.24-3.39-.3-8.58-3.5-7.16l-18.25,8.11c-3.15,1.4-5.7-3.64-3.57-7.07l25.46-40.95c2.18-3.51-.53-8.63-3.71-6.99l-12.16,6.28c-3.13,1.61-5.84-3.33-3.78-6.88l40.34-69.29.03-.04.15.26,40.45,69.41c2.07,3.55-.68,8.49-3.83,6.86l-12.23-6.33c-3.2-1.65-5.95,3.45-3.76,6.97l25.54,41.03c2.14,3.43-.44,8.45-3.61,7.04l-18.36-8.18c-3.22-1.44-5.79,3.74-3.54,7.14l31.73,48.05c2.24,3.39-.31,8.55-3.52,7.15l-17.81-7.75c-3.37-1.47-5.89,4.18-3.32,7.43l37.8,47.9c2.44,3.09.29,8.5-3,7.55l-23.22-6.76c-3.39-.99-5.5,4.75-2.84,7.73l37.33,41.82c2.69,3.01.5,8.8-2.92,7.71Z"/></g><g id="Layer_10"><path class="cls-2" d="m2911.28,846.97c-19.22-4.06-38.44-8.13-57.66-12.19-19.11,4-38.21,8-57.32,12-2.74.69-4.49-3.01-2.33-4.92l30.06-26.54c2.14-1.89.46-5.55-2.27-4.93l-18.66,4.24c-2.64.6-4.35-2.86-2.39-4.82l30.44-30.41c2.07-2.07.06-5.67-2.65-4.75l-14.31,4.89c-2.59.88-4.62-2.41-2.82-4.56l25.58-30.53c1.81-2.16-.24-5.46-2.83-4.56l-14.75,5.16c-2.55.89-4.61-2.32-2.88-4.5l20.59-26.07c1.77-2.24-.43-5.49-3-4.45l-9.83,4c-2.53,1.03-4.73-2.12-3.06-4.38l32.62-44.11.02-.03.12.17,32.71,44.19c1.67,2.26-.55,5.4-3.09,4.37l-9.89-4.03c-2.59-1.05-4.81,2.2-3.04,4.44l20.65,26.12c1.73,2.19-.35,5.38-2.92,4.48l-14.84-5.21c-2.6-.91-4.68,2.38-2.87,4.54l25.66,30.59c1.81,2.16-.25,5.44-2.85,4.55l-14.4-4.94c-2.72-.94-4.76,2.66-2.68,4.73l30.56,30.49c1.97,1.97.23,5.41-2.43,4.8l-18.78-4.3c-2.74-.63-4.45,3.03-2.3,4.92l30.19,26.62c2.17,1.92.4,5.61-2.36,4.91Z"/><path class="cls-2" d="m3015.29,867.88c-27.35-5.78-54.7-11.56-82.05-17.34-27.19,5.69-54.37,11.39-81.56,17.08-3.9.98-6.39-4.28-3.31-7l42.77-37.77c3.05-2.69.65-7.9-3.23-7.02l-26.55,6.03c-3.75.85-6.2-4.07-3.4-6.85l43.32-43.28c2.94-2.94.08-8.07-3.77-6.75l-20.37,6.96c-3.68,1.26-6.57-3.43-4.01-6.49l36.39-43.44c2.57-3.07-.34-7.78-4.03-6.48l-20.99,7.34c-3.63,1.27-6.56-3.29-4.1-6.4l29.29-37.09c2.51-3.18-.61-7.82-4.27-6.34l-13.99,5.69c-3.6,1.46-6.72-3.02-4.35-6.23l46.41-62.77.03-.04.17.24,46.55,62.87c2.38,3.22-.78,7.69-4.4,6.21l-14.07-5.73c-3.68-1.5-6.84,3.12-4.32,6.31l29.39,37.17c2.46,3.11-.5,7.66-4.15,6.38l-21.12-7.41c-3.7-1.3-6.67,3.39-4.08,6.47l36.51,43.53c2.57,3.07-.35,7.74-4.05,6.47l-20.49-7.02c-3.87-1.33-6.77,3.78-3.82,6.73l43.49,43.39c2.8,2.8.33,7.7-3.45,6.84l-26.72-6.12c-3.9-.89-6.33,4.31-3.27,7l42.95,37.88c3.09,2.73.57,7.98-3.36,6.98Z"/><path class="cls-2" d="m2101.18,823.08c-19.55-3.93-39.11-7.87-58.66-11.8-19.44,3.87-38.87,7.75-58.31,11.62-2.79.67-4.57-2.91-2.37-4.76l30.58-25.7c2.18-1.83.47-5.38-2.31-4.78l-18.98,4.11c-2.68.58-4.43-2.77-2.43-4.66l30.97-29.45c2.1-2,.06-5.49-2.7-4.6l-14.56,4.74c-2.63.86-4.7-2.34-2.87-4.42l26.02-29.56c1.84-2.09-.25-5.29-2.88-4.41l-15.01,5c-2.6.86-4.69-2.24-2.93-4.36l20.94-25.24c1.8-2.16-.44-5.32-3.06-4.31l-10,3.87c-2.57.99-4.81-2.05-3.11-4.24l33.18-42.71.02-.03.12.16,33.28,42.78c1.7,2.19-.56,5.23-3.15,4.23l-10.06-3.9c-2.63-1.02-4.89,2.13-3.09,4.3l21.01,25.29c1.76,2.12-.36,5.21-2.97,4.34l-15.1-5.04c-2.65-.88-4.77,2.31-2.92,4.4l26.1,29.62c1.84,2.09-.25,5.27-2.9,4.41l-14.65-4.78c-2.77-.91-4.84,2.57-2.73,4.58l31.09,29.53c2,1.9.24,5.24-2.47,4.65l-19.1-4.17c-2.79-.61-4.53,2.93-2.34,4.77l30.71,25.78c2.21,1.86.41,5.43-2.4,4.75Z"/><path class="cls-2" d="m2206.98,843.33c-27.82-5.6-55.64-11.2-83.47-16.79-27.66,5.51-55.31,11.03-82.96,16.54-3.97.95-6.5-4.14-3.37-6.78l43.51-36.57c3.1-2.61.66-7.65-3.28-6.8l-27,5.84c-3.82.82-6.3-3.94-3.46-6.64l44.06-41.9c3-2.85.08-7.81-3.84-6.54l-20.72,6.74c-3.74,1.22-6.69-3.32-4.08-6.29l37.02-42.06c2.62-2.97-.35-7.53-4.1-6.28l-21.36,7.11c-3.69,1.23-6.67-3.19-4.17-6.2l29.8-35.91c2.56-3.08-.63-7.57-4.35-6.13l-14.23,5.51c-3.66,1.42-6.84-2.92-4.42-6.03l47.21-60.78.03-.04.18.23,47.35,60.88c2.42,3.12-.8,7.44-4.48,6.02l-14.31-5.55c-3.74-1.45-6.96,3.02-4.4,6.11l29.9,35.99c2.5,3.01-.51,7.41-4.22,6.18l-21.49-7.18c-3.77-1.26-6.78,3.28-4.15,6.26l37.14,42.15c2.62,2.97-.36,7.5-4.12,6.27l-20.85-6.8c-3.94-1.29-6.89,3.66-3.88,6.52l44.24,42.01c2.85,2.71.34,7.46-3.51,6.62l-27.18-5.93c-3.97-.87-6.44,4.17-3.33,6.78l43.7,36.68c3.15,2.64.58,7.72-3.41,6.76Z"/><path class="cls-2" d="m1725.34,822.71c-19.55-3.93-39.11-7.87-58.66-11.8-19.44,3.87-38.87,7.75-58.31,11.62-2.79.67-4.57-2.91-2.37-4.76l30.58-25.7c2.18-1.83.47-5.38-2.31-4.78l-18.98,4.11c-2.68.58-4.43-2.77-2.43-4.66l30.97-29.45c2.1-2,.06-5.49-2.7-4.6l-14.56,4.74c-2.63.86-4.7-2.34-2.87-4.42l26.02-29.56c1.84-2.09-.25-5.29-2.88-4.41l-15.01,5c-2.6.86-4.69-2.24-2.93-4.36l20.94-25.24c1.8-2.16-.44-5.32-3.06-4.31l-10,3.87c-2.57.99-4.81-2.05-3.11-4.24l33.18-42.71.02-.03.12.16,33.28,42.78c1.7,2.19-.56,5.23-3.15,4.23l-10.06-3.9c-2.63-1.02-4.89,2.13-3.09,4.3l21.01,25.29c1.76,2.12-.36,5.21-2.97,4.34l-15.1-5.04c-2.65-.88-4.77,2.31-2.92,4.4l26.1,29.62c1.84,2.09-.25,5.27-2.9,4.41l-14.65-4.78c-2.77-.91-4.84,2.57-2.73,4.58l31.09,29.53c2,1.9.24,5.24-2.47,4.65l-19.1-4.17c-2.79-.61-4.53,2.93-2.34,4.77l30.71,25.78c2.21,1.86.41,5.43-2.4,4.75Z"/><path class="cls-2" d="m1831.15,842.95c-27.82-5.6-55.64-11.2-83.47-16.79-27.66,5.51-55.31,11.03-82.96,16.54-3.97.95-6.5-4.14-3.37-6.78l43.51-36.57c3.1-2.61.66-7.65-3.28-6.8l-27,5.84c-3.82.82-6.3-3.94-3.46-6.64l44.06-41.9c3-2.85.08-7.81-3.84-6.54l-20.72,6.74c-3.74,1.22-6.69-3.32-4.08-6.29l37.02-42.06c2.62-2.97-.35-7.53-4.1-6.28l-21.36,7.11c-3.69,1.23-6.67-3.19-4.17-6.2l29.8-35.91c2.56-3.08-.63-7.57-4.35-6.13l-14.23,5.51c-3.66,1.42-6.84-2.92-4.42-6.03l47.21-60.78.03-.04.18.23,47.35,60.88c2.42,3.12-.8,7.44-4.48,6.02l-14.31-5.55c-3.74-1.45-6.96,3.02-4.4,6.11l29.9,35.99c2.5,3.01-.51,7.41-4.22,6.18l-21.49-7.18c-3.77-1.26-6.78,3.28-4.15,6.26l37.14,42.15c2.62,2.97-.36,7.5-4.12,6.27l-20.85-6.8c-3.94-1.29-6.89,3.66-3.88,6.52l44.24,42.01c2.85,2.71.34,7.46-3.51,6.62l-27.18-5.93c-3.97-.87-6.44,4.17-3.33,6.78l43.7,36.68c3.15,2.64.58,7.72-3.41,6.76Z"/></g></g><g id="Layer_4"><path class="cls-11" d="m0,918.23s1966.61-209.07,2954.05-87.4v830.83H0v-743.43Z"/></g><g id="Layer_2"><path class="cls-9" d="m-1.22,1118.01s1179.5-67.12,2954.5,176.88l-.45,367.16H-1.22v-544.04Z"/></g><g id="Layer_1"><path class="cls-12" d="m-2.47,1484.59s1705.08-160.91,2956.53,0v177.06H0l-2.47-177.06Z"/></g></svg>