<?xml version="1.0" encoding="UTF-8"?><svg id="Layer_1" xmlns="http://www.w3.org/2000/svg" width="35mm" height="65mm" xmlns:xlink="http://www.w3.org/1999/xlink" viewBox="0 0 99.21 184.25"><defs><style>.cls-1{stroke:#231f20;stroke-miterlimit:10;stroke-width:3px;}.cls-1,.cls-2{fill:none;}.cls-3{fill:#a09f9f;}.cls-4{clip-path:url(#clippath-1);}.cls-5{fill:#724d1e;}.cls-6{clip-path:url(#clippath);}</style><clipPath id="clippath"><rect class="cls-2" x="5.46" y="6" width="88.29" height="172.26"/></clipPath><clipPath id="clippath-1"><rect class="cls-2" x="5.46" y="6" width="88.29" height="172.26"/></clipPath></defs><g id="big_axe"><g class="cls-6"><polygon class="cls-5" points="70.81 174.81 78.85 172.11 28.2 18.85 20.17 21.56 70.81 174.81"/><g class="cls-4"><polygon class="cls-1" points="70.81 174.81 78.85 172.11 28.2 18.85 20.17 21.56 70.81 174.81"/><path class="cls-5" d="m71.27,176.17c.04.11.12.21.24.3.63.44,2.37.36,4.24-.27,1.87-.63,3.29-1.62,3.53-2.35.04-.15.04-.27,0-.38-.25-.74-2.24-.76-4.46-.02-2.21.75-3.8,1.97-3.55,2.71"/><path class="cls-1" d="m71.27,176.17c.04.11.12.21.24.3.63.44,2.37.36,4.24-.27,1.87-.63,3.29-1.62,3.53-2.35.04-.15.04-.27,0-.38-.25-.74-2.24-.76-4.46-.02-2.21.75-3.8,1.97-3.55,2.71Z"/><path class="cls-5" d="m19.66,20.01c.29.85,2.31.94,4.53.2,2.21-.75,3.77-2.04,3.49-2.9-.29-.85-2.31-.94-4.53-.2-2.21.75-3.77,2.04-3.49,2.9"/><path class="cls-1" d="m19.66,20.01c.29.85,2.31.94,4.53.2,2.21-.75,3.77-2.04,3.49-2.9-.29-.85-2.31-.94-4.53-.2-2.21.75-3.77,2.04-3.49,2.9Z"/><path class="cls-3" d="m32.68,32.15c27.77-6.68,44.37-23.82,44.37-23.82,0,0,11.99,16.63,14.98,44.47,0,0-23.28-6.44-50.78,4.79l-8.57-25.44Z"/><path class="cls-1" d="m32.68,32.15c27.77-6.68,44.37-23.82,44.37-23.82,0,0,11.99,16.63,14.98,44.47,0,0-23.28-6.44-50.78,4.79l-8.57-25.44Z"/><path class="cls-3" d="m17.95,69.06c2.73-2.04,6-4.14,9.84-6.05,1.6-.79,3.16-1.48,4.66-2.08-2.91-8.64-5.82-17.28-8.73-25.92-1.7.6-3.58,1.16-5.61,1.63-3.92.92-7.51,1.32-10.59,1.44l10.43,30.97Z"/><path class="cls-1" d="m17.95,69.06c2.73-2.04,6-4.14,9.84-6.05,1.6-.79,3.16-1.48,4.66-2.08-2.91-8.64-5.82-17.28-8.73-25.92-1.7.6-3.58,1.16-5.61,1.63-3.92.92-7.51,1.32-10.59,1.44l10.43,30.97Z"/></g></g></g></svg>