<?xml version="1.0" encoding="UTF-8"?><svg id="Layer_1" xmlns="http://www.w3.org/2000/svg" width="530mm" height="465mm" xmlns:xlink="http://www.w3.org/1999/xlink" viewBox="0 0 1502.36 1318.11"><defs><style>.cls-1{fill:#2f8b43;}.cls-2{clip-path:url(#clippath-11);}.cls-3{fill:#fff;}.cls-4{fill:#9f9f9f;}.cls-5{clip-path:url(#clippath-2);}.cls-6{clip-path:url(#clippath-13);}.cls-7,.cls-8,.cls-9,.cls-10,.cls-11,.cls-12,.cls-13,.cls-14,.cls-15,.cls-16{fill:none;}.cls-7,.cls-8,.cls-9,.cls-10,.cls-11,.cls-12,.cls-14,.cls-15,.cls-16{stroke-miterlimit:10;}.cls-7,.cls-8,.cls-10{stroke:#231f20;}.cls-7,.cls-9,.cls-11,.cls-14,.cls-15{stroke-width:3px;}.cls-17{clip-path:url(#clippath-6);}.cls-18{fill:#fddcd1;}.cls-8{stroke-width:8px;}.cls-19{clip-path:url(#clippath-7);}.cls-20{clip-path:url(#clippath-1);}.cls-21{clip-path:url(#clippath-4);}.cls-9{stroke:#000;}.cls-22{fill:#fddbcf;}.cls-10{stroke-width:.16px;}.cls-23{fill:#4d5da8;}.cls-24{clip-path:url(#clippath-12);}.cls-11{stroke:#233323;}.cls-25{clip-path:url(#clippath-9);}.cls-26{fill:#f68b22;}.cls-27{clip-path:url(#clippath);}.cls-12{stroke:#9f9c36;}.cls-14{stroke:#3f174c;}.cls-28{clip-path:url(#clippath-3);}.cls-29{fill:#bdb231;}.cls-30{clip-path:url(#clippath-8);}.cls-31{fill:#f6cde1;}.cls-32{fill:#724e1f;}.cls-33{clip-path:url(#clippath-5);}.cls-15{stroke:#233324;}.cls-34{fill:#2f8b40;}.cls-35{clip-path:url(#clippath-10);}.cls-36{fill:#231f20;}.cls-16{stroke:#191b47;stroke-width:2px;}.cls-37{fill:#a31e22;}</style><clipPath id="clippath"><rect class="cls-13" x="2.96" y="1.04" width="1496.45" height="1316.03"/></clipPath><clipPath id="clippath-1"><rect class="cls-13" x="2.96" y="1.04" width="1496.45" height="1316.03"/></clipPath><clipPath id="clippath-2"><rect class="cls-13" x="931.12" y="549.66" width="1.41" height="1.14" transform="translate(363.82 1471.32) rotate(-88.9)"/></clipPath><clipPath id="clippath-3"><rect class="cls-13" x="94.95" y="687.79" width="52.27" height="67.62" transform="translate(-233.08 81.34) rotate(-19.42)"/></clipPath><clipPath id="clippath-4"><rect class="cls-13" x="140.5" y="656.19" width="312.37" height="232.56" transform="translate(-332.24 234.71) rotate(-28.46)"/></clipPath><clipPath id="clippath-5"><rect class="cls-13" x="836.19" y="740.27" width="69.29" height="56.44" transform="translate(-159.46 1304.6) rotate(-68.92)"/></clipPath><clipPath id="clippath-6"><rect class="cls-13" x="595.12" y="642.48" width="192.32" height="338.1" transform="translate(-314.24 1165.62) rotate(-68.97)"/></clipPath><clipPath id="clippath-7"><rect class="cls-13" x="2.96" y="1.04" width="1496.45" height="1316.03"/></clipPath><clipPath id="clippath-8"><rect class="cls-13" x="233.48" y="342.16" width="522.78" height="442.32" transform="translate(-78.12 1046.97) rotate(-88.87)"/></clipPath><clipPath id="clippath-9"><rect class="cls-13" x="2.96" y="1.04" width="1496.45" height="1316.03"/></clipPath><clipPath id="clippath-10"><rect class="cls-13" x="453.82" y="449.52" width="79.87" height="340.37" transform="translate(-135.59 1101.12) rotate(-88.87)"/></clipPath><clipPath id="clippath-11"><rect class="cls-13" x="428.44" y="487.77" width="132.48" height="170.23" transform="translate(-87.86 1056.14) rotate(-88.87)"/></clipPath><clipPath id="clippath-12"><rect class="cls-13" x="445.01" y="618.07" width="82.04" height="41.78" transform="translate(-162.4 1112.28) rotate(-88.87)"/></clipPath><clipPath id="clippath-13"><rect class="cls-13" x="2.96" y="1.04" width="1496.45" height="1316.03"/></clipPath></defs><g id="scotish_boss_middel"><g class="cls-27"><g class="cls-20"><path class="cls-1" d="m617.55,973.1c-2.29,115.72-62.67,208.38-134.86,206.95-72.2-1.43-128.87-96.39-126.58-212.12,2.29-115.72,62.67-208.38,134.86-206.95,72.2,1.43,128.87,96.39,126.59,212.11"/><ellipse class="cls-7" cx="486.82" cy="970.52" rx="209.57" ry="130.75" transform="translate(-493.12 1438.07) rotate(-88.87)"/></g><g class="cls-5"><path class="cls-18" d="m932.05,550.83s.57-1.01.05-1.2c-.52-.18-.76.81-.76.81l.71.39Z"/><path class="cls-10" d="m932.05,550.83s.57-1.01.05-1.2c-.52-.18-.76.81-.76.81l.71.39Z"/></g><g class="cls-28"><path class="cls-18" d="m115.51,754.09s-35.21-45.12-11.48-57.84c23.73-12.72,43.28,33.68,43.28,33.68l-31.79,24.16Z"/><path class="cls-8" d="m115.51,754.09s-35.21-45.12-11.48-57.84c23.73-12.72,43.28,33.68,43.28,33.68l-31.79,24.16Z"/></g><g class="cls-21"><path class="cls-34" d="m441.23,759.71s-33.16,112.53-127.69,119.56c-94.53,7.04-195.52-117.14-195.52-117.14,0,0-10.45-22.22,30-34.93,0,0,74.72,92.19,155.93,106.65,81.21,14.47,137.29-74.15,137.29-74.15"/><path class="cls-8" d="m441.23,759.71s-33.16,112.53-127.69,119.56c-94.53,7.04-195.52-117.14-195.52-117.14,0,0-10.45-22.22,30-34.93,0,0,74.72,92.19,155.93,106.65,81.21,14.47,137.29-74.15,137.29-74.15Z"/></g><g class="cls-33"><path class="cls-18" d="m871.36,800.07s43.27-37.45,22.45-54.52c-20.82-17.07-48.97,24.67-48.97,24.67l26.52,29.85Z"/><path class="cls-8" d="m871.36,800.07s43.27-37.45,22.45-54.52c-20.82-17.07-48.97,24.67-48.97,24.67l26.52,29.85Z"/></g><g class="cls-17"><path class="cls-34" d="m549.28,757.49s14.96,116.36,107.19,138.24c92.23,21.89,211.58-84.76,211.58-84.76,0,0,13.83-20.3-24.1-39.23,0,0-88.35,79.22-170.83,80.67-82.48,1.45-123.84-94.92-123.84-94.92"/><path class="cls-8" d="m549.28,757.49s14.96,116.36,107.19,138.24c92.23,21.89,211.58-84.76,211.58-84.76,0,0,13.83-20.3-24.1-39.23,0,0-88.35,79.22-170.83,80.67-82.48,1.45-123.84-94.92-123.84-94.92Z"/></g><g class="cls-19"><path class="cls-26" d="m720.74,525.07c-2.36.39-4.06,2.41-4.06,4.8,0,1.87-.02,3.75-.06,5.63-.46,23.28-3.3,45.86-8.24,67.33-.45,1.95.31,4,1.98,5.09,9.77,6.42,21.04,11.17,29.53,14.24,4.48,1.62,4.24,8.14-.39,9.25-12.28,2.96-25.14,2.29-35.17.8-2.32-.34-4.51,1.01-5.28,3.22-4.33,12.5-9.39,24.52-15.14,36-1.12,2.25-.39,4.97,1.74,6.31,9.22,5.84,20.58,9.84,29.2,12.31,4.49,1.28,4.73,7.54.37,9.21-21.64,8.31-37.96,4.28-47.24.01-1.08-.53-2.09-1.03-2.98-1.5.29,1.42.69,2.81,1.2,4.21,4.7,13.01,18.41,25.39,28.32,33.02,3.71,2.85,1.64,8.77-3.04,8.71-19.68-.22-32.33-7.64-39.76-14.33-2.03-1.82-5.11-1.61-6.91.43-5.85,6.64-12,12.9-18.42,18.74-1.96,1.78-2.16,4.78-.44,6.8,8.35,9.77,17.01,18.11,23.45,23.9,3.47,3.12.98,8.91-3.67,8.47-17.99-1.7-35.05-8.89-48.67-16.52-.32-.17-.63-.36-.95-.53.1.29.2.62.33.94,2.7,7.58,7.77,15.12,12.27,20.86,2.92,3.72-.73,9.01-5.26,7.62-11.29-3.46-18.31-9.66-22.52-15.15-1.4-1.82-3.88-2.35-5.94-1.35-26.28,12.72-54.95,19.45-84.85,18.85-43.29-.85-83.37-16.91-116.95-43.99-1.76-1.42-4.26-1.49-6.03-.08-5.57,4.44-14.62,9.24-27.76,9.23-4.77,0-6.79-6.11-2.87-8.83,6.16-4.27,13.47-10.17,18.31-16.83.27-.39.58-.79.85-1.21-.56.12-1.12.24-1.69.37-14.07,2.97-31.55,4.76-45.69.23-4.4-1.41-4.63-7.52-.32-9.17,5.8-2.22,13.56-5.39,22.14-9.45,2.8-1.32,3.63-4.88,1.77-7.36-4.37-5.84-8.53-11.92-12.46-18.22-1.22-1.95-3.6-2.81-5.75-2.02-14.26,5.21-34.09,10.41-50.56,7.11-4.53-.91-5.47-6.97-1.36-9.09,7.35-3.79,17.95-9.64,29.19-17.09,3.45-2.28,2.65-7.55-1.32-8.71-4.96-1.45-10.3-3.74-15.9-7.23-3.98-2.48-2.56-8.62,2.12-8.98,4.14-.32,8.88-.86,13.71-1.76,2.94-.55,4.63-3.65,3.61-6.46-4.09-11.27-7.56-22.95-10.36-34.97-.58-2.51-2.99-4.15-5.53-3.71-5.84,1.01-13.03.97-21.29-1.57-4.58-1.41-4.73-7.84-.17-9.28,6.11-1.94,13.38-4.77,19.47-8.64,1.63-1.04,2.52-2.9,2.26-4.81-1.49-10.6-2.49-21.43-2.94-32.42-.12-2.95-2.77-5.14-5.68-4.61-9.94,1.83-22.07,2.82-33.14.23-4.55-1.07-4.94-7.43-.6-9.18,6.22-2.5,14.24-6.07,22.38-10.62-1.28-5.31-1.17-4.87-2.45-10.18-4.52-.3-9.47-1.18-14.84-2.88-4.46-1.42-4.44-7.74,0-9.22,4.29-1.43,9.18-3.28,13.96-5.6,3.95-1.91,3.44-7.69-.75-8.99-13.07-4.04-27.69-10.42-37.26-20.22-3.2-3.27-.48-8.76,4.07-8.2,13.14,1.6,36.08,3.52,58.98,1.29,2.05-.2,3.73-1.72,4.21-3.72,1.68-6.98,3.59-13.85,5.73-20.58.89-2.81-.82-5.81-3.72-6.32-18.7-3.32-43.33-13.22-62.3-40.59-2.57-3.72.79-8.64,5.17-7.52,11.31,2.89,29.38,6.79,48.22,8.02,4.75.31,7.08-5.66,3.37-8.63-20.23-16.23-42.81-39.29-53.93-67.56-1.64-4.17,2.89-8.12,6.83-5.99,19.35,10.43,61.76,31.15,101.81,36.22,1.67.21,3.32-.49,4.37-1.8,41.3-51.11,98.8-82.34,161.82-81.09,37.89.75,73.35,13.16,104.12,34.41,1.47,1.02,3.39,1.19,4.97.35,16.95-9,32.82-24.58,42.36-35.03,3.2-3.5,9.06-.8,8.4,3.9-1.95,13.84-6.94,26.85-12.55,37.85-1.9,3.73,1.6,7.97,5.64,6.85,49.84-13.84,96.53-39.55,116.11-51.11,3.75-2.21,8.33,1.25,7.17,5.44-10.49,37.91-40.44,70.15-67.44,92.72-4.13,3.46-.47,10.11,4.63,8.37,17.06-5.82,32.88-13.88,43.16-19.62,4.02-2.25,8.63,1.9,6.83,6.14-17.73,41.75-42.15,61.49-61.38,70.81-2.2,1.07-3.22,3.58-2.45,5.9,2.5,7.49,4.72,15.15,6.67,22.97.48,1.92,2.06,3.35,4.02,3.66,18.7,2.97,42.76-4.13,57.37-9.5,4.39-1.61,8.29,3.3,5.75,7.23-10.45,16.13-21.6,26.42-31.92,32.98-3.89,2.47-2.42,8.47,2.16,8.92,11.33,1.1,21.87,1.21,29.62,1.04,4.62-.1,6.78,5.76,3.15,8.62-17.36,13.71-40.29,19.75-56.5,22.39"/><path class="cls-7" d="m720.74,525.07c-2.36.39-4.06,2.41-4.06,4.8,0,1.87-.02,3.75-.06,5.63-.46,23.28-3.3,45.86-8.24,67.33-.45,1.95.31,4,1.98,5.09,9.77,6.42,21.04,11.17,29.53,14.24,4.48,1.62,4.24,8.14-.39,9.25-12.28,2.96-25.14,2.29-35.17.8-2.32-.34-4.51,1.01-5.28,3.22-4.33,12.5-9.39,24.52-15.14,36-1.12,2.25-.39,4.97,1.74,6.31,9.22,5.84,20.58,9.84,29.2,12.31,4.49,1.28,4.73,7.54.37,9.21-21.64,8.31-37.96,4.28-47.24.01-1.08-.53-2.09-1.03-2.98-1.5.29,1.42.69,2.81,1.2,4.21,4.7,13.01,18.41,25.39,28.32,33.02,3.71,2.85,1.64,8.77-3.04,8.71-19.68-.22-32.33-7.64-39.76-14.33-2.03-1.82-5.11-1.61-6.91.43-5.85,6.64-12,12.9-18.42,18.74-1.96,1.78-2.16,4.78-.44,6.8,8.35,9.77,17.01,18.11,23.45,23.9,3.47,3.12.98,8.91-3.67,8.47-17.99-1.7-35.05-8.89-48.67-16.52-.32-.17-.63-.36-.95-.53.1.29.2.62.33.94,2.7,7.58,7.77,15.12,12.27,20.86,2.92,3.72-.73,9.01-5.26,7.62-11.29-3.46-18.31-9.66-22.52-15.15-1.4-1.82-3.88-2.35-5.94-1.35-26.28,12.72-54.95,19.45-84.85,18.85-43.29-.85-83.37-16.91-116.95-43.99-1.76-1.42-4.26-1.49-6.03-.08-5.57,4.44-14.62,9.24-27.76,9.23-4.77,0-6.79-6.11-2.87-8.83,6.16-4.27,13.47-10.17,18.31-16.83.27-.39.58-.79.85-1.21-.56.12-1.12.24-1.69.37-14.07,2.97-31.55,4.76-45.69.23-4.4-1.41-4.63-7.52-.32-9.17,5.8-2.22,13.56-5.39,22.14-9.45,2.8-1.32,3.63-4.88,1.77-7.36-4.37-5.84-8.53-11.92-12.46-18.22-1.22-1.95-3.6-2.81-5.75-2.02-14.26,5.21-34.09,10.41-50.56,7.11-4.53-.91-5.47-6.97-1.36-9.09,7.35-3.79,17.95-9.64,29.19-17.09,3.45-2.28,2.65-7.55-1.32-8.71-4.96-1.45-10.3-3.74-15.9-7.23-3.98-2.48-2.56-8.62,2.12-8.98,4.14-.32,8.88-.86,13.71-1.76,2.94-.55,4.63-3.65,3.61-6.46-4.09-11.27-7.56-22.95-10.36-34.97-.58-2.51-2.99-4.15-5.53-3.71-5.84,1.01-13.03.97-21.29-1.57-4.58-1.41-4.73-7.84-.17-9.28,6.11-1.94,13.38-4.77,19.47-8.64,1.63-1.04,2.52-2.9,2.26-4.81-1.49-10.6-2.49-21.43-2.94-32.42-.12-2.95-2.77-5.14-5.68-4.61-9.94,1.83-22.07,2.82-33.14.23-4.55-1.07-4.94-7.43-.6-9.18,6.22-2.5,14.24-6.07,22.38-10.62-1.28-5.31-1.17-4.87-2.45-10.18-4.52-.3-9.47-1.18-14.84-2.88-4.46-1.42-4.44-7.74,0-9.22,4.29-1.43,9.18-3.28,13.96-5.6,3.95-1.91,3.44-7.69-.75-8.99-13.07-4.04-27.69-10.42-37.26-20.22-3.2-3.27-.48-8.76,4.07-8.2,13.14,1.6,36.08,3.52,58.98,1.29,2.05-.2,3.73-1.72,4.21-3.72,1.68-6.98,3.59-13.85,5.73-20.58.89-2.81-.82-5.81-3.72-6.32-18.7-3.32-43.33-13.22-62.3-40.59-2.57-3.72.79-8.64,5.17-7.52,11.31,2.89,29.38,6.79,48.22,8.02,4.75.31,7.08-5.66,3.37-8.63-20.23-16.23-42.81-39.29-53.93-67.56-1.64-4.17,2.89-8.12,6.83-5.99,19.35,10.43,61.76,31.15,101.81,36.22,1.67.21,3.32-.49,4.37-1.8,41.3-51.11,98.8-82.34,161.82-81.09,37.89.75,73.35,13.16,104.12,34.41,1.47,1.02,3.39,1.19,4.97.35,16.95-9,32.82-24.58,42.36-35.03,3.2-3.5,9.06-.8,8.4,3.9-1.95,13.84-6.94,26.85-12.55,37.85-1.9,3.73,1.6,7.97,5.64,6.85,49.84-13.84,96.53-39.55,116.11-51.11,3.75-2.21,8.33,1.25,7.17,5.44-10.49,37.91-40.44,70.15-67.44,92.72-4.13,3.46-.47,10.11,4.63,8.37,17.06-5.82,32.88-13.88,43.16-19.62,4.02-2.25,8.63,1.9,6.83,6.14-17.73,41.75-42.15,61.49-61.38,70.81-2.2,1.07-3.22,3.58-2.45,5.9,2.5,7.49,4.72,15.15,6.67,22.97.48,1.92,2.06,3.35,4.02,3.66,18.7,2.97,42.76-4.13,57.37-9.5,4.39-1.61,8.29,3.3,5.75,7.23-10.45,16.13-21.6,26.42-31.92,32.98-3.89,2.47-2.42,8.47,2.16,8.92,11.33,1.1,21.87,1.21,29.62,1.04,4.62-.1,6.78,5.76,3.15,8.62-17.36,13.71-40.29,19.75-56.5,22.39Z"/><path class="cls-26" d="m355.69,740.77c-.28.42-.58.82-.85,1.21-.29-.27-.55-.57-.84-.84.56-.12,1.12-.24,1.69-.37"/><path class="cls-7" d="m355.69,740.77c-.28.42-.58.82-.85,1.21-.29-.27-.55-.57-.84-.84.56-.12,1.12-.24,1.69-.37Z"/><path class="cls-26" d="m597.07,771.23c-.19.16-.41.29-.62.42-.13-.32-.23-.65-.33-.94.32.17.63.36.95.53"/><path class="cls-7" d="m597.07,771.23c-.19.16-.41.29-.62.42-.13-.32-.23-.65-.33-.94.32.17.63.36.95.53Z"/><path class="cls-26" d="m668,699.28c-.58.92-1.18,1.82-1.79,2.71-.51-1.4-.9-2.79-1.2-4.21.9.47,1.9.97,2.98,1.5"/><path class="cls-7" d="m668,699.28c-.58.92-1.18,1.82-1.79,2.71-.51-1.4-.9-2.79-1.2-4.21.9.47,1.9.97,2.98,1.5Z"/></g><g class="cls-30"><path class="cls-18" d="m710.25,578.85c-5.18,33.8-18.92,59.72-30.67,57.91-2.66-.43-5-2.23-6.97-5.18-22.82,110.39-96.74,190.79-182.83,189.08-86.67-1.71-157.79-86.14-175.6-198.54-2.54,4.48-5.64,7.14-9.14,7.45-11.83.97-23.76-25.83-26.58-59.89-2.85-34.04,4.46-62.46,16.3-63.45,6.3-.52,12.61,6.81,17.55,18.88,14.61-125.52,93.93-220.98,187.64-219.13,93.98,1.86,169.63,100.91,178.92,227.44,5.93-12.53,13.01-19.99,19.5-18.98,11.73,1.78,17.05,30.64,11.88,64.4"/><path class="cls-8" d="m710.25,578.85c-5.18,33.8-18.92,59.72-30.67,57.91-2.66-.43-5-2.23-6.97-5.18-22.82,110.39-96.74,190.79-182.83,189.08-86.67-1.71-157.79-86.14-175.6-198.54-2.54,4.48-5.64,7.14-9.14,7.45-11.83.97-23.76-25.83-26.58-59.89-2.85-34.04,4.46-62.46,16.3-63.45,6.3-.52,12.61,6.81,17.55,18.88,14.61-125.52,93.93-220.98,187.64-219.13,93.98,1.86,169.63,100.91,178.92,227.44,5.93-12.53,13.01-19.99,19.5-18.98,11.73,1.78,17.05,30.64,11.88,64.4Z"/></g><g class="cls-25"><path class="cls-26" d="m667.12,550.42c-4.5-15.63-10.05-30.87-16.17-45.93-1.6-3.93-7.46-3.06-7.77,1.17-.46,6.27-1.4,12.45-2.93,18.65-.85,3.44-5.34,4.24-7.3,1.3-31.72-47.61-68.77-93.1-110.48-132.22-2.81-2.63-7.37-.25-6.77,3.55,4.09,26.23,4.53,51.19-6.65,75.43-1.54,3.34-6.39,3.1-7.53-.4-10.58-32.65-25.13-63.22-42.82-92.66-1.41-2.35-4.74-2.64-6.54-.56-28.21,32.68-54.49,68.29-73.01,107.48-1.53,3.24-6.26,2.99-7.45-.38-2.09-5.93-3.46-11.87-4.27-18.03-.51-3.89-5.73-4.79-7.58-1.32-13.64,25.66-25.79,52.06-36.35,79.16-1.31,3.37-5.98,3.46-7.47.17-22.57-49.72-1.62-109.78,20.06-157.02.33-.07.67-.15,1-.22,7.23-26.76,36.95-41.95,60-53.44.86-.43,2.58-1.08,3.8-1.62.52-.23.97-.58,1.35-1.01,23.26-26.82,63.85-28.09,98.42-27.93,28.5.13,64.78,4.59,90.02,21.98.03.02.05-.02.09,0,13.57,8.71,19.59,16.66,32.59,28.45,20.39,18.51,45.95,39.99,50.1,70.28.45.16.58.08.9.15,13.17,42.79,18.15,84.87.33,125.48-1.52,3.46-6.54,3.15-7.59-.49"/><path class="cls-7" d="m667.12,550.42c-4.5-15.63-10.05-30.87-16.17-45.93-1.6-3.93-7.46-3.06-7.77,1.17-.46,6.27-1.4,12.45-2.93,18.65-.85,3.44-5.34,4.24-7.3,1.3-31.72-47.61-68.77-93.1-110.48-132.22-2.81-2.63-7.37-.25-6.77,3.55,4.09,26.23,4.53,51.19-6.65,75.43-1.54,3.34-6.39,3.1-7.53-.4-10.58-32.65-25.13-63.22-42.82-92.66-1.41-2.35-4.74-2.64-6.54-.56-28.21,32.68-54.49,68.29-73.01,107.48-1.53,3.24-6.26,2.99-7.45-.38-2.09-5.93-3.46-11.87-4.27-18.03-.51-3.89-5.73-4.79-7.58-1.32-13.64,25.66-25.79,52.06-36.35,79.16-1.31,3.37-5.98,3.46-7.47.17-22.57-49.72-1.62-109.78,20.06-157.02.33-.07.67-.15,1-.22,7.23-26.76,36.95-41.95,60-53.44.86-.43,2.58-1.08,3.8-1.62.52-.23.97-.58,1.35-1.01,23.26-26.82,63.85-28.09,98.42-27.93,28.5.13,64.78,4.59,90.02,21.98.03.02.05-.02.09,0,13.57,8.71,19.59,16.66,32.59,28.45,20.39,18.51,45.95,39.99,50.1,70.28.45.16.58.08.9.15,13.17,42.79,18.15,84.87.33,125.48-1.52,3.46-6.54,3.15-7.59-.49Z"/><path class="cls-26" d="m637.47,757.43c-.45.37-.64.93-.53,1.5.55,2.9.8,5.84.74,8.81-.31,15.63-9.24,30.03-24.31,41.87-.71.56-.84,1.6-.26,2.29,6.07,7.21,12.67,13.23,16.37,16.42,1.09.94.44,2.75-1,2.81-12.81.54-23.4-5.27-30.8-11.26-2.57-2.05-4.75-4.12-6.5-5.97.43,2.73,1.14,5.54,2.02,8.31,3.57,11.37,9.99,22.41,13.29,27.67.77,1.22-.38,2.74-1.78,2.38-14.03-3.62-22.89-13.42-28.07-21.68-.39-.63-1.14-.89-1.84-.64-19.71,6.94-42.9,11.24-67.91,12.03-.62.02-1.17.39-1.41.97-2.79,6.79-7.07,14.15-13.68,21.09-1.01,1.06-2.8.37-2.78-1.1.07-4.22-.02-11.3-1.03-18.75.47-.74.91-1.5,1.32-2.21-.56-.01-1.12-.05-1.68-.06.12.75.24,1.52.36,2.27-4,6.18-10.79,13-22.04,19.9-1.27.78-2.84-.43-2.37-1.85,1.47-4.42,3.76-11.91,5.32-20.02.17-.91-.48-1.77-1.4-1.88-11.86-1.39-23.2-3.55-33.81-6.4-.75-.2-1.53.16-1.86.87-3.1,6.73-5.19,13.45-6.32,17.52-.39,1.41-2.32,1.58-2.98.29-4.28-8.32-6.23-16.41-6.92-23.49-.06-.6-.45-1.1-1.02-1.32-3.87-1.46-7.61-3.02-11.19-4.67-.48-.22-1.02-.18-1.47.1-6.52,4.07-14.89,7.23-25.03,7.02-1.44-.03-2.12-1.82-1.05-2.79,2.65-2.4,6.77-6.34,10.93-11.11.64-.74.45-1.88-.37-2.4-6.18-3.93-11.66-8.17-16.35-12.68-.36-.34-.83-.49-1.31-.41-9.47,1.6-21.87,1.69-32.39-4.98-1.22-.77-.84-2.66.58-2.92,4.34-.79,11.9-2.35,19.95-4.89.98-.31,1.39-1.44.88-2.33-4.27-7.5-6.48-15.46-6.32-23.66.06-2.95.42-5.83,1.08-8.66.16-.7-.14-1.43-.77-1.77-6.58-3.63-13.26-6.32-17.33-7.82-1.38-.51-1.37-2.46,0-3,10.79-4.26,19.18-5.68,25.67-5.46.52.02.99-.21,1.29-.63,1.07-1.47,2.23-2.91,3.48-4.33.57-.64.55-1.62-.07-2.22-6.92-6.67-14.19-12.32-18.45-15.47-1.23-.91-.58-2.85.94-2.88,15.09-.34,25.73,2.23,33.2,5.89.5.25,1.07.21,1.54-.1,12.11-8.1,27.33-14.82,44.68-19.63.68-.19,1.15-.78,1.15-1.49.05-5.77.79-12.52,2.5-20.44.31-1.43,2.22-1.76,2.95-.49,2.31,3.98,6.48,10.72,11.76,17.38.37.46.96.68,1.53.58,15.45-2.78,32.12-4.11,49.47-3.77,20.18.4,39.32,3.02,56.66,7.46.7.18,1.42-.13,1.77-.75,5.16-9.09,8.84-18.79,10.67-24.07.49-1.4,2.46-1.41,3.01-.03,4.31,10.83,5.54,21.27,5.34,30.16-.01.68.4,1.27,1.03,1.51,6.36,2.39,12.34,5.06,17.88,7.96.54.28,1.18.22,1.67-.15,6.3-4.75,16.57-8.75,33.27-9.58,1.48-.07,2.29,1.71,1.22,2.73-3.79,3.65-10.38,10.4-15.9,18.09-.49.69-.34,1.64.32,2.17,6.64,5.36,12.11,11.17,16.18,17.33.43.65,1.26.91,1.97.59,8.39-3.74,15.93-8.64,19.97-11.47,1.18-.83,2.77.25,2.47,1.66-2.55,12.11-9.45,20.51-16.17,26.03"/><path class="cls-7" d="m637.47,757.43c-.45.37-.64.93-.53,1.5.55,2.9.8,5.84.74,8.81-.31,15.63-9.24,30.03-24.31,41.87-.71.56-.84,1.6-.26,2.29,6.07,7.21,12.67,13.23,16.37,16.42,1.09.94.44,2.75-1,2.81-12.81.54-23.4-5.27-30.8-11.26-2.57-2.05-4.75-4.12-6.5-5.97.43,2.73,1.14,5.54,2.02,8.31,3.57,11.37,9.99,22.41,13.29,27.67.77,1.22-.38,2.74-1.78,2.38-14.03-3.62-22.89-13.42-28.07-21.68-.39-.63-1.14-.89-1.84-.64-19.71,6.94-42.9,11.24-67.91,12.03-.62.02-1.17.39-1.41.97-2.79,6.79-7.07,14.15-13.68,21.09-1.01,1.06-2.8.37-2.78-1.1.07-4.22-.02-11.3-1.03-18.75.47-.74.91-1.5,1.32-2.21-.56-.01-1.12-.05-1.68-.06.12.75.24,1.52.36,2.27-4,6.18-10.79,13-22.04,19.9-1.27.78-2.84-.43-2.37-1.85,1.47-4.42,3.76-11.91,5.32-20.02.17-.91-.48-1.77-1.4-1.88-11.86-1.39-23.2-3.55-33.81-6.4-.75-.2-1.53.16-1.86.87-3.1,6.73-5.19,13.45-6.32,17.52-.39,1.41-2.32,1.58-2.98.29-4.28-8.32-6.23-16.41-6.92-23.49-.06-.6-.45-1.1-1.02-1.32-3.87-1.46-7.61-3.02-11.19-4.67-.48-.22-1.02-.18-1.47.1-6.52,4.07-14.89,7.23-25.03,7.02-1.44-.03-2.12-1.82-1.05-2.79,2.65-2.4,6.77-6.34,10.93-11.11.64-.74.45-1.88-.37-2.4-6.18-3.93-11.66-8.17-16.35-12.68-.36-.34-.83-.49-1.31-.41-9.47,1.6-21.87,1.69-32.39-4.98-1.22-.77-.84-2.66.58-2.92,4.34-.79,11.9-2.35,19.95-4.89.98-.31,1.39-1.44.88-2.33-4.27-7.5-6.48-15.46-6.32-23.66.06-2.95.42-5.83,1.08-8.66.16-.7-.14-1.43-.77-1.77-6.58-3.63-13.26-6.32-17.33-7.82-1.38-.51-1.37-2.46,0-3,10.79-4.26,19.18-5.68,25.67-5.46.52.02.99-.21,1.29-.63,1.07-1.47,2.23-2.91,3.48-4.33.57-.64.55-1.62-.07-2.22-6.92-6.67-14.19-12.32-18.45-15.47-1.23-.91-.58-2.85.94-2.88,15.09-.34,25.73,2.23,33.2,5.89.5.25,1.07.21,1.54-.1,12.11-8.1,27.33-14.82,44.68-19.63.68-.19,1.15-.78,1.15-1.49.05-5.77.79-12.52,2.5-20.44.31-1.43,2.22-1.76,2.95-.49,2.31,3.98,6.48,10.72,11.76,17.38.37.46.96.68,1.53.58,15.45-2.78,32.12-4.11,49.47-3.77,20.18.4,39.32,3.02,56.66,7.46.7.18,1.42-.13,1.77-.75,5.16-9.09,8.84-18.79,10.67-24.07.49-1.4,2.46-1.41,3.01-.03,4.31,10.83,5.54,21.27,5.34,30.16-.01.68.4,1.27,1.03,1.51,6.36,2.39,12.34,5.06,17.88,7.96.54.28,1.18.22,1.67-.15,6.3-4.75,16.57-8.75,33.27-9.58,1.48-.07,2.29,1.71,1.22,2.73-3.79,3.65-10.38,10.4-15.9,18.09-.49.69-.34,1.64.32,2.17,6.64,5.36,12.11,11.17,16.18,17.33.43.65,1.26.91,1.97.59,8.39-3.74,15.93-8.64,19.97-11.47,1.18-.83,2.77.25,2.47,1.66-2.55,12.11-9.45,20.51-16.17,26.03Z"/><path class="cls-26" d="m596.63,820.43c-.84.45-1.69.9-2.55,1.34-.45.23-1.02-.01-1.16-.5-.75-2.46-1.36-4.95-1.73-7.38,1.53,1.62,3.39,3.41,5.55,5.2.44.37.4,1.07-.11,1.34"/><path class="cls-7" d="m596.63,820.43c-.84.45-1.69.9-2.55,1.34-.45.23-1.02-.01-1.16-.5-.75-2.46-1.36-4.95-1.73-7.38,1.53,1.62,3.39,3.41,5.55,5.2.44.37.4,1.07-.11,1.34Z"/><path class="cls-26" d="m489.34,841.96c-.41.71-.86,1.48-1.32,2.21-.12-.75-.24-1.52-.36-2.27.56.01,1.12.05,1.68.06"/><path class="cls-7" d="m489.34,841.96c-.41.71-.86,1.48-1.32,2.21-.12-.75-.24-1.52-.36-2.27.56.01,1.12.05,1.68.06Z"/><path class="cls-26" d="m489.34,841.96c-.41.71-.86,1.48-1.32,2.21-.12-.75-.24-1.52-.36-2.27.56.01,1.12.05,1.68.06"/><path class="cls-7" d="m489.34,841.96c-.41.71-.86,1.48-1.32,2.21-.12-.75-.24-1.52-.36-2.27.56.01,1.12.05,1.68.06Z"/><path class="cls-26" d="m732.5,660.92c-54.55,51.79-142.06,65.5-142.06,65.5l-.1-.43c-11.93,6.51-28.76,10.35-47.27,9.98-23.26-.46-43.57-7.45-54.8-17.61-11.66,9.71-32.18,15.89-55.41,15.44-18.4-.36-34.91-4.82-46.61-11.72l-.12.31s-84.68-26.55-131.34-85.87c0,0,86.24,33.63,138.17,34.19,11.3-4.73,25.68-7.41,41.29-7.1,23.23.46,43.49,7.45,54.76,17.61,11.62-9.71,32.19-15.9,55.45-15.43,12.71.25,24.47,2.47,34.39,6.06,47.79,13.19,153.65-10.92,153.65-10.92"/><path class="cls-7" d="m732.5,660.92c-54.55,51.79-142.06,65.5-142.06,65.5l-.1-.43c-11.93,6.51-28.76,10.35-47.27,9.98-23.26-.46-43.57-7.45-54.8-17.61-11.66,9.71-32.18,15.89-55.41,15.44-18.4-.36-34.91-4.82-46.61-11.72l-.12.31s-84.68-26.55-131.34-85.87c0,0,86.24,33.63,138.17,34.19,11.3-4.73,25.68-7.41,41.29-7.1,23.23.46,43.49,7.45,54.76,17.61,11.62-9.71,32.19-15.9,55.45-15.43,12.71.25,24.47,2.47,34.39,6.06,47.79,13.19,153.65-10.92,153.65-10.92Z"/><path class="cls-23" d="m638.38,163.42c.66,14.12-1.66,25.76-3.04,32.8-5.73,29.13-19.13,54.99-36.92,72.44h-.02c-12.11,11.88-26.25,19.89-41.4,22.35-2.15.35-4.27.57-6.39.7-119.62,49.1-200.81,18.56-200.81,18.56h.07c-19.36-6.93-33.27-27.1-36.32-52.84-.51-4.29-3.92-36.52,12.87-60.32,14.59-20.68,38.43-26.46,58.24-12.96,8.4,1.95,16.8,3.9,25.2,5.85,9.91-2.51,25.34-8.13,42.31-21.86,14.06-11.38,24.23-24.34,30.82-34.02,10.84-19.78,21.86-32.07,29.35-39.25,3.68-3.52,8.44-8.04,15.07-12.16,0,0,16.85-10.46,36.7-9.21,32.81,2.07,71.86,38.67,74.28,89.92"/><path class="cls-7" d="m638.38,163.42c.66,14.12-1.66,25.76-3.04,32.8-5.73,29.13-19.13,54.99-36.92,72.44h-.02c-12.11,11.88-26.25,19.89-41.4,22.35-2.15.35-4.27.57-6.39.7-119.62,49.1-200.81,18.56-200.81,18.56h.07c-19.36-6.93-33.27-27.1-36.32-52.84-.51-4.29-3.92-36.52,12.87-60.32,14.59-20.68,38.43-26.46,58.24-12.96,8.4,1.95,16.8,3.9,25.2,5.85,9.91-2.51,25.34-8.13,42.31-21.86,14.06-11.38,24.23-24.34,30.82-34.02,10.84-19.78,21.86-32.07,29.35-39.25,3.68-3.52,8.44-8.04,15.07-12.16,0,0,16.85-10.46,36.7-9.21,32.81,2.07,71.86,38.67,74.28,89.92Z"/><line class="cls-7" x1="367.49" y1="168.23" x2="367.27" y2="168.21"/><path class="cls-37" d="m461.52,173.34c-.67,2.82-1.51,5.51-2.5,8.08,5.02,8.4,7.06,16.4,4.64,20.51-2.49,4.29-9.15,3.25-16.73-1.85-6.57,6.22-14.49,9.48-22.48,8.49-5.35,9.42-10.78,14.65-14.01,12.66-3.11-1.9-3.41-10.05-1.3-20.69.07-.36.15-.72.23-1.1-.2.24-.41.46-.62.68-8.48,9.05-16.3,13.05-19.12,9.1-2.69-3.76-.14-13.59,5.78-24.51-6.28.03-10.6-2.08-11.22-6.14-.78-5.33,5-12.5,13.91-18.24.09-.96.23-1.96.39-2.93,1.36-8.51,4.27-16.17,8.23-22.45-5.11-14.47-6.07-27.9-1.93-31.62,4.1-3.68,11.9,3.42,18.54,16.28,2.31-1.04,4.69-1.73,7.11-2.05,3.56-12.73,8.39-21.21,12.35-20.52,3.13.55,4.98,6.72,5.34,15.81,5.46-6.39,10.38-9.25,12.95-6.84,3.36,3.18,1.67,14.49-3.63,27.52,2.12,3.98,3.7,8.52,4.68,13.44,11.73,2.83,19.93,9.45,19.02,15.97-.82,5.98-9.02,10.03-19.64,10.41"/><path class="cls-7" d="m461.52,173.34c-.67,2.82-1.51,5.51-2.5,8.08,5.02,8.4,7.06,16.4,4.64,20.51-2.49,4.29-9.15,3.25-16.73-1.85-6.57,6.22-14.49,9.48-22.48,8.49-5.35,9.42-10.78,14.65-14.01,12.66-3.11-1.9-3.41-10.05-1.3-20.69.07-.36.15-.72.23-1.1-.2.24-.41.46-.62.68-8.48,9.05-16.3,13.05-19.12,9.1-2.69-3.76-.14-13.59,5.78-24.51-6.28.03-10.6-2.08-11.22-6.14-.78-5.33,5-12.5,13.91-18.24.09-.96.23-1.96.39-2.93,1.36-8.51,4.27-16.17,8.23-22.45-5.11-14.47-6.07-27.9-1.93-31.62,4.1-3.68,11.9,3.42,18.54,16.28,2.31-1.04,4.69-1.73,7.11-2.05,3.56-12.73,8.39-21.21,12.35-20.52,3.13.55,4.98,6.72,5.34,15.81,5.46-6.39,10.38-9.25,12.95-6.84,3.36,3.18,1.67,14.49-3.63,27.52,2.12,3.98,3.7,8.52,4.68,13.44,11.73,2.83,19.93,9.45,19.02,15.97-.82,5.98-9.02,10.03-19.64,10.41Z"/><path d="m603.25,266.88l3.37,35.61c-159.09,73.79-276.91,41.45-276.91,41.45,1.6-12.53,3.21-25.06,4.81-37.59,25.85,2.38,54.12,3.14,84.58,1.32,71.06-4.25,133.54-21.37,184.15-40.8"/><path class="cls-9" d="m603.25,266.88l3.37,35.61c-159.09,73.79-276.91,41.45-276.91,41.45,1.6-12.53,3.21-25.06,4.81-37.59,25.85,2.38,54.12,3.14,84.58,1.32,71.06-4.25,133.54-21.37,184.15-40.8Z"/></g><g class="cls-35"><path class="cls-31" d="m663.63,611.84c3.72,21.03-18.82,42.59-50.35,48.17-31.52,5.58-60.1-6.95-63.82-27.97-3.72-21.03,18.82-42.59,50.34-48.17,31.52-5.58,60.1,6.95,63.82,27.97"/><path class="cls-31" d="m436.83,631.96c-5.34,20.68-34.79,30.95-65.79,22.95-31-8-51.8-31.24-46.47-51.92,5.33-20.68,34.79-30.95,65.79-22.95,31,8,51.8,31.24,46.47,51.92"/></g><g class="cls-2"><path class="cls-36" d="m462.8,572.25c-.68,34.37-12.25,62.01-25.84,61.74-13.59-.27-24.06-28.35-23.38-62.71.68-34.37,12.25-62.01,25.84-61.74,13.59.27,24.06,28.35,23.38,62.71"/><path class="cls-8" d="m462.8,572.25c-.68,34.37-12.25,62.01-25.84,61.74-13.59-.27-24.06-28.35-23.38-62.71.68-34.37,12.25-62.01,25.84-61.74,13.59.27,24.06,28.35,23.38,62.71Z"/><path class="cls-36" d="m575.78,574.48c-.68,34.37-12.25,62.01-25.84,61.74-13.59-.27-24.06-28.35-23.38-62.71.68-34.37,12.25-62.01,25.84-61.74,13.59.27,24.06,28.35,23.38,62.71"/><path class="cls-8" d="m575.78,574.48c-.68,34.37-12.25,62.01-25.84,61.74-13.59-.27-24.06-28.35-23.38-62.71.68-34.37,12.25-62.01,25.84-61.74,13.59.27,24.06,28.35,23.38,62.71Z"/></g><g class="cls-24"><path class="cls-8" d="m498.07,599.18c2.87,11.92.72,18.94-1.86,23.18-1.31,2.14-6.15,6.51-15.78,15.16-6.74,6.06-8.59,7.56-10.07,11.06-3.14,7.42-.67,14.48-.31,15.47.83,2.25,2.97,8.11,8.93,10.73,6.19,2.72,12.17.05,14.79-1.12,5.07-2.26,9.31-8.26,9.31-8.26"/></g><g class="cls-6"><path class="cls-3" d="m559.71,1216.57c-1.08,54.85-11.17,99.12-22.53,98.9-11.36-.22-19.69-44.87-18.61-99.71,1.08-54.84,11.17-99.12,22.53-98.9,11.36.23,19.69,44.87,18.61,99.71"/><path class="cls-7" d="m559.71,1216.57c-1.08,54.85-11.17,99.12-22.53,98.9-11.36-.22-19.69-44.87-18.61-99.71,1.08-54.84,11.17-99.12,22.53-98.9,11.36.23,19.69,44.87,18.61,99.71Z"/><path class="cls-3" d="m453.77,1214.48c-1.08,54.85-11.17,99.12-22.53,98.9-11.36-.22-19.69-44.87-18.61-99.71,1.08-54.85,11.17-99.12,22.53-98.9,11.36.22,19.69,44.87,18.61,99.71"/><path class="cls-7" d="m453.77,1214.48c-1.08,54.85-11.17,99.12-22.53,98.9-11.36-.22-19.69-44.87-18.61-99.71,1.08-54.85,11.17-99.12,22.53-98.9,11.36.22,19.69,44.87,18.61,99.71Z"/><path class="cls-36" d="m416.95,1285.93s13.36,11.65,28.27.56c0,0-4.76,28.84-14.67,26.89,0,0-10.77-2.03-13.6-27.44"/><path class="cls-7" d="m416.95,1285.93s13.36,11.65,28.27.56c0,0-4.76,28.84-14.67,26.89,0,0-10.77-2.03-13.6-27.44Z"/><path class="cls-36" d="m523.58,1288.03s13.36,11.65,28.27.56c0,0-4.76,28.84-14.67,26.89,0,0-10.77-2.03-13.6-27.44"/><path class="cls-7" d="m523.58,1288.03s13.36,11.65,28.27.56c0,0-4.76,28.84-14.67,26.89,0,0-10.77-2.03-13.6-27.44Z"/><path class="cls-22" d="m412.39,1225.79s20.08,14.38,41.13.81l.35-34.02-40.81-.81-.67,34.01Z"/><path class="cls-7" d="m412.39,1225.79s20.08,14.38,41.13.81l.35-34.02-40.81-.81-.67,34.01Z"/><path class="cls-22" d="m518.34,1227.88s20.08,14.38,41.13.81l.35-34.02-40.81-.81-.67,34.01Z"/><path class="cls-7" d="m518.34,1227.88s20.08,14.38,41.13.81l.35-34.02-40.81-.81-.67,34.01Z"/><path class="cls-23" d="m606.13,1059.9c-145.15,34.44-242.06-4.78-242.06-4.78,0,0-23.27,106.96-52.73,129.24,0,0,137.07,55.47,342.38,6.76-12.22-18-26.75-43.78-36.82-76.97-6.12-20.19-9.24-38.67-10.77-54.26"/><path class="cls-7" d="m606.13,1059.9c-145.15,34.44-242.06-4.78-242.06-4.78,0,0-23.27,106.96-52.73,129.24,0,0,137.07,55.47,342.38,6.76-12.22-18-26.75-43.78-36.82-76.97-6.12-20.19-9.24-38.67-10.77-54.26Z"/><path class="cls-12" d="m319.87,1176.83c43.63,10.68,100.24,20.38,166.63,21.42,63.55.99,118.25-6.24,161.02-14.93"/><path class="cls-12" d="m333.72,1149.07c39.22,10.26,91.34,19.95,153.05,20.9,59.08.91,109.49-6.46,148.01-14.93"/><path class="cls-12" d="m345.28,1124.09c37.13,8.93,85.04,16.97,141.1,17.82,53.42.81,99.52-5.12,135.8-12.34"/><path class="cls-12" d="m353.65,1092.14c32.22,9.4,76.9,18.88,130.64,19.77,52.21.86,96.04-6.67,128.06-14.65"/><path class="cls-12" d="m361.83,1066.54c31.41,8.68,74.02,17.13,124.87,17.92,48.87.76,90.25-5.8,121.23-13.05"/><path class="cls-14" d="m381.31,1060.65c-2.91,33.38-10.66,72.31-28.27,112.89-3.12,7.19-6.39,14.07-9.77,20.64"/><path class="cls-14" d="m401.13,1067.85c-1.08,27.11-5.36,60.17-16.95,96.18-3.99,12.42-8.44,23.89-13.07,34.41"/><path class="cls-14" d="m424.5,1071.1c-.11,31.58-3.35,67.92-12.81,107.2-2.43,10.08-5.11,19.73-7.98,28.94"/><path class="cls-14" d="m584.58,1066.81c4.3,29.9,11.97,63.84,25.34,99.93,4.01,10.83,8.26,21.1,12.65,30.8"/><path class="cls-14" d="m564.62,1070.46c3.77,34.52,10.95,72.26,23.49,111.92,2.43,7.67,4.96,15.14,7.6,22.4"/><path class="cls-14" d="m541.1,1072.63c1.37,28.43,4.77,60.05,11.5,94.03,2.91,14.67,6.2,28.62,9.75,41.83"/><path class="cls-14" d="m514.76,1075.3c.55,27.47,2.07,56.48,4.87,86.84,1.52,16.47,3.33,32.46,5.39,47.93"/><line class="cls-14" x1="485.25" y1="1076.85" x2="481.6" y2="1208.31"/><path class="cls-14" d="m451.71,1075c-1.24,30.93-3.74,63.53-7.91,97.6-1.56,12.78-3.3,25.28-5.19,37.5"/><path class="cls-15" d="m357.91,1080.12c31.67,9.54,76.44,19.37,130.6,19.85,49.41.44,90.88-7.04,121.26-14.91"/><path class="cls-11" d="m348.76,1111.35c36.07,9.32,83.95,18.01,140.55,18.53,50.8.47,94.43-5.77,128.41-13.1"/><path class="cls-11" d="m337.2,1139.21c38.97,9.37,89.34,17.83,148.32,18.73,56.2.86,104.67-5.39,142.75-12.97"/><path class="cls-11" d="m326.13,1165.67c41.46,9.97,96.39,19.37,161.34,20.46,62.08,1.03,115.1-5.84,155.77-13.84"/><path class="cls-16" d="m370.97,1055.26c-2.91,33.38-10.66,72.31-28.27,112.89-3.12,7.19-6.39,14.07-9.77,20.64"/><path class="cls-16" d="m390.96,1065.19c-1.08,27.11-5.36,60.17-16.95,96.18-3.99,12.42-8.44,23.89-13.07,34.41"/><path class="cls-16" d="m414.04,1068.11c-.11,31.58-3.35,67.92-12.81,107.2-2.43,10.08-5.11,19.73-7.98,28.94"/><path class="cls-16" d="m441.19,1073.35c-1.24,30.93-3.74,63.53-7.91,97.6-1.56,12.78-3.3,25.28-5.19,37.5"/><line class="cls-16" x1="474.23" y1="1076.63" x2="470.58" y2="1208.1"/><path class="cls-16" d="m503.76,1074.98c.55,27.47,2.07,56.48,4.87,86.84,1.52,16.47,3.33,32.46,5.39,47.93"/><path class="cls-16" d="m529.99,1073.74c1.37,28.43,4.77,60.05,11.5,94.03,2.91,14.67,6.2,28.62,9.75,41.83"/><path class="cls-16" d="m553.99,1070.25c3.77,34.52,10.95,72.26,23.49,111.92,2.43,7.67,4.96,15.14,7.6,22.4"/><path class="cls-16" d="m575.07,1069.43c4.3,29.9,11.97,63.84,25.34,99.93,4.01,10.83,8.26,21.1,12.65,30.8"/><path class="cls-16" d="m598.47,1065.06c5.61,29.68,14.76,63.26,29.71,98.72,4.49,10.64,9.18,20.71,13.99,30.22"/><path class="cls-7" d="m606.13,1059.9c-145.15,34.44-242.06-4.78-242.06-4.78,0,0-23.27,106.96-52.73,129.24,0,0,137.07,55.47,342.38,6.76-12.22-18-26.75-43.78-36.82-76.97-6.12-20.19-9.24-38.67-10.77-54.26Z"/><path class="cls-29" d="m509.2,872.23l14.11,13.49-3.1,18.71c-7.43-6.09-12.06-15.29-11.85-25.51.05-2.3.33-4.54.85-6.69"/><path class="cls-7" d="m509.2,872.23l14.11,13.49-3.1,18.71c-7.43-6.09-12.06-15.29-11.85-25.51.05-2.3.33-4.54.85-6.69Z"/><path class="cls-29" d="m530.19,864.32l-19.27,2.67c4.68-10.9,15.24-18.72,27.71-19.73l-8.44,17.06Z"/><path class="cls-7" d="m530.19,864.32l-19.27,2.67c4.68-10.9,15.24-18.72,27.71-19.73l-8.44,17.06Z"/><path class="cls-29" d="m541.96,899.07l16.3,8.48c-5.11,2.95-11.08,4.59-17.45,4.46-5.73-.11-11.09-1.64-15.74-4.25l16.88-8.7Z"/><path class="cls-7" d="m541.96,899.07l16.3,8.48c-5.11,2.95-11.08,4.59-17.45,4.46-5.73-.11-11.09-1.64-15.74-4.25l16.88-8.7Z"/><path class="cls-29" d="m553.11,864.43l-8.73-17.15c12.59,1.07,23.11,9.03,27.71,19.94l-18.97-2.79Z"/><path class="cls-7" d="m553.11,864.43l-8.73-17.15c12.59,1.07,23.11,9.03,27.71,19.94l-18.97-2.79Z"/><path class="cls-29" d="m574.58,880.23c-.18,9.34-4.38,17.67-10.95,23.46l-3.24-17.79,13.47-12.98c.52,2.35.76,4.81.71,7.31"/><path class="cls-7" d="m574.58,880.23c-.18,9.34-4.38,17.67-10.95,23.46l-3.24-17.79,13.47-12.98c.52,2.35.76,4.81.71,7.31Z"/><path class="cls-3" d="m509.2,872.23l14.11,13.49-3.1,18.71c-7.43-6.09-12.06-15.29-11.85-25.51.05-2.3.33-4.54.85-6.69"/><path class="cls-7" d="m509.2,872.23l14.11,13.49-3.1,18.71c-7.43-6.09-12.06-15.29-11.85-25.51.05-2.3.33-4.54.85-6.69Z"/><path class="cls-3" d="m530.19,864.32l-19.27,2.67c4.68-10.9,15.24-18.72,27.71-19.73l-8.44,17.06Z"/><path class="cls-7" d="m530.19,864.32l-19.27,2.67c4.68-10.9,15.24-18.72,27.71-19.73l-8.44,17.06Z"/><path class="cls-3" d="m541.96,899.07l16.3,8.48c-5.11,2.95-11.08,4.59-17.45,4.46-5.73-.11-11.09-1.64-15.74-4.25l16.88-8.7Z"/><path class="cls-7" d="m541.96,899.07l16.3,8.48c-5.11,2.95-11.08,4.59-17.45,4.46-5.73-.11-11.09-1.64-15.74-4.25l16.88-8.7Z"/><path class="cls-3" d="m553.11,864.43l-8.73-17.15c12.59,1.07,23.11,9.03,27.71,19.94l-18.97-2.79Z"/><path class="cls-7" d="m553.11,864.43l-8.73-17.15c12.59,1.07,23.11,9.03,27.71,19.94l-18.97-2.79Z"/><path class="cls-3" d="m574.58,880.23c-.18,9.34-4.38,17.67-10.95,23.46l-3.24-17.79,13.47-12.98c.52,2.35.76,4.81.71,7.31"/><path class="cls-7" d="m574.58,880.23c-.18,9.34-4.38,17.67-10.95,23.46l-3.24-17.79,13.47-12.98c.52,2.35.76,4.81.71,7.31Z"/><path class="cls-29" d="m542.45,829.18c-28.39-.56-51.88,21.54-52.42,49.38-.55,27.84,22.04,50.85,50.43,51.41,28.41.56,51.88-21.55,52.42-49.38.55-27.84-22.03-50.85-50.43-51.41m29.64,38.04l-18.97-2.79-8.73-17.15c12.59,1.07,23.11,9.03,27.71,19.94m-33.46-19.96l-8.44,17.06-19.27,2.67c4.68-10.9,15.24-18.72,27.71-19.73m-30.28,31.67c.05-2.3.33-4.54.85-6.69l14.11,13.49-3.1,18.71c-7.42-6.09-12.06-15.29-11.85-25.51m32.46,33.1c-5.73-.11-11.09-1.63-15.74-4.25l16.88-8.69,16.3,8.48c-5.11,2.95-11.08,4.59-17.45,4.46m22.82-8.33l-3.24-17.79,13.47-12.98c.53,2.35.76,4.81.71,7.31-.18,9.34-4.38,17.67-10.95,23.46"/><path class="cls-7" d="m542.45,829.18c-28.39-.56-51.88,21.54-52.42,49.38-.55,27.84,22.04,50.85,50.43,51.41,28.41.56,51.88-21.55,52.42-49.38.55-27.84-22.03-50.85-50.43-51.41Zm29.64,38.04l-18.97-2.79-8.73-17.15c12.59,1.07,23.11,9.03,27.71,19.94Zm-33.46-19.96l-8.44,17.06-19.27,2.67c4.68-10.9,15.24-18.72,27.71-19.73Zm-30.28,31.67c.05-2.3.33-4.54.85-6.69l14.11,13.49-3.1,18.71c-7.42-6.09-12.06-15.29-11.85-25.51Zm32.46,33.1c-5.73-.11-11.09-1.63-15.74-4.25l16.88-8.69,16.3,8.48c-5.11,2.95-11.08,4.59-17.45,4.46Zm22.82-8.33l-3.24-17.79,13.47-12.98c.53,2.35.76,4.81.71,7.31-.18,9.34-4.38,17.67-10.95,23.46Z"/><path class="cls-36" d="m517.81,840.71c.61-.48,1.62-1.14,2.71-1.69,1.56-.78,2.66-1.02,3.59-.92.77.06,1.33.42,1.57,1.08.3.82-.18,1.8-1.22,2.63,0,0,0,.01.01.02,1.16-.28,2.65-.09,3.1,1.17.26.73.1,1.41-.25,2.02-.51.82-1.53,1.53-3.12,2.35-.87.45-1.55.78-1.99.97-1.48-2.54-2.95-5.09-4.41-7.64m5.25,6.19c.27-.1.65-.28,1.11-.52,1.33-.67,2.42-1.6,1.94-2.81-.45-1.14-1.95-1.07-3.5-.3-.39.2-.77.4-1.16.6.53,1.01,1.07,2.01,1.61,3.02m-2.02-3.8c.43-.23.86-.45,1.29-.67,1.51-.75,2.17-1.7,1.85-2.51-.4-.97-1.64-.91-3.18-.14-.7.35-1.09.6-1.31.77.45.85.9,1.7,1.35,2.55"/><path class="cls-36" d="m536.59,840.02c.27,2.36-1.52,3.65-3.3,4.08-1.99.46-3.92-.21-4.58-2.14-.7-2.03.78-3.9,3.23-4.46,2.54-.58,4.43.57,4.65,2.52m-6.42,1.44c.41,1.35,1.65,2.08,2.99,1.77,1.31-.3,2.13-1.5,1.92-2.93-.17-1.07-1.12-2.35-2.98-1.93-1.86.44-2.28,1.93-1.93,3.09"/><path class="cls-36" d="m538.38,838.66c-.06-.75-.13-1.4-.24-2,.47-.04.94-.08,1.41-.1.04.42.08.84.12,1.26.02,0,.05,0,.07,0,.34-.89,1.3-1.48,2.39-1.48.18,0,.31.01.46.04,0,.37-.01.74-.02,1.1-.16-.03-.32-.04-.54-.04-1.11,0-1.88.67-2.04,1.56-.03.16-.05.35-.05.55.06,1.14.11,2.29.17,3.43-.46.02-.91.06-1.37.1-.13-1.47-.25-2.94-.37-4.42"/><path class="cls-36" d="m552.22,834.5c-.56,2.54-1.11,5.07-1.65,7.61-.12.56-.24,1.2-.28,1.64-.41-.08-.81-.16-1.22-.24.05-.37.09-.74.13-1.11-.01,0-.02,0-.03,0-.56.63-1.56,1.02-2.77.88-1.8-.19-3.17-1.52-3.14-3.48.02-2.14,1.9-3.43,4.07-3.19,1.35.15,2.18.77,2.48,1.35.01,0,.02,0,.03,0,.23-1.26.46-2.52.69-3.78.56.1,1.12.2,1.68.32m-2.69,5.22c.03-.14.04-.34.02-.5-.09-.77-.84-1.52-2.02-1.66-1.64-.19-2.67.83-2.76,2.25-.07,1.31.63,2.41,2.13,2.58.94.11,1.87-.26,2.28-1.08.08-.15.12-.3.15-.49.07-.37.13-.73.19-1.1"/><path class="cls-36" d="m554.05,841.6c-.4,1.53.58,2.49,1.9,2.98.95.35,1.57.45,2.14.49-.04.29-.07.58-.11.86-.53-.03-1.38-.16-2.52-.57-2.18-.78-3.22-2.34-2.76-4.24.46-1.88,2.39-3.02,4.88-2.14,2.76,1.02,2.67,3.09,2.17,4.14-.11.22-.21.37-.27.48-1.77-.79-3.58-1.46-5.43-2m4.46.67c.3-.67.36-1.93-1.34-2.54-1.54-.53-2.53.33-2.87,1.07,1.42.42,2.83.9,4.21,1.47"/><path class="cls-36" d="m561.86,843.15c.35-.67.63-1.26.85-1.82.43.21.85.44,1.27.66-.19.38-.38.76-.56,1.13.02.01.04.02.06.04.77-.57,1.91-.56,2.86.03.16.1.26.18.38.28-.2.31-.4.62-.6.93-.12-.11-.26-.21-.45-.33-.98-.6-1.99-.44-2.6.22-.11.12-.23.27-.33.44-.56,1-1.11,2-1.66,3-.41-.22-.82-.44-1.23-.65.67-1.32,1.34-2.63,2.01-3.95"/><path class="cls-36" d="m522.55,921.12c-.67-.04-1.94-.34-3.39-1.09-3.42-1.78-4.75-4.95-2.82-7.52,1.85-2.48,4.92-2.78,7.82-1.31,1.19.6,1.85,1.17,2.12,1.48-.24.27-.48.54-.73.81-.4-.43-1.02-.91-1.83-1.32-2.27-1.15-4.5-.9-5.97,1.24-1.35,1.98-.66,4.35,2.22,5.84.92.47,1.95.77,2.67.81-.03.35-.06.7-.09,1.06"/><path class="cls-36" d="m533.14,921.01c-.49,2.57-3.13,3.21-5.36,2.53-2.5-.75-3.81-2.83-2.93-4.87.94-2.18,3.11-2.77,5.23-2.14,2.21.65,3.47,2.36,3.06,4.49m-6.75-1.8c-.55,1.44.14,2.95,1.75,3.43,1.57.47,3.03-.39,3.4-1.93.28-1.17-.07-2.78-1.76-3.27-1.69-.51-2.9.51-3.38,1.77"/><path class="cls-36" d="m535.37,919.82c.12-.72.19-1.31.23-1.9.43.07.86.13,1.3.18-.02.39-.04.78-.06,1.17.01,0,.02,0,.03,0,.5-.62,1.5-1.16,2.83-1.08,1.11.08,2.84.66,2.87,3.07,0,1.4,0,2.81,0,4.22-.57,0-1.15,0-1.72-.01.05-1.36.1-2.71.14-4.07.03-1.14-.44-2.08-1.85-2.17-.99-.07-1.82.44-2.17,1.12-.09.15-.15.36-.18.58-.18,1.4-.36,2.81-.54,4.21-.57-.07-1.14-.14-1.71-.23.28-1.69.55-3.39.83-5.08"/><path class="cls-36" d="m546.45,916.16c.07.67.14,1.35.21,2.02.7-.08,1.41-.17,2.11-.28.05.32.1.65.15.97-.72.11-1.44.21-2.16.28.13,1.26.25,2.53.37,3.79.08.87.46,1.34,1.39,1.21.44-.06.76-.15.96-.23.07.31.14.63.21.94-.31.15-.84.3-1.5.39-.8.1-1.47-.03-1.9-.35-.51-.34-.72-.95-.77-1.78-.08-1.28-.16-2.56-.25-3.84-.43.03-.86.06-1.29.08-.01-.33-.02-.65-.04-.98.42-.02.84-.04,1.26-.07-.04-.56-.08-1.13-.12-1.69.45-.14.9-.3,1.35-.46"/><path class="cls-36" d="m550.83,919.77c-.16-.82-.3-1.52-.48-2.15.43-.08.85-.17,1.28-.27.12.45.23.9.35,1.34.02,0,.05-.01.07-.02.17-1.01.9-1.8,1.86-2.08.16-.05.28-.07.42-.08.11.39.23.77.34,1.16-.16.02-.31.05-.52.11-1.04.29-1.62,1.13-1.62,2.12,0,.18.01.39.06.6.28,1.22.55,2.45.82,3.67-.56.13-1.12.25-1.68.36-.29-1.59-.59-3.18-.89-4.78"/><path class="cls-36" d="m564.19,916.29c1.26,2.29-.45,4.52-2.65,5.43-2.46,1.04-4.8.27-5.42-1.87-.66-2.27.65-4.11,2.74-5.01,2.17-.93,4.29-.45,5.33,1.45m-6.52,2.99c.49,1.46,2,2.19,3.58,1.52,1.55-.65,2.17-2.26,1.46-3.69-.53-1.08-1.85-2.09-3.51-1.37-1.67.7-1.96,2.26-1.53,3.54"/><path class="cls-36" d="m562.55,909.42c.41-.25.81-.5,1.22-.76,1.88,2.9,3.74,5.8,5.58,8.72-.51.33-1.02.65-1.53.96-1.74-2.98-3.5-5.96-5.27-8.92"/><polygon class="cls-32" points="67.71 864.81 46.15 858.03 172.99 446.75 194.55 453.53 67.71 864.81"/><polygon class="cls-7" points="67.71 864.81 46.15 858.03 172.99 446.75 194.55 453.53 67.71 864.81"/><path class="cls-32" d="m66.55,868.47c-.09.3-.31.56-.62.82-1.66,1.21-6.29,1.09-11.32-.49-5.02-1.58-8.86-4.13-9.53-6.07-.1-.39-.13-.73-.04-1.02.63-1.99,5.94-2.15,11.88-.28,5.95,1.87,10.24,5.05,9.61,7.04"/><path class="cls-7" d="m66.55,868.47c-.09.3-.31.56-.62.82-1.66,1.21-6.29,1.09-11.32-.49-5.02-1.58-8.86-4.13-9.53-6.07-.1-.39-.13-.73-.04-1.02.63-1.99,5.94-2.15,11.88-.28,5.95,1.87,10.24,5.05,9.61,7.04Z"/><path class="cls-32" d="m195.81,449.37c-.72,2.29-6.12,2.64-12.06.77-5.94-1.87-10.17-5.24-9.45-7.54.72-2.29,6.12-2.63,12.06-.76,5.94,1.87,10.17,5.24,9.45,7.54"/><path class="cls-7" d="m195.81,449.37c-.72,2.29-6.12,2.64-12.06.77-5.94-1.87-10.17-5.24-9.45-7.54.72-2.29,6.12-2.63,12.06-.76,5.94,1.87,10.17,5.24,9.45,7.54Z"/><path class="cls-4" d="m161.76,482.44c-74.39-16.31-119.56-61.14-119.56-61.14,0,0-31.08,44.98-37.56,119.35,0,0,61.71-18.41,135.63,10.07l21.49-68.28Z"/><path class="cls-7" d="m161.76,482.44c-74.39-16.31-119.56-61.14-119.56-61.14,0,0-31.08,44.98-37.56,119.35,0,0,61.71-18.41,135.63,10.07l21.49-68.28Z"/><path class="cls-4" d="m202.99,580.06c-7.39-5.29-16.22-10.73-26.57-15.6-4.32-2.03-8.51-3.78-12.54-5.29,7.3-23.19,14.59-46.38,21.89-69.57,4.58,1.5,9.6,2.89,15.05,4.06,10.49,2.25,20.08,3.11,28.32,3.27l-26.16,83.12Z"/><path class="cls-7" d="m202.99,580.06c-7.39-5.29-16.22-10.73-26.57-15.6-4.32-2.03-8.51-3.78-12.54-5.29,7.3-23.19,14.59-46.38,21.89-69.57,4.58,1.5,9.6,2.89,15.05,4.06,10.49,2.25,20.08,3.11,28.32,3.27l-26.16,83.12Z"/><polygon class="cls-32" points="912.54 866.81 934.09 860.02 807.14 448.77 785.59 455.56 912.54 866.81"/><polygon class="cls-7" points="912.54 866.81 934.09 860.02 807.14 448.77 785.59 455.56 912.54 866.81"/><path class="cls-32" d="m913.69,870.46c.09.3.31.56.62.82,1.66,1.21,6.29,1.09,11.32-.49,5.02-1.58,8.86-4.13,9.53-6.07.1-.39.13-.73.04-1.03-.63-1.99-5.94-2.15-11.89-.28-5.95,1.87-10.24,5.06-9.61,7.05"/><path class="cls-7" d="m913.69,870.46c.09.3.31.56.62.82,1.66,1.21,6.29,1.09,11.32-.49,5.02-1.58,8.86-4.13,9.53-6.07.1-.39.13-.73.04-1.03-.63-1.99-5.94-2.15-11.89-.28-5.95,1.87-10.24,5.06-9.61,7.05Z"/><path class="cls-32" d="m784.32,451.4c.72,2.29,6.12,2.63,12.06.76,5.94-1.87,10.17-5.25,9.45-7.54-.72-2.29-6.12-2.63-12.06-.76-5.94,1.87-10.17,5.25-9.45,7.54"/><path class="cls-7" d="m784.32,451.4c.72,2.29,6.12,2.63,12.06.76,5.94-1.87,10.17-5.25,9.45-7.54-.72-2.29-6.12-2.63-12.06-.76-5.94,1.87-10.17,5.25-9.45,7.54Z"/><path class="cls-4" d="m818.38,484.46c74.38-16.33,119.54-61.17,119.54-61.17,0,0,31.09,44.97,37.59,119.34,0,0-61.72-18.4-135.63,10.11l-21.5-68.28Z"/><path class="cls-7" d="m818.38,484.46c74.38-16.33,119.54-61.17,119.54-61.17,0,0,31.09,44.97,37.59,119.34,0,0-61.72-18.4-135.63,10.11l-21.5-68.28Z"/><path class="cls-4" d="m777.17,582.09c7.38-5.29,16.22-10.74,26.56-15.61,4.32-2.03,8.51-3.78,12.54-5.3-7.3-23.19-14.61-46.37-21.91-69.56-4.58,1.5-9.6,2.89-15.05,4.06-10.49,2.25-20.08,3.11-28.32,3.28l26.18,83.12Z"/><path class="cls-7" d="m777.17,582.09c7.38-5.29,16.22-10.74,26.56-15.61,4.32-2.03,8.51-3.78,12.54-5.3-7.3-23.19-14.61-46.37-21.91-69.56-4.58,1.5-9.6,2.89-15.05,4.06-10.49,2.25-20.08,3.11-28.32,3.28l26.18,83.12Z"/><path class="cls-3" d="m1495.85,335.96c-20.55,109.09-189.65,168.82-377.72,133.4-84.22-15.86-157.96-48.12-211.87-88.71l-110.75,10.65,49.99-70.96c-26.13-36.02-37.8-74.82-30.67-112.63,20.55-109.09,189.65-168.82,377.72-133.4,188.06,35.42,323.86,152.56,303.31,261.66"/><path class="cls-9" d="m1495.85,335.96c-20.55,109.09-189.65,168.82-377.72,133.4-84.22-15.86-157.96-48.12-211.87-88.71l-110.75,10.65,49.99-70.96c-26.13-36.02-37.8-74.82-30.67-112.63,20.55-109.09,189.65-168.82,377.72-133.4,188.06,35.42,323.86,152.56,303.31,261.66Z"/></g><path d="m947.93,167.99l-10.93,19.67-8.91-1.7,35.4-62.4,10.39,1.98,10.04,71.07-9.21-1.76-3.12-22.35-23.66-4.51Zm23.16-2.56l-2.87-20.45c-.66-4.64-.89-8.79-1.14-12.84l-.2-.04c-1.75,3.77-3.61,7.62-5.67,11.44l-10.22,18.06,20.1,3.83Z"/><path d="m1003.96,150.77l1.69,25.56c.37,5.61.71,10.81.66,15.93l.3.06c2.01-4.64,4.58-9.49,7.15-14.33l12.49-22.96,7.33,1.4,2.85,25.37c.69,6.08,1.11,11.4,1.27,16.45l.3.06c1.72-4.7,3.97-9.5,6.63-14.84l11.42-22.75,8.61,1.64-24.58,44.97-7.92-1.51-2.96-24.27c-.66-5.67-1.14-10.68-1.25-16.55l-.2-.04c-2.28,5.52-4.71,10.18-7.38,15.01l-12.06,21.3-7.92-1.51-5.31-50.67,8.91,1.7Z"/><path d="m1070.5,178.96c1.08-5.64,1.9-10.51,2.46-15.02l7.62,1.45-1.5,9.46.4.08c3.41-6.02,9.43-9.08,15.27-7.96.99.19,1.66.42,2.42.77l-1.57,8.22c-.85-.37-1.72-.64-2.91-.86-6.14-1.17-11.38,2.65-13.82,8.96-.42,1.15-.89,2.5-1.17,3.98l-4.87,25.54-8.61-1.64,6.29-32.97Z"/><path d="m1096.98,218.17l9.14-47.92,8.71,1.66-9.14,47.92-8.71-1.66Zm21.41-59.53c-.47,2.99-3.1,4.95-6.56,4.29-3.07-.59-4.79-3.38-4.23-6.35.59-3.07,3.32-5.01,6.48-4.41,3.27.62,4.89,3.4,4.31,6.46Z"/><path d="m1170.57,182.55c-.86,3.43-1.79,7.25-2.91,13.09l-5.31,27.82c-2.1,10.99-5.56,17.3-11,20.58-5.48,3.47-12.48,3.57-18.52,2.42-5.74-1.1-11.81-3.69-15.18-7l3.44-6.22c2.79,2.58,7.4,5.31,13.34,6.44,8.91,1.7,16.33-1.71,18.64-13.78l1.02-5.35-.2-.04c-3.52,3.95-9.35,6.53-16.77,5.11-11.88-2.27-18.47-13.99-15.94-27.25,3.1-16.24,15.45-23.42,26.44-21.33,8.32,1.59,12.04,6.81,13.36,11.17l.2.04,1.78-7.15,7.62,1.45Zm-12.62,17.19c.28-1.48.43-2.79.26-4.05-.62-5.35-4.08-10.32-10.42-11.53-8.32-1.59-15.6,4.31-17.71,15.4-1.79,9.41,1.46,18.13,10.87,19.93,5.35,1.02,10.84-1.42,13.78-6.61.78-1.39,1.3-3.04,1.58-4.52l1.64-8.61Z"/><path d="m1188.9,162.86l8.71,1.66-5.7,29.9.2.04c1.86-2.21,4.45-3.97,7.41-4.95,2.86-.99,6.11-1.4,9.38-.77,6.43,1.23,15.98,7.15,12.82,23.69l-5.44,28.51-8.71-1.66,5.25-27.52c1.47-7.72-.15-14.8-8.37-16.37-5.64-1.08-10.85,2.03-13.34,6.48-.72,1.09-1.07,2.36-1.39,4.04l-5.51,28.91-8.71-1.66,13.41-70.29Z"/><path d="m1252.3,183.89l-2.62,13.76,12.47,2.38-1.27,6.63-12.47-2.38-4.93,25.84c-1.13,5.94-.09,9.63,4.76,10.55,2.28.43,4.02.46,5.16.37l-.85,6.61c-1.82.37-4.58.36-7.95-.29-4.06-.77-7.08-2.68-8.71-5.46-1.98-3.05-2.06-7.47-.99-13.12l4.99-26.13-7.42-1.42,1.27-6.63,7.42,1.42,2.19-11.48,8.95-.65Z"/><path d="m1296.1,206.5l5.09,30.32c.48,3.38.96,7.36,1.2,10.39l.2.04c1.44-2.7,3.13-6.18,4.98-9.41l14.87-26.3,9.21,1.76-19.58,31.66c-9.37,15.24-15.23,22.85-22.16,26.86-4.97,2.95-9.52,3.62-11.77,3.6l-.78-7.74c2.31-.28,5.45-1.12,8.43-2.8,2.74-1.43,6.35-4.23,9.18-8.3.57-.81.99-1.45,1.09-1.95.09-.5.03-1.23-.16-2.39l-9.3-47.53,9.5,1.81Z"/><path d="m1356.56,267.7l.46-6.17-.3-.06c-3.39,3.25-9.18,5.63-16.01,4.33-9.7-1.85-13.35-9.63-12.03-16.56,2.21-11.58,13.71-15.96,32.21-12.32l.19-.99c.76-3.96,1.03-11.3-8.77-13.17-4.46-.85-9.37-.35-13.16,1.18l-.88-6.12c4.45-1.82,10.51-2.41,16.55-1.25,14.65,2.8,16.31,13.47,14.47,23.08l-3.42,17.92c-.79,4.16-1.37,8.25-1.4,11.63l-7.92-1.51Zm3.38-24.7c-9.47-2.01-20.58-2.39-22.35,6.92-1.08,5.64,2.17,9.03,6.63,9.88,6.24,1.19,10.95-2.01,13.11-5.81.47-.83.85-1.79,1.02-2.68l1.59-8.32Z"/><path d="m880.8,250.4l1.69,25.56c.37,5.61.71,10.81.65,15.93l.3.06c2.01-4.64,4.58-9.49,7.15-14.33l12.49-22.96,7.33,1.4,2.85,25.37c.69,6.08,1.11,11.39,1.27,16.45l.3.06c1.72-4.7,3.97-9.5,6.63-14.84l11.42-22.75,8.61,1.64-24.58,44.97-7.92-1.51-2.96-24.27c-.66-5.67-1.14-10.68-1.25-16.55l-.2-.04c-2.28,5.51-4.71,10.18-7.38,15.01l-12.06,21.3-7.92-1.51-5.31-50.67,8.91,1.7Z"/><path d="m949.19,289.92c-2.05,11.82,4.55,18.1,13.26,19.77,6.24,1.19,10.21.82,13.74.06l.3,6.52c-3.33.8-8.88,1.38-16.51-.07-14.75-2.81-21.71-14.2-18.95-28.65,2.76-14.45,13.44-24.21,27.4-21.55,15.64,2.98,17.17,17.54,15.49,26.35-.34,1.78-.8,3.13-1.07,4l-33.66-6.42Zm26.73-1.36c1.16-5.53.42-14.59-9.38-16.46-8.81-1.68-14.22,5.7-16.07,11.61l25.44,4.85Z"/><path d="m998.79,299.38c-2.05,11.82,4.55,18.1,13.26,19.77,6.24,1.19,10.21.82,13.74.06l.29,6.52c-3.33.8-8.88,1.38-16.51-.07-14.75-2.81-21.71-14.2-18.95-28.65,2.76-14.45,13.44-24.21,27.4-21.55,15.64,2.98,17.17,17.54,15.49,26.35-.34,1.78-.8,3.13-1.07,4l-33.66-6.42Zm26.73-1.36c1.16-5.53.42-14.59-9.38-16.46-8.81-1.68-14.22,5.7-16.07,11.61l25.44,4.85Z"/><path d="m1059.86,334.22c.82-3.23,1.94-8.04,2.76-12.3l11.05-57.91,8.61,1.64-5.74,30.1.2.04c4.09-4.76,10.29-7.17,18.02-5.7,11.88,2.27,18.41,13.77,15.53,28.31-3.27,17.13-15.68,23.58-26.37,21.54-6.93-1.32-11.96-5.05-14.32-12.07l-.3-.06-1.91,7.84-7.52-1.44Zm12.67-17.49c-.21,1.09-.22,2.22-.21,3.24.53,6.36,4.79,11.48,11.12,12.69,9.11,1.74,15.97-4.65,18.07-15.64,1.83-9.6-1.55-18.76-10.86-20.54-5.94-1.13-12.26,1.87-15.31,8.16-.39.95-.91,2.08-1.17,3.47l-1.64,8.61Z"/><path d="m1143.12,350.1l.46-6.17-.3-.06c-3.39,3.25-9.18,5.64-16.01,4.33-9.7-1.85-13.35-9.63-12.03-16.56,2.21-11.58,13.71-15.95,32.21-12.32l.19-.99c.76-3.96,1.03-11.3-8.77-13.17-4.45-.85-9.37-.35-13.15,1.18l-.88-6.12c4.45-1.82,10.51-2.41,16.55-1.25,14.65,2.79,16.31,13.47,14.47,23.08l-3.42,17.92c-.79,4.16-1.37,8.25-1.4,11.63l-7.92-1.51Zm3.38-24.7c-9.47-2.01-20.58-2.39-22.35,6.92-1.08,5.64,2.18,9.03,6.63,9.88,6.24,1.19,10.95-2.01,13.11-5.81.47-.83.85-1.79,1.02-2.68l1.59-8.32Z"/><path d="m1176.22,306.76l1.69,25.56c.37,5.61.71,10.81.65,15.93l.3.06c2.01-4.64,4.58-9.49,7.15-14.33l12.49-22.96,7.33,1.4,2.85,25.37c.69,6.08,1.11,11.4,1.27,16.45l.3.06c1.72-4.7,3.97-9.5,6.63-14.84l11.42-22.75,8.61,1.64-24.58,44.97-7.92-1.51-2.96-24.27c-.66-5.67-1.14-10.68-1.25-16.55l-.2-.04c-2.28,5.52-4.71,10.18-7.38,15.01l-12.06,21.3-7.92-1.51-5.31-50.67,8.91,1.7Z"/><path d="m1236.08,367.84c.82-3.23,1.95-8.04,2.76-12.3l11.05-57.91,8.61,1.64-5.74,30.1.2.04c4.09-4.76,10.29-7.17,18.02-5.69,11.88,2.27,18.41,13.77,15.53,28.31-3.27,17.13-15.68,23.58-26.37,21.54-6.93-1.32-11.96-5.05-14.32-12.07l-.3-.06-1.91,7.84-7.52-1.44Zm12.67-17.49c-.21,1.09-.22,2.22-.21,3.24.53,6.36,4.79,11.48,11.12,12.69,9.11,1.74,15.97-4.65,18.07-15.64,1.83-9.6-1.55-18.76-10.86-20.54-5.94-1.13-12.26,1.87-15.31,8.16-.39.95-.91,2.08-1.18,3.47l-1.64,8.61Z"/><path d="m1319.34,383.72l.46-6.17-.3-.06c-3.39,3.25-9.18,5.64-16.01,4.33-9.7-1.85-13.35-9.63-12.03-16.56,2.21-11.58,13.71-15.96,32.21-12.32l.19-.99c.76-3.96,1.03-11.3-8.77-13.17-4.46-.85-9.37-.35-13.15,1.18l-.88-6.12c4.45-1.82,10.51-2.41,16.55-1.25,14.65,2.79,16.31,13.47,14.47,23.08l-3.42,17.92c-.79,4.16-1.37,8.25-1.4,11.64l-7.92-1.51Zm3.38-24.7c-9.47-2.01-20.58-2.39-22.35,6.92-1.08,5.64,2.17,9.03,6.63,9.88,6.24,1.19,10.95-2.01,13.11-5.81.47-.83.85-1.79,1.02-2.68l1.59-8.32Z"/><path d="m1390.95,347.73c-.86,3.43-1.79,7.25-2.91,13.09l-5.31,27.82c-2.1,10.99-5.56,17.3-11.01,20.58-5.48,3.47-12.48,3.57-18.52,2.42-5.74-1.1-11.81-3.69-15.18-7l3.44-6.22c2.79,2.58,7.4,5.31,13.34,6.44,8.91,1.7,16.33-1.71,18.64-13.78l1.02-5.35-.2-.04c-3.52,3.95-9.35,6.53-16.78,5.11-11.88-2.27-18.47-13.99-15.94-27.25,3.1-16.24,15.45-23.42,26.44-21.33,8.32,1.59,12.04,6.81,13.36,11.17l.2.04,1.78-7.15,7.62,1.45Zm-12.62,17.19c.28-1.49.43-2.79.26-4.05-.62-5.35-4.08-10.32-10.42-11.53-8.32-1.59-15.6,4.31-17.71,15.4-1.79,9.41,1.46,18.13,10.87,19.93,5.35,1.02,10.84-1.42,13.78-6.61.78-1.39,1.3-3.04,1.58-4.52l1.64-8.61Z"/><path d="m1395.14,392.95c.68-3.56,3.65-5.67,7.01-5.02,3.56.68,5.35,3.69,4.67,7.25-.66,3.46-3.45,5.7-7.01,5.02-3.46-.66-5.33-3.79-4.67-7.25Zm5.18-13.68l7.68-47.78,9.5,1.81-10.45,47.25-6.73-1.28Z"/></g></g></svg>