<?xml version="1.0" encoding="UTF-8"?><svg id="Layer_1" xmlns="http://www.w3.org/2000/svg" width="160mm" height="100mm" xmlns:xlink="http://www.w3.org/1999/xlink" viewBox="0 0 453.54 283.46"><defs><style>.cls-1{clip-path:url(#clippath-2);}.cls-2{clip-path:url(#clippath-1);}.cls-3{clip-path:url(#clippath);}.cls-4{fill:none;}.cls-5{fill:url(#linear-gradient);}</style><clipPath id="clippath"><rect class="cls-4" x="2.94" y="2.53" width="447.66" height="278.4"/></clipPath><clipPath id="clippath-1"><path class="cls-4" d="m128.27,42v.49s-.5,0-.5,0c-29.86.1-54.15,17.57-54.15,38.96v.5h-.5c-27.09.11-49.13,17.34-49.13,38.42,0,6.76,2.29,13.41,6.63,19.23l.4.54-.63.23c-16.62,5.98-26.95,17.78-26.95,30.81,0,16.03,16.24,30.24,38.61,33.77l.62.1-.24.58c-1.26,3.12-1.89,6.35-1.89,9.6,0,20.14,24.29,36.53,54.14,36.53,4.12,0,8.25-.32,12.26-.94l.42-.06.13.4c5.56,16.64,28.52,28.71,54.61,28.71,13.15,0,25.93-3.05,35.99-8.59.48-.26.95-.53,1.41-.8l.27-.16.26.17c.56.37,1.13.72,1.71,1.07,9.47,5.71,21.56,8.85,34.06,8.85,14.16,0,27.82-4.08,37.66-11.23-.73-.24-1.44-.49-2.12-.74l-1.66-.61,1.74-.34c1.92-.38,3.86-.8,5.76-1.23l1.9-.43-1.45,1.3c-.65.58-1.33,1.15-2.01,1.69,7.69,2.32,15.88,3.49,24.36,3.49,21.64,0,41.84-8.03,52.73-20.94l.2-.24.3.07c4.5,1.09,9.2,1.65,13.95,1.65,27.23,0,49.38-18.21,49.38-40.59,0-6.01-1.56-11.79-4.64-17.19l-.33-.58.65-.15c22.68-5.39,37.91-19.47,37.91-35.05s-14.22-28.89-36.24-34.63l-.77-.2.52-.61c5.18-6.08,7.92-13.08,7.92-20.24,0-19.71-20.57-36.34-47.84-38.68l-.91-.08.56-.73c2.71-3.5,4.08-7.23,4.08-11.06,0-15.37-22.26-27.88-49.63-27.88-15.92,0-30.99,4.36-40.32,11.65-.23.17-.45.35-.67.53l-.28.24-.31-.2c-.73-.46-1.45-.9-2.17-1.3-8.84-5.03-19.28-7.69-30.2-7.69-3.57,0-7.14.29-10.6.86-.32.05-.65.11-.96.17l-.37.07-.3-.58c-8.34-15.5-30.42-25.92-54.95-25.92-31.99,0-58.19,17.48-58.4,38.97"/></clipPath><linearGradient id="linear-gradient" x1="-90.41" y1="-95.8" x2="-89.41" y2="-95.8" gradientTransform="translate(-26348.15 -24800.23) rotate(-90) scale(277.4 -277.4)" gradientUnits="userSpaceOnUse"><stop offset="0" stop-color="#1e441f"/><stop offset=".53" stop-color="#306732"/><stop offset=".72" stop-color="#407b42"/><stop offset="1" stop-color="#559658"/></linearGradient><clipPath id="clippath-2"><rect class="cls-4" x="2.94" y="2.53" width="447.66" height="278.4"/></clipPath></defs><g id="big_bush"><g class="cls-3"><g class="cls-2"><rect class="cls-5" x="3.44" y="3.03" width="446.66" height="277.4"/></g><g class="cls-1"><path d="m186.67,3.53c24.35,0,46.25,10.31,54.5,25.64l.07.13.07.13.34.66.73-.14c.31-.06.63-.11.95-.16,3.43-.57,6.97-.85,10.51-.85,10.83,0,21.19,2.64,29.96,7.63.7.39,1.4.81,2.14,1.28l.62.39.56-.47c.22-.18.43-.35.66-.53,9.24-7.23,24.2-11.54,40.01-11.54,27.09,0,49.13,12.28,49.13,27.38,0,3.73-1.34,7.34-3.98,10.76l-1.12,1.45,1.83.16c27.01,2.32,47.38,18.73,47.38,38.18,0,7.04-2.7,13.92-7.8,19.92l-1.03,1.21,1.54.4c21.79,5.68,35.86,19.08,35.86,34.15s-15.08,29.23-37.52,34.57l-1.3.31.66,1.16c3.04,5.33,4.57,11.03,4.57,16.94,0,22.1-21.93,40.08-48.88,40.08-4.71,0-9.36-.55-13.83-1.63l-.6-.15-.4.47c-10.79,12.81-30.85,20.76-52.34,20.76-8.1,0-15.93-1.08-23.3-3.2.44-.36.87-.73,1.29-1.11l2.9-2.59-3.79.87c-1.89.43-3.82.85-5.75,1.23l-3.48.69,3.32,1.23c.39.14.79.29,1.2.43-9.69,6.73-22.89,10.57-36.57,10.57-12.4,0-24.4-3.12-33.8-8.78-.66-.39-1.19-.73-1.68-1.06l-.52-.35-.54.32c-.46.27-.92.54-1.4.8-9.99,5.5-22.68,8.53-35.75,8.53-25.88,0-48.64-11.93-54.13-28.37l-.27-.8-.83.13c-3.99.62-8.09.93-12.19.93-29.58,0-53.64-16.16-53.64-36.03,0-3.19.62-6.36,1.86-9.42l.47-1.17-1.24-.2c-10.73-1.7-20.46-5.94-27.39-11.95-7.06-6.12-10.79-13.49-10.79-21.33,0-12.81,10.2-24.44,26.62-30.34l1.27-.46-.81-1.08c-4.27-5.74-6.53-12.28-6.53-18.93,0-20.8,21.82-37.82,48.63-37.92h1v-1c0-21.11,24.07-38.37,53.65-38.46h.99s.01-.99.01-.99c.21-21.21,26.18-38.47,57.9-38.47m0-1c-32.39,0-58.69,17.65-58.9,39.46-30.2.1-54.65,17.72-54.65,39.46-27.43.11-49.63,17.49-49.63,38.92,0,7.12,2.45,13.79,6.73,19.53-16.2,5.82-27.28,17.64-27.28,31.28,0,16.73,16.68,30.73,39.03,34.27-1.26,3.12-1.93,6.4-1.93,9.79,0,20.45,24.46,37.03,54.64,37.03,4.25,0,8.38-.33,12.34-.95,5.55,16.62,28.11,29.06,55.08,29.06,13.79,0,26.43-3.25,36.23-8.65.48-.26.96-.54,1.42-.81.56.37,1.14.73,1.72,1.08,9.23,5.56,21.22,8.92,34.31,8.92,15.3,0,29.08-4.58,38.74-11.91-1.02-.32-2.04-.66-3.03-1.03,1.94-.38,3.87-.79,5.78-1.23-.87.78-1.79,1.54-2.75,2.26,7.75,2.44,16.36,3.8,25.43,3.8,22.67,0,42.47-8.49,53.11-21.12,4.46,1.08,9.18,1.66,14.07,1.66,27.55,0,49.88-18.4,49.88-41.08,0-6.23-1.69-12.15-4.71-17.44,22.35-5.31,38.29-19.22,38.29-35.54s-15.15-29.52-36.61-35.12c5.1-5.99,8.04-13.03,8.04-20.56,0-20.19-21.09-36.84-48.3-39.18,2.69-3.48,4.19-7.32,4.19-11.37,0-15.67-22.44-28.38-50.13-28.38-16.72,0-31.52,4.63-40.63,11.76-.23.18-.46.36-.68.55-.71-.46-1.44-.89-2.19-1.31-8.58-4.88-19.09-7.75-30.44-7.75-3.66,0-7.23.3-10.68.86-.33.05-.65.11-.97.17-.04-.09-.09-.17-.13-.26-8.22-15.27-29.92-26.18-55.39-26.18"/></g></g></g></svg>