<?xml version="1.0" encoding="UTF-8"?><svg id="Layer_1" xmlns="http://www.w3.org/2000/svg" width="150mm" height="130mm" xmlns:xlink="http://www.w3.org/1999/xlink" viewBox="0 0 425.2 368.5"><defs><style>.cls-1{clip-path:url(#clippath-11);}.cls-2{fill:#fff;}.cls-3{clip-path:url(#clippath-2);}.cls-4{clip-path:url(#clippath-13);}.cls-5{stroke:#231f20;stroke-miterlimit:10;stroke-width:3px;}.cls-5,.cls-6{fill:none;}.cls-7{clip-path:url(#clippath-6);}.cls-8{fill:#fddcd1;}.cls-9{clip-path:url(#clippath-7);}.cls-10{clip-path:url(#clippath-1);}.cls-11{clip-path:url(#clippath-4);}.cls-12{fill:#fdddd0;}.cls-13{fill:#fddbcf;}.cls-14{clip-path:url(#clippath-12);}.cls-15{clip-path:url(#clippath-9);}.cls-16{clip-path:url(#clippath);}.cls-17{clip-path:url(#clippath-3);}.cls-18{clip-path:url(#clippath-8);}.cls-19{fill:#f6cde1;}.cls-20{clip-path:url(#clippath-14);}.cls-21{clip-path:url(#clippath-5);}.cls-22{clip-path:url(#clippath-10);}.cls-23{fill:#231f20;}.cls-24{fill:#a31e22;}</style><clipPath id="clippath"><rect class="cls-6" x="2.33" y="2.45" width="420.54" height="363.61"/></clipPath><clipPath id="clippath-1"><rect class="cls-6" x="129.97" y="214.28" width="109.75" height="151.78"/></clipPath><clipPath id="clippath-2"><rect class="cls-6" x="2.33" y="2.45" width="420.54" height="363.61"/></clipPath><clipPath id="clippath-3"><rect class="cls-6" x="315.58" y="203.69" width="25.99" height="21.17" transform="translate(-12.92 407.29) rotate(-62.59)"/></clipPath><clipPath id="clippath-4"><rect class="cls-6" x="224.24" y="165.56" width="72.12" height="126.79" transform="translate(-47.71 388.04) rotate(-68.65)"/></clipPath><clipPath id="clippath-5"><rect class="cls-6" x="46.3" y="266.23" width="19.6" height="25.36" transform="translate(-227.03 251.07) rotate(-73.01)"/></clipPath><clipPath id="clippath-6"><rect class="cls-6" x="58.24" y="200.57" width="117.15" height="87.21" transform="translate(-151.06 283.05) rotate(-72.69)"/></clipPath><clipPath id="clippath-7"><rect class="cls-6" x="2.33" y="2.45" width="420.54" height="363.61"/></clipPath><clipPath id="clippath-8"><rect class="cls-6" x="109.94" y="48.12" width="165.88" height="196.05"/></clipPath><clipPath id="clippath-9"><rect class="cls-6" x="2.33" y="2.45" width="420.54" height="363.61"/></clipPath><clipPath id="clippath-10"><rect class="cls-6" x="129.05" y="157.31" width="127.64" height="29.95"/></clipPath><clipPath id="clippath-11"><rect class="cls-6" x="160.96" y="126.45" width="63.84" height="49.68"/></clipPath><clipPath id="clippath-12"><rect class="cls-6" x="2.33" y="2.45" width="420.54" height="363.61"/></clipPath><clipPath id="clippath-13"><rect class="cls-6" x="180.3" y="167.1" width="15.67" height="30.77"/></clipPath><clipPath id="clippath-14"><rect class="cls-6" x="2.33" y="2.45" width="420.54" height="363.61"/></clipPath></defs><g id="englishman"><g class="cls-16"><g class="cls-10"><path class="cls-2" d="m219.47,223.87s19.64,81.44,18.71,128.39l-106.43,12.13c-3.69-73.32,29.31-148.47,29.31-148.47l15.56,2.12,42.85,5.83Z"/><path class="cls-5" d="m219.47,223.87s19.64,81.44,18.71,128.39l-106.43,12.13c-3.69-73.32,29.31-148.47,29.31-148.47l15.56,2.12,42.85,5.83Z"/></g><g class="cls-3"><path class="cls-24" d="m197.33,284.85c.44,23.69.89,47.38,1.33,71.06-8.31,1.05-16.63,2.1-24.95,3.16,1.84-24.67,3.67-49.33,5.51-73.99-12-.59-25.05-2.76-37.95-7.77,1.26-4.48,2.52-8.95,3.78-13.43,7.16,2.11,15.32,3.96,24.38,5.13,3.73.48,7.37.82,10.91,1.03,1.26-16.94,2.53-33.87,3.79-50.81,4,.65,8,1.31,12,1.97.31,16.31.61,32.63.92,48.94,11.81-.54,22.12-2.32,30.47-4.31l2.63,13.08s-13.49,4.54-32.82,5.94"/><path class="cls-5" d="m197.33,284.85c.44,23.69.89,47.38,1.33,71.06-8.31,1.05-16.63,2.1-24.95,3.16,1.84-24.67,3.67-49.33,5.51-73.99-12-.59-25.05-2.76-37.95-7.77,1.26-4.48,2.52-8.95,3.78-13.43,7.16,2.11,15.32,3.96,24.38,5.13,3.73.48,7.37.82,10.91,1.03,1.26-16.94,2.53-33.87,3.79-50.81,4,.65,8,1.31,12,1.97.31,16.31.61,32.63.92,48.94,11.81-.54,22.12-2.32,30.47-4.31l2.63,13.08s-13.49,4.54-32.82,5.94Z"/></g><g class="cls-17"><path class="cls-8" d="m327.46,226.07s17.68-12.17,10.62-19.39c-7.05-7.22-19.27,7.17-19.27,7.17l8.65,12.22Z"/><path class="cls-5" d="m327.46,226.07s17.68-12.17,10.62-19.39c-7.05-7.22-19.27,7.17-19.27,7.17l8.65,12.22Z"/></g><g class="cls-11"><path class="cls-2" d="m207.17,208.39s5.36,43.67,39.9,52.07c34.54,8.41,79.52-31.33,79.52-31.33,0,0,5.23-7.58-8.95-14.76,0,0-33.3,29.52-64.23,29.89-30.93.37-46.24-35.86-46.24-35.86"/><path class="cls-5" d="m207.17,208.39s5.36,43.67,39.9,52.07c34.54,8.41,79.52-31.33,79.52-31.33,0,0,5.23-7.58-8.95-14.76,0,0-33.3,29.52-64.23,29.89-30.93.37-46.24-35.86-46.24-35.86Z"/></g><g class="cls-21"><path class="cls-8" d="m64.67,287.83s-21.46.58-20.01-9.41c1.44-9.99,19.8-5.56,19.8-5.56l.21,14.97Z"/><path class="cls-5" d="m64.67,287.83s-21.46.58-20.01-9.41c1.44-9.99,19.8-5.56,19.8-5.56l.21,14.97Z"/></g><g class="cls-7"><path class="cls-2" d="m152.31,202.93s20.53,38.91-3.03,65.53c-23.56,26.62-83.18,19.68-83.18,19.68,0,0-8.62-3.24-1.08-17.23,0,0,44.19,5.22,69.8-12.13,25.6-17.36,17.49-55.84,17.49-55.84"/><path class="cls-5" d="m152.31,202.93s20.53,38.91-3.03,65.53c-23.56,26.62-83.18,19.68-83.18,19.68,0,0-8.62-3.24-1.08-17.23,0,0,44.19,5.22,69.8-12.13,25.6-17.36,17.49-55.84,17.49-55.84Z"/></g><g class="cls-9"><path class="cls-23" d="m269.72,136.25c0,54.57-34.23,98.81-76.45,98.81s-76.45-44.24-76.45-98.81,34.23-98.81,76.45-98.81,76.45,44.24,76.45,98.81"/><ellipse class="cls-5" cx="193.26" cy="136.25" rx="76.45" ry="98.81"/></g><g class="cls-18"><path class="cls-8" d="m273.75,150.37c-1.69,12.71-6.65,22.53-11.07,21.94-1-.14-1.89-.8-2.65-1.89-7.74,41.56-34.86,72.25-67.15,72.25s-59.8-31.13-67.31-73.14c-.92,1.7-2.06,2.72-3.37,2.86-4.43.45-9.1-9.51-10.41-22.26-1.32-12.74,1.21-23.45,5.64-23.91,2.36-.24,4.78,2.46,6.72,6.95,4.55-47.17,33.58-83.55,68.73-83.55s64.35,36.58,68.77,83.95c2.13-4.74,4.73-7.59,7.17-7.26,4.41.58,6.62,11.36,4.93,24.06"/><path class="cls-5" d="m273.75,150.37c-1.69,12.71-6.65,22.53-11.07,21.94-1-.14-1.89-.8-2.65-1.89-7.74,41.56-34.86,72.25-67.15,72.25s-59.8-31.13-67.31-73.14c-.92,1.7-2.06,2.72-3.37,2.86-4.43.45-9.1-9.51-10.41-22.26-1.32-12.74,1.21-23.45,5.64-23.91,2.36-.24,4.78,2.46,6.72,6.95,4.55-47.17,33.58-83.55,68.73-83.55s64.35,36.58,68.77,83.95c2.13-4.74,4.73-7.59,7.17-7.26,4.41.58,6.62,11.36,4.93,24.06Z"/></g><g class="cls-15"><path class="cls-23" d="m239.67,76.36c20.08,24.82,29.71,50.32,21.49,56.97-8.22,6.65-31.16-8.08-51.24-32.9-20.08-24.82-29.71-50.32-21.49-56.97,8.22-6.65,31.16,8.08,51.24,32.89"/><path class="cls-5" d="m239.67,76.36c20.08,24.82,29.71,50.32,21.49,56.97-8.22,6.65-31.16-8.08-51.24-32.9-20.08-24.82-29.71-50.32-21.49-56.97,8.22-6.65,31.16,8.08,51.24,32.89Z"/><path class="cls-23" d="m140.68,82.89c-16,23.07-22.31,46.39-14.09,52.09,8.22,5.7,27.85-8.38,43.85-31.45,16-23.07,22.31-46.39,14.09-52.09s-27.85,8.38-43.85,31.45"/><path class="cls-5" d="m140.68,82.89c-16,23.07-22.31,46.39-14.09,52.09,8.22,5.7,27.85-8.38,43.85-31.45,16-23.07,22.31-46.39,14.09-52.09s-27.85,8.38-43.85,31.45Z"/></g><g class="cls-22"><path class="cls-19" d="m256.51,168.08c1.55,7.86-6.74,16.11-18.52,18.43-11.78,2.32-22.58-2.16-24.13-10.01-1.55-7.86,6.74-16.11,18.52-18.43,11.78-2.32,22.58,2.16,24.14,10.01"/><path class="cls-19" d="m171.63,177.3c-1.85,7.79-12.82,11.86-24.5,9.09-11.68-2.77-19.65-11.33-17.81-19.12,1.85-7.79,12.81-11.86,24.5-9.09,11.68,2.77,19.65,11.33,17.81,19.12"/></g><g class="cls-1"><path class="cls-23" d="m180.92,151.29c0,12.89-4.13,23.34-9.23,23.34s-9.23-10.45-9.23-23.34,4.13-23.34,9.23-23.34,9.23,10.45,9.23,23.34"/><ellipse class="cls-5" cx="171.69" cy="151.29" rx="9.23" ry="23.34"/><path class="cls-23" d="m223.3,151.29c0,12.89-4.13,23.34-9.23,23.34s-9.23-10.45-9.23-23.34,4.13-23.34,9.23-23.34,9.23,10.45,9.23,23.34"/><ellipse class="cls-5" cx="214.06" cy="151.29" rx="9.23" ry="23.34"/></g><g class="cls-14"><path class="cls-23" d="m229.24,203.14c3.05,5.65-2.3,12.08-4.53,11.93-.56-.04-1.27-.51-1.88-2.47-.42,2.64-1.31,4.45-2.34,4.45-1.44,0-2.61-3.57-2.61-7.98,0-.56.02-1.1.06-1.63-.09.04-.18.07-.27.09.14.97.22,2.04.22,3.16,0,4.41-1.16,7.98-2.6,7.98-.66,0-1.27-.75-1.73-2-.47,1.86-1.21,3.06-2.04,3.06-.95,0-1.78-1.54-2.24-3.85-.4,2.77-1.32,4.71-2.38,4.71-.92,0-1.72-1.46-2.19-3.66-.42,2.54-1.29,4.27-2.3,4.27-.77,0-1.47-1.04-1.94-2.68-.48,1.64-1.17,2.68-1.95,2.68-1.44,0-2.6-3.57-2.6-7.98,0,4.41-1.17,7.98-2.61,7.98s-2.6-3.57-2.6-7.98c0-.89.05-1.74.14-2.54-.18,0-.37,0-.55,0,.09.8.14,1.66.14,2.55,0,4.41-1.17,7.98-2.6,7.98s-2.61-3.57-2.61-7.98c0,4.41-1.16,7.98-2.6,7.98s-2.58-3.46-2.61-7.77c-.14,4.01-1.25,7.16-2.6,7.16s-2.36-2.9-2.57-6.68c-.3,3.36-1.31,5.82-2.51,5.82s-2.14-2.34-2.49-5.57c-.41,2.67-1.31,4.51-2.34,4.51-.92,0-1.72-1.44-2.19-3.61-.45,1.24-1.05,1.99-1.72,1.99-.95,0-1.78-1.55-2.24-3.87-.36.92-.9,1.84-1.68,1.88-1.45.08-3.17-2.91-3.78-5.13-.4-1.47-.64-3.83.81-6.8,1.04-1.42,2.77-3.36,5.67-5.2,9.03-5.73,21.78-5.68,29.45-5.66,13.71.05,24.36,3.07,30.42,5.23,1.71.74,5.35,2.52,7.03,5.63"/><path class="cls-5" d="m229.24,203.14c3.05,5.65-2.3,12.08-4.53,11.93-.56-.04-1.27-.51-1.88-2.47-.42,2.64-1.31,4.45-2.34,4.45-1.44,0-2.61-3.57-2.61-7.98,0-.56.02-1.1.06-1.63-.09.04-.18.07-.27.09.14.97.22,2.04.22,3.16,0,4.41-1.16,7.98-2.6,7.98-.66,0-1.27-.75-1.73-2-.47,1.86-1.21,3.06-2.04,3.06-.95,0-1.78-1.54-2.24-3.85-.4,2.77-1.32,4.71-2.38,4.71-.92,0-1.72-1.46-2.19-3.66-.42,2.54-1.29,4.27-2.3,4.27-.77,0-1.47-1.04-1.94-2.68-.48,1.64-1.17,2.68-1.95,2.68-1.44,0-2.6-3.57-2.6-7.98,0,4.41-1.17,7.98-2.61,7.98s-2.6-3.57-2.6-7.98c0-.89.05-1.74.14-2.54-.18,0-.37,0-.55,0,.09.8.14,1.66.14,2.55,0,4.41-1.17,7.98-2.6,7.98s-2.61-3.57-2.61-7.98c0,4.41-1.16,7.98-2.6,7.98s-2.58-3.46-2.61-7.77c-.14,4.01-1.25,7.16-2.6,7.16s-2.36-2.9-2.57-6.68c-.3,3.36-1.31,5.82-2.51,5.82s-2.14-2.34-2.49-5.57c-.41,2.67-1.31,4.51-2.34,4.51-.92,0-1.72-1.44-2.19-3.61-.45,1.24-1.05,1.99-1.72,1.99-.95,0-1.78-1.55-2.24-3.87-.36.92-.9,1.84-1.68,1.88-1.45.08-3.17-2.91-3.78-5.13-.4-1.47-.64-3.83.81-6.8,1.04-1.42,2.77-3.36,5.67-5.2,9.03-5.73,21.78-5.68,29.45-5.66,13.71.05,24.36,3.07,30.42,5.23,1.71.74,5.35,2.52,7.03,5.63Z"/><path class="cls-13" d="m193.1,168.45s1.97,3.12-.28,8.39c-2.25,5.27-8.89,7.86-8.89,7.86l-1.58,8.1,4.66,3.73,3.18-.28,3.71-3.58-.8-24.21Z"/></g><g class="cls-4"><path class="cls-5" d="m192.35,167.49c1.16,4.45.41,7.1-.53,8.7-.48.81-2.26,2.49-5.8,5.8-2.48,2.32-3.16,2.9-3.69,4.22-1.12,2.81-.14,5.43,0,5.8.33.84,1.17,3.02,3.43,3.96,2.34.97,4.56-.07,5.54-.53,1.88-.89,3.43-3.17,3.43-3.17"/></g><g class="cls-20"><path class="cls-23" d="m290.95,101.02c-2.49,13.35-87.25.88-98.18-1.34-10.93-2.22-94.54-16.64-96.46-29.89-1.93-13.24,91.86-1.29,101.66.74,9.8,2.03,95.46,17.15,92.98,30.49"/><path class="cls-5" d="m290.95,101.02c-2.49,13.35-87.25.88-98.18-1.34-10.93-2.22-94.54-16.64-96.46-29.89-1.93-13.24,91.86-1.29,101.66.74,9.8,2.03,95.46,17.15,92.98,30.49Z"/><path class="cls-23" d="m135.54,70.07c15.63,1.8,31.01,5.04,46.45,8.23,8.73,1.26,17.47,2.43,26.19,3.78,13.5,2.09,27.18,3.25,40.49,6.4,4.5,1.06,8.95,2.2,13.45,3.2,1.33-3.6,2.35-7.37,3.01-11.28,5.97-35.44-19.2-69.22-56.2-75.45-37.01-6.23-71.84,17.45-77.81,52.9-.61,3.65-.86,7.27-.83,10.85,1.75.47,3.5.93,5.26,1.38"/><path class="cls-5" d="m135.54,70.07c15.63,1.8,31.01,5.04,46.45,8.23,8.73,1.26,17.47,2.43,26.19,3.78,13.5,2.09,27.18,3.25,40.49,6.4,4.5,1.06,8.95,2.2,13.45,3.2,1.33-3.6,2.35-7.37,3.01-11.28,5.97-35.44-19.2-69.22-56.2-75.45-37.01-6.23-71.84,17.45-77.81,52.9-.61,3.65-.86,7.27-.83,10.85,1.75.47,3.5.93,5.26,1.38Z"/><path class="cls-23" d="m101.26,66.37c1.65,3.27,1.71,6.57.13,7.37-1.58.8-4.2-1.21-5.85-4.49-1.65-3.27-1.71-6.57-.14-7.37,1.58-.8,4.2,1.21,5.85,4.49"/><path class="cls-5" d="m101.26,66.37c1.65,3.27,1.71,6.57.13,7.37-1.58.8-4.2-1.21-5.85-4.49-1.65-3.27-1.71-6.57-.14-7.37,1.58-.8,4.2,1.21,5.85,4.49Z"/><path class="cls-23" d="m291.47,101.01c-2.14,2.98-5.04,4.55-6.48,3.52-1.43-1.03-.86-4.28,1.28-7.26,2.14-2.98,5.04-4.55,6.48-3.52,1.43,1.03.86,4.28-1.28,7.26"/><path class="cls-5" d="m291.47,101.01c-2.14,2.98-5.04,4.55-6.48,3.52-1.43-1.03-.86-4.28,1.28-7.26,2.14-2.98,5.04-4.55,6.48-3.52,1.43,1.03.86,4.28-1.28,7.26Z"/><path class="cls-23" d="m110.23,67.3c-.4,1.31-4.2,1.29-8.48-.03-4.28-1.32-7.42-3.45-7.02-4.76.4-1.3,4.2-1.29,8.48.03,4.28,1.32,7.42,3.45,7.02,4.76"/><path class="cls-5" d="m110.23,67.3c-.4,1.31-4.2,1.29-8.48-.03-4.28-1.32-7.42-3.45-7.02-4.76.4-1.3,4.2-1.29,8.48.03,4.28,1.32,7.42,3.45,7.02,4.76Z"/><path class="cls-23" d="m293.21,94.08c-.05,1.37-3.71,2.35-8.19,2.2-4.48-.15-8.07-1.38-8.02-2.74.05-1.37,3.71-2.35,8.19-2.2,4.48.15,8.07,1.38,8.02,2.74"/><path class="cls-5" d="m293.21,94.08c-.05,1.37-3.71,2.35-8.19,2.2-4.48-.15-8.07-1.38-8.02-2.74.05-1.37,3.71-2.35,8.19-2.2,4.48.15,8.07,1.38,8.02,2.74Z"/><path class="cls-12" d="m228.39,130.57c.78,4.84-5.83,9.92-14.76,11.36-8.93,1.44-16.8-1.32-17.58-6.16-.78-4.84,5.83-9.92,14.76-11.36,8.93-1.44,16.8,1.32,17.58,6.16"/><path class="cls-12" d="m187.68,137.09c-1.26,4.65-9.45,6.47-18.3,4.08-8.85-2.39-15.01-8.1-13.75-12.74s9.45-6.47,18.3-4.08c8.85,2.39,15.01,8.1,13.75,12.74"/><path class="cls-24" d="m402.46,205.79c.09,2.34-.43,4.6-1.47,6.7-.41.83-.9,1.64-1.47,2.42-4.22,5.81-12.58,9.96-22.34,10.35-14.37.58-26.35-7.2-26.76-17.37-.41-10.17,10.91-18.89,25.28-19.47,14.37-.58,26.35,7.2,26.76,17.37"/><path class="cls-5" d="m402.46,205.79c.09,2.34-.43,4.6-1.47,6.7-.41.83-.9,1.64-1.47,2.42-4.22,5.81-12.58,9.96-22.34,10.35-14.37.58-26.35-7.2-26.76-17.37-.41-10.17,10.91-18.89,25.28-19.47,14.37-.58,26.35,7.2,26.76,17.37Z"/><path class="cls-5" d="m356.89,219.4c-4.47,3.82-10.6,4.95-15.91,2.86-.42-.17-8.51-3.5-9.45-11.76-.87-7.68,5.24-12.59,5.81-13.04,4.94-3.84,12.03-4.23,18-1"/><path class="cls-24" d="m391.81,189.98c.12,2.87-6.63,5.48-15.08,5.82-8.44.34-15.38-1.71-15.49-4.59-.12-2.87,6.63-5.48,15.07-5.82s15.38,1.71,15.49,4.59"/><path class="cls-5" d="m391.81,189.98c.12,2.87-6.63,5.48-15.08,5.82-8.44.34-15.38-1.71-15.49-4.59-.12-2.87,6.63-5.48,15.07-5.82s15.38,1.71,15.49,4.59Z"/><path class="cls-24" d="m379.04,185.28c.09,2.37-1.05,4.33-2.56,4.39-1.51.06-2.81-1.81-2.9-4.17-.1-2.36,1.05-4.33,2.56-4.39,1.51-.06,2.81,1.81,2.9,4.17"/><path class="cls-5" d="m379.04,185.28c.09,2.37-1.05,4.33-2.56,4.39-1.51.06-2.81-1.81-2.9-4.17-.1-2.36,1.05-4.33,2.56-4.39,1.51-.06,2.81,1.81,2.9,4.17Z"/><path class="cls-24" d="m421.38,196.83s-5.67,15.34-23.52,20.07l1.14-2,1.37-2.41.95-2.55.47-3.01.13-3.41-1.07-3.72c9.6.2,13.32-4.76,13.32-4.76"/><path class="cls-5" d="m421.38,196.83s-5.67,15.34-23.52,20.07l1.14-2,1.37-2.41.95-2.55.47-3.01.13-3.41-1.07-3.72c9.6.2,13.32-4.76,13.32-4.76"/><path class="cls-23" d="m421.36,196.69c-.16.97-1.94,1.49-3.99,1.16-2.05-.33-3.58-1.38-3.43-2.35s1.94-1.49,3.99-1.16c2.05.33,3.58,1.38,3.43,2.35"/><path class="cls-5" d="m421.36,196.69c-.16.97-1.94,1.49-3.99,1.16-2.05-.33-3.58-1.38-3.43-2.35s1.94-1.49,3.99-1.16c2.05.33,3.58,1.38,3.43,2.35Z"/><path class="cls-24" d="m413.94,195.49s3.02,3.78,7.42,1.2"/><path class="cls-5" d="m413.94,195.49s3.02,3.78,7.42,1.2"/><path class="cls-24" d="m40.15,269.54c-2.34.05-4.65.12-6.97.11-3.92.3-7.81.83-11.73,1.12-5.46.41-10.59.43-16.02-.2-.44-.05-.88-.1-1.31-.15-.17,1.02-.28,2.06-.28,3.12,0,10.28,8.33,18.61,18.61,18.61s18.61-8.33,18.61-18.61c0-1.38-.16-2.71-.44-4-.15,0-.31,0-.46,0"/><path class="cls-5" d="m40.15,269.54c-2.34.05-4.65.12-6.97.11-3.92.3-7.81.83-11.73,1.12-5.46.41-10.59.43-16.02-.2-.44-.05-.88-.1-1.31-.15-.17,1.02-.28,2.06-.28,3.12,0,10.28,8.33,18.61,18.61,18.61s18.61-8.33,18.61-18.61c0-1.38-.16-2.71-.44-4-.15,0-.31,0-.46,0Z"/><path class="cls-2" d="m40.56,269.15c0,1.92-8.11,3.48-18.12,3.48s-18.12-1.56-18.12-3.48,8.11-3.48,18.12-3.48,18.12,1.56,18.12,3.48"/><ellipse class="cls-5" cx="22.44" cy="269.15" rx="18.12" ry="3.48"/><path class="cls-5" d="m40.92,271.34c.91.02,2.28.03,3.95-.01,2.69-.07,3.59-.22,4.25.39.36.34.78,1.03.49,3.46-.25,2.12-.59,4.95-2.57,7.52-4.17,5.41-11.7,4.6-12.03,4.56"/></g></g></g></svg>