<?xml version="1.0" encoding="UTF-8"?><svg xmlns="http://www.w3.org/2000/svg" width="2954.05" height="1661.66" xmlns:xlink="http://www.w3.org/1999/xlink" viewBox="0 0 2954.05 1661.66"><defs><style>.cls-1{fill:url(#linear-gradient);stroke:#000;stroke-miterlimit:10;}</style><linearGradient id="linear-gradient" x1="1501.45" y1="295.84" x2="1501.45" y2="61.12" gradientUnits="userSpaceOnUse"><stop offset="0" stop-color="#cecece"/><stop offset=".39" stop-color="#e0e0e0"/><stop offset="1" stop-color="#fff"/></linearGradient></defs><g id="Layer_15"><path class="cls-1" d="m2323.95,182.41c0,12.35-31.61,24.03-87.72,34.36-9.29,5.36-25.61,10.14-44.83,12.54-14.96,1.88-29,1.97-39.9.61.46-.28.92-.58,1.36-.88-1.36.17-2.74.33-4.11.49.88.15,1.8.27,2.75.38-16.96,10.75-43.14,17.63-72.5,17.63-11.31,0-22.12-1.02-32.13-2.89-10.47,10.56-28.13,17.49-48.15,17.49-12.52,0-24.13-2.71-33.62-7.33-39.65,24.29-123.05,41.03-219.52,41.03-85.08,0-160.01-13.02-203.71-32.76-10.35,7.05-24.66,11.42-40.42,11.42-14.65,0-28.03-3.77-38.18-9.97-20.07,4.2-43.42,6.6-68.32,6.6-37.09,0-70.73-5.33-95.26-13.99.38-.21.75-.43,1.11-.65-1.03-.02-2.08-.04-3.11-.07.66.25,1.33.48,2,.72-12.75,7.15-32.49,11.75-54.66,11.75-24.27,0-45.65-5.5-58.1-13.85-25.04,5.17-56.28,8.23-90.18,8.23-52.73,0-99.08-7.42-125.59-18.63-18.63,2.61-39.01,4.03-60.38,4.03-65,0-120.93-13.23-145.87-32.23-55.02-10.24-85.97-21.8-85.97-34.03,0-8.74,15.79-17.14,44.88-24.95-.03-.15-.05-.29-.08-.44-2.15-12.63,33.29-25.83,79.12-29.48,11.35-.9,22.28-1.13,32.33-.79,20.69-17.97,75.7-30.82,140.32-30.82,37.49,0,71.73,4.31,97.93,11.47,18.27-9.16,43.62-14.84,71.65-14.84,22.66,0,43.57,3.71,60.41,9.97,25.87-22.59,78.61-38.05,139.48-38.05s114.13,15.62,139.86,38.39c20.4-24.45,71.14-41.76,130.49-41.76s109.61,17.15,130.21,41.42c13.55-14.84,36.41-24.57,62.31-24.57,28.98,0,54.15,12.19,66.75,30.07,14.39-4.75,32.8-7.6,52.86-7.6,35.6,0,66.01,8.97,78.02,21.63,7.88.56,15.63,1.15,23.25,1.74,8.96-2.72,19.43-4.28,30.62-4.28,16.74,0,31.9,3.49,42.75,9.12,18.99-6.27,45.79-8.02,73.8-3.66,26.58,4.13,48.73,12.9,62.18,23.43,54.97,10.23,85.89,21.79,85.89,34.01Z"/></g><g id="Layer_22"><image width="3465" height="1735" transform="translate(2935 -32.31)" xlink:href="foreground1.png"/></g></svg>