<?xml version="1.0" encoding="UTF-8"?><svg id="Layer_1" xmlns="http://www.w3.org/2000/svg" width="250mm" height="120mm" xmlns:xlink="http://www.w3.org/1999/xlink" viewBox="0 0 708.66 340.16"><defs><style>.cls-1{clip-path:url(#clippath-2);}.cls-2{fill:#a09f9f;}.cls-3{clip-path:url(#clippath-1);}.cls-4{clip-path:url(#clippath-4);}.cls-5{fill:#add3d8;}.cls-6{fill:#724d1e;}.cls-7{stroke:#231f20;stroke-width:5.16px;}.cls-7,.cls-8{stroke-miterlimit:10;}.cls-7,.cls-8,.cls-9{fill:none;}.cls-10{clip-path:url(#clippath);}.cls-8{stroke:#000;stroke-width:5px;}.cls-11{clip-path:url(#clippath-3);}.cls-12{clip-path:url(#clippath-5);}</style><clipPath id="clippath"><rect class="cls-9" x=".4" y="1.98" width="707.86" height="336.2"/></clipPath><clipPath id="clippath-1"><rect class="cls-9" x=".4" y="1.98" width="707.86" height="336.2"/></clipPath><clipPath id="clippath-2"><rect class="cls-9" x="396.65" y="111.77" width="296.09" height="151.76" transform="translate(-1.17 371.89) rotate(-37.66)"/></clipPath><clipPath id="clippath-3"><rect class="cls-9" x="396.65" y="111.77" width="296.09" height="151.76" transform="translate(-1.17 371.89) rotate(-37.66)"/></clipPath><clipPath id="clippath-4"><polygon class="cls-9" points="110.46 1.98 .4 106.48 .4 106.48 204.28 321.19 314.34 216.69 110.46 1.98"/></clipPath><clipPath id="clippath-5"><polygon class="cls-9" points=".4 106.48 .4 106.48 204.28 321.19 314.34 216.69 110.46 1.98 .4 106.48"/></clipPath></defs><g id="how_to_axe"><g class="cls-10"><g class="cls-3"><path class="cls-5" d="m517.82,299.54l-354.22-23.38c-32.32-2.13-56.8-30.07-54.66-62.39l7.29-110.46c2.13-32.32,30.07-56.8,62.39-54.66l354.22,23.38c32.32,2.13,56.8,30.07,54.66,62.39l-7.29,110.46c-2.13,32.32-30.07,56.8-62.39,54.66"/><path class="cls-8" d="m517.82,299.54l-354.22-23.38c-32.32-2.13-56.8-30.07-54.66-62.39l7.29-110.46c2.13-32.32,30.07-56.8,62.39-54.66l354.22,23.38c32.32,2.13,56.8,30.07,54.66,62.39l-7.29,110.46c-2.13,32.32-30.07,56.8-62.39,54.66Z"/></g><path d="m189.5,80.44l-1.73,26.2,34.25,2.26,1.73-26.2,9.25.61-4.13,62.61-9.25-.61,1.94-29.35-34.25-2.26-1.94,29.35-9.14-.6,4.13-62.61,9.14.6Z"/><path d="m307.36,119.01c-1.42,21.55-16.99,32-35.06,30.81-18.7-1.23-30.99-14.92-29.74-33.87,1.31-19.88,16.15-31.96,35.06-30.71,19.33,1.28,30.97,15.2,29.75,33.78Zm-55.02-2.61c-.88,13.38,6.52,25.9,20.92,26.85,14.5.96,23.47-10.3,24.41-24.51.82-12.45-5.68-25.94-20.91-26.94-15.13-1-23.51,10.86-24.42,24.6Z"/><path d="m328.68,152.51l-13.84-63.79,9.67.64,6.31,32.23c1.59,7.94,2.96,15.87,3.82,21.99h.21c1.57-6.13,4.26-13.42,7.21-21.34l11.54-30.96,9.56.63,6.52,32.34c1.51,7.56,2.91,15.12,3.52,21.78h.21c1.92-6.76,4.38-13.6,7.1-21.25l11.44-30.97,9.35.62-24.2,61.28-9.56-.63-6.78-33.19c-1.68-8.13-2.75-14.36-3.27-20.74h-.21c-1.67,6.13-3.65,12.15-6.81,20.06l-12.24,31.94-9.56-.63Z"/><path d="m441.21,103.96l-21.54-1.42.45-6.87,52.43,3.46-.45,6.87-21.64-1.43-3.68,55.73-9.25-.61,3.68-55.73Z"/><path d="m536.2,134.11c-1.42,21.55-16.99,32-35.06,30.81-18.7-1.23-30.99-14.92-29.74-33.87,1.31-19.88,16.14-31.96,35.06-30.71,19.33,1.28,30.97,15.2,29.75,33.78Zm-55.02-2.61c-.88,13.38,6.52,25.9,20.92,26.85,14.5.96,23.48-10.3,24.41-24.51.82-12.45-5.68-25.94-20.91-26.94-15.13-1-23.51,10.86-24.42,24.6Z"/><path d="m270.71,240.86l-8.65,19.21-9.46-.62,28.19-61.02,11.03.73,20.03,64.2-9.77-.65-6.27-20.19-25.11-1.66Zm23.64-4.78l-5.75-18.48c-1.31-4.19-2.11-7.98-2.92-11.67h-.21c-1.3,3.63-2.7,7.37-4.32,11.08l-8.13,17.66,21.33,1.41Z"/><path d="m359.57,266.5l-8.12-14.44c-3.33-5.54-5.41-9.13-7.38-12.9h-.21c-2.24,3.48-4.45,6.69-8.49,11.93l-9.42,13.19-10.51-.69,23.73-30.25-18.76-32.31,10.61.7,8.38,15.29c2.36,4.26,4.14,7.55,5.82,11.02l.31.02c2.24-3.58,4.22-6.35,7.11-10.17l10.63-14.04,10.51.69-23.55,29.05,19.94,33.6-10.61-.7Z"/><path d="m419.4,240.97l-27.53-1.82-1.49,22.57,30.68,2.03-.45,6.78-39.82-2.63,4.13-62.61,38.25,2.52-.45,6.78-29.11-1.92-1.31,19.79,27.53,1.82-.44,6.69Z"/><g class="cls-1"><polygon class="cls-6" points="454.45 303.35 466.57 311.44 621.92 81.58 609.81 73.49 454.45 303.35"/></g><g class="cls-11"><polygon class="cls-7" points="454.45 303.35 466.57 311.44 621.92 81.58 609.81 73.49 454.45 303.35"/><path class="cls-6" d="m453.08,305.4c-.11.17-.16.38-.16.64.06,1.32,1.99,3.6,4.82,5.49,2.82,1.89,5.65,2.78,6.9,2.33.24-.1.42-.23.53-.4.75-1.12-1.32-3.85-4.66-6.08-3.34-2.23-6.67-3.1-7.42-1.98"/><path class="cls-7" d="m453.08,305.4c-.11.17-.16.38-.16.64.06,1.32,1.99,3.6,4.82,5.49,2.82,1.89,5.65,2.78,6.9,2.33.24-.1.42-.23.53-.4.75-1.12-1.32-3.85-4.66-6.08-3.34-2.23-6.67-3.1-7.42-1.98Z"/><path class="cls-6" d="m611.39,71.17c-.86,1.29,1.15,4.14,4.49,6.37,3.34,2.23,6.74,2.99,7.6,1.7.86-1.29-1.15-4.14-4.49-6.37-3.34-2.23-6.74-2.99-7.6-1.7"/><path class="cls-7" d="m611.39,71.17c-.86,1.29,1.15,4.14,4.49,6.37,3.34,2.23,6.74,2.99,7.6,1.7.86-1.29-1.15-4.14-4.49-6.37-3.34-2.23-6.74-2.99-7.6-1.7Z"/><path class="cls-2" d="m608.53,101.64c38.25,30.78,79.01,35.36,79.01,35.36,0,0-10.04,33.78-44.78,67.08,0,0-15.68-38.44-59.85-64.06l25.62-38.38Z"/><path class="cls-7" d="m608.53,101.64c38.25,30.78,79.01,35.36,79.01,35.36,0,0-10.04,33.78-44.78,67.08,0,0-15.68-38.44-59.85-64.06l25.62-38.38Z"/><path class="cls-2" d="m542.84,120.36c5.64,1.57,11.94,3.81,18.57,7.04,2.76,1.35,5.34,2.75,7.72,4.16,8.7-13.03,17.4-26.07,26.1-39.1-2.6-1.69-5.33-3.65-8.12-5.92-5.37-4.36-9.67-8.83-13.09-12.9l-31.19,46.72Z"/><path class="cls-7" d="m542.84,120.36c5.64,1.57,11.94,3.81,18.57,7.04,2.76,1.35,5.34,2.75,7.72,4.16,8.7-13.03,17.4-26.07,26.1-39.1-2.6-1.69-5.33-3.65-8.12-5.92-5.37-4.36-9.67-8.83-13.09-12.9l-31.19,46.72Z"/></g><g class="cls-4"><polygon class="cls-6" points="228.8 289.75 215.59 295.89 97.33 44.92 110.54 38.78 228.8 289.75"/></g><g class="cls-12"><polygon class="cls-7" points="228.8 289.75 215.59 295.89 97.33 44.92 110.54 38.78 228.8 289.75"/><path class="cls-6" d="m229.84,291.99c.08.18.1.4.06.66-.26,1.3-2.52,3.25-5.6,4.68-3.08,1.43-6.01,1.88-7.17,1.25-.22-.14-.38-.29-.46-.47-.57-1.22,1.89-3.6,5.54-5.3,3.64-1.69,7.07-2.04,7.64-.82"/><path class="cls-7" d="m229.84,291.99c.08.18.1.4.06.66-.26,1.3-2.52,3.25-5.6,4.68-3.08,1.43-6.01,1.88-7.17,1.25-.22-.14-.38-.29-.46-.47-.57-1.22,1.89-3.6,5.54-5.3,3.64-1.69,7.07-2.04,7.64-.82Z"/><path class="cls-6" d="m109.33,36.25c.65,1.41-1.77,3.91-5.41,5.61-3.64,1.69-7.12,1.92-7.77.52-.65-1.4,1.77-3.91,5.41-5.6,3.64-1.69,7.12-1.92,7.77-.52"/><path class="cls-7" d="m109.33,36.25c.65,1.41-1.77,3.91-5.41,5.61-3.64,1.69-7.12,1.92-7.77.52-.65-1.4,1.77-3.91,5.41-5.6,3.64-1.69,7.12-1.92,7.77-.52Z"/><path class="cls-2" d="m107.48,66.79c-42.51,24.55-83.5,22.82-83.5,22.82,0,0,4.74,34.92,33.96,73.16,0,0,21.39-35.58,68.97-54.12l-19.43-41.85Z"/><path class="cls-7" d="m107.48,66.79c-42.51,24.55-83.5,22.82-83.5,22.82,0,0,4.74,34.92,33.96,73.16,0,0,21.39-35.58,68.97-54.12l-19.43-41.85Z"/><path class="cls-2" d="m169.53,95.37c-5.81.69-12.39,1.94-19.43,4.11-2.94.91-5.7,1.9-8.27,2.93-6.6-14.21-13.2-28.43-19.8-42.64,2.83-1.28,5.83-2.79,8.93-4.61,5.97-3.49,10.91-7.24,14.91-10.74l23.65,50.95Z"/><path class="cls-7" d="m169.53,95.37c-5.81.69-12.39,1.94-19.43,4.11-2.94.91-5.7,1.9-8.27,2.93-6.6-14.21-13.2-28.43-19.8-42.64,2.83-1.28,5.83-2.79,8.93-4.61,5.97-3.49,10.91-7.24,14.91-10.74l23.65,50.95Z"/></g></g></g></svg>