<?xml version="1.0" encoding="UTF-8"?><svg id="Layer_1" xmlns="http://www.w3.org/2000/svg" width="120mm" height="165mm" xmlns:xlink="http://www.w3.org/1999/xlink" viewBox="0 0 340.16 467.72"><defs><style>.cls-1{fill:#2f8b43;}.cls-2{fill:#fff;}.cls-3{stroke:#000;}.cls-3,.cls-4{stroke-miterlimit:10;}.cls-3,.cls-4,.cls-5{fill:none;}.cls-4{stroke:#231f20;stroke-width:3px;}.cls-6{clip-path:url(#clippath-1);}.cls-7{fill:#fddbcf;}.cls-8{fill:#f68b22;}.cls-9{clip-path:url(#clippath);}.cls-10{fill:#f4cce0;}.cls-11{fill:#724e1f;}.cls-12{fill:#231f20;}</style><clipPath id="clippath"><rect class="cls-5" x="8.03" y="6.91" width="324.11" height="453.9"/></clipPath><clipPath id="clippath-1"><rect class="cls-5" x="8.03" y="6.91" width="324.11" height="453.9"/></clipPath></defs><g id="irishman"><g class="cls-9"><g class="cls-6"><path class="cls-1" d="m173.72,318.62s19.64,81.44,18.71,128.39l-106.42,12.13c-3.69-73.32,29.31-148.47,29.31-148.47l15.56,2.12,42.85,5.83Z"/><path class="cls-4" d="m173.72,318.62s19.64,81.44,18.71,128.39l-106.42,12.13c-3.69-73.32,29.31-148.47,29.31-148.47l15.56,2.12,42.85,5.83Z"/><path class="cls-1" d="m111.03,456.28s-.06-77.93,21.34-143.29l-17.06-2.32s-27.98,57.22-29.31,148.47l25.02-2.85Z"/><path class="cls-3" d="m111.03,456.28s-.06-77.93,21.34-143.29l-17.06-2.32s-27.98,57.22-29.31,148.47l25.02-2.85Z"/><path class="cls-8" d="m156.33,316.25s11.56,53.19,8.46,133.9l27.64-3.15s-.35-56.86-18.71-128.39l-17.39-2.37Z"/><path class="cls-4" d="m156.33,316.25s11.56,53.19,8.46,133.9l27.64-3.15s-.35-56.86-18.71-128.39l-17.39-2.37Z"/><path class="cls-2" d="m164.79,450.15l-53.76,6.13s-.06-75.82,21.34-143.29l23.96,3.26s12.62,56.88,8.46,133.9"/><path class="cls-4" d="m164.79,450.15l-53.76,6.13s-.06-75.82,21.34-143.29l23.96,3.26s12.62,56.88,8.46,133.9Z"/><path class="cls-7" d="m292.09,290.83s10.09-18.94.5-22.11c-9.59-3.17-13.81,15.24-13.81,15.24l13.31,6.87Z"/><path class="cls-4" d="m292.09,290.83s10.09-18.94.5-22.11c-9.59-3.17-13.81,15.24-13.81,15.24l13.31,6.87Z"/><path class="cls-4" d="m330.24,295.11c-3.89-13.48-5.06-19.15-6.1-33.46-.78-10.75.6-13.08,1.05-18.65,0,0,.23-3.44.03-7.03-.48-8.71-4.28-17.71-5.46-20.39-3.39,3.07-10.09,8.29-20,11-13.43,3.66-24.63.5-29-1,.14,2.68.83,13.58,4.81,21.75,1.56,3.19,3.45,6.08,3.45,6.08,3.21,4.75,5.68,6.14,10.27,15.98,6.07,13.02,7.81,18.13,10.71,31.71l30.25-5.97Z"/><path class="cls-4" d="m319.03,214.21c-.95-4.83-12.5-6.61-25.79-3.99-13.29,2.62-23.29,8.66-22.34,13.49.95,4.83,12.5,6.61,25.79,3.99,13.29-2.62,23.29-8.66,22.34-13.49Z"/><path class="cls-4" d="m330.24,295.11c-.6-3.03-7.86-4.15-16.21-2.51-8.35,1.65-14.64,5.44-14.04,8.48.6,3.03,7.85,4.15,16.21,2.51,8.35-1.65,14.64-5.44,14.04-8.48Z"/><path class="cls-11" d="m315.92,303.47c-7.9,1.56-14.77.5-15.34-2.37-2.61-9.07-3.7-12.62-4.75-15.43-1.29-3.45-2.34-6.38-4.9-12.08-2.83-6.3-7.06-14.73-13.23-24.39l45.73-.2c.22.09.58.28.75.64.36.75-.36,1.73-.4,1.94-.24,1.51-.31,4.08.33,12.76,1.32,17.84,4.36,28.66,4.99,30.74.07.25.11.37.11.37.56,2.87-5.39,6.46-13.29,8.02"/><path class="cls-4" d="m315.92,303.47c-7.9,1.56-14.77.5-15.34-2.37-2.61-9.07-3.7-12.62-4.75-15.43-1.29-3.45-2.34-6.38-4.9-12.08-2.83-6.3-7.06-14.73-13.23-24.39l45.73-.2c.22.09.58.28.75.64.36.75-.36,1.73-.4,1.94-.24,1.51-.31,4.08.33,12.76,1.32,17.84,4.36,28.66,4.99,30.74.07.25.11.37.11.37.56,2.87-5.39,6.46-13.29,8.02Z"/><path class="cls-11" d="m324.73,246.8c0-4.92-10.98-8.91-24.53-8.91s-24.53,3.99-24.53,8.91,10.98,8.91,24.53,8.91,24.53-3.99,24.53-8.91"/><path class="cls-4" d="m324.73,246.8c0-4.92-10.98-8.91-24.53-8.91s-24.53,3.99-24.53,8.91,10.98,8.91,24.53,8.91,24.53-3.99,24.53-8.91Z"/><path class="cls-8" d="m173.72,318.62s20.89,38.72,56.12,33.97c35.23-4.75,62.66-58.14,62.66-58.14,0,0,2.11-8.96-13.71-10.49,0,0-20.27,39.62-48.94,51.22-28.68,11.6-56.12-16.56-56.12-16.56"/><path class="cls-4" d="m173.72,318.62s20.89,38.72,56.12,33.97c35.23-4.75,62.66-58.14,62.66-58.14,0,0,2.11-8.96-13.71-10.49,0,0-20.27,39.62-48.94,51.22-28.68,11.6-56.12-16.56-56.12-16.56Z"/><path class="cls-7" d="m11.8,251.18s-6.83-20.35,3.15-21.89c9.98-1.54,11.1,17.31,11.1,17.31l-14.26,4.58Z"/><path class="cls-4" d="m11.8,251.18s-6.83-20.35,3.15-21.89c9.98-1.54,11.1,17.31,11.1,17.31l-14.26,4.58Z"/><path class="cls-1" d="m118.25,309.81s-31.04,31.17-63.47,16.6c-32.42-14.57-43.53-73.56-43.53-73.56,0,0,.53-9.19,16.13-6.15,0,0,8.16,43.75,32.35,63.03,24.19,19.28,58.51.09,58.51.09"/><path class="cls-4" d="m118.25,309.81s-31.04,31.17-63.47,16.6c-32.42-14.57-43.53-73.56-43.53-73.56,0,0,.53-9.19,16.13-6.15,0,0,8.16,43.75,32.35,63.03,24.19,19.28,58.51.09,58.51.09Z"/><path class="cls-8" d="m64.02,249.17c.02.37-.01.71-.05,1.18-.04.47-.18,1.23-.31,1.74-.22-.59-.44-1.18-.63-1.79-.63-1.94-1.2-3.9-1.72-5.88.52-.12,1.03-.27,1.54-.45.64,1.72,1.05,3.35,1.17,5.2"/><path class="cls-4" d="m64.02,249.17c.02.37-.01.71-.05,1.18-.04.47-.18,1.23-.31,1.74-.22-.59-.44-1.18-.63-1.79-.63-1.94-1.2-3.9-1.72-5.88.52-.12,1.03-.27,1.54-.45.64,1.72,1.05,3.35,1.17,5.2Z"/><path class="cls-8" d="m64.75,221.19c-.77.97-1.31,1.81-2.35,2.6-1.03.79-2.41,1.38-3.69,1.77-.05-.89-.05-1.79-.04-2.69.01-1.65.08-3.29.16-4.93,1.8,1.53,3.65,2.56,5.92,3.25"/><path class="cls-4" d="m64.75,221.19c-.77.97-1.31,1.81-2.35,2.6-1.03.79-2.41,1.38-3.69,1.77-.05-.89-.05-1.79-.04-2.69.01-1.65.08-3.29.16-4.93,1.8,1.53,3.65,2.56,5.92,3.25Z"/><path class="cls-8" d="m62.6,200.45c-.32.87-.62,1.74-.92,2.62-.54-.44-1.04-.91-1.52-1.41.78-.48,1.58-.88,2.44-1.21"/><path class="cls-4" d="m62.6,200.45c-.32.87-.62,1.74-.92,2.62-.54-.44-1.04-.91-1.52-1.41.78-.48,1.58-.88,2.44-1.21Z"/><path class="cls-8" d="m62.49,223.76c-1.19.8-2.42,1.38-3.79,1.8-.02-.9-.04-1.8-.03-2.69,1.32.15,2.57.44,3.82.89"/><path class="cls-4" d="m62.49,223.76c-1.19.8-2.42,1.38-3.79,1.8-.02-.9-.04-1.8-.03-2.69,1.32.15,2.57.44,3.82.89Z"/><path class="cls-8" d="m62.6,200.45c-.32.87-.62,1.74-.92,2.62-.54-.44-1.04-.91-1.52-1.41.78-.48,1.58-.88,2.44-1.21"/><path class="cls-4" d="m62.6,200.45c-.32.87-.62,1.74-.92,2.62-.54-.44-1.04-.91-1.52-1.41.78-.48,1.58-.88,2.44-1.21Z"/><path class="cls-8" d="m63.98,250.26c-.08.62-.19,1.24-.33,1.85-.22-.6-.43-1.2-.63-1.8.32-.03.64-.04.96-.05"/><path class="cls-4" d="m63.98,250.26c-.08.62-.19,1.24-.33,1.85-.22-.6-.43-1.2-.63-1.8.32-.03.64-.04.96-.05Z"/><path class="cls-8" d="m243.41,222.34c-.27-2.3-.62-4.5-1.36-6.69,1.47-2.8,2.92-5.47,2.89-8.73-.07-6.26-1.91-10.05-7.46-13.06-.03-.02-.04.01-.05-.01-1.84-3.96-2.52-8.16-3.89-12.27.43-1.61,1.39-3.06,1.15-4.8-.9-6.44-4.05-10.57-10.37-12.13-3.51-.87-5.72,1.21-8.41,2.87-21.54-14.21-44.42-23.86-70.6-23.14-22.65.62-41.14,9.66-59.74,21.66-2.12-.42-3.53-1.95-5.93-1.23-6.39,1.91-10.25,6.06-11.32,12.65-.45,2.77,1.31,4.3,2.08,6.67.2.61.75.85,1.09,1.33-.23-.15-.58-.08-.82-.11-.24-.03-.19-.39-.33-.5-.64-.51-.64-2.11-1.71-1.9-6.2,1.17-9.8,4.52-11.07,10.71-.63,3.07,1.16,5.11,2.4,7.67.81-.49,1.6-.89,2.47-1.22-.32.87-.63,1.74-.92,2.62-.55-.44-1.03-.92-1.55-1.4-1.13.93-2.11,1.96-2.97,3.15-.51,0-1.05-.24-1.57-.11-5.73,1.42-9.54,4.22-9.78,10.44-.18,4.68,3.13,7.04,6.4,9.72-2.21,2.6-3.57,5.14-3.92,8.6-.15,1.46.45,2.84.67,4.25-4.29,2.81-8.01,5.61-7.7,11.26.38,6.97,4.72,10.07,11.08,11.81.38.1.79-.22,1.14,0,.01,0,0,.03,0,.04.61,4.55,2.49,7.18,6.24,9.77,2.3,3.37,4.78,5.5,8.95,5.83,2.82.23,4.73-1.44,7.05-2.63,19.55,19.79,43.37,32.29,71.62,32.03,28.25-.26,50.97-12.91,70.69-32.21,1.15-.1,2.18.55,3.39.32,6.27-1.22,9.5-4.59,10.9-10.67.31-1.33-.46-2.71-.53-3.49-.07-.77-.07-.48-.06-.49,1.29-2.78,2.57-5.59,3.28-8.62-.02.01.08,0,.09,0,8.32-2.06,14.03-5.99,15.21-14.85.8-5.98-3.07-9.17-6.72-13.14m-180.57,27.64c-.63-1.94-1.2-3.91-1.71-5.88.52-.12,1.04-.27,1.54-.45.63,1.72,1.05,3.35,1.17,5.2.02.37-.01.71-.05,1.18-.04.47-.18,1.23-.31,1.74-.22-.59-.44-1.18-.63-1.79m-4.2-32.36c1.8,1.53,3.65,2.56,5.92,3.26-.77.97-1.31,1.81-2.35,2.6-1.03.79-2.41,1.38-3.69,1.77-.05-.89-.05-1.79-.04-2.69.01-1.65.07-3.29.16-4.93m174.81-9.6c-.25,0-.5-.07-.75-.05-2.3.22-4.16.92-6.02,2.28-.18-.62-.32-1.25-.43-1.89,2.33-1.3,4.32-2.89,6.24-4.74.32,1.47.64,2.93.96,4.4"/><path class="cls-4" d="m243.41,222.34c-.27-2.3-.62-4.5-1.36-6.69,1.47-2.8,2.92-5.47,2.89-8.73-.07-6.26-1.91-10.05-7.46-13.06-.03-.02-.04.01-.05-.01-1.84-3.96-2.52-8.16-3.89-12.27.43-1.61,1.39-3.06,1.15-4.8-.9-6.44-4.05-10.57-10.37-12.13-3.51-.87-5.72,1.21-8.41,2.87-21.54-14.21-44.42-23.86-70.6-23.14-22.65.62-41.14,9.66-59.74,21.66-2.12-.42-3.53-1.95-5.93-1.23-6.39,1.91-10.25,6.06-11.32,12.65-.45,2.77,1.31,4.3,2.08,6.67.2.61.75.85,1.09,1.33-.23-.15-.58-.08-.82-.11-.24-.03-.19-.39-.33-.5-.64-.51-.64-2.11-1.71-1.9-6.2,1.17-9.8,4.52-11.07,10.71-.63,3.07,1.16,5.11,2.4,7.67.81-.49,1.6-.89,2.47-1.22-.32.87-.63,1.74-.92,2.62-.55-.44-1.03-.92-1.55-1.4-1.13.93-2.11,1.96-2.97,3.15-.51,0-1.05-.24-1.57-.11-5.73,1.42-9.54,4.22-9.78,10.44-.18,4.68,3.13,7.04,6.4,9.72-2.21,2.6-3.57,5.14-3.92,8.6-.15,1.46.45,2.84.67,4.25-4.29,2.81-8.01,5.61-7.7,11.26.38,6.97,4.72,10.07,11.08,11.81.38.1.79-.22,1.14,0,.01,0,0,.03,0,.04.61,4.55,2.49,7.18,6.24,9.77,2.3,3.37,4.78,5.5,8.95,5.83,2.82.23,4.73-1.44,7.05-2.63,19.55,19.79,43.37,32.29,71.62,32.03,28.25-.26,50.97-12.91,70.69-32.21,1.15-.1,2.18.55,3.39.32,6.27-1.22,9.5-4.59,10.9-10.67.31-1.33-.46-2.71-.53-3.49-.07-.77-.07-.48-.06-.49,1.29-2.78,2.57-5.59,3.28-8.62-.02.01.08,0,.09,0,8.32-2.06,14.03-5.99,15.21-14.85.8-5.98-3.07-9.17-6.72-13.14Zm-180.57,27.64c-.63-1.94-1.2-3.91-1.71-5.88.52-.12,1.04-.27,1.54-.45.63,1.72,1.05,3.35,1.17,5.2.02.37-.01.71-.05,1.18-.04.47-.18,1.23-.31,1.74-.22-.59-.44-1.18-.63-1.79Zm-4.2-32.36c1.8,1.53,3.65,2.56,5.92,3.26-.77.97-1.31,1.81-2.35,2.6-1.03.79-2.41,1.38-3.69,1.77-.05-.89-.05-1.79-.04-2.69.01-1.65.07-3.29.16-4.93Zm174.81-9.6c-.25,0-.5-.07-.75-.05-2.3.22-4.16.92-6.02,2.28-.18-.62-.32-1.25-.43-1.89,2.33-1.3,4.32-2.89,6.24-4.74.32,1.47.64,2.93.96,4.4Z"/><path class="cls-8" d="m62.85,243.97c.64,1.72,1.05,3.35,1.17,5.2.02.37-.01.71-.05,1.18-.04.47-.18,1.23-.31,1.74-.22-.59-.44-1.18-.63-1.79-.63-1.94-1.2-3.9-1.72-5.88.52-.12,1.03-.27,1.54-.45"/><path class="cls-4" d="m62.85,243.97c.64,1.72,1.05,3.35,1.17,5.2.02.37-.01.71-.05,1.18-.04.47-.18,1.23-.31,1.74-.22-.59-.44-1.18-.63-1.79-.63-1.94-1.2-3.9-1.72-5.88.52-.12,1.03-.27,1.54-.45Z"/><path class="cls-8" d="m62.49,223.76c-1.19.8-2.42,1.38-3.79,1.8-.02-.89-.04-1.8-.03-2.69.01-1.65.07-3.29.16-4.93,1.4,1.24,2.87,2.18,4.58,2.91"/><path class="cls-4" d="m62.49,223.76c-1.19.8-2.42,1.38-3.79,1.8-.02-.89-.04-1.8-.03-2.69.01-1.65.07-3.29.16-4.93,1.4,1.24,2.87,2.18,4.58,2.91"/><path class="cls-8" d="m63.41,220.86c.44.13.88.25,1.32.34-.66.95-1.39,1.79-2.24,2.56"/><path class="cls-4" d="m63.41,220.86c.44.13.88.25,1.32.34-.66.95-1.39,1.79-2.24,2.56"/><path class="cls-8" d="m70.55,184.5c.35.45.77.82,1.18,1.2-.28-.16-.68.02-.93,0-.25-.01-.26-.31-.31-.5-.05-.19.1-.49.06-.71"/><path class="cls-4" d="m70.55,184.5c.35.45.77.82,1.18,1.2-.28-.16-.68.02-.93,0-.25-.01-.26-.31-.31-.5-.05-.19.1-.49.06-.71Z"/><path class="cls-8" d="m238.84,224.67c0,43.27-41.12,78.35-91.84,78.35s-91.84-35.08-91.84-78.35,41.12-78.35,91.84-78.35,91.84,35.08,91.84,78.35"/><path class="cls-7" d="m231.22,231.8c-1.69,12.71-6.65,22.53-11.07,21.94-1-.14-1.89-.8-2.65-1.89-7.74,41.56-34.86,72.25-67.15,72.25s-59.8-31.13-67.31-73.14c-.92,1.7-2.06,2.72-3.37,2.86-4.43.45-9.1-9.51-10.41-22.26-1.32-12.74,1.21-23.45,5.64-23.91,2.36-.24,4.78,2.46,6.72,6.95,4.55-47.17,33.58-83.55,68.73-83.55s64.35,36.58,68.77,83.95c2.13-4.74,4.73-7.59,7.17-7.26,4.41.58,6.62,11.36,4.93,24.06"/><path class="cls-4" d="m231.22,231.8c-1.69,12.71-6.65,22.53-11.07,21.94-1-.14-1.89-.8-2.65-1.89-7.74,41.56-34.86,72.25-67.15,72.25s-59.8-31.13-67.31-73.14c-.92,1.7-2.06,2.72-3.37,2.86-4.43.45-9.1-9.51-10.41-22.26-1.32-12.74,1.21-23.45,5.64-23.91,2.36-.24,4.78,2.46,6.72,6.95,4.55-47.17,33.58-83.55,68.73-83.55s64.35,36.58,68.77,83.95c2.13-4.74,4.73-7.59,7.17-7.26,4.41.58,6.62,11.36,4.93,24.06Z"/><path class="cls-10" d="m213.5,249.31c1.55,7.86-6.74,16.11-18.52,18.43-11.78,2.32-22.58-2.16-24.13-10.01-1.55-7.86,6.74-16.11,18.52-18.43,11.78-2.32,22.58,2.16,24.14,10.01"/><path class="cls-10" d="m128.61,258.54c-1.85,7.79-12.82,11.86-24.5,9.09-11.68-2.77-19.65-11.33-17.81-19.12,1.85-7.79,12.81-11.86,24.5-9.09,11.68,2.77,19.65,11.33,17.81,19.12"/><path class="cls-12" d="m137.63,233.34c0,12.89-4.13,23.34-9.23,23.34s-9.23-10.45-9.23-23.34,4.13-23.34,9.23-23.34,9.23,10.45,9.23,23.34"/><ellipse class="cls-4" cx="128.39" cy="233.34" rx="9.23" ry="23.34"/><path class="cls-12" d="m180,233.34c0,12.89-4.13,23.34-9.23,23.34s-9.23-10.45-9.23-23.34,4.13-23.34,9.23-23.34,9.23,10.45,9.23,23.34"/><ellipse class="cls-4" cx="170.77" cy="233.34" rx="9.23" ry="23.34"/><path class="cls-8" d="m223.12,305.77c1.66,3.59,4.12,5.32,2.68,9.7-3.01,9.18-8.22,15.51-17.25,19.53-2.75,1.93-5.59,3.21-8.73,4.28-.1.27.12.58-.05.85-6.51,10.71-15.43,12.29-27.36,12.07-6.92-.13-12.95-2.61-19.18-5.27-5.89,7.06-10.59,14.44-20.72,14.68-12.12.29-18.26-7.09-24.28-16.66-3.18-.27-6.4-.45-9.51-1.27-18.74-4.94-26.51-7.62-32.71-26.61-2.29-7.01,2.7-9.75,3.09-16.08-2.16-4.84-4.46-8.4-3.25-14.04,1.21-5.64,3.59-11.09,9.29-13.34,0,0,0-.02,0-.03-.44-2.2-.9-5.32-.6-7.45,1.2-8.51,5.15-18.15,15.05-17.54,9.89.62,12.66,10.96,12.74,19.53.02,2.07-.78,5.12-1.44,7.16,1.22,1.76,2.26,3.27,3.04,5.34.4,1.06-.38,2.48-.42,3.62,0,.1.2-.05.29-.01,3.98,1.7,7.58,3.88,11.45,5.94,11.3-1.82,24.24-6.55,35.35-5.74,14.04,1.03,24.53,2.57,37.89-.9,2.2.77,4.61,1.37,6.8,2.28-1.99-3.13-3.99-5.76-1.62-9.24,2.84-4.17,6.26-7.42,10.48-10.09-.34-1.35-.81-2.91-.7-4.34.51-6.5,4.07-12.06,11.09-12.01s10.66,5.6,11.27,12.06c.24,2.54-.86,5-1.95,7.15,4.55,4.97,6.92,9.61,8.06,16.56,1.34,8.22-2.01,14.94-8.8,19.89"/><path class="cls-4" d="m223.12,305.77c1.66,3.59,4.12,5.32,2.68,9.7-3.01,9.18-8.22,15.51-17.25,19.53-2.75,1.93-5.59,3.21-8.73,4.28-.1.27.12.58-.05.85-6.51,10.71-15.43,12.29-27.36,12.07-6.92-.13-12.95-2.61-19.18-5.27-5.89,7.06-10.59,14.44-20.72,14.68-12.12.29-18.26-7.09-24.28-16.66-3.18-.27-6.4-.45-9.51-1.27-18.74-4.94-26.51-7.62-32.71-26.61-2.29-7.01,2.7-9.75,3.09-16.08-2.16-4.84-4.46-8.4-3.25-14.04,1.21-5.64,3.59-11.09,9.29-13.34,0,0,0-.02,0-.03-.44-2.2-.9-5.32-.6-7.45,1.2-8.51,5.15-18.15,15.05-17.54,9.89.62,12.66,10.96,12.74,19.53.02,2.07-.78,5.12-1.44,7.16,1.22,1.76,2.26,3.27,3.04,5.34.4,1.06-.38,2.48-.42,3.62,0,.1.2-.05.29-.01,3.98,1.7,7.58,3.88,11.45,5.94,11.3-1.82,24.24-6.55,35.35-5.74,14.04,1.03,24.53,2.57,37.89-.9,2.2.77,4.61,1.37,6.8,2.28-1.99-3.13-3.99-5.76-1.62-9.24,2.84-4.17,6.26-7.42,10.48-10.09-.34-1.35-.81-2.91-.7-4.34.51-6.5,4.07-12.06,11.09-12.01s10.66,5.6,11.27,12.06c.24,2.54-.86,5-1.95,7.15,4.55,4.97,6.92,9.61,8.06,16.56,1.34,8.22-2.01,14.94-8.8,19.89Z"/><path class="cls-8" d="m147.3,280.65c6.7-4.72,12.5-8.7,21.17-9.95,8.67-1.25,16.04,6.28,22.06,12.12,9.72,1.69,14.89-2.38,16.18-12.04-1.05,14.5-5.71,21.11-19.76,28.67-3.16,1.7-16.33,1.25-21.03-2.12-4.71-3.37-10.74-6.47-16.56-6.77"/><path class="cls-4" d="m147.3,280.65c6.7-4.72,12.5-8.7,21.17-9.95,8.67-1.25,16.04,6.28,22.06,12.12,9.72,1.69,14.89-2.38,16.18-12.04-1.05,14.5-5.71,21.11-19.76,28.67-3.16,1.7-16.33,1.25-21.03-2.12-4.71-3.37-10.74-6.47-16.56-6.77"/><path class="cls-8" d="m150.89,280.38c-7.18-4.38-13.38-7.12-22.14-8.13-8.76-1.01-15.55,3.54-21.04,10.5-9.56,2.59-14.48-1.21-16.46-10.67,2.27,14.61,7.68,20.32,21.83,27.75,3.14,1.65,15.07,1.38,19.58-2.47,3.55-3.04,12.2-5.67,15.71-6.65.94-.26,1.51-.41,1.51-.41"/><path class="cls-4" d="m150.89,280.38c-7.18-4.38-13.38-7.12-22.14-8.13-8.76-1.01-15.55,3.54-21.04,10.5-9.56,2.59-14.48-1.21-16.46-10.67,2.27,14.61,7.68,20.32,21.83,27.75,3.14,1.65,15.07,1.38,19.58-2.47,3.55-3.04,12.2-5.67,15.71-6.65.94-.26,1.51-.41,1.51-.41"/><path class="cls-8" d="m152.02,290.88l-3.64-.16,3.64.16Z"/><path class="cls-4" d="m152.02,290.88l-3.64-.16,3.64.16Z"/><path class="cls-7" d="m149.84,249.52s1.97,3.12-.28,8.39c-2.25,5.27-8.89,7.86-8.89,7.86l-1.58,8.1,4.66,3.73,3.18-.28,3.71-3.58-.8-24.21Z"/><path class="cls-4" d="m149.65,248.7c1.16,4.45.41,7.1-.53,8.7-.48.81-2.26,2.49-5.8,5.8-2.48,2.32-3.16,2.9-3.69,4.22-1.12,2.81-.14,5.43,0,5.8.33.84,1.17,3.02,3.43,3.96,2.34.97,4.56-.07,5.54-.53,1.88-.89,3.43-3.17,3.43-3.17"/><path class="cls-8" d="m103.01,181.54c.41,1.71,1.08,3.14.9,5.01-.77,7.7-5.32,12.2-13.03,13.17.98,2.87.8,6.46.08,9.12-1.49,5.5-7.87,9.84-10.71,4.77-2.83-5.07-7.31-5.81-7.1-11.12.16-3.95,4-6.31,7.3-7.66-1.54-2.65-3.07-5.01-2.8-8.33.62-7.7,5.43-12.3,13.1-13.16.07,0,.21.07.2,0-.05-.62-.25-1.22-.17-1.93.67-6.06,5.25-9.99,11.29-9.98,6.04,0,11.07,3.89,11.18,9.99.11,6.1-4.87,9.16-10.23,10.13"/><path class="cls-4" d="m103.01,181.54c.41,1.71,1.08,3.14.9,5.01-.77,7.7-5.32,12.2-13.03,13.17.98,2.87.8,6.46.08,9.12-1.49,5.5-7.87,9.84-10.71,4.77-2.83-5.07-7.31-5.81-7.1-11.12.16-3.95,4-6.31,7.3-7.66-1.54-2.65-3.07-5.01-2.8-8.33.62-7.7,5.43-12.3,13.1-13.16.07,0,.21.07.2,0-.05-.62-.25-1.22-.17-1.93.67-6.06,5.25-9.99,11.29-9.98,6.04,0,11.07,3.89,11.18,9.99.11,6.1-4.87,9.16-10.23,10.13Z"/><path class="cls-8" d="m224.06,209.25c-3.3,4.4-7.06,13.07-9.58,6.24-2.52-6.83-7.72-8.94-12.54-14.44-.16-.18-.45-.8-.67-1.06-1.57-.21-3.53-.91-4.9-1.41-9.37-3.42-17.95-7.28-21.72-16.99-2.71,1.01-6.5,2.07-9.32,1.84-7.8-.64-17.28-4.38-16.92-13.38.36-8.99,10.19-11.31,17.99-11.35,5.7-.03,12.16,2.12,15.67,6.97,5.31-2.77,10.58-5.15,16.75-4.17,12.57,1.99,21.8,10.67,22.66,23.47.14,2.12-.55,3.46-1.11,5.52,3.33,3.71,6.17,15.44,3.68,18.76"/><path class="cls-4" d="m224.06,209.25c-3.3,4.4-7.06,13.07-9.58,6.24-2.52-6.83-7.72-8.94-12.54-14.44-.16-.18-.45-.8-.67-1.06-1.57-.21-3.53-.91-4.9-1.41-9.37-3.42-17.95-7.28-21.72-16.99-2.71,1.01-6.5,2.07-9.32,1.84-7.8-.64-17.28-4.38-16.92-13.38.36-8.99,10.19-11.31,17.99-11.35,5.7-.03,12.16,2.12,15.67,6.97,5.31-2.77,10.58-5.15,16.75-4.17,12.57,1.99,21.8,10.67,22.66,23.47.14,2.12-.55,3.46-1.11,5.52,3.33,3.71,6.17,15.44,3.68,18.76Z"/><path class="cls-1" d="m241.47,153.05c0,10.12-40.8,18.33-91.12,18.33s-91.12-8.21-91.12-18.33,40.8-18.33,91.12-18.33,91.12,8.21,91.12,18.33"/><ellipse class="cls-4" cx="150.35" cy="153.05" rx="91.12" ry="18.33"/><path class="cls-1" d="m112.03,20.41l-15.49,130.15s40.75,13.94,106.02,2.48l6.33-132.64"/><path class="cls-4" d="m112.03,20.41l-15.49,130.15s40.75,13.94,106.02,2.48l6.33-132.64"/><path class="cls-1" d="m208.9,20.41c0,6.63-21.68,12-48.43,12s-48.43-5.37-48.43-12,21.68-12,48.43-12,48.43,5.37,48.43,12"/><ellipse class="cls-4" cx="160.47" cy="20.41" rx="48.43" ry="12"/><path class="cls-12" d="m174.39,135.37c-38.2,9.59-75.58-3.8-75.58-3.8l2.67-22.45s30.67,11.91,71.29,5.58"/><path class="cls-4" d="m174.39,135.37c-38.2,9.59-75.58-3.8-75.58-3.8l2.67-22.45s30.67,11.91,71.29,5.58"/><path class="cls-11" d="m196.18,135.96c-4.53.73-11.56,1.8-16.16,1.75-4.59-.06-6.79-2.77-7.11-7.1-.32-4.34-.48-10.62-.1-14.91.38-4.28,2.25-6.86,6.63-7.65s10.99-2.11,15.53-2.46c4.54-.35,7.14,2.53,7.56,6.98.41,4.45.44,11.23.21,15.69-.23,4.46-2.04,6.96-6.56,7.69"/><path class="cls-4" d="m196.18,135.96c-4.53.73-11.56,1.8-16.16,1.75-4.59-.06-6.79-2.77-7.11-7.1-.32-4.34-.48-10.62-.1-14.91.38-4.28,2.25-6.86,6.63-7.65s10.99-2.11,15.53-2.46c4.54-.35,7.14,2.53,7.56,6.98.41,4.45.44,11.23.21,15.69-.23,4.46-2.04,6.96-6.56,7.69Z"/><path class="cls-12" d="m193.25,129.54c-2.26.35-5.78.86-8.08.83-2.3-.03-3.39-1.32-3.56-3.39-.16-2.07-.24-5.07-.05-7.11.19-2.04,1.12-3.27,3.32-3.65,2.19-.38,5.5-1.01,7.76-1.17,2.27-.17,3.57,1.21,3.78,3.33.21,2.12.22,5.36.11,7.48-.12,2.13-1.02,3.32-3.28,3.67"/><path class="cls-4" d="m193.25,129.54c-2.26.35-5.78.86-8.08.83-2.3-.03-3.39-1.32-3.56-3.39-.16-2.07-.24-5.07-.05-7.11.19-2.04,1.12-3.27,3.32-3.65,2.19-.38,5.5-1.01,7.76-1.17,2.27-.17,3.57,1.21,3.78,3.33.21,2.12.22,5.36.11,7.48-.12,2.13-1.02,3.32-3.28,3.67Z"/><line class="cls-4" x1="174.39" y1="135.37" x2="172.81" y2="115.7"/></g></g></g></svg>