<?xml version="1.0" encoding="UTF-8"?><svg id="Layer_12" xmlns="http://www.w3.org/2000/svg" width="2954.05" height="1661.66" xmlns:xlink="http://www.w3.org/1999/xlink" viewBox="0 0 2954.05 1661.66"><defs><style>.cls-1{fill:url(#linear-gradient-2);stroke:#000;stroke-miterlimit:10;stroke-width:2px;}.cls-2{fill:url(#linear-gradient-3);}.cls-3{fill:url(#linear-gradient);}</style><linearGradient id="linear-gradient" x1="1539.62" y1="1361.53" x2="1539.62" y2="1157.19" gradientUnits="userSpaceOnUse"><stop offset="0" stop-color="#040"/><stop offset=".53" stop-color="#2f6630"/><stop offset=".73" stop-color="#407b41"/><stop offset="1" stop-color="#569658"/></linearGradient><linearGradient id="linear-gradient-2" x1="16378.41" y1="709.4" x2="16378.41" y2="419.13" gradientTransform="translate(12611.88 730.67) rotate(179.35) scale(.64 -.65)" gradientUnits="userSpaceOnUse"><stop offset="0" stop-color="#333"/><stop offset=".53" stop-color="#666"/><stop offset=".74" stop-color="#7e7e7e"/><stop offset="1" stop-color="#999"/></linearGradient><linearGradient id="linear-gradient-3" x1="862.08" y1="1259.61" x2="862.08" y2="1053.16" xlink:href="#linear-gradient"/></defs><path class="cls-3" d="m1546.48,1361.53c-9.47,0-18.65-2.31-25.83-6.51-.44-.26-.87-.52-1.29-.79l-.26-.16-.26.15c-.35.2-.71.4-1.07.59-7.63,4.08-17.33,6.32-27.31,6.32-19.78,0-37.2-8.87-41.4-21.09l-.14-.39-.41.06c-3.04.46-6.18.69-9.31.69-22.63,0-41.04-12.03-41.04-26.81,0-2.38.48-4.75,1.43-7.03l.25-.59-.63-.1c-16.95-2.6-29.25-13.02-29.25-24.78,0-9.55,7.82-18.21,20.41-22.6l.65-.23-.42-.55c-3.28-4.27-5.01-9.15-5.01-14.1,0-15.48,16.7-28.13,37.23-28.21h.5v-.5c0-15.7,18.41-28.54,41.05-28.61h.49s0-.5,0-.5c.16-15.78,20.02-28.61,44.28-28.61,18.61,0,35.35,7.66,41.67,19.05l.27.51.36-.06c.24-.04.48-.08.73-.12,2.62-.42,5.33-.63,8.04-.63,8.28,0,16.2,1.96,22.9,5.66.56.3,1.11.62,1.64.95l.3.19.28-.22c.17-.13.33-.26.5-.39,7.08-5.37,18.51-8.57,30.59-8.57,20.74,0,37.61,9.17,37.61,20.43,0,2.8-1.03,5.51-3.07,8.07l-.58.73.93.08c20.67,1.72,36.26,13.93,36.26,28.4,0,5.24-2.07,10.37-5.99,14.84l-.54.61.79.2c16.68,4.22,27.46,14.2,27.46,25.42s-11.54,21.76-28.73,25.72l-.66.15.35.59c2.33,3.96,3.51,8.21,3.51,12.61,0,16.43-16.79,29.8-37.42,29.8-3.6,0-7.16-.41-10.58-1.21l-.29-.07-.2.23c-8.25,9.5-23.58,15.41-40,15.41-6.35,0-12.48-.84-18.24-2.5.45-.35.9-.72,1.33-1.09l1.5-1.29-1.93.43c-1.45.32-2.91.62-4.38.91l-1.79.34,1.72.62c.45.16.9.32,1.36.46-7.44,5.16-17.71,8.11-28.34,8.11Z"/><path d="m1509.13,1157.69c18.43,0,35,7.55,41.24,18.81l.09.16.34.64.71-.13c.24-.04.48-.08.72-.12,2.6-.41,5.27-.63,7.96-.63,8.2,0,16.03,1.93,22.67,5.6.53.29,1.06.59,1.61.94l.61.37.55-.45c.16-.13.32-.26.49-.38,6.99-5.3,18.31-8.47,30.28-8.47,20.46,0,37.11,8.94,37.11,19.93,0,2.68-1,5.29-2.96,7.76l-1.17,1.46,1.87.16c20.41,1.7,35.8,13.69,35.8,27.9,0,5.12-2.03,10.14-5.86,14.51l-1.08,1.23,1.58.4c16.45,4.16,27.08,13.95,27.08,24.93s-11.39,21.33-28.34,25.24l-1.33.31.69,1.18c2.28,3.88,3.44,8.04,3.44,12.36,0,16.16-16.56,29.3-36.92,29.3-3.56,0-7.09-.4-10.47-1.2l-.59-.14-.4.46c-8.16,9.4-23.34,15.23-39.62,15.23-5.96,0-11.73-.75-17.17-2.22.2-.16.39-.33.58-.49l2.99-2.59-3.86.86c-1.43.32-2.9.62-4.36.9l-3.59.69,3.44,1.23c.14.05.27.1.41.15-7.29,4.76-17.08,7.45-27.22,7.45-9.39,0-18.47-2.29-25.58-6.44-.5-.29-.9-.54-1.27-.77l-.51-.33-.53.3c-.35.2-.7.39-1.06.58-7.56,4.04-17.17,6.26-27.07,6.26-19.58,0-36.79-8.73-40.93-20.76l-.27-.79-.82.12c-3.02.46-6.13.69-9.23.69-22.35,0-40.54-11.8-40.54-26.31,0-2.32.47-4.62,1.39-6.84l.49-1.18-1.26-.19c-16.7-2.56-28.82-12.78-28.82-24.29,0-9.33,7.69-17.81,20.07-22.13l1.31-.46-.84-1.1c-3.21-4.18-4.91-8.95-4.91-13.8,0-15.2,16.48-27.63,36.73-27.71h1v-1c0-15.43,18.19-28.04,40.55-28.11h.99s0-.99,0-.99c.15-15.5,19.79-28.12,43.78-28.12m0-1c-24.63,0-44.62,13.01-44.78,29.11-22.96.07-41.54,13.07-41.54,29.11-20.85.08-37.73,12.9-37.73,28.71,0,5.25,1.86,10.17,5.11,14.41-12.31,4.29-20.74,13.01-20.74,23.07,0,12.34,12.68,22.67,29.67,25.27-.96,2.3-1.47,4.72-1.47,7.22,0,15.08,18.6,27.31,41.54,27.31,3.23,0,6.37-.24,9.38-.7,4.22,12.26,21.37,21.43,41.88,21.43,10.48,0,20.09-2.4,27.54-6.38.37-.2.73-.39,1.08-.6.43.28.87.54,1.31.8,7.02,4.1,16.13,6.58,26.09,6.58,11.63,0,22.11-3.38,29.45-8.78-.78-.24-1.55-.49-2.3-.76,1.47-.28,2.94-.59,4.39-.91-.66.57-1.36,1.13-2.09,1.67,5.89,1.8,12.44,2.8,19.33,2.8,17.23,0,32.29-6.26,40.37-15.58,3.39.8,6.98,1.22,10.69,1.22,20.94,0,37.92-13.57,37.92-30.3,0-4.6-1.28-8.96-3.58-12.86,16.99-3.92,29.11-14.17,29.11-26.21s-11.52-21.77-27.83-25.9c3.88-4.42,6.11-9.61,6.11-15.17,0-14.89-16.03-27.17-36.72-28.89,2.05-2.57,3.18-5.4,3.18-8.38,0-11.56-17.06-20.93-38.11-20.93-12.71,0-23.96,3.42-30.89,8.67-.18.13-.35.26-.52.4-.54-.33-1.09-.66-1.66-.96-6.52-3.6-14.51-5.72-23.14-5.72-2.78,0-5.5.22-8.12.64-.25.04-.5.08-.74.12-.03-.06-.07-.13-.1-.19-6.25-11.26-22.74-19.31-42.11-19.31h0Z"/><path class="cls-1" d="m2254.39,1310.28c12.48-16.57,24.95-33.14,37.43-49.71-3.56-7.35-7.11-14.69-10.67-22.04-13.42,5.25-26.84,10.49-40.27,15.74,6.29-21.72,12.58-43.44,18.87-65.16-4.83-11.41-9.65-22.81-14.48-34.22-33.82-10.82-67.65-21.65-101.47-32.47-53.78,20.3-107.56,40.61-161.34,60.91l-43.08,69.76c10.85,20.25,21.7,40.51,32.55,60.76,94.15-1.19,188.3-2.38,282.45-3.57Z"/><path class="cls-2" d="m869.01,1259.61c-9.57,0-18.84-2.34-26.1-6.58-.44-.26-.88-.52-1.31-.79l-.25-.17-.26.15c-.35.2-.72.4-1.08.6-7.71,4.12-17.51,6.39-27.59,6.39-19.99,0-37.58-8.96-41.83-21.31l-.14-.39-.41.06c-3.08.46-6.25.7-9.41.7-22.87,0-41.47-12.15-41.47-27.09,0-2.41.49-4.8,1.44-7.1l.25-.59-.63-.1c-17.12-2.63-29.55-13.16-29.55-25.04,0-9.65,7.9-18.41,20.62-22.84l.65-.23-.42-.55c-3.31-4.32-5.06-9.24-5.06-14.25,0-15.64,16.88-28.42,37.62-28.5h.5v-.5c0-15.87,18.61-28.83,41.47-28.91h.49s0-.5,0-.5c.16-15.94,20.23-28.91,44.74-28.91,18.8,0,35.72,7.74,42.11,19.25l.27.51,1.1-.19c2.65-.42,5.38-.64,8.12-.64,8.37,0,16.37,1.98,23.14,5.71.57.31,1.12.63,1.66.96l.3.19.28-.23c.17-.14.33-.27.51-.39,7.15-5.42,18.7-8.66,30.91-8.66,20.96,0,38,9.26,38,20.65,0,2.83-1.04,5.57-3.11,8.16l-.58.73.93.08c20.89,1.74,36.64,14.08,36.64,28.69,0,5.3-2.09,10.48-6.05,14.99l-.54.61.79.2c16.85,4.26,27.74,14.34,27.74,25.68s-11.66,21.99-29.03,25.99l-.66.15.35.59c2.35,4,3.55,8.29,3.55,12.74,0,16.61-16.96,30.12-37.81,30.12-3.64,0-7.23-.41-10.69-1.22l-.29-.07-.2.23c-8.34,9.6-23.82,15.57-40.41,15.57-6.42,0-12.62-.85-18.44-2.53.46-.36.91-.73,1.35-1.11l1.5-1.3-1.93.43c-1.46.33-2.94.63-4.42.92l-1.79.34,1.72.62c.46.16.92.32,1.39.47-7.52,5.22-17.9,8.2-28.65,8.2Z"/><path d="m831.28,1053.66c18.62,0,35.37,7.63,41.66,18.98l.04.07.06.12.34.64.71-.13c.24-.04.48-.08.73-.12,2.62-.42,5.33-.63,8.04-.63,8.28,0,16.2,1.95,22.91,5.66.53.29,1.08.6,1.63.95l.61.37.55-.45c.16-.13.33-.26.5-.39,7.06-5.36,18.5-8.56,30.6-8.56,20.68,0,37.5,9.04,37.5,20.15,0,2.71-1.01,5.35-3,7.85l-1.17,1.46,1.87.16c20.63,1.72,36.18,13.84,36.18,28.2,0,5.18-2.05,10.25-5.92,14.66l-1.08,1.23,1.58.4c16.62,4.2,27.36,14.1,27.36,25.2s-11.51,21.56-28.64,25.51l-1.33.31.69,1.18c2.31,3.93,3.48,8.13,3.48,12.49,0,16.33-16.74,29.61-37.31,29.61-3.6,0-7.16-.41-10.58-1.21l-.59-.14-.4.46c-8.24,9.5-23.59,15.39-40.04,15.39-6.03,0-11.86-.76-17.37-2.25.2-.17.4-.34.6-.51l2.99-2.59-3.86.86c-1.45.32-2.93.63-4.41.91l-3.59.69,3.44,1.23c.14.05.29.1.43.15-7.36,4.81-17.27,7.54-27.53,7.54-9.49,0-18.67-2.31-25.85-6.51-.5-.29-.91-.54-1.29-.78l-.51-.33-.53.3c-.35.2-.71.4-1.07.59-7.64,4.08-17.36,6.33-27.36,6.33-19.78,0-37.18-8.82-41.36-20.98l-.27-.79-.82.12c-3.05.46-6.19.69-9.33.69-22.59,0-40.97-11.93-40.97-26.59,0-2.34.47-4.67,1.41-6.91l.49-1.18-1.26-.19c-16.88-2.59-29.13-12.91-29.13-24.55,0-9.43,7.77-18,20.28-22.37l1.31-.46-.84-1.1c-3.25-4.23-4.96-9.05-4.96-13.95,0-15.36,16.65-27.93,37.12-28h1v-1c0-15.59,18.38-28.34,40.98-28.41h.99s0-.99,0-.99c.16-15.67,20-28.42,44.24-28.42m0-1c-24.88,0-45.08,13.15-45.24,29.41-23.2.07-41.97,13.21-41.97,29.41-21.07.08-38.12,13.04-38.12,29,0,5.31,1.88,10.28,5.17,14.55-12.44,4.34-20.95,13.15-20.95,23.31,0,12.47,12.81,22.9,29.98,25.54-.97,2.32-1.48,4.77-1.48,7.3,0,15.24,18.79,27.59,41.97,27.59,3.26,0,6.43-.25,9.48-.7,4.26,12.38,21.59,21.65,42.31,21.65,10.59,0,20.3-2.43,27.83-6.45.37-.2.74-.4,1.09-.6.43.28.87.54,1.32.81,7.09,4.15,16.29,6.65,26.36,6.65,11.75,0,22.34-3.42,29.76-8.87-.79-.24-1.56-.49-2.33-.77,1.49-.29,2.97-.59,4.44-.92-.67.58-1.37,1.14-2.11,1.68,5.95,1.82,12.56,2.83,19.53,2.83,17.41,0,32.62-6.33,40.79-15.74,3.43.81,7.05,1.24,10.8,1.24,21.16,0,38.31-13.71,38.31-30.61,0-4.64-1.3-9.05-3.62-13,17.17-3.96,29.41-14.32,29.41-26.48s-11.64-22-28.12-26.17c3.92-4.46,6.17-9.71,6.17-15.32,0-15.05-16.2-27.45-37.1-29.19,2.07-2.59,3.22-5.46,3.22-8.47,0-11.68-17.24-21.15-38.5-21.15-12.84,0-24.21,3.45-31.21,8.76-.18.13-.35.27-.52.41-.55-.34-1.11-.66-1.68-.97-6.59-3.64-14.66-5.78-23.38-5.78-2.81,0-5.56.22-8.2.64-.25.04-.5.08-.75.12-.03-.06-.07-.13-.1-.19-6.31-11.38-22.98-19.51-42.54-19.51h0Z"/></svg>