<?xml version="1.0" encoding="UTF-8"?><svg id="Layer_12" xmlns="http://www.w3.org/2000/svg" width="2954.05" height="1661.66" xmlns:xlink="http://www.w3.org/1999/xlink" viewBox="0 0 2954.05 1661.66"><defs><style>.cls-1{fill:url(#linear-gradient-2);stroke:#000;stroke-miterlimit:10;stroke-width:2px;}.cls-2{fill:url(#linear-gradient);}</style><linearGradient id="linear-gradient" x1="2575.4" y1="1598.01" x2="2575.4" y2="1276.12" gradientUnits="userSpaceOnUse"><stop offset="0" stop-color="#040"/><stop offset=".53" stop-color="#2f6630"/><stop offset=".73" stop-color="#407b41"/><stop offset="1" stop-color="#569658"/></linearGradient><linearGradient id="linear-gradient-2" x1="444.98" y1="1568.34" x2="444.98" y2="1265.34" gradientUnits="userSpaceOnUse"><stop offset="0" stop-color="#333"/><stop offset=".53" stop-color="#666"/><stop offset=".74" stop-color="#7e7e7e"/><stop offset="1" stop-color="#999"/></linearGradient></defs><path class="cls-2" d="m2585.87,1598.01c-14.5,0-28.54-3.65-39.54-10.27-.67-.4-1.34-.81-1.98-1.24l-.26-.17-.27.16c-.54.32-1.09.63-1.64.93-11.68,6.43-26.52,9.97-41.78,9.97-30.29,0-56.96-14.03-63.41-33.36l-.13-.4-.42.06c-4.66.72-9.45,1.09-14.24,1.09-34.67,0-62.87-19.04-62.87-42.45,0-3.79.74-7.54,2.2-11.17l.24-.58-.62-.1c-25.98-4.11-44.84-20.62-44.84-39.25,0-15.15,12-28.87,31.31-35.81l.63-.23-.4-.54c-5.04-6.77-7.7-14.5-7.7-22.35,0-24.49,25.6-44.52,57.06-44.64h.5v-.5c0-24.85,28.21-45.16,62.88-45.27h.49s0-.5,0-.5c.24-24.96,30.66-45.27,67.81-45.27,28.47,0,54.11,12.1,63.8,30.1l.32.62.37-.07c.37-.07.74-.13,1.11-.19,4.02-.66,8.16-1,12.31-1,12.68,0,24.8,3.09,35.06,8.93.82.46,1.67.96,2.51,1.5l.31.2.28-.24c.26-.21.51-.42.78-.62,10.83-8.47,28.33-13.53,46.82-13.53,31.78,0,57.64,14.54,57.64,32.42,0,4.47-1.6,8.8-4.75,12.88l-.56.73.91.08c31.68,2.72,55.56,22.04,55.56,44.94,0,8.32-3.18,16.45-9.2,23.53l-.52.61.77.2c25.57,6.67,42.09,22.46,42.09,40.24s-17.69,34.47-44.03,40.73l-.65.15.33.58c3.58,6.28,5.39,13,5.39,19.98,0,26-25.73,47.15-57.35,47.15-5.51,0-10.96-.64-16.2-1.91l-.3-.07-.2.24c-12.64,15-36.09,24.32-61.21,24.32-9.9,0-19.46-1.38-28.42-4.1.84-.66,1.66-1.35,2.45-2.05l1.45-1.29-1.89.43c-2.2.5-4.45.98-6.68,1.43l-1.74.34,1.66.62c.82.3,1.7.61,2.61.9-11.44,8.36-27.35,13.13-43.85,13.13Z"/><path d="m2528.89,1276.62c28.29,0,53.76,11.99,63.35,29.83l.16.3.34.66.73-.13c.37-.07.74-.13,1.11-.19,3.98-.66,8.1-.99,12.22-.99,12.59,0,24.63,3.06,34.82,8.86.82.45,1.63.94,2.48,1.49l.62.39.56-.47c.25-.21.5-.41.76-.61,10.75-8.41,28.13-13.42,46.51-13.42,31.51,0,57.14,14.32,57.14,31.92,0,4.36-1.56,8.59-4.65,12.57l-1.12,1.45,1.83.16c31.41,2.7,55.1,21.8,55.1,44.44,0,8.2-3.14,16.22-9.08,23.2l-1.03,1.21,1.54.4c12.23,3.19,22.65,8.6,30.13,15.64,7.58,7.13,11.58,15.47,11.58,24.12,0,17.87-17.54,34.04-43.64,40.24l-1.3.31.66,1.16c3.54,6.2,5.33,12.84,5.33,19.73,0,25.72-25.5,46.65-56.85,46.65-5.48,0-10.89-.64-16.08-1.9l-.6-.15-.4.47c-12.54,14.89-35.85,24.14-60.83,24.14-9.52,0-18.71-1.28-27.36-3.81.59-.48,1.16-.97,1.73-1.47l2.9-2.59-3.79.87c-2.19.5-4.44.98-6.67,1.42l-3.48.69,3.32,1.23c.55.2,1.11.4,1.69.6-11.29,7.94-26.75,12.47-42.76,12.47-14.41,0-28.36-3.62-39.28-10.2-.77-.46-1.39-.85-1.96-1.23l-.52-.35-.54.32c-.53.31-1.07.62-1.62.93-11.61,6.39-26.36,9.91-41.54,9.91s-29.32-3.38-40.79-9.5c-11.22-6-19.09-14.35-22.15-23.51l-.27-.8-.83.13c-4.63.72-9.4,1.09-14.16,1.09-34.39,0-62.37-18.82-62.37-41.95,0-3.72.73-7.42,2.17-10.98l.47-1.17-1.24-.2c-12.47-1.97-23.78-6.91-31.85-13.9-8.22-7.12-12.57-15.72-12.57-24.85,0-14.93,11.87-28.47,30.98-35.34l1.27-.46-.81-1.08c-4.97-6.68-7.6-14.31-7.6-22.06,0-24.22,25.37-44.02,56.56-44.14h1v-1c0-24.57,27.98-44.66,62.38-44.77h.99s0-.99,0-.99c.24-24.69,30.43-44.78,67.31-44.78m0-1c-37.57,0-68.06,20.46-68.31,45.77-35.03.11-63.38,20.56-63.38,45.77-31.81.13-57.56,20.29-57.56,45.14,0,8.26,2.84,15.99,7.8,22.65-18.79,6.75-31.64,20.46-31.64,36.28,0,19.4,19.35,35.64,45.26,39.74-1.46,3.62-2.24,7.42-2.24,11.35,0,23.72,28.37,42.95,63.37,42.95,4.92,0,9.72-.38,14.31-1.1,6.44,19.27,32.6,33.7,63.88,33.7,15.99,0,30.65-3.77,42.02-10.03.56-.31,1.11-.62,1.65-.94.65.43,1.32.85,2,1.25,10.71,6.45,24.6,10.34,39.8,10.34,17.74,0,33.73-5.32,44.93-13.81-1.19-.37-2.36-.76-3.51-1.19,2.25-.45,4.48-.92,6.7-1.43-1.01.9-2.08,1.78-3.19,2.62,8.99,2.83,18.97,4.41,29.49,4.41,26.29,0,49.26-9.85,61.59-24.5,5.17,1.25,10.65,1.92,16.31,1.92,31.95,0,57.85-21.34,57.85-47.65,0-7.23-1.96-14.09-5.46-20.23,25.92-6.16,44.41-22.29,44.41-41.22s-17.57-34.24-42.46-40.73c5.91-6.95,9.32-15.11,9.32-23.85,0-23.42-24.46-42.73-56.02-45.44,3.12-4.04,4.85-8.5,4.85-13.19,0-18.18-26.03-32.92-58.14-32.92-19.39,0-36.56,5.37-47.12,13.64-.27.21-.53.41-.79.63-.83-.53-1.67-1.03-2.53-1.52-9.95-5.66-22.14-8.99-35.31-8.99-4.24,0-8.39.34-12.38,1-.38.06-.76.13-1.13.19-.05-.1-.1-.2-.16-.3-9.53-17.71-34.7-30.36-64.24-30.36h0Z"/><path class="cls-1" d="m228.91,1567.74c-19.8-26.27-39.61-52.54-59.41-78.81,5.43-11.81,10.86-23.62,16.29-35.43,21.08,8.15,42.16,16.29,63.24,24.44-10.22-34.62-20.44-69.23-30.66-103.85,7.35-18.33,14.69-36.65,22.04-54.98,52.7-17.92,105.4-35.84,158.1-53.76,84.45,31.49,168.9,62.99,253.36,94.48l68.59,110.78c-16.61,32.58-33.22,65.16-49.83,97.74-147.24-.2-294.48-.4-441.73-.61Z"/></svg>