<?xml version="1.0" encoding="UTF-8"?><svg id="Layer_12" xmlns="http://www.w3.org/2000/svg" width="2954.05" height="1661.66" xmlns:xlink="http://www.w3.org/1999/xlink" viewBox="0 0 2954.05 1661.66"><defs><style>.cls-1{fill:url(#linear-gradient-2);stroke:#000;stroke-miterlimit:10;stroke-width:2px;}.cls-2{fill:url(#linear-gradient-5);}.cls-3{fill:url(#linear-gradient-3);}.cls-4{fill:url(#linear-gradient);}.cls-5{fill:url(#linear-gradient-4);}</style><linearGradient id="linear-gradient" x1="2247.91" y1="1017.87" x2="2247.91" y2="848.53" gradientUnits="userSpaceOnUse"><stop offset="0" stop-color="#040"/><stop offset=".53" stop-color="#2f6630"/><stop offset=".73" stop-color="#407b41"/><stop offset="1" stop-color="#569658"/></linearGradient><linearGradient id="linear-gradient-2" x1="1721.8" y1="1083.03" x2="1721.8" y2="939.03" gradientUnits="userSpaceOnUse"><stop offset="0" stop-color="#333"/><stop offset=".53" stop-color="#666"/><stop offset=".74" stop-color="#7e7e7e"/><stop offset="1" stop-color="#999"/></linearGradient><linearGradient id="linear-gradient-3" x1="345.37" y1="1086.92" x2="345.37" y2="919.53" xlink:href="#linear-gradient"/><linearGradient id="linear-gradient-4" x1="1118.37" y1="1034.92" x2="1118.37" y2="867.53" xlink:href="#linear-gradient"/><linearGradient id="linear-gradient-5" x1="2663.01" y1="1186.92" x2="2663.01" y2="1018.53" xlink:href="#linear-gradient"/></defs><path class="cls-4" d="m2252.27,1017.87c-5.98,0-11.76-1.9-16.29-5.36-.28-.21-.55-.42-.81-.65l-.3-.26-.32.24c-.22.17-.45.33-.67.49-4.82,3.36-10.94,5.2-17.24,5.2-12.5,0-23.5-7.32-26.16-17.41l-.12-.45-.46.09c-1.92.38-3.89.57-5.87.57-14.3,0-25.93-9.94-25.93-22.16,0-1.98.31-3.94.91-5.84l.17-.53-.55-.11c-10.71-2.14-18.47-10.75-18.47-20.48,0-7.91,4.94-15.07,12.9-18.69l.51-.23-.28-.48c-2.08-3.54-3.18-7.58-3.18-11.7,0-12.79,10.55-23.25,23.51-23.31h.5v-.5c0-12.98,11.63-23.59,25.94-23.65h.49s0-.5,0-.5c.1-13.04,12.66-23.65,27.99-23.65,11.75,0,22.33,6.32,26.33,15.71l.16.39.47.06.44-.1c1.68-.35,3.38-.52,5.09-.52,5.22,0,10.21,1.61,14.43,4.65.36.25.7.51,1.03.78l.36.29.32-.34c.1-.11.21-.21.32-.32,4.46-4.42,11.68-7.05,19.3-7.05,13.1,0,23.75,7.57,23.75,16.87,0,2.32-.66,4.58-1.95,6.69l-.41.67.78.08c13.06,1.42,22.92,11.51,22.92,23.47,0,4.35-1.31,8.61-3.8,12.3l-.37.55.63.21c10.55,3.48,17.37,11.73,17.37,21.01s-7.3,18-18.17,21.27l-.55.16.23.52c1.48,3.29,2.23,6.81,2.23,10.46,0,13.58-10.6,24.64-23.63,24.64-2.27,0-4.51-.33-6.66-.99l-.36-.11-.21.31c-5.22,7.83-14.9,12.7-25.27,12.7-3.96,0-7.79-.68-11.4-2.01.27-.28.54-.57.8-.86l1.15-1.29-1.66.48c-.92.27-1.84.52-2.78.75l-1.36.34,1.27.6c.25.12.51.23.76.34-4.69,4.22-11.14,6.62-17.83,6.62Z"/><path d="m2228.51,849.03c11.55,0,21.95,6.19,25.87,15.4l.04.09.03.07.32.79.83-.19c.15-.03.3-.07.45-.1,1.62-.34,3.29-.51,4.96-.51,5.11,0,10,1.57,14.15,4.56.33.23.67.49,1.01.76l.72.58.64-.67c.1-.11.2-.21.31-.31,4.37-4.32,11.45-6.9,18.95-6.9,12.82,0,23.25,7.34,23.25,16.36,0,2.23-.63,4.4-1.88,6.43l-.82,1.35,1.57.17c12.81,1.39,22.47,11.27,22.47,22.98,0,4.25-1.29,8.41-3.72,12.02l-.74,1.09,1.25.41c10.34,3.41,17.02,11.47,17.02,20.54s-7.16,17.58-17.81,20.79l-1.09.33.47,1.04c1.45,3.22,2.19,6.67,2.19,10.26,0,13.31-10.37,24.14-23.13,24.14-2.22,0-4.41-.33-6.51-.97l-.71-.22-.41.62c-5.13,7.7-14.65,12.48-24.86,12.48-3.64,0-7.17-.58-10.51-1.73.1-.1.19-.21.29-.32l2.29-2.59-3.32.96c-.91.26-1.83.51-2.76.74l-2.73.68,2.55,1.19s.04.02.06.03c-4.55,3.82-10.62,5.98-16.91,5.98-5.87,0-11.55-1.87-15.99-5.25-.27-.2-.54-.41-.79-.63l-.61-.51-.64.48c-.22.16-.44.32-.66.48-4.73,3.3-10.76,5.11-16.95,5.11-12.27,0-23.07-7.16-25.68-17.03l-.24-.91-.92.18c-1.89.37-3.83.56-5.78.56-14.02,0-25.43-9.72-25.43-21.66,0-1.93.3-3.84.89-5.69l.34-1.06-1.1-.22c-10.47-2.1-18.07-10.5-18.07-19.99,0-7.71,4.83-14.69,12.61-18.23l1.01-.46-.56-.96c-2.04-3.46-3.12-7.42-3.12-11.44,0-12.52,10.32-22.75,23.01-22.81h1v-1c0-12.71,11.41-23.09,25.44-23.14h.99s0-.99,0-.99c.1-12.77,12.43-23.15,27.49-23.15m0-1c-15.67,0-28.39,10.8-28.49,24.14-14.61.06-26.43,10.85-26.43,24.14-13.27.07-24.01,10.7-24.01,23.81,0,4.36,1.19,8.44,3.25,11.95-7.83,3.56-13.2,10.8-13.2,19.14,0,10.24,8.07,18.8,18.88,20.97-.61,1.91-.93,3.92-.93,5.99,0,12.51,11.83,22.66,26.43,22.66,2.05,0,4.05-.2,5.97-.58,2.68,10.17,13.6,17.78,26.64,17.78,6.67,0,12.78-1.99,17.52-5.29.23-.16.46-.33.69-.5.27.23.55.45.83.66,4.47,3.4,10.26,5.46,16.6,5.46,7.4,0,14.07-2.8,18.74-7.29-.49-.2-.98-.4-1.46-.63.94-.23,1.87-.49,2.79-.75-.42.48-.87.94-1.33,1.38,3.75,1.49,7.91,2.33,12.3,2.33,10.97,0,20.54-5.2,25.69-12.92,2.16.66,4.44,1.02,6.8,1.02,13.32,0,24.13-11.26,24.13-25.14,0-3.81-.82-7.43-2.28-10.67,10.81-3.25,18.52-11.76,18.52-21.74s-7.33-18.06-17.71-21.49c2.47-3.66,3.89-7.97,3.89-12.58,0-12.35-10.2-22.54-23.36-23.97,1.3-2.13,2.02-4.48,2.02-6.96,0-9.59-10.86-17.36-24.25-17.36-8.09,0-15.25,2.83-19.65,7.19-.11.11-.22.22-.33.33-.34-.28-.7-.55-1.06-.8-4.15-2.99-9.23-4.74-14.73-4.74-1.77,0-3.5.18-5.17.53-.16.03-.32.07-.47.1-.02-.05-.04-.11-.07-.16-3.97-9.34-14.47-16.02-26.79-16.02h0Z"/><path class="cls-1" d="m1630.72,1082.74c-8.35-12.48-16.69-24.97-25.04-37.45,2.29-5.61,4.58-11.23,6.87-16.84,8.89,3.87,17.77,7.74,26.66,11.61-4.31-16.45-8.62-32.9-12.92-49.35,3.1-8.71,6.19-17.42,9.29-26.13,22.21-8.52,44.43-17.03,66.64-25.55,35.6,14.97,71.2,29.93,106.8,44.9l28.91,52.65c-7,15.48-14,30.97-21,46.45-62.07-.1-124.13-.19-186.2-.29Z"/><path class="cls-3" d="m349.69,1086.92c-5.91,0-11.63-1.88-16.11-5.29-.27-.21-.54-.42-.81-.64l-.3-.25-.32.24c-.22.16-.44.32-.67.48-4.76,3.32-10.81,5.14-17.04,5.14-12.35,0-23.23-7.23-25.86-17.2l-.12-.45-.46.09c-1.9.37-3.85.56-5.8.56-14.13,0-25.63-9.82-25.63-21.9,0-1.96.3-3.9.9-5.77l.17-.53-.55-.11c-10.58-2.12-18.26-10.63-18.26-20.24,0-7.81,4.89-14.89,12.75-18.47l.51-.23-.28-.48c-2.06-3.5-3.15-7.49-3.15-11.56,0-12.64,10.42-22.98,23.24-23.04h.5v-.5c0-12.83,11.5-23.31,25.63-23.37h.49s0-.5,0-.5c.1-12.89,12.51-23.37,27.66-23.37,11.62,0,22.08,6.24,26.03,15.53l.23.54.8-.18c1.7-.35,3.39-.53,5.07-.53,5.16,0,10.09,1.59,14.27,4.59.35.25.69.51,1.02.77l.36.29.32-.34c.1-.11.21-.21.31-.32,4.41-4.36,11.54-6.97,19.08-6.97,12.94,0,23.47,7.48,23.47,16.67,0,2.3-.65,4.52-1.93,6.62l-.41.67.78.08c12.91,1.4,22.65,11.38,22.65,23.2,0,4.3-1.3,8.51-3.76,12.16l-.37.55.63.21c10.43,3.44,17.16,11.59,17.16,20.77s-7.22,17.79-17.96,21.02l-.55.16.23.52c1.46,3.25,2.21,6.73,2.21,10.34,0,13.43-10.48,24.35-23.35,24.35-2.24,0-4.46-.33-6.58-.98l-.36-.11-.21.31c-5.16,7.74-14.73,12.55-24.98,12.55-3.91,0-7.7-.67-11.26-1.99.27-.27.53-.56.79-.85l1.15-1.29-1.66.48c-.91.26-1.82.51-2.74.74l-1.36.34,1.27.6c.25.12.5.23.75.33-4.64,4.16-11.01,6.54-17.61,6.54Z"/><path d="m326.2,920.03c11.42,0,21.69,6.12,25.56,15.22l.06.16.32.79.83-.19c.15-.03.29-.07.44-.1,1.6-.33,3.25-.5,4.9-.5,5.05,0,9.88,1.56,13.98,4.51.33.23.65.48.99.75l.72.58.64-.67c.1-.1.2-.2.3-.31,4.32-4.27,11.32-6.82,18.73-6.82,12.67,0,22.97,7.25,22.97,16.17,0,2.2-.62,4.34-1.85,6.35l-.82,1.35,1.57.17c12.66,1.37,22.2,11.13,22.2,22.7,0,4.2-1.27,8.31-3.67,11.88l-.74,1.09,1.25.41c10.22,3.37,16.82,11.33,16.82,20.29s-7.07,17.37-17.6,20.54l-1.09.33.47,1.04c1.43,3.18,2.16,6.59,2.16,10.14,0,13.15-10.25,23.85-22.85,23.85-2.19,0-4.36-.32-6.43-.96l-.71-.22-.41.62c-5.06,7.6-14.48,12.33-24.56,12.33-3.59,0-7.07-.57-10.37-1.7.09-.1.18-.2.27-.3l2.29-2.59-3.32.96c-.9.26-1.81.51-2.73.74l-2.73.68,2.55,1.19s.03.01.04.02c-4.49,3.77-10.49,5.9-16.69,5.9-5.8,0-11.41-1.84-15.8-5.19-.27-.2-.53-.41-.79-.62l-.61-.51-.64.48c-.21.16-.43.32-.65.47-4.68,3.26-10.63,5.05-16.75,5.05-12.13,0-22.8-7.08-25.37-16.83l-.24-.91-.92.18c-1.87.37-3.79.55-5.71.55-13.86,0-25.13-9.6-25.13-21.4,0-1.91.29-3.8.88-5.62l.34-1.07-1.1-.22c-10.35-2.07-17.86-10.38-17.86-19.75,0-7.62,4.77-14.52,12.46-18.01l1.01-.46-.56-.96c-2.01-3.42-3.08-7.33-3.08-11.31,0-12.37,10.2-22.48,22.74-22.54h1v-1c0-12.55,11.28-22.81,25.14-22.87h.99s0-.99,0-.99c.1-12.61,12.28-22.88,27.16-22.88m0-1c-15.49,0-28.06,10.67-28.16,23.87-14.44.06-26.13,10.72-26.13,23.87-13.12.07-23.73,10.58-23.73,23.54,0,4.31,1.17,8.34,3.22,11.81-7.75,3.52-13.05,10.67-13.05,18.92,0,10.12,7.98,18.59,18.66,20.73-.6,1.89-.92,3.87-.92,5.92,0,12.37,11.7,22.4,26.13,22.4,2.03,0,4.01-.2,5.9-.57,2.65,10.05,13.44,17.57,26.34,17.57,6.59,0,12.64-1.97,17.32-5.23.23-.16.46-.32.68-.49.27.23.54.44.82.65,4.42,3.36,10.14,5.4,16.41,5.4,7.32,0,13.91-2.77,18.53-7.2-.49-.19-.97-.4-1.45-.62.93-.23,1.85-.48,2.76-.75-.42.47-.86.93-1.31,1.37,3.71,1.48,7.82,2.3,12.16,2.3,10.84,0,20.31-5.14,25.4-12.77,2.13.65,4.39,1,6.73,1,13.17,0,23.85-11.13,23.85-24.85,0-3.77-.81-7.35-2.25-10.55,10.69-3.21,18.31-11.62,18.31-21.5s-7.24-17.86-17.51-21.24c2.44-3.62,3.84-7.88,3.84-12.44,0-12.21-10.08-22.28-23.1-23.7,1.29-2.11,2-4.43,2-6.88,0-9.48-10.73-17.17-23.97-17.17-7.99,0-15.07,2.8-19.43,7.11-.11.11-.22.22-.33.33-.34-.27-.69-.54-1.05-.79-4.1-2.95-9.13-4.69-14.56-4.69-1.75,0-3.46.18-5.11.52-.16.03-.31.07-.47.1-.02-.05-.04-.1-.06-.16-3.93-9.24-14.31-15.84-26.49-15.84h0Z"/><path class="cls-5" d="m1122.69,1034.92c-5.91,0-11.63-1.88-16.11-5.29-.27-.21-.54-.42-.81-.64l-.3-.25-.32.24c-.22.16-.44.32-.67.48-4.76,3.32-10.81,5.14-17.04,5.14-12.35,0-23.23-7.23-25.86-17.2l-.12-.45-.46.09c-1.9.37-3.85.56-5.8.56-14.13,0-25.63-9.82-25.63-21.9,0-1.96.3-3.9.9-5.77l.17-.53-.55-.11c-10.58-2.12-18.26-10.63-18.26-20.24,0-7.81,4.89-14.89,12.75-18.47l.51-.23-.28-.48c-2.06-3.5-3.15-7.49-3.15-11.56,0-12.64,10.42-22.98,23.24-23.04h.5v-.5c0-12.83,11.5-23.31,25.63-23.37h.49s0-.5,0-.5c.1-12.89,12.51-23.37,27.66-23.37,11.62,0,22.08,6.24,26.03,15.53l.23.54.8-.18c1.7-.35,3.39-.53,5.07-.53,5.16,0,10.09,1.59,14.27,4.59.35.25.69.51,1.02.77l.36.29.32-.34c.1-.11.21-.21.31-.32,4.41-4.36,11.54-6.97,19.08-6.97,12.94,0,23.47,7.48,23.47,16.67,0,2.3-.65,4.52-1.93,6.62l-.41.67.78.08c12.91,1.4,22.65,11.38,22.65,23.2,0,4.3-1.3,8.51-3.76,12.16l-.37.55.63.21c10.43,3.44,17.16,11.59,17.16,20.77s-7.22,17.79-17.96,21.02l-.55.16.23.52c1.46,3.25,2.21,6.73,2.21,10.34,0,13.43-10.48,24.35-23.35,24.35-2.24,0-4.46-.33-6.58-.98l-.36-.11-.21.31c-5.16,7.74-14.73,12.55-24.98,12.55-3.91,0-7.7-.67-11.26-1.99.27-.27.53-.56.79-.85l1.15-1.29-1.66.48c-.91.26-1.82.51-2.74.74l-1.36.34,1.27.6c.25.12.5.23.75.33-4.64,4.16-11.01,6.54-17.61,6.54Z"/><path d="m1099.2,868.03c11.42,0,21.69,6.12,25.56,15.22l.03.06.04.09.32.79.83-.19c.15-.03.29-.07.44-.1,1.6-.33,3.25-.5,4.9-.5,5.05,0,9.88,1.56,13.98,4.51.33.23.65.48.99.75l.72.58.64-.67c.1-.1.2-.2.3-.31,4.32-4.27,11.32-6.82,18.73-6.82,12.67,0,22.97,7.25,22.97,16.17,0,2.2-.62,4.34-1.85,6.35l-.82,1.35,1.57.17c12.66,1.37,22.2,11.13,22.2,22.7,0,4.2-1.27,8.31-3.67,11.88l-.74,1.09,1.25.41c10.22,3.37,16.82,11.33,16.82,20.29s-7.07,17.37-17.6,20.54l-1.09.33.47,1.04c1.43,3.18,2.16,6.59,2.16,10.14,0,13.15-10.25,23.85-22.85,23.85-2.19,0-4.36-.32-6.43-.96l-.71-.22-.41.62c-5.06,7.6-14.48,12.33-24.56,12.33-3.59,0-7.07-.57-10.37-1.7.09-.1.18-.2.27-.3l2.29-2.58-3.32.96c-.9.26-1.81.51-2.73.74l-2.73.68,2.55,1.19s.03.01.04.02c-4.49,3.77-10.49,5.9-16.69,5.9-5.8,0-11.41-1.84-15.8-5.19-.27-.2-.53-.41-.79-.62l-.61-.51-.64.48c-.21.16-.43.32-.65.47-4.68,3.26-10.63,5.05-16.75,5.05-12.13,0-22.8-7.08-25.37-16.83l-.24-.91-.92.18c-1.87.37-3.79.55-5.71.55-13.86,0-25.13-9.6-25.13-21.4,0-1.91.29-3.8.88-5.62l.34-1.07-1.1-.22c-10.35-2.07-17.86-10.38-17.86-19.75,0-7.62,4.77-14.52,12.46-18.01l1.01-.46-.56-.96c-2.01-3.42-3.08-7.33-3.08-11.31,0-12.37,10.2-22.48,22.74-22.54h.99v-1c0-12.55,11.28-22.81,25.14-22.87h.99s0-.99,0-.99c.1-12.61,12.28-22.88,27.16-22.88m0-1c-15.49,0-28.06,10.67-28.16,23.87-14.44.06-26.13,10.72-26.13,23.87-13.12.07-23.73,10.58-23.73,23.54,0,4.31,1.17,8.34,3.22,11.81-7.75,3.52-13.05,10.67-13.05,18.92,0,10.12,7.98,18.59,18.66,20.73-.6,1.89-.92,3.87-.92,5.92,0,12.37,11.7,22.4,26.13,22.4,2.03,0,4.01-.2,5.9-.57,2.65,10.05,13.44,17.57,26.34,17.57,6.59,0,12.64-1.97,17.32-5.23.23-.16.46-.32.68-.49.27.23.54.44.82.65,4.42,3.36,10.14,5.4,16.41,5.4,7.32,0,13.91-2.77,18.53-7.2-.49-.19-.97-.4-1.45-.62.93-.23,1.85-.48,2.76-.75-.42.47-.86.93-1.31,1.37,3.71,1.48,7.82,2.3,12.16,2.3,10.84,0,20.31-5.14,25.4-12.77,2.13.65,4.39,1,6.73,1,13.17,0,23.85-11.13,23.85-24.85,0-3.77-.81-7.35-2.25-10.55,10.69-3.21,18.31-11.62,18.31-21.5s-7.24-17.86-17.51-21.24c2.44-3.62,3.84-7.88,3.84-12.44,0-12.21-10.08-22.28-23.1-23.7,1.29-2.11,2-4.43,2-6.88,0-9.48-10.73-17.17-23.97-17.17-7.99,0-15.07,2.8-19.43,7.11-.11.11-.22.22-.33.33-.34-.27-.69-.54-1.05-.79-4.1-2.95-9.13-4.69-14.56-4.69-1.75,0-3.46.18-5.11.52-.16.03-.31.07-.47.1-.02-.05-.04-.1-.06-.16-3.93-9.24-14.31-15.84-26.49-15.84h0Z"/><path class="cls-2" d="m2667.35,1186.92c-5.94,0-11.7-1.89-16.2-5.32-.28-.21-.55-.42-.81-.64l-.3-.25-.32.24c-.22.17-.44.33-.67.48-4.79,3.34-10.88,5.17-17.14,5.17-12.43,0-23.37-7.28-26.01-17.31l-.12-.45-.46.09c-1.91.38-3.87.57-5.84.57-14.22,0-25.78-9.88-25.78-22.03,0-1.97.3-3.92.91-5.8l.17-.53-.55-.11c-10.65-2.13-18.37-10.69-18.37-20.36,0-7.86,4.92-14.98,12.83-18.58l.51-.23-.28-.48c-2.07-3.52-3.17-7.54-3.17-11.63,0-12.72,10.49-23.12,23.38-23.18h.5v-.5c0-12.91,11.57-23.45,25.79-23.51h.49s0-.5,0-.5c.1-12.97,12.58-23.51,27.83-23.51,11.68,0,22.21,6.28,26.18,15.62l.23.55.87-.2c1.64-.34,3.33-.52,5.03-.52,5.19,0,10.15,1.6,14.35,4.62.35.25.7.51,1.03.78l.36.29.32-.34c.1-.11.21-.21.31-.32,4.44-4.39,11.61-7.01,19.19-7.01,13.02,0,23.61,7.52,23.61,16.77,0,2.31-.65,4.55-1.94,6.66l-.41.67.78.08c12.99,1.41,22.79,11.44,22.79,23.34,0,4.33-1.31,8.56-3.78,12.23l-.37.55.63.21c10.49,3.46,17.27,11.66,17.27,20.89s-7.26,17.9-18.06,21.14l-.55.16.23.52c1.47,3.27,2.22,6.77,2.22,10.41,0,13.51-10.54,24.5-23.49,24.5-2.25,0-4.48-.33-6.62-.99l-.36-.11-.21.31c-5.19,7.79-14.82,12.63-25.13,12.63-3.94,0-7.75-.67-11.33-2,.27-.27.53-.56.79-.85l1.15-1.29-1.66.48c-.91.27-1.83.51-2.76.75l-1.36.34,1.27.6c.25.12.5.23.76.34-4.67,4.19-11.08,6.58-17.72,6.58Z"/><path d="m2643.72,1019.03c11.49,0,21.83,6.16,25.72,15.31l.07.16.32.79.83-.19c.15-.03.3-.07.44-.1,1.61-.34,3.27-.51,4.93-.51,5.08,0,9.95,1.57,14.07,4.53.33.23.65.48,1,.76l.72.58.64-.67c.1-.11.2-.2.3-.31,4.34-4.3,11.39-6.86,18.84-6.86,12.75,0,23.11,7.3,23.11,16.27,0,2.22-.63,4.37-1.87,6.4l-.82,1.35,1.57.17c12.74,1.38,22.34,11.2,22.34,22.84,0,4.23-1.28,8.36-3.7,11.95l-.74,1.09,1.25.41c10.28,3.39,16.92,11.4,16.92,20.42s-7.12,17.48-17.71,20.67l-1.09.33.47,1.04c1.44,3.2,2.18,6.63,2.18,10.2,0,13.23-10.31,24-22.99,24-2.2,0-4.38-.32-6.47-.97l-.71-.22-.41.62c-5.1,7.65-14.57,12.41-24.71,12.41-3.62,0-7.12-.58-10.44-1.71.09-.1.19-.21.28-.31l2.29-2.59-3.32.96c-.9.26-1.82.51-2.74.74l-2.73.68,2.55,1.19s.03.01.05.02c-4.52,3.79-10.55,5.94-16.8,5.94-5.83,0-11.48-1.85-15.9-5.22-.27-.2-.53-.41-.79-.63l-.61-.51-.64.48c-.22.16-.44.32-.66.47-4.71,3.28-10.69,5.08-16.86,5.08-12.2,0-22.94-7.12-25.53-16.93l-.24-.91-.92.18c-1.88.37-3.81.56-5.74.56-13.94,0-25.28-9.66-25.28-21.53,0-1.92.3-3.82.88-5.65l.34-1.07-1.1-.22c-10.41-2.08-17.97-10.44-17.97-19.87,0-7.66,4.8-14.61,12.54-18.12l1.01-.46-.56-.96c-2.03-3.44-3.1-7.38-3.1-11.38,0-12.44,10.26-22.62,22.88-22.68h1v-1c0-12.63,11.35-22.95,25.29-23.01h.99s0-.99,0-.99c.1-12.69,12.36-23.02,27.33-23.02m0-1c-15.58,0-28.23,10.74-28.33,24.01-14.53.06-26.29,10.79-26.29,24.01-13.2.07-23.87,10.64-23.87,23.68,0,4.33,1.18,8.39,3.24,11.88-7.79,3.54-13.12,10.74-13.12,19.03,0,10.18,8.03,18.7,18.77,20.85-.61,1.9-.93,3.89-.93,5.96,0,12.44,11.77,22.53,26.28,22.53,2.04,0,4.03-.2,5.94-.58,2.67,10.11,13.52,17.68,26.5,17.68,6.63,0,12.71-1.98,17.43-5.26.23-.16.46-.33.68-.49.27.23.55.44.83.66,4.44,3.38,10.21,5.43,16.51,5.43,7.36,0,13.99-2.79,18.64-7.25-.49-.19-.98-.4-1.46-.62.93-.23,1.86-.48,2.78-.75-.42.47-.86.93-1.32,1.37,3.73,1.49,7.87,2.31,12.23,2.31,10.9,0,20.43-5.17,25.55-12.85,2.15.66,4.42,1.01,6.77,1.01,13.25,0,23.99-11.19,23.99-25,0-3.79-.81-7.39-2.26-10.61,10.75-3.23,18.42-11.69,18.42-21.62s-7.29-17.96-17.61-21.37c2.45-3.64,3.87-7.93,3.87-12.51,0-12.29-10.14-22.42-23.23-23.84,1.29-2.12,2.01-4.46,2.01-6.92,0-9.54-10.8-17.27-24.11-17.27-8.04,0-15.16,2.82-19.54,7.15-.11.11-.22.22-.33.33-.34-.28-.69-.54-1.05-.8-4.13-2.97-9.18-4.72-14.64-4.72-1.76,0-3.48.18-5.14.53-.16.03-.31.07-.47.1-.02-.05-.04-.11-.07-.16-3.95-9.29-14.39-15.93-26.64-15.93h0Z"/></svg>