<?xml version="1.0" encoding="UTF-8"?><svg id="Layer_1" xmlns="http://www.w3.org/2000/svg" width="60mm" height="60mm" xmlns:xlink="http://www.w3.org/1999/xlink" viewBox="0 0 170.08 170.08"><defs><style>.cls-1{stroke:#000;stroke-width:6px;}.cls-1,.cls-2{stroke-miterlimit:10;}.cls-1,.cls-2,.cls-3{fill:none;}.cls-2{stroke:#a31e22;stroke-width:5px;}.cls-4{clip-path:url(#clippath-1);}.cls-5{fill:#add3d8;}.cls-6{clip-path:url(#clippath);}.cls-7{fill:#a31e22;}</style><clipPath id="clippath"><rect class="cls-3" x=".04" y=".04" width="170" height="170"/></clipPath><clipPath id="clippath-1"><rect class="cls-3" x=".04" y=".04" width="170" height="170"/></clipPath></defs><g id="music_kill_button"><g class="cls-6"><g class="cls-4"><path class="cls-5" d="m167.04,85.04c0,45.29-36.71,82-82,82S3.04,130.33,3.04,85.04,39.75,3.04,85.04,3.04s82,36.71,82,82"/><circle class="cls-1" cx="85.04" cy="85.04" r="82"/><polygon points="52.09 30 52.09 30.23 52.04 30.22 52.09 30"/><polygon points="54.58 25.26 53.06 25.26 53.12 24.96 54.58 25.26"/><path d="m64.91,125.6c0,9.08-7.36,16.44-16.44,16.44s-16.43-7.36-16.43-16.44,7.36-16.44,16.43-16.44,16.44,7.36,16.44,16.44"/><rect x="57.92" y="47.62" width="6.99" height="76.93"/><path d="m122.26,110.92c0,9.08-7.36,16.44-16.44,16.44s-16.43-7.36-16.43-16.44,7.36-16.44,16.43-16.44,16.44,7.36,16.44,16.44"/><rect x="115.27" y="29.44" width="6.99" height="80.43"/><path d="m122.26,53.22c-21.45,7.23-42.9,14.45-64.34,21.68v-27.28c21.45-7.46,42.9-14.92,64.34-22.38v27.97Z"/><line class="cls-7" x1="10.58" y1="23.95" x2="157.58" y2="148.95"/><line class="cls-2" x1="10.58" y1="23.95" x2="157.58" y2="148.95"/><line class="cls-2" x1="149.58" y1="15.95" x2="19.58" y2="154.95"/></g></g></g></svg>