<?xml version="1.0" encoding="UTF-8"?><svg id="Layer_12" xmlns="http://www.w3.org/2000/svg" width="540" height="295" xmlns:xlink="http://www.w3.org/1999/xlink" viewBox="0 0 540 295"><defs><style>.cls-1{stroke-width:4px;}.cls-1,.cls-2,.cls-3{fill:none;}.cls-1,.cls-4{stroke:#000;}.cls-1,.cls-4,.cls-3{stroke-miterlimit:10;}.cls-5{fill:#a31d21;}.cls-6{clip-path:url(#clippath-2);}.cls-7{fill:#a09f9f;}.cls-8{clip-path:url(#clippath-1);}.cls-9{fill:#724d1e;}.cls-10{clip-path:url(#clippath);}.cls-4{fill:url(#linear-gradient-2);}.cls-11{fill:url(#linear-gradient);}.cls-3{stroke:#231f20;stroke-width:2.59px;}</style><linearGradient id="linear-gradient" x1="270" y1="294.38" x2="270" y2=".62" gradientUnits="userSpaceOnUse"><stop offset="0" stop-color="#cecece"/><stop offset=".39" stop-color="#e0e0e0"/><stop offset="1" stop-color="#fff"/></linearGradient><clipPath id="clippath"><circle class="cls-2" cx="269.5" cy="154.13" r="112.25"/></clipPath><linearGradient id="linear-gradient-2" x1="313.15" y1="286.87" x2="313.15" y2="21.39" xlink:href="#linear-gradient"/><clipPath id="clippath-1"><rect class="cls-2" x="329.73" y="29.04" width="67.87" height="111.73" transform="translate(52.2 290.94) rotate(-46.63)"/></clipPath><clipPath id="clippath-2"><rect class="cls-2" x="329.73" y="29.04" width="67.87" height="111.73" transform="translate(52.2 290.94) rotate(-46.63)"/></clipPath></defs><path class="cls-11" d="m539.75,187.52c0,29.85-27.01,54.05-60.32,54.05-16.94,0-32.24-6.25-43.2-16.34-11.78,24.12-39.89,41.09-72.7,41.09-11.71,0-22.83-2.16-32.81-6.05-18.39,20.73-47.4,34.1-80.04,34.1-34.57,0-65.06-15-83.18-37.85-5.52,1.01-11.25,1.54-17.13,1.54-36.9,0-68.14-20.92-78.61-49.75-3.84.7-7.81,1.06-11.87,1.06C26.95,209.39.25,185.37.25,155.75s26.7-53.63,59.64-53.63c4.45,0,8.79.44,12.97,1.28,11.1-29.64,40.1-50.79,74.13-50.79,12.02,0,23.42,2.64,33.62,7.36C193.64,25.37,228.44.62,269.32.62c38.16,0,71.02,21.56,85.83,52.57,17.32-10.66,39.76-17.09,64.29-17.09,54.84,0,99.29,32.14,99.29,71.79,0,11.55-3.78,22.47-10.48,32.14,18.76,9.17,31.5,27,31.5,47.49Z"/><g class="cls-10"><rect class="cls-4" x="126.07" y="21.39" width="374.17" height="265.48"/><path class="cls-5" d="m499.36,136.5v31.11c-81.68.23-163.37.46-245.05.68v117.54h-26.1c-.04-39.18-.07-78.36-.11-117.54-33.72-.23-67.43-.46-101.15-.68v-29.04c33.7-.48,67.41-.97,101.11-1.45.26-38.23.52-76.46.77-114.7h26.35c-.29,38.23-.59,76.46-.88,114.7,81.68-.21,163.37-.41,245.05-.62Z"/></g><path class="cls-1" d="m302.85,63.42s12.79,28.23,45.25,43.97"/><g id="Medium_axe"><g class="cls-8"><polygon class="cls-9" points="413.97 106.8 409.19 111.86 333.87 41.74 338.65 36.68 413.97 106.8"/><g class="cls-6"><polygon class="cls-3" points="413.97 106.8 409.19 111.86 333.87 41.74 338.65 36.68 413.97 106.8"/><path class="cls-9" d="m414.83,107.61c.07.07.11.16.14.28.11.62-.54,1.89-1.66,3.07s-2.34,1.9-2.96,1.82c-.12-.02-.22-.06-.29-.13-.47-.44.2-1.93,1.52-3.33s2.78-2.16,3.24-1.71"/><path class="cls-3" d="m414.83,107.61c.07.07.11.16.14.28.11.62-.54,1.89-1.66,3.07s-2.34,1.9-2.96,1.82c-.12-.02-.22-.06-.29-.13-.47-.44.2-1.93,1.52-3.33s2.78-2.16,3.24-1.71Z"/><path class="cls-9" d="m337.67,35.77c.54.51-.09,2.05-1.41,3.44s-2.82,2.11-3.36,1.6.09-2.05,1.41-3.44,2.82-2.11,3.36-1.6"/><ellipse class="cls-3" cx="335.28" cy="38.3" rx="3.47" ry="1.34" transform="translate(77.19 255.71) rotate(-46.63)"/><path class="cls-7" d="m342.24,49.65c-14.52,18.41-33.01,24.88-33.01,24.88,0,0,8.28,14.66,28,26.45,0,0,3.2-19.56,21.03-36.2l-16.02-15.13Z"/><path class="cls-3" d="m342.24,49.65c-14.52,18.41-33.01,24.88-33.01,24.88,0,0,8.28,14.66,28,26.45,0,0,3.2-19.56,21.03-36.2l-16.02-15.13Z"/><path class="cls-7" d="m374.82,51.36c-2.46,1.33-5.15,3.05-7.89,5.26-1.14.92-2.19,1.85-3.15,2.76l-16.32-15.42c1.03-1.07,2.09-2.27,3.15-3.62,2.03-2.6,3.56-5.14,4.72-7.4l19.5,18.42Z"/><path class="cls-3" d="m374.82,51.36c-2.46,1.33-5.15,3.05-7.89,5.26-1.14.92-2.19,1.85-3.15,2.76l-16.32-15.42c1.03-1.07,2.09-2.27,3.15-3.62,2.03-2.6,3.56-5.14,4.72-7.4l19.5,18.42Z"/></g></g></g></svg>