<?xml version="1.0" encoding="UTF-8"?><svg id="Layer_1" xmlns="http://www.w3.org/2000/svg" width="135mm" height="145mm" xmlns:xlink="http://www.w3.org/1999/xlink" viewBox="0 0 382.68 411.02"><defs><style>.cls-1{fill:#2f8b43;}.cls-2{clip-path:url(#clippath-11);}.cls-3{fill:#fff;}.cls-4{fill:#b9862c;}.cls-5{fill:#482411;}.cls-6{font-size:14.4px;}.cls-6,.cls-7,.cls-8{font-family:MyriadPro-Regular, 'Myriad Pro';}.cls-6,.cls-7,.cls-8,.cls-9{fill:#231f20;}.cls-10{clip-path:url(#clippath-2);}.cls-11{clip-path:url(#clippath-13);}.cls-12{stroke:#231f20;}.cls-12,.cls-13{stroke-miterlimit:10;stroke-width:3px;}.cls-12,.cls-13,.cls-14{fill:none;}.cls-15{clip-path:url(#clippath-6);}.cls-16{fill:#fddcd1;}.cls-17{clip-path:url(#clippath-7);}.cls-7{font-size:14.4px;}.cls-18{clip-path:url(#clippath-1);}.cls-19{clip-path:url(#clippath-4);}.cls-13{stroke:#000;}.cls-20{fill:#4d5daa;}.cls-21{fill:#fddbcf;}.cls-22{fill:#4d5da8;}.cls-23{clip-path:url(#clippath-12);}.cls-8{font-size:14.4px;}.cls-24{clip-path:url(#clippath-9);}.cls-25{clip-path:url(#clippath);}.cls-26{clip-path:url(#clippath-3);}.cls-27{clip-path:url(#clippath-8);}.cls-28{fill:#f6cde1;}.cls-29{clip-path:url(#clippath-14);}.cls-30{clip-path:url(#clippath-5);}.cls-31{clip-path:url(#clippath-10);}.cls-32{fill:#a31e22;}</style><clipPath id="clippath"><rect class="cls-14" x="7.03" y="4.54" width="368.62" height="413.95"/></clipPath><clipPath id="clippath-1"><rect class="cls-14" x="125.16" y="253.35" width="109.75" height="151.78"/></clipPath><clipPath id="clippath-2"><rect class="cls-14" x="7.03" y="4.54" width="368.62" height="413.95"/></clipPath><clipPath id="clippath-3"><rect class="cls-14" x="308.44" y="294.32" width="25.99" height="21.17" transform="translate(-117.73 246.38) rotate(-35.9)"/></clipPath><clipPath id="clippath-4"><rect class="cls-14" x="30.82" y="240.67" width="19.6" height="25.36" transform="translate(-154.58 86.82) rotate(-40.42)"/></clipPath><clipPath id="clippath-5"><rect class="cls-14" x="221.1" y="223.07" width="72.12" height="126.79" transform="translate(-125.9 248.3) rotate(-42.4)"/></clipPath><clipPath id="clippath-6"><rect class="cls-14" x="49" y="215.44" width="117.14" height="87.21" transform="translate(-135.09 118.36) rotate(-37.35)"/></clipPath><clipPath id="clippath-7"><rect class="cls-14" x="7.03" y="4.54" width="368.62" height="413.95"/></clipPath><clipPath id="clippath-8"><rect class="cls-14" x="104.85" y="79.87" width="165.88" height="196.05"/></clipPath><clipPath id="clippath-9"><rect class="cls-14" x="7.03" y="4.54" width="368.62" height="413.95"/></clipPath><clipPath id="clippath-10"><rect class="cls-14" x="123.97" y="188.85" width="127.64" height="29.95"/></clipPath><clipPath id="clippath-11"><rect class="cls-14" x="7.03" y="4.54" width="368.62" height="413.95"/></clipPath><clipPath id="clippath-12"><rect class="cls-14" x="175.68" y="196.8" width="15.67" height="30.76"/></clipPath><clipPath id="clippath-13"><rect class="cls-14" x="7.03" y="4.54" width="368.62" height="413.95"/></clipPath><clipPath id="clippath-14"><rect class="cls-14" x="7.03" y="4.54" width="368.62" height="413.95"/></clipPath></defs><g id="scotish_dead_man"><g class="cls-25"><g class="cls-18"><path class="cls-20" d="m214.66,262.94s19.64,81.44,18.71,128.39l-106.42,12.13c-3.69-73.32,29.31-148.47,29.31-148.47l15.56,2.12,42.85,5.83Z"/><path class="cls-12" d="m214.66,262.94s19.64,81.44,18.71,128.39l-106.42,12.13c-3.69-73.32,29.31-148.47,29.31-148.47l15.56,2.12,42.85,5.83Z"/></g><g class="cls-10"><path class="cls-3" d="m232.58,374.47c.28,5.5.22,10.93-.06,16.43-3.43.38-6.86.67-10.28,1.07-12.34-17.9-27.02-33.99-39.33-51.9-14.39,20.91-31.81,39.69-45.01,61.41-3.51.29-6.97.87-10.46,1.32-.31-6.25-.6-12.43-.29-18.69,14.76-20.51,32.29-39.44,45.07-61.3-8.35-16.79-14.8-34.41-22.12-51.66,2.63-5.03,4.27-10.19,5.78-15.65,3.29.43,6.59.76,9.86,1.35,6.31,14.81,11.9,29.84,18.68,44.45,3.62-6.54,7.19-13.26,10.51-19.91,3.32-6.65,6.46-13.17,9.89-19.73,1.56.25,3.13.54,4.68.84,1.55.29,3.08.58,4.62.84,1.01,4.98,2.2,9.79,3.82,14.6-7.93,14.75-15.22,29.82-23.47,44.39,10.1,19.19,26.02,34.28,38.12,52.12"/><path class="cls-13" d="m232.58,374.47c.28,5.5.22,10.93-.06,16.43-3.43.38-6.86.67-10.28,1.07-12.34-17.9-27.02-33.99-39.33-51.9-14.39,20.91-31.81,39.69-45.01,61.41-3.51.29-6.97.87-10.46,1.32-.31-6.25-.6-12.43-.29-18.69,14.76-20.51,32.29-39.44,45.07-61.3-8.35-16.79-14.8-34.41-22.12-51.66,2.63-5.03,4.27-10.19,5.78-15.65,3.29.43,6.59.76,9.86,1.35,6.31,14.81,11.9,29.84,18.68,44.45,3.62-6.54,7.19-13.26,10.51-19.91,3.32-6.65,6.46-13.17,9.89-19.73,1.56.25,3.13.54,4.68.84,1.55.29,3.08.58,4.62.84,1.01,4.98,2.2,9.79,3.82,14.6-7.93,14.75-15.22,29.82-23.47,44.39,10.1,19.19,26.02,34.28,38.12,52.12Z"/></g><g class="cls-26"><path class="cls-16" d="m315.14,314.94s21.26-2.93,18.2-12.56c-3.06-9.62-20.44-2.25-20.44-2.25l2.24,14.81Z"/><path class="cls-12" d="m315.14,314.94s21.26-2.93,18.2-12.56c-3.06-9.62-20.44-2.25-20.44-2.25l2.24,14.81Z"/></g><g class="cls-19"><path class="cls-16" d="m43.04,265.48s-18.39-11.06-11.79-18.71c6.6-7.64,19.68,5.98,19.68,5.98l-7.88,12.73Z"/><path class="cls-12" d="m43.04,265.48s-18.39-11.06-11.79-18.71c6.6-7.64,19.68,5.98,19.68,5.98l-7.88,12.73Z"/></g><g class="cls-30"><path class="cls-20" d="m218.61,244.51s-14.51,41.53,12.75,64.35c27.26,22.82,85.18,7.07,85.18,7.07,0,0,8.04-4.49-1.5-17.2,0,0-42.92,11.74-70.83-1.61-27.9-13.35-25.61-52.61-25.61-52.61"/><path class="cls-12" d="m218.61,244.51s-14.51,41.53,12.75,64.35c27.26,22.82,85.18,7.07,85.18,7.07,0,0,8.04-4.49-1.5-17.2,0,0-42.92,11.74-70.83-1.61-27.9-13.35-25.61-52.61-25.61-52.61Z"/></g><g class="cls-15"><path class="cls-20" d="m160.39,245.94s-5.77,43.61-40.38,51.7c-34.62,8.08-79.23-32.07-79.23-32.07,0,0-5.16-7.63,9.09-14.68,0,0,33.03,29.83,63.95,30.48,30.93.65,46.57-35.43,46.57-35.43"/><path class="cls-12" d="m160.39,245.94s-5.77,43.61-40.38,51.7c-34.62,8.08-79.23-32.07-79.23-32.07,0,0-5.16-7.63,9.09-14.68,0,0,33.03,29.83,63.95,30.48,30.93.65,46.57-35.43,46.57-35.43Z"/></g><g class="cls-17"><path class="cls-5" d="m282.32,174.58c0,2.97-1.8,4.67-4.1,6.14.37,1.32.72,2.56.67,3.97-.09,2.9-1.06,5.25-2.79,7.6.45,2.12.92,5.1.81,7.13-.47,8.83-3.07,18.34-12.56,20.04-1.66.3-2.22-.45-3.6-.72-.11-.02-.2-.17-.25-.11-.04.06.08.22.11.36.27,1.54.78,2.86.6,4.52-.97,9.29-6.46,14.74-15.77,15.78-.5.06-.91-.09-1.4,0-16.75,13.35-34.46,21.77-56.27,21.74-22.38-.03-40.51-8.8-57.42-22.83-1.28.43-1.79,1.29-3.43,1.05-5.59-.82-7.85-6.88-9.32-11.81-7.72-2.36-12.28-7.12-13.09-15.23-.12-1.15.19-2.01.29-3.12-8.67-2.29-13.96-8.07-14.48-17.1-.29-5.03,2.08-8.65,4.98-12.36-2.48-2.6-4.51-5.19-4.38-9.06.19-5.36,3.45-8.8,8.02-11.25-.64-2.05-1.31-3.81-1.18-6.04.36-6.08,3.24-10.37,8.1-13.92-2.28-3.29-4.12-6.44-3.59-10.69.99-7.9,6.13-12.54,13.96-13.58,1.21-4.63,4.18-7.27,8.35-9.36,0-.07-.02-.13,0-.2.89-7.97,5.57-12.7,13.52-13.49,1.91-.19,3.36.48,5.11.92,14.11-8,28.22-12.74,44.55-12.94,12.61-.15,23.86,3.14,35.38,7.82,3.16-1.72,5.74-3.5,9.67-3.16,9.7.85,15.1,7.32,16.7,16.77,5.51,2.27,10.59,5.56,11.18,11.77.24,2.56-.98,3.86-2.04,5.86-.03.05-.13.09-.1.13.04.04.13.04.23.08,7.34,3.02,11.17,8.3,13.45,15.8,7.67,3.63,11.96,9.65,12.23,18.22.19,6.12-2.58,10.74-6.62,15.01,2.47,1.35,4.47,3.32,4.48,6.29"/><path class="cls-13" d="m282.32,174.58c0,2.97-1.8,4.67-4.1,6.14.37,1.32.72,2.56.67,3.97-.09,2.9-1.06,5.25-2.79,7.6.45,2.12.92,5.1.81,7.13-.47,8.83-3.07,18.34-12.56,20.04-1.66.3-2.22-.45-3.6-.72-.11-.02-.2-.17-.25-.11-.04.06.08.22.11.36.27,1.54.78,2.86.6,4.52-.97,9.29-6.46,14.74-15.77,15.78-.5.06-.91-.09-1.4,0-16.75,13.35-34.46,21.77-56.27,21.74-22.38-.03-40.51-8.8-57.42-22.83-1.28.43-1.79,1.29-3.43,1.05-5.59-.82-7.85-6.88-9.32-11.81-7.72-2.36-12.28-7.12-13.09-15.23-.12-1.15.19-2.01.29-3.12-8.67-2.29-13.96-8.07-14.48-17.1-.29-5.03,2.08-8.65,4.98-12.36-2.48-2.6-4.51-5.19-4.38-9.06.19-5.36,3.45-8.8,8.02-11.25-.64-2.05-1.31-3.81-1.18-6.04.36-6.08,3.24-10.37,8.1-13.92-2.28-3.29-4.12-6.44-3.59-10.69.99-7.9,6.13-12.54,13.96-13.58,1.21-4.63,4.18-7.27,8.35-9.36,0-.07-.02-.13,0-.2.89-7.97,5.57-12.7,13.52-13.49,1.91-.19,3.36.48,5.11.92,14.11-8,28.22-12.74,44.55-12.94,12.61-.15,23.86,3.14,35.38,7.82,3.16-1.72,5.74-3.5,9.67-3.16,9.7.85,15.1,7.32,16.7,16.77,5.51,2.27,10.59,5.56,11.18,11.77.24,2.56-.98,3.86-2.04,5.86-.03.05-.13.09-.1.13.04.04.13.04.23.08,7.34,3.02,11.17,8.3,13.45,15.8,7.67,3.63,11.96,9.65,12.23,18.22.19,6.12-2.58,10.74-6.62,15.01,2.47,1.35,4.47,3.32,4.48,6.29Z"/><path class="cls-5" d="m258.78,119.26c-.08-.04-.16-.06-.24-.08.04-.05.07-.09.1-.14.06.07.1.14.14.22"/><path class="cls-13" d="m258.78,119.26c-.08-.04-.16-.06-.24-.08.04-.05.07-.09.1-.14.06.07.1.14.14.22Z"/><path class="cls-5" d="m260.76,218.72c-.04.09-.09.17-.15.26-.04-.13-.08-.26-.12-.38.09.04.18.09.27.12"/><path class="cls-13" d="m260.76,218.72c-.04.09-.09.17-.15.26-.04-.13-.08-.26-.12-.38.09.04.18.09.27.12Z"/></g><g class="cls-27"><path class="cls-16" d="m268.66,182.12c-1.69,12.71-6.65,22.53-11.07,21.94-1-.14-1.89-.8-2.65-1.89-7.74,41.56-34.86,72.25-67.15,72.25s-59.8-31.13-67.31-73.14c-.92,1.7-2.06,2.72-3.37,2.86-4.43.45-9.1-9.51-10.41-22.26-1.32-12.74,1.21-23.45,5.64-23.91,2.36-.24,4.78,2.46,6.72,6.95,4.55-47.17,33.58-83.55,68.73-83.55s64.35,36.58,68.77,83.95c2.13-4.74,4.73-7.59,7.17-7.26,4.41.58,6.62,11.36,4.93,24.06"/><path class="cls-12" d="m268.66,182.12c-1.69,12.71-6.65,22.53-11.07,21.94-1-.14-1.89-.8-2.65-1.89-7.74,41.56-34.86,72.25-67.15,72.25s-59.8-31.13-67.31-73.14c-.92,1.7-2.06,2.72-3.37,2.86-4.43.45-9.1-9.51-10.41-22.26-1.32-12.74,1.21-23.45,5.64-23.91,2.36-.24,4.78,2.46,6.72,6.95,4.55-47.17,33.58-83.55,68.73-83.55s64.35,36.58,68.77,83.95c2.13-4.74,4.73-7.59,7.17-7.26,4.41.58,6.62,11.36,4.93,24.06Z"/></g><g class="cls-24"><path class="cls-5" d="m179.6,99.71c-.69,4.46-4.43,6.29-8.79,6.19-1.14-.03-2.11-.68-3.09-1.12-.05.2-.02.39-.09.61-1.46,4.51-3.97,6.81-8.56,8.19.7,2.77,2.18,4.97,1.24,7.98-2.51,7.96-7.97,11.17-16.48,10.94-.21,0-.41-.09-.6-.13.04,1.6.21,3.12-.13,4.71-1.23,5.76-3.71,9.57-8.74,12.97.49,2.2-.17,6.41-.45,8.25-.96,6.39-6.49,15.26-13.16,11.17-6.67-4.09-6.93-11.25-8.47-18.09-.61-2.73,1.96-6.34,3.13-8.8-4.96-2.98-7.23-7.48-6.22-13.07,1.07-5.93,4.74-8.67,10.73-8.44,1.69.07,2.75,1.27,4.12,1.98,2.12-1.65,4.28-2.54,6.99-2.82-.03-1.52-.61-2.84-.08-4.38,2.42-6.89,6.91-9.78,14.24-10.61-.05-1.42-.64-2.62-.11-4.08,2.17-5.96,6.38-8.64,12.88-8.3,2.62.14,4.39,1.8,6.44,3.12,1.88-3.22,4.71-5.54,8.73-4.8,4.47.82,7.16,4.08,6.47,8.54"/><path class="cls-13" d="m179.6,99.71c-.69,4.46-4.43,6.29-8.79,6.19-1.14-.03-2.11-.68-3.09-1.12-.05.2-.02.39-.09.61-1.46,4.51-3.97,6.81-8.56,8.19.7,2.77,2.18,4.97,1.24,7.98-2.51,7.96-7.97,11.17-16.48,10.94-.21,0-.41-.09-.6-.13.04,1.6.21,3.12-.13,4.71-1.23,5.76-3.71,9.57-8.74,12.97.49,2.2-.17,6.41-.45,8.25-.96,6.39-6.49,15.26-13.16,11.17-6.67-4.09-6.93-11.25-8.47-18.09-.61-2.73,1.96-6.34,3.13-8.8-4.96-2.98-7.23-7.48-6.22-13.07,1.07-5.93,4.74-8.67,10.73-8.44,1.69.07,2.75,1.27,4.12,1.98,2.12-1.65,4.28-2.54,6.99-2.82-.03-1.52-.61-2.84-.08-4.38,2.42-6.89,6.91-9.78,14.24-10.61-.05-1.42-.64-2.62-.11-4.08,2.17-5.96,6.38-8.64,12.88-8.3,2.62.14,4.39,1.8,6.44,3.12,1.88-3.22,4.71-5.54,8.73-4.8,4.47.82,7.16,4.08,6.47,8.54Z"/><path class="cls-5" d="m261.82,148.14c3.32,1.71,3.65,6.76,1.72,9.11-3.84,4.66-5.7,13.73-11.6,15.06-5.9,1.33-8.02-8-8.09-12.07,0-.41-.11-1.79,0-2.26-.85.07-1.6.48-2.5.43-7.34-.43-11.83-3.56-13.96-10.43-.71-2.31.26-4.14.73-6.29-3.02,1.81-5.56,4-9.37,4.07-9.68.18-15.86-4.05-18.91-12.98-.9-2.64.16-4.77.47-7.31-6-1.02-9.36-3.69-11.19-9.38-.31-.95.01-1.79-.2-2.73-5.56-1.54-12-3.32-12.39-10.01-.48-8.27,6.11-12.58,14.03-13.97,6.25-1.1,11.85,1.13,16.26,5.51,2.98-1.39,5.62-3.28,9.06-3.38,10.16-.29,17.14,3.43,20.61,12.82,1.07,2.89-.26,4.98-.64,7.72,1.32-.38,2.7-1,4.14-1.01,8.65-.06,15.24,2.83,18.18,10.98,1.47,4.09-.85,6.66-2.5,10.08,4.42,1.17,8.08,3.08,9.33,7.68.97,3.57-.93,5.76-3.21,8.37"/><path class="cls-13" d="m261.82,148.14c3.32,1.71,3.65,6.76,1.72,9.11-3.84,4.66-5.7,13.73-11.6,15.06-5.9,1.33-8.02-8-8.09-12.07,0-.41-.11-1.79,0-2.26-.85.07-1.6.48-2.5.43-7.34-.43-11.83-3.56-13.96-10.43-.71-2.31.26-4.14.73-6.29-3.02,1.81-5.56,4-9.37,4.07-9.68.18-15.86-4.05-18.91-12.98-.9-2.64.16-4.77.47-7.31-6-1.02-9.36-3.69-11.19-9.38-.31-.95.01-1.79-.2-2.73-5.56-1.54-12-3.32-12.39-10.01-.48-8.27,6.11-12.58,14.03-13.97,6.25-1.1,11.85,1.13,16.26,5.51,2.98-1.39,5.62-3.28,9.06-3.38,10.16-.29,17.14,3.43,20.61,12.82,1.07,2.89-.26,4.98-.64,7.72,1.32-.38,2.7-1,4.14-1.01,8.65-.06,15.24,2.83,18.18,10.98,1.47,4.09-.85,6.66-2.5,10.08,4.42,1.17,8.08,3.08,9.33,7.68.97,3.57-.93,5.76-3.21,8.37Z"/></g><g class="cls-31"><path class="cls-28" d="m251.42,199.61c1.55,7.86-6.74,16.11-18.52,18.43-11.78,2.32-22.58-2.16-24.13-10.01-1.55-7.86,6.74-16.11,18.52-18.43,11.78-2.32,22.58,2.16,24.14,10.01"/><path class="cls-28" d="m166.54,208.84c-1.85,7.79-12.82,11.86-24.5,9.09-11.68-2.77-19.65-11.33-17.81-19.12,1.85-7.79,12.81-11.86,24.5-9.09,11.68,2.77,19.65,11.33,17.81,19.12"/></g><g class="cls-2"><path class="cls-5" d="m121.19,203.82c37.09,44.4,94.33,49.79,131.84,1.09.15,26.64-12.66,66.11-27.24,88.25,1.97-5.99,2.78-11.53,1.87-17.81-5.06,10.94-10.64,21.04-18.31,30.28,1.69-5.82,1.26-11-.26-16.81-4.18,13.16-10.91,23.35-20.28,33.2-.14-12.17-1.48-23.07-7.1-33.93-.63,6.64-1.25,13.28-1.87,19.92-9.01-6.74-13.71-15.73-18.35-25.92-1.93,4.22-2.83,8.47-3.27,13.1-25.72-27.55-31.58-56.41-37.02-91.37"/><path class="cls-13" d="m121.19,203.82c37.09,44.4,94.33,49.79,131.84,1.09.15,26.64-12.66,66.11-27.24,88.25,1.97-5.99,2.78-11.53,1.87-17.81-5.06,10.94-10.64,21.04-18.31,30.28,1.69-5.82,1.26-11-.26-16.81-4.18,13.16-10.91,23.35-20.28,33.2-.14-12.17-1.48-23.07-7.1-33.93-.63,6.64-1.25,13.28-1.87,19.92-9.01-6.74-13.71-15.73-18.35-25.92-1.93,4.22-2.83,8.47-3.27,13.1-25.72-27.55-31.58-56.41-37.02-91.37Z"/><path class="cls-5" d="m276.54,233.94c-.3.31-1.03,1.01-2.14,1.83,1.11-.9,1.84-1.58,2.14-1.83"/><path class="cls-13" d="m276.54,233.94c-.3.31-1.03,1.01-2.14,1.83,1.11-.9,1.84-1.58,2.14-1.83Z"/><path class="cls-5" d="m274.24,235.91c-7.29,6.08-29.83,22.55-54.8,18.44-23.76-3.93-30.17-4-30.17-4l-30.53,4.3c-25.13,3.52-47.33-13.61-54.4-19.8,5.42,4.25,19.82,11.58,38.76-9.18,20-21.93,39.56-7.71,45.82-2.04,4.82-4.52,26.09-21.79,46.87,2.12,18.36,21.12,32.9,14.26,38.46,10.16"/><path class="cls-13" d="m274.24,235.91c-7.29,6.08-29.83,22.55-54.8,18.44-23.76-3.93-30.17-4-30.17-4l-30.53,4.3c-25.13,3.52-47.33-13.61-54.4-19.8,5.42,4.25,19.82,11.58,38.76-9.18,20-21.93,39.56-7.71,45.82-2.04,4.82-4.52,26.09-21.79,46.87,2.12,18.36,21.12,32.9,14.26,38.46,10.16Z"/><path class="cls-5" d="m104.18,234.72c-1.21-.96-1.94-1.73-2.13-1.95.21.2.95.91,2.13,1.95"/><path class="cls-13" d="m104.18,234.72c-1.21-.96-1.94-1.73-2.13-1.95.21.2.95.91,2.13,1.95Z"/><path class="cls-21" d="m188.49,199.49s1.97,3.12-.28,8.39c-2.25,5.27-8.89,7.86-8.89,7.86l-1.58,8.1,4.66,3.73,3.18-.28,3.71-3.58-.8-24.21Z"/></g><g class="cls-23"><path class="cls-12" d="m187.74,197.18c1.16,4.45.41,7.1-.53,8.7-.48.81-2.26,2.49-5.8,5.8-2.48,2.32-3.16,2.9-3.69,4.22-1.12,2.81-.14,5.43,0,5.8.33.84,1.17,3.02,3.43,3.96,2.34.97,4.56-.07,5.54-.53,1.88-.89,3.43-3.17,3.43-3.17"/></g><g class="cls-11"><path class="cls-22" d="m244.63,36.69c1.4,4.67,1.17,8.69,1.05,11.12-.52,10.05-4.96,19.47-12.14,26.33h-.01c-4.89,4.68-11.05,8.18-18.11,9.89-1,.24-2,.44-3.01.61-53.51,23.41-94.7,17.99-94.7,17.99h.03c-9.79-1.18-17.99-7.09-21.42-15.49-.57-1.4-4.67-11.95,1.56-20.88,5.41-7.75,16.37-11.08,26.89-7.75,4.17.16,8.34.31,12.51.47,4.55-1.42,11.51-4.2,18.58-9.78,5.86-4.62,9.74-9.54,12.16-13.16,3.68-7.23,8.01-11.98,11.05-14.82,1.49-1.39,3.42-3.18,6.29-4.94,0,0,7.27-4.48,16.86-5.23,15.86-1.24,37.35,8.67,42.42,25.63"/><path class="cls-12" d="m244.63,36.69c1.4,4.67,1.17,8.69,1.05,11.12-.52,10.05-4.96,19.47-12.14,26.33h-.01c-4.89,4.68-11.05,8.18-18.11,9.89-1,.24-2,.44-3.01.61-53.51,23.41-94.7,17.99-94.7,17.99h.03c-9.79-1.18-17.99-7.09-21.42-15.49-.57-1.4-4.67-11.95,1.56-20.88,5.41-7.75,16.37-11.08,26.89-7.75,4.17.16,8.34.31,12.51.47,4.55-1.42,11.51-4.2,18.58-9.78,5.86-4.62,9.74-9.54,12.16-13.16,3.68-7.23,8.01-11.98,11.05-14.82,1.49-1.39,3.42-3.18,6.29-4.94,0,0,7.27-4.48,16.86-5.23,15.86-1.24,37.35,8.67,42.42,25.63Z"/><line class="cls-12" x1="115.34" y1="54.22" x2="115.23" y2="54.23"/><path class="cls-32" d="m160.73,50.4c-.1.98-.3,1.93-.58,2.84,3.04,2.51,4.63,5.05,3.79,6.57-.87,1.58-4.13,1.62-8.15.36-2.67,2.46-6.21,4.01-10.11,4.15-1.84,3.45-4.04,5.52-5.74,5.05-1.64-.45-2.4-3.15-2.2-6.82,0-.12.02-.25.02-.38-.08.09-.16.18-.25.26-3.37,3.52-6.8,5.31-8.46,4.16-1.57-1.09-1.1-4.53.9-8.52-3,.38-5.23-.07-5.84-1.39-.78-1.73,1.44-4.46,5.26-6.9-.03-.33-.04-.67-.04-1,0-2.92.81-5.64,2.22-7.97-3.55-4.53-5.03-8.95-3.33-10.43,1.68-1.47,5.96.44,10.12,4.34,1.03-.48,2.11-.85,3.25-1.1.73-4.46,2.4-7.57,4.34-7.57,1.54,0,2.9,1.95,3.76,4.96,2.13-2.45,4.26-3.69,5.68-3.04,1.85.86,1.91,4.74.37,9.39,1.32,1.2,2.42,2.62,3.26,4.21,5.83.26,10.26,1.98,10.32,4.21.06,2.04-3.55,3.87-8.61,4.63"/><path class="cls-12" d="m160.73,50.4c-.1.98-.3,1.93-.58,2.84,3.04,2.51,4.63,5.05,3.79,6.57-.87,1.58-4.13,1.62-8.15.36-2.67,2.46-6.21,4.01-10.11,4.15-1.84,3.45-4.04,5.52-5.74,5.05-1.64-.45-2.4-3.15-2.2-6.82,0-.12.02-.25.02-.38-.08.09-.16.18-.25.26-3.37,3.52-6.8,5.31-8.46,4.16-1.57-1.09-1.1-4.53.9-8.52-3,.38-5.23-.07-5.84-1.39-.78-1.73,1.44-4.46,5.26-6.9-.03-.33-.04-.67-.04-1,0-2.92.81-5.64,2.22-7.97-3.55-4.53-5.03-8.95-3.33-10.43,1.68-1.47,5.96.44,10.12,4.34,1.03-.48,2.11-.85,3.25-1.1.73-4.46,2.4-7.57,4.34-7.57,1.54,0,2.9,1.95,3.76,4.96,2.13-2.45,4.26-3.69,5.68-3.04,1.85.86,1.91,4.74.37,9.39,1.32,1.2,2.42,2.62,3.26,4.21,5.83.26,10.26,1.98,10.32,4.21.06,2.04-3.55,3.87-8.61,4.63Z"/><path d="m235.71,73.26l4.33,11.68c-70.51,33.96-129.37,30.1-129.37,30.1-.19-4.27-.38-8.55-.57-12.82,12.55-.73,26.15-2.13,40.58-4.53,33.69-5.59,62.29-14.98,85.03-24.43"/><path class="cls-13" d="m235.71,73.26l4.33,11.68c-70.51,33.96-129.37,30.1-129.37,30.1-.19-4.27-.38-8.55-.57-12.82,12.55-.73,26.15-2.13,40.58-4.53,33.69-5.59,62.29-14.98,85.03-24.43Z"/><path class="cls-12" d="m37.4,229.1c.6,2.5-5.36,6.08-13.32,8.02-7.96,1.93-14.91,1.47-15.51-1.02-.6-2.49,5.36-6.08,13.32-8.01,7.96-1.93,14.91-1.48,15.51,1.02Z"/><path class="cls-12" d="m38.82,249.41c.43,1.76-3.77,4.28-9.37,5.64-5.6,1.36-10.48,1.04-10.91-.72-.43-1.75,3.77-4.28,9.37-5.64,5.6-1.36,10.49-1.04,10.91.72Z"/><line class="cls-12" x1="8.57" y1="236.09" x2="18.54" y2="254.33"/><line class="cls-12" x1="38.82" y1="249.41" x2="37.4" y2="229.1"/><path class="cls-4" d="m37.92,244.84c.13,1.19.25,2.39.38,3.58.51,2.1-3.62,4.9-9.22,6.26s-10.55.76-11.06-1.34l-3.44-8.89c7.78.13,15.56.26,23.33.39"/><path class="cls-12" d="m37.92,244.84c.13,1.19.25,2.39.38,3.58.51,2.1-3.62,4.9-9.22,6.26s-10.55.76-11.06-1.34l-3.44-8.89c7.78.13,15.56.26,23.33.39Z"/><path class="cls-4" d="m37.54,244.17c.05,2.02-5.14,3.78-11.59,3.94-6.45.15-11.72-1.36-11.76-3.38-.05-2.02,5.14-3.78,11.59-3.94,6.45-.15,11.72,1.36,11.76,3.38"/><path class="cls-12" d="m37.54,244.17c.05,2.02-5.14,3.78-11.59,3.94-6.45.15-11.72-1.36-11.76-3.38-.05-2.02,5.14-3.78,11.59-3.94,6.45-.15,11.72,1.36,11.76,3.38Z"/><path class="cls-12" d="m371.64,312.53c-1.95,11.09-3.82,20.75-5.41,28.62-.69,3.48-11.28,4.32-23.68,1.87-12.39-2.44-21.87-7.25-21.19-10.74,1.52-7.88,3.47-17.52,5.88-28.52,3.66-16.67,5.43-22.96,11.19-27.36,4.34-3.31,9.22-4.23,12.58-4.51l4.17-18.93.51.1c.72.62,2.35,1.27,4.31,1.66,1.94.38,3.68.4,4.58.1l.54.11c-1.12,6.36-2.23,12.72-3.35,19.09,3,1.53,7.17,4.24,9.93,8.95,3.65,6.26,2.89,12.75-.06,29.56Z"/><path class="cls-4" d="m366.24,249.27c-.16.77-2.51.96-5.25.42-2.66-.53-4.71-1.54-4.71-2.3v-.08c.17-.78,2.52-.96,5.26-.42,2.75.54,4.85,1.61,4.7,2.38"/><path class="cls-12" d="m366.24,249.27c-.16.77-2.51.96-5.25.42-2.66-.53-4.71-1.54-4.71-2.3v-.08c.17-.78,2.52-.96,5.26-.42,2.75.54,4.85,1.61,4.7,2.38Z"/><line class="cls-12" x1="356.29" y1="247.31" x2="356.28" y2="247.39"/><path class="cls-1" d="m366.24,249.27l-.99,4.95v.08c-.05.22-.29.4-.67.52-.9.3-2.64.28-4.58-.1-1.96-.39-3.59-1.04-4.31-1.66-.29-.25-.43-.5-.39-.72l.98-4.95c0,.76,2.05,1.77,4.71,2.3,2.74.54,5.09.35,5.25-.42"/><path class="cls-12" d="m366.24,249.27l-.99,4.95v.08c-.05.22-.29.4-.67.52-.9.3-2.64.28-4.58-.1-1.96-.39-3.59-1.04-4.31-1.66-.29-.25-.43-.5-.39-.72l.98-4.95c0,.76,2.05,1.77,4.71,2.3,2.74.54,5.09.35,5.25-.42Z"/><path class="cls-1" d="m373.18,302.99c-.76,3.82-11.08,5.02-23.06,2.65-11.99-2.37-21.09-7.4-20.33-11.22.76-3.83,11.08-5.03,23.07-2.66,11.98,2.37,21.08,7.39,20.32,11.23"/><path class="cls-12" d="m373.18,302.99c-.76,3.82-11.08,5.02-23.06,2.65-11.99-2.37-21.09-7.4-20.33-11.22.76-3.83,11.08-5.03,23.07-2.66,11.98,2.37,21.08,7.39,20.32,11.23Z"/><path class="cls-4" d="m373.35,301.28l-7.91,39.97c-.66,3.37-10.92,4.18-22.9,1.82-11.98-2.37-21.15-7.02-20.49-10.4l6.33-32.08c0,3.51,10.09,6.35,22.55,6.35,11.63,0,21.21-2.48,22.42-5.66"/><path class="cls-12" d="m373.35,301.28l-7.91,39.97c-.66,3.37-10.92,4.18-22.9,1.82-11.98-2.37-21.15-7.02-20.49-10.4l6.33-32.08c0,3.51,10.09,6.35,22.55,6.35,11.63,0,21.21-2.48,22.42-5.66Z"/><path class="cls-4" d="m373.49,300.59c0,.23-.04.46-.14.69-1.21,3.18-10.79,5.66-22.42,5.66-12.46,0-22.55-2.84-22.55-6.35s10.09-6.34,22.55-6.34,22.56,2.84,22.56,6.34"/><path class="cls-12" d="m373.49,300.59c0,.23-.04.46-.14.69-1.21,3.18-10.79,5.66-22.42,5.66-12.46,0-22.55-2.84-22.55-6.35s10.09-6.34,22.55-6.34,22.56,2.84,22.56,6.34Z"/><line class="cls-12" x1="373.49" y1="300.59" x2="373.35" y2="301.28"/><path class="cls-1" d="m373.48,300.53l-3.42,17.32c-.76,3.83-11.08,5.03-23.07,2.66-11.98-2.37-21.08-7.4-20.32-11.23l3.42-17.32c-.76,3.82,8.34,8.85,20.33,11.22,11.98,2.37,22.31,1.18,23.06-2.65"/><path class="cls-12" d="m373.48,300.53l-3.42,17.32c-.76,3.83-11.08,5.03-23.07,2.66-11.98-2.37-21.08-7.4-20.32-11.23l3.42-17.32c-.76,3.82,8.34,8.85,20.33,11.22,11.98,2.37,22.31,1.18,23.06-2.65Z"/></g><text class="cls-6" transform="translate(333.49 313.11) rotate(21.6) scale(1 1.2)"><tspan x="0" y="0">X</tspan></text><text class="cls-8" transform="translate(342.05 316.41) rotate(12.35) scale(1 1.2)"><tspan x="0" y="0">X</tspan></text><text class="cls-7" transform="translate(350.95 318.29) rotate(3.66) scale(1 1.2)"><tspan x="0" y="0">X</tspan></text><g class="cls-29"><polygon class="cls-9" points="170.09 179.28 175.29 194.21 172.95 199.48 167.64 184.29 160.91 198.04 159.21 192.54 165.81 179.03 160.9 164.98 163.28 159.71 168.26 174.02 175.25 159.71 176.98 165.22 170.09 179.28"/><polygon class="cls-12" points="170.09 179.28 175.29 194.21 172.95 199.48 167.64 184.29 160.91 198.04 159.21 192.54 165.81 179.03 160.9 164.98 163.28 159.71 168.26 174.02 175.25 159.71 176.98 165.22 170.09 179.28"/><polygon class="cls-9" points="212.47 178.79 217.67 193.72 215.33 198.99 210.02 183.8 203.29 197.55 201.59 192.05 208.19 178.54 203.28 164.49 205.66 159.22 210.64 173.53 217.63 159.22 219.36 164.73 212.47 178.79"/><polygon class="cls-12" points="212.47 178.79 217.67 193.72 215.33 198.99 210.02 183.8 203.29 197.55 201.59 192.05 208.19 178.54 203.28 164.49 205.66 159.22 210.64 173.53 217.63 159.22 219.36 164.73 212.47 178.79"/></g></g></g></svg>