<?xml version="1.0" encoding="UTF-8"?><svg id="Layer_1" xmlns="http://www.w3.org/2000/svg" width="20mm" height="35mm" xmlns:xlink="http://www.w3.org/1999/xlink" viewBox="0 0 56.69 99.21"><defs><style>.cls-1{stroke:#231f20;stroke-miterlimit:10;stroke-width:3px;}.cls-1,.cls-2{fill:none;}.cls-3{fill:#a09f9f;}.cls-4{clip-path:url(#clippath-1);}.cls-5{fill:#724d1e;}.cls-6{clip-path:url(#clippath);}</style><clipPath id="clippath"><rect class="cls-2" x="1.35" y="5.16" width="53.99" height="88.89"/></clipPath><clipPath id="clippath-1"><rect class="cls-2" x="1.35" y="5.16" width="53.99" height="88.89"/></clipPath></defs><g id="Small_axe"><g class="cls-6"><polygon class="cls-5" points="43.17 90.66 37.64 90.66 37.03 8.79 42.57 8.79 43.17 90.66"/><g class="cls-4"><polygon class="cls-1" points="43.17 90.66 37.64 90.66 37.03 8.79 42.57 8.79 43.17 90.66"/><path class="cls-5" d="m43.17,91.59c0,.08-.03.15-.08.24-.3.4-1.39.72-2.68.72s-2.38-.31-2.67-.72c-.05-.08-.08-.16-.08-.24,0-.51,1.23-.94,2.76-.94s2.76.43,2.76.94"/><path class="cls-1" d="m43.17,91.59c0,.08-.03.15-.08.24-.3.4-1.39.72-2.68.72s-2.38-.31-2.67-.72c-.05-.08-.08-.16-.08-.24,0-.51,1.23-.94,2.76-.94s2.76.43,2.76.94Z"/><path class="cls-5" d="m42.56,7.73c0,.59-1.24,1.07-2.76,1.07s-2.76-.48-2.76-1.07,1.24-1.07,2.76-1.07,2.76.48,2.76,1.07"/><ellipse class="cls-1" cx="39.8" cy="7.73" rx="2.76" ry="1.07"/><path class="cls-3" d="m37.03,17.96c-18.58,1.66-32.42-5.49-32.42-5.49,0,0-3.95,12.79,0,30.64,0,0,13.06-8.84,32.42-7.62v-17.53Z"/><path class="cls-1" d="m37.03,17.96c-18.58,1.66-32.42-5.49-32.42-5.49,0,0-3.95,12.79,0,30.64,0,0,13.06-8.84,32.42-7.62v-17.53Z"/><path class="cls-3" d="m53.84,37.73c-2.11-.69-4.58-1.31-7.35-1.69-1.16-.16-2.27-.26-3.32-.31v-17.86c1.18.01,2.46-.03,3.81-.16,2.62-.25,4.92-.75,6.86-1.32v21.34Z"/><path class="cls-1" d="m53.84,37.73c-2.11-.69-4.58-1.31-7.35-1.69-1.16-.16-2.27-.26-3.32-.31v-17.86c1.18.01,2.46-.03,3.81-.16,2.62-.25,4.92-.75,6.86-1.32v21.34Z"/></g></g></g></svg>