<?xml version="1.0" encoding="UTF-8"?><svg id="Layer_1" xmlns="http://www.w3.org/2000/svg" width="245mm" height="120mm" xmlns:xlink="http://www.w3.org/1999/xlink" viewBox="0 0 694.49 340.16"><defs><style>.cls-1{clip-path:url(#clippath-2);}.cls-2{fill:#a09f9f;}.cls-3{clip-path:url(#clippath-1);}.cls-4{clip-path:url(#clippath-4);}.cls-5{fill:#add3d8;}.cls-6{fill:#724d1e;}.cls-7{clip-path:url(#clippath);}.cls-8{stroke:#000;stroke-width:5px;}.cls-8,.cls-9,.cls-10{fill:none;}.cls-8,.cls-10{stroke-miterlimit:10;}.cls-10{stroke:#231f20;stroke-width:5.12px;}.cls-11{clip-path:url(#clippath-3);}</style><clipPath id="clippath"><rect class="cls-9" x="-3.97" y=".11" width="702.42" height="339.93"/></clipPath><clipPath id="clippath-1"><rect class="cls-9" x="-3.97" y=".11" width="702.42" height="339.93"/></clipPath><clipPath id="clippath-2"><rect class="cls-9" x="395.42" y="83.06" width="293.97" height="150.68" transform="translate(52.96 440.78) rotate(-46.26)"/></clipPath><clipPath id="clippath-3"><rect class="cls-9" x="395.42" y="83.06" width="293.97" height="150.68" transform="translate(52.97 440.78) rotate(-46.26)"/></clipPath><clipPath id="clippath-4"><rect class="cls-9" x="82.97" y="43.35" width="150.68" height="293.97" transform="translate(-89.12 198.42) rotate(-52.12)"/></clipPath></defs><g id="start_shift"><g class="cls-7"><g class="cls-3"><path class="cls-5" d="m532.22,272.25l-350.36,29.59c-32.28,2.73-60.65-21.23-63.38-53.51l-9.18-108.68c-2.73-32.28,21.23-60.65,53.51-63.38l350.36-29.59c32.28-2.73,60.66,21.23,63.38,53.51l9.18,108.68c2.73,32.28-21.23,60.65-53.51,63.38"/><path class="cls-8" d="m532.22,272.25l-350.36,29.59c-32.28,2.73-60.65-21.23-63.38-53.51l-9.18-108.68c-2.73-32.28,21.23-60.65,53.51-63.38l350.36-29.59c32.28-2.73,60.66,21.23,63.38,53.51l9.18,108.68c2.73,32.28-21.23,60.65-53.51,63.38Z"/></g><path d="m228.21,153.42c4.25,1.87,10.34,3.21,16.59,2.68,9.27-.78,14.32-5.57,13.79-11.83-.49-5.8-4.52-8.8-14.27-11.22-11.76-2.62-19.29-7.28-20.03-16.02-.82-9.67,7.64-17.62,21.29-18.77,7.19-.61,12.52.43,15.78,1.73l-1.95,6.75c-2.38-.91-7.23-2.36-13.58-1.82-9.58.81-12.8,6.18-12.45,10.42.49,5.8,5,8.3,14.97,10.79,12.22,3.05,18.69,7.6,19.46,16.72.81,9.58-6.51,18.54-23.08,19.94-6.77.57-14.32-.55-18.25-2.45l1.72-6.92Z"/><path d="m290.31,102.36l-21.36,1.8-.58-6.82,51.99-4.39.58,6.82-21.46,1.81,4.67,55.26-9.17.77-4.67-55.26Z"/><path d="m335.32,134.55l-5.64,20.14-9.38.79,18.62-64.09,10.94-.92,29.21,60.05-9.69.82-9.15-18.89-24.9,2.1Zm22.49-8.21l-8.38-17.29c-1.9-3.92-3.26-7.52-4.6-11.02l-.21.02c-.73,3.77-1.56,7.64-2.59,11.53l-5.36,18.54,21.15-1.79Z"/><path d="m384.19,88.41c4.51-1.22,11.04-2.23,17.29-2.76,9.69-.82,16.07.22,20.74,3.35,3.78,2.46,6.11,6.53,6.52,11.32.69,8.2-4.68,14.12-11.89,16.96l.02.28c5.56,1.2,9.16,5.35,11.37,11.65,3.02,8.46,5.2,14.31,6.86,16.58l-9.38.79c-1.29-1.65-3.31-6.86-5.94-14.43-2.81-8.39-6.83-11.3-15.08-10.88l-8.54.72,2.27,26.89-9.06.76-5.17-61.24Zm11.45,27.51l9.27-.78c9.69-.82,15.44-6.03,14.84-13.13-.68-8.01-7.54-10.96-17.13-10.24-4.38.37-7.47,1-8.9,1.49l1.91,22.66Z"/><path d="m455.02,88.45l-21.36,1.8-.58-6.82,51.99-4.39.58,6.82-21.46,1.81,4.67,55.26-9.17.77-4.67-55.26Z"/><path d="m237.55,263.94c4.25,1.87,10.34,3.21,16.59,2.68,9.27-.78,14.32-5.57,13.79-11.83-.49-5.8-4.52-8.8-14.27-11.22-11.76-2.62-19.29-7.28-20.03-16.02-.82-9.67,7.64-17.62,21.29-18.77,7.19-.61,12.52.43,15.78,1.73l-1.95,6.75c-2.39-.91-7.23-2.36-13.58-1.82-9.59.81-12.8,6.18-12.45,10.42.49,5.8,5,8.3,14.97,10.79,12.22,3.05,18.69,7.6,19.46,16.72.81,9.58-6.51,18.54-23.08,19.94-6.77.57-14.32-.55-18.25-2.45l1.72-6.92Z"/><path d="m294.8,206.43l2.19,25.97,33.96-2.87-2.19-25.97,9.17-.77,5.24,62.07-9.17.77-2.46-29.1-33.96,2.87,2.46,29.1-9.06.77-5.24-62.07,9.06-.76Z"/><path d="m362.72,200.69l5.24,62.07-9.06.77-5.24-62.07,9.06-.77Z"/><path d="m378.56,199.35l37.82-3.19.57,6.72-28.76,2.43,1.74,20.63,26.57-2.24.56,6.63-26.57,2.24,2.37,28.09-9.06.77-5.24-62.07Z"/><path d="m443.2,200.76l-21.36,1.8-.57-6.82,51.99-4.39.57,6.81-21.46,1.81,4.67,55.26-9.17.77-4.67-55.26Z"/><g class="cls-1"><polygon class="cls-6" points="471 285.37 484.09 291.51 602.46 42.79 589.37 36.65 471 285.37"/></g><g class="cls-11"><polygon class="cls-10" points="471 285.37 484.09 291.51 602.46 42.79 589.37 36.65 471 285.37"/><path class="cls-6" d="m469.95,287.59c-.09.18-.1.4-.06.65.25,1.29,2.49,3.24,5.54,4.67s5.96,1.89,7.12,1.27c.22-.14.38-.29.46-.47.57-1.21-1.87-3.59-5.48-5.28-3.61-1.69-7.01-2.05-7.58-.84"/><path class="cls-10" d="m469.95,287.59c-.09.18-.1.4-.06.65.25,1.29,2.49,3.24,5.54,4.67s5.96,1.89,7.12,1.27c.22-.14.38-.29.46-.47.57-1.21-1.87-3.59-5.48-5.28-3.61-1.69-7.01-2.05-7.58-.84Z"/><path class="cls-6" d="m590.57,34.14c-.65,1.39,1.74,3.89,5.35,5.59,3.61,1.69,7.06,1.94,7.72.54.65-1.39-1.74-3.89-5.35-5.59-3.61-1.69-7.06-1.94-7.72-.54"/><path class="cls-10" d="m590.57,34.14c-.65,1.39,1.74,3.89,5.35,5.59,3.61,1.69,7.06,1.94,7.72.54.65-1.39-1.74-3.89-5.35-5.59-3.61-1.69-7.06-1.94-7.72-.54Z"/><path class="cls-2" d="m592.29,64.47c42.12,24.53,82.82,22.97,82.82,22.97,0,0-4.84,34.65-34,72.5,0,0-21.1-35.4-68.27-54l19.45-41.48Z"/><path class="cls-10" d="m592.29,64.47c42.12,24.53,82.82,22.97,82.82,22.97,0,0-4.84,34.65-34,72.5,0,0-21.1-35.4-68.27-54l19.45-41.48Z"/><path class="cls-2" d="m530.59,92.61c5.77.71,12.29,1.97,19.27,4.16,2.91.91,5.65,1.9,8.2,2.94,6.61-14.09,13.21-28.17,19.82-42.26-2.8-1.28-5.78-2.8-8.85-4.61-5.91-3.48-10.81-7.23-14.76-10.72l-23.68,50.49Z"/><path class="cls-10" d="m530.59,92.61c5.77.71,12.29,1.97,19.27,4.16,2.91.91,5.65,1.9,8.2,2.94,6.61-14.09,13.21-28.17,19.82-42.26-2.8-1.28-5.78-2.8-8.85-4.61-5.91-3.48-10.81-7.23-14.76-10.72l-23.68,50.49Z"/></g><g class="cls-4"><polygon class="cls-6" points="247.46 305.54 235.4 313.52 82.04 84.72 94.1 76.74 247.46 305.54"/><polygon class="cls-10" points="247.46 305.54 235.4 313.52 82.04 84.72 94.1 76.74 247.46 305.54"/><path class="cls-6" d="m248.82,307.58c.11.17.15.38.16.64-.06,1.31-1.99,3.57-4.8,5.43-2.81,1.86-5.62,2.74-6.86,2.29-.24-.11-.42-.23-.53-.39-.74-1.11,1.32-3.82,4.65-6.02,3.33-2.2,6.64-3.05,7.38-1.94"/><path class="cls-10" d="m248.82,307.58c.11.17.15.38.16.64-.06,1.31-1.99,3.57-4.8,5.43-2.81,1.86-5.62,2.74-6.86,2.29-.24-.11-.42-.23-.53-.39-.74-1.11,1.32-3.82,4.65-6.02,3.33-2.2,6.64-3.05,7.38-1.94Z"/><path class="cls-6" d="m92.54,74.43c.85,1.28-1.16,4.11-4.48,6.31-3.32,2.2-6.71,2.94-7.55,1.66-.85-1.28,1.16-4.11,4.48-6.31,3.32-2.2,6.71-2.95,7.56-1.66"/><path class="cls-10" d="m92.54,74.43c.85,1.28-1.16,4.11-4.48,6.31-3.32,2.2-6.71,2.94-7.55,1.66-.85-1.28,1.16-4.11,4.48-6.31,3.32-2.2,6.71-2.95,7.56-1.66Z"/><path class="cls-2" d="m95.26,104.69c-38.09,30.41-78.58,34.8-78.58,34.8,0,0,9.84,33.58,44.21,66.77,0,0,15.71-38.1,59.66-63.37l-25.29-38.2Z"/><path class="cls-10" d="m95.26,104.69c-38.09,30.41-78.58,34.8-78.58,34.8,0,0,9.84,33.58,44.21,66.77,0,0,15.71-38.1,59.66-63.37l-25.29-38.2Z"/><path class="cls-2" d="m160.41,123.52c-5.61,1.54-11.87,3.74-18.46,6.92-2.75,1.33-5.31,2.71-7.68,4.1-8.59-12.97-17.18-25.95-25.77-38.92,2.59-1.67,5.31-3.61,8.08-5.85,5.34-4.31,9.64-8.73,13.04-12.76l30.79,46.5Z"/><path class="cls-10" d="m160.41,123.52c-5.61,1.54-11.87,3.74-18.46,6.92-2.75,1.33-5.31,2.71-7.68,4.1-8.59-12.97-17.18-25.95-25.77-38.92,2.59-1.67,5.31-3.61,8.08-5.85,5.34-4.31,9.64-8.73,13.04-12.76l30.79,46.5Z"/></g></g></g></svg>