<?xml version="1.0" encoding="UTF-8"?><svg id="Layer_1" xmlns="http://www.w3.org/2000/svg" width="180mm" height="100mm" xmlns:xlink="http://www.w3.org/1999/xlink" viewBox="0 0 510.24 283.46"><defs><style>.cls-1{stroke:#000;stroke-miterlimit:10;}.cls-1,.cls-2{fill:none;}.cls-3{clip-path:url(#clippath-2);}.cls-4{clip-path:url(#clippath-1);}.cls-5{clip-path:url(#clippath);}.cls-6{fill:url(#linear-gradient);}</style><clipPath id="clippath"><rect class="cls-2" x="1.79" y="2.22" width="506.65" height="279.03"/></clipPath><clipPath id="clippath-1"><path class="cls-2" d="m67.43,52.07c-6.74,16.81-13.48,33.63-20.22,50.44,9.38,31.76,18.75,63.52,28.13,95.28-19.34-7.47-38.68-14.95-58.02-22.42-4.98,10.84-9.96,21.67-14.95,32.51,18.17,24.1,36.34,48.2,54.51,72.31,135.09.19,270.19.37,405.28.56,15.24-29.89,30.48-59.79,45.71-89.68l-62.93-101.64C367.45,60.54,289.97,31.64,212.48,2.75c-48.35,16.44-96.7,32.88-145.06,49.32"/></clipPath><linearGradient id="linear-gradient" x1="496.44" y1="-93.68" x2="497.44" y2="-93.68" gradientTransform="translate(-25789.04 138290.24) rotate(-90) scale(278 -278)" gradientUnits="userSpaceOnUse"><stop offset="0" stop-color="#333"/><stop offset=".53" stop-color="#666766"/><stop offset=".75" stop-color="#7f7f7f"/><stop offset="1" stop-color="#999"/></linearGradient><clipPath id="clippath-2"><rect class="cls-2" x="1.79" y="2.22" width="506.65" height="279.03"/></clipPath></defs><g id="big_rock"><g class="cls-5"><g class="cls-4"><rect class="cls-6" x="2.37" y="2.75" width="505.5" height="278"/></g><g class="cls-3"><path class="cls-1" d="m56.88,280.19c-18.17-24.1-36.34-48.2-54.51-72.31,4.98-10.84,9.96-21.67,14.94-32.51,19.34,7.47,38.68,14.95,58.02,22.42-9.38-31.76-18.76-63.52-28.13-95.28,6.74-16.81,13.48-33.63,20.22-50.44C115.78,35.63,164.13,19.19,212.48,2.75c77.48,28.9,154.97,57.79,232.45,86.69l62.93,101.64c-15.24,29.89-30.48,59.78-45.71,89.68-135.09-.19-270.19-.37-405.28-.56Z"/></g></g></g></svg>