<?xml version="1.0" encoding="UTF-8"?><svg id="Layer_1" xmlns="http://www.w3.org/2000/svg" width="235mm" height="95mm" xmlns:xlink="http://www.w3.org/1999/xlink" viewBox="0 0 666.14 269.29"><defs><style>.cls-1{fill:#2f8b43;}.cls-2{clip-path:url(#clippath-2);}.cls-3{stroke:#231f20;stroke-width:5.81px;}.cls-3,.cls-4{stroke-miterlimit:10;}.cls-3,.cls-4,.cls-5{fill:none;}.cls-6{fill:#a09f9f;}.cls-7{clip-path:url(#clippath-1);}.cls-8{clip-path:url(#clippath-4);}.cls-9{fill:#724d1e;}.cls-10{clip-path:url(#clippath);}.cls-4{stroke:#000;stroke-width:5px;}.cls-11{clip-path:url(#clippath-3);}.cls-12{clip-path:url(#clippath-5);}</style><clipPath id="clippath"><rect class="cls-5" x="5.87" y="14.66" width="654.41" height="263.97"/></clipPath><clipPath id="clippath-1"><rect class="cls-5" x="5.87" y="14.66" width="654.41" height="263.97"/></clipPath><clipPath id="clippath-2"><polygon class="cls-5" points="5.87 126.08 5.87 126.08 86.4 278.34 178.88 229.42 98.35 77.16 5.87 126.08"/></clipPath><clipPath id="clippath-3"><polygon class="cls-5" points="5.87 126.08 5.87 126.08 86.4 278.34 178.88 229.42 98.35 77.16 5.87 126.08"/></clipPath><clipPath id="clippath-4"><polygon class="cls-5" points="483.86 226.62 574.64 278.63 574.65 278.63 660.28 129.17 569.49 77.16 483.86 226.62"/></clipPath><clipPath id="clippath-5"><polygon class="cls-5" points="483.86 226.62 574.64 278.63 574.65 278.63 638.47 167.23 660.27 129.18 569.49 77.16 483.86 226.62"/></clipPath></defs><g id="try_again_button"><g class="cls-10"><g class="cls-7"><path class="cls-1" d="m515.38,252.16H156.35c-35.06,0-63.49-28.42-63.49-63.49v-108.02c0-35.06,28.42-63.49,63.49-63.49h359.02c35.06,0,63.49,28.43,63.49,63.49v108.02c0,35.06-28.42,63.49-63.49,63.49"/><rect class="cls-4" x="92.87" y="17.16" width="486" height="235" rx="63.49" ry="63.49"/></g><g class="cls-2"><polygon class="cls-9" points="154.96 234.64 145.48 239.65 70.28 99.97 79.76 94.96 154.96 234.64"/></g><g class="cls-11"><polygon class="cls-3" points="154.96 234.64 145.48 239.65 70.28 99.97 79.76 94.96 154.96 234.64"/><path class="cls-9" d="m155.81,236.25c.07.13.08.29.07.48-.14.96-1.73,2.49-3.94,3.65-2.21,1.17-4.35,1.62-5.23,1.19-.17-.1-.29-.2-.36-.33-.46-.88,1.25-2.72,3.87-4.1,2.61-1.38,5.12-1.77,5.58-.9"/><path class="cls-3" d="m155.81,236.25c.07.13.08.29.07.48-.14.96-1.73,2.49-3.94,3.65-2.21,1.17-4.35,1.62-5.23,1.19-.17-.1-.29-.2-.36-.33-.46-.88,1.25-2.72,3.87-4.1,2.61-1.38,5.12-1.77,5.58-.9Z"/><path class="cls-9" d="m78.77,93.14c.53,1.01-1.15,2.95-3.77,4.33-2.61,1.38-5.16,1.68-5.7.68-.53-1.01,1.15-2.95,3.77-4.33,2.61-1.38,5.17-1.68,5.7-.68"/><path class="cls-3" d="m78.77,93.14c.53,1.01-1.15,2.95-3.77,4.33-2.61,1.38-5.16,1.68-5.7.68-.53-1.01,1.15-2.95,3.77-4.33,2.61-1.38,5.17-1.68,5.7-.68Z"/><path class="cls-6" d="m78.58,115.67c-30.32,19.67-60.52,19.96-60.52,19.96,0,0,4.82,25.5,27.76,52.49,0,0,14.37-26.97,48.64-42.42l-15.88-30.03Z"/><path class="cls-3" d="m78.58,115.67c-30.32,19.67-60.52,19.96-60.52,19.96,0,0,4.82,25.5,27.76,52.49,0,0,14.37-26.97,48.64-42.42l-15.88-30.03Z"/><path class="cls-6" d="m125.29,134.31c-4.25.73-9.03,1.9-14.13,3.77-2.13.78-4.12,1.61-5.97,2.47l-16.18-30.59c2.03-1.04,4.18-2.28,6.39-3.73,4.26-2.79,7.75-5.74,10.55-8.47l19.34,36.56Z"/><path class="cls-3" d="m125.29,134.31c-4.25.73-9.03,1.9-14.13,3.77-2.13.78-4.12,1.61-5.97,2.47l-16.18-30.59c2.03-1.04,4.18-2.28,6.39-3.73,4.26-2.79,7.75-5.74,10.55-8.47l19.34,36.56Z"/></g><path d="m158.4,81.04h-17.32v-10.37h42.17v10.37h-17.41v84.08h-7.44v-84.08Z"/><path d="m189.58,71.94c3.72-1.26,9.04-1.96,14.11-1.96,7.86,0,12.93,2.38,16.48,7.71,2.87,4.2,4.48,10.65,4.48,17.94,0,12.47-4.73,20.74-10.73,24.1v.42c4.39,2.52,7.01,9.25,8.37,19.06,1.86,13.17,3.21,22.28,4.39,25.92h-7.6c-.93-2.66-2.2-10.79-3.8-22.56-1.69-13.03-4.73-17.94-11.41-18.36h-6.93v40.92h-7.35v-93.19Zm7.35,43.02h7.52c7.86,0,12.84-7.15,12.84-17.94,0-12.19-5.32-17.52-13.1-17.66-3.55,0-6.08.56-7.27,1.12v34.47Z"/><path d="m246.87,165.13v-40.08l-18-54.37h8.37l8.03,26.07c2.2,7.15,3.89,12.89,5.66,19.48h.17c1.61-6.17,3.55-12.33,5.75-19.48l8.2-26.07h8.37l-19.1,54.23v40.22h-7.44Z"/><path d="m307.04,135.42l-5.92,29.71h-7.6l19.35-94.45h8.87l19.44,94.45h-7.86l-6.08-29.71h-20.2Zm18.68-9.53l-5.58-27.19c-1.27-6.17-2.11-11.77-2.96-17.24h-.17c-.84,5.61-1.77,11.35-2.87,17.1l-5.58,27.33h17.15Z"/><path d="m391.62,160.92c-3.3,1.96-9.8,5.19-17.49,5.19-8.62,0-15.72-3.64-21.29-12.47-4.9-7.85-7.94-20.46-7.94-35.17.08-28.17,11.75-48.77,30.84-48.77,6.59,0,11.75,2.38,14.2,4.34l-1.77,9.95c-3.04-2.24-6.84-4.06-12.59-4.06-13.86,0-22.9,14.29-22.9,37.98s8.7,38.12,21.97,38.12c4.82,0,8.11-1.12,9.8-2.52v-28.17h-11.58v-9.81h18.76v45.4Z"/><path d="m412.07,135.42l-5.92,29.71h-7.61l19.35-94.45h8.87l19.44,94.45h-7.86l-6.08-29.71h-20.2Zm18.68-9.53l-5.58-27.19c-1.27-6.17-2.11-11.77-2.96-17.24h-.17c-.84,5.61-1.77,11.35-2.87,17.1l-5.58,27.33h17.15Z"/><path d="m461.93,70.67v94.45h-7.35v-94.45h7.35Z"/><path d="m474.77,165.13v-94.45h8.03l18.25,47.79c4.22,11.07,7.52,21.02,10.22,30.69l.17-.14c-.68-12.61-.84-24.1-.84-38.82v-39.52h6.93v94.45h-7.44l-18.08-47.93c-3.97-10.51-7.77-21.3-10.65-31.53l-.25.14c.42,11.91.59,23.26.59,38.96v40.36h-6.93Z"/><g class="cls-8"><polygon class="cls-9" points="507.6 232.64 516.9 237.97 596.78 100.91 587.48 95.57 507.6 232.64"/></g><g class="cls-12"><polygon class="cls-3" points="507.6 232.64 516.9 237.97 596.78 100.91 587.48 95.57 507.6 232.64"/><path class="cls-9" d="m506.69,234.22c-.07.13-.1.29-.09.48.11.97,1.65,2.54,3.82,3.79,2.17,1.24,4.29,1.76,5.18,1.37.17-.09.3-.19.37-.32.49-.86-1.16-2.76-3.73-4.23-2.57-1.47-5.06-1.94-5.55-1.08"/><path class="cls-3" d="m506.69,234.22c-.07.13-.1.29-.09.48.11.97,1.65,2.54,3.82,3.79,2.17,1.24,4.29,1.76,5.18,1.37.17-.09.3-.19.37-.32.49-.86-1.16-2.76-3.73-4.23-2.57-1.47-5.06-1.94-5.55-1.08Z"/><path class="cls-9" d="m588.52,93.79c-.57.99,1.05,2.98,3.62,4.45,2.56,1.47,5.1,1.86,5.67.87.57-.99-1.05-2.98-3.62-4.45-2.56-1.47-5.1-1.86-5.67-.87"/><path class="cls-3" d="m588.52,93.79c-.57.99,1.05,2.98,3.62,4.45,2.56,1.47,5.1,1.86,5.67.87.57-.99-1.05-2.98-3.62-4.45-2.56-1.47-5.1-1.86-5.67-.87Z"/><path class="cls-6" d="m587.95,116.31c29.64,20.68,59.81,22,59.81,22,0,0-5.67,25.32-29.52,51.52,0,0-13.45-27.44-47.18-44.04l16.89-29.48Z"/><path class="cls-3" d="m587.95,116.31c29.64,20.68,59.81,22,59.81,22,0,0-5.67,25.32-29.52,51.52,0,0-13.45-27.44-47.18-44.04l16.89-29.48Z"/><path class="cls-6" d="m540.64,133.37c4.22.87,8.96,2.2,13.99,4.24,2.1.85,4.06,1.75,5.88,2.67l17.21-30.03c-1.99-1.11-4.1-2.42-6.26-3.94-4.16-2.93-7.55-6-10.26-8.82l-20.56,35.88Z"/><path class="cls-3" d="m540.64,133.37c4.22.87,8.96,2.2,13.99,4.24,2.1.85,4.06,1.75,5.88,2.67l17.21-30.03c-1.99-1.11-4.1-2.42-6.26-3.94-4.16-2.93-7.55-6-10.26-8.82l-20.56,35.88Z"/></g></g></g></svg>