<?xml version="1.0" encoding="UTF-8"?><svg id="Layer_12" xmlns="http://www.w3.org/2000/svg" width="555" height="305" xmlns:xlink="http://www.w3.org/1999/xlink" viewBox="0 0 555 305"><defs><style>.cls-1{stroke-width:4px;}.cls-1,.cls-2,.cls-3,.cls-4{fill:none;}.cls-1,.cls-2,.cls-3,.cls-5{stroke-miterlimit:10;}.cls-1,.cls-2,.cls-5{stroke:#000;}.cls-6{fill:#fff;}.cls-7{fill:#f68c22;}.cls-3{stroke:#231f20;stroke-width:2.63px;}.cls-8{fill:#a31d21;}.cls-9{clip-path:url(#clippath-2);}.cls-10{fill:#a09f9f;}.cls-11{clip-path:url(#clippath-1);}.cls-12{fill:#724d1e;}.cls-13{clip-path:url(#clippath);}.cls-5{fill:#4d5daa;}.cls-14{fill:url(#linear-gradient);}.cls-15{fill:#2f8b40;}</style><linearGradient id="linear-gradient" x1="277.5" y1="303.5" x2="277.5" y2="1.5" gradientUnits="userSpaceOnUse"><stop offset="0" stop-color="#cecece"/><stop offset=".39" stop-color="#e0e0e0"/><stop offset="1" stop-color="#fff"/></linearGradient><clipPath id="clippath"><ellipse class="cls-4" cx="279.58" cy="152.58" rx="116.25" ry="113.5"/></clipPath><clipPath id="clippath-1"><rect class="cls-4" x="120.8" y="54.53" width="112.48" height="68.32" transform="translate(-12.03 147.54) rotate(-43.9)"/></clipPath><clipPath id="clippath-2"><rect class="cls-4" x="120.8" y="54.53" width="112.48" height="68.32" transform="translate(-12.03 147.54) rotate(-43.9)"/></clipPath></defs><path class="cls-14" d="m554.83,193.64c0,30.68-27.77,55.57-62.02,55.57-17.41,0-33.15-6.43-44.41-16.8-12.11,24.8-41.01,42.25-74.74,42.25-12.04,0-23.47-2.22-33.73-6.22-18.9,21.31-48.73,35.06-82.29,35.06-35.54,0-66.89-15.42-85.52-38.91-5.68,1.04-11.57,1.59-17.61,1.59-37.94,0-70.05-21.51-80.82-51.15-3.94.72-8.03,1.09-12.21,1.09C27.63,216.12.17,191.44.17,160.98s27.45-55.14,61.32-55.14c4.58,0,9.04.45,13.33,1.31,11.41-30.47,41.23-52.21,76.21-52.21,12.36,0,24.07,2.71,34.56,7.57C198.99,26.94,234.77,1.5,276.8,1.5c39.24,0,73.02,22.17,88.24,54.05,17.81-10.96,40.88-17.57,66.1-17.57,56.38,0,102.08,33.04,102.08,73.8,0,11.88-3.88,23.1-10.78,33.04,19.29,9.43,32.38,27.76,32.38,48.82Z"/><g class="cls-13"><rect class="cls-5" x="146.18" y="32.57" width="267.76" height="240.94"/><path class="cls-6" d="m413.05,33.52c-40.6,36.8-81.2,73.45-121.8,110.08-6.61,5.96-13.22,11.93-19.83,17.88-41.27,37.25-82.53,74.48-124.61,111.72v-16.91c38.33-34.9,75.86-69.79,113.38-104.69l-113.38-99.55v-17.71l23.19-.66,109.89,99.6c35.7-33.19,71.4-66.41,107.1-99.77h26.06Z"/><polygon class="cls-15" points="148.99 272.56 240.72 272.56 240.72 189.9 148.99 272.56"/><polygon class="cls-6" points="240.72 272.56 334.62 272.56 333.59 105.28 240.72 189.25 240.72 272.56"/><polygon class="cls-7" points="333.35 105.38 334.6 274.46 413.3 274.46 413.3 34 333.35 105.38"/><path class="cls-2" d="m146.62,273.2L413.77,33.2c.07-.07.17.01.17.14v240c0,.09-.05.16-.11.16H146.68c-.11,0-.15-.22-.06-.3Z"/></g><path class="cls-1" d="m194.32,111.31s28.42-12.87,44.27-45.55"/><g id="Medium_axe"><g class="cls-11"><polygon class="cls-12" points="126.6 111.2 131.46 116.24 206.64 44.96 201.78 39.92 126.6 111.2"/><g class="cls-9"><polygon class="cls-3" points="126.6 111.2 131.46 116.24 206.64 44.96 201.78 39.92 126.6 111.2"/><path class="cls-12" d="m125.75,112.02c-.07.07-.11.16-.14.28-.11.63.57,1.9,1.7,3.07s2.37,1.89,3,1.81c.12-.02.22-.07.29-.13.47-.45-.22-1.94-1.56-3.34s-2.81-2.14-3.28-1.7"/><path class="cls-3" d="m125.75,112.02c-.07.07-.11.16-.14.28-.11.63.57,1.9,1.7,3.07s2.37,1.89,3,1.81c.12-.02.22-.07.29-.13.47-.45-.22-1.94-1.56-3.34s-2.81-2.14-3.28-1.7Z"/><path class="cls-12" d="m202.76,38.99c-.54.52.11,2.06,1.45,3.45s2.86,2.1,3.4,1.58-.11-2.06-1.45-3.45-2.86-2.1-3.4-1.58"/><ellipse class="cls-3" cx="205.19" cy="41.51" rx="1.35" ry="3.5" transform="translate(28.55 153.87) rotate(-43.9)"/><path class="cls-10" d="m198.28,53c14.79,18.39,33.46,24.75,33.46,24.75,0,0-8.2,14.83-27.94,26.89,0,0-3.4-19.67-21.5-36.25l15.99-15.38Z"/><path class="cls-3" d="m198.28,53c14.79,18.39,33.46,24.75,33.46,24.75,0,0-8.2,14.83-27.94,26.89,0,0-3.4-19.67-21.5-36.25l15.99-15.38Z"/><path class="cls-10" d="m165.5,55.03c2.49,1.32,5.22,3.02,7.99,5.22,1.16.92,2.22,1.84,3.2,2.75l16.29-15.67c-1.05-1.06-2.13-2.27-3.2-3.62-2.07-2.6-3.63-5.14-4.82-7.41l-19.46,18.73Z"/><path class="cls-3" d="m165.5,55.03c2.49,1.32,5.22,3.02,7.99,5.22,1.16.92,2.22,1.84,3.2,2.75l16.29-15.67c-1.05-1.06-2.13-2.27-3.2-3.62-2.07-2.6-3.63-5.14-4.82-7.41l-19.46,18.73Z"/></g></g></g><ellipse class="cls-8" cx="373.91" cy="138.82" rx="12.08" ry="64.74"/><ellipse class="cls-8" cx="374.62" cy="219.75" rx="9.95" ry="11.33"/></svg>