<?xml version="1.0" encoding="UTF-8"?><svg id="Layer_1" xmlns="http://www.w3.org/2000/svg" width="105mm" height="105mm" xmlns:xlink="http://www.w3.org/1999/xlink" viewBox="0 0 297.64 297.64"><defs><style>.cls-1{fill:#fff;}.cls-2{clip-path:url(#clippath-1);}.cls-3{clip-path:url(#clippath);}.cls-4,.cls-5{fill:none;}.cls-5{stroke:#000;stroke-miterlimit:10;stroke-width:7px;}</style><clipPath id="clippath"><rect class="cls-4" x="2.32" y="2.32" width="293" height="293"/></clipPath><clipPath id="clippath-1"><rect class="cls-4" x="2.32" y="2.32" width="293" height="293"/></clipPath></defs><g id="complete_watch"><g class="cls-3"><g class="cls-2"><path class="cls-1" d="m291.82,148.82c0,78.98-64.02,143-143,143S5.82,227.8,5.82,148.82,69.84,5.82,148.82,5.82s143,64.02,143,143"/><circle class="cls-5" cx="148.82" cy="148.82" r="143"/><line class="cls-5" x1="148.82" y1="3.82" x2="148.82" y2="41.82"/><line class="cls-5" x1="6.32" y1="147.82" x2="44.32" y2="147.82"/><line class="cls-5" x1="254.32" y1="148.82" x2="292.32" y2="148.82"/><line class="cls-5" x1="148.82" y1="252.32" x2="148.82" y2="290.32"/><line class="cls-5" x1="194.42" y1="11.65" x2="186.57" y2="34.72"/><line class="cls-5" x1="231.69" y1="32.35" x2="217.3" y2="52.02"/><line class="cls-5" x1="264.4" y1="64.1" x2="244.58" y2="78.28"/><line class="cls-5" x1="261.78" y1="113.53" x2="285.21" y2="106.85"/><line class="cls-5" x1="9.31" y1="109.41" x2="32.66" y2="116.39"/><line class="cls-5" x1="28.61" y1="71.39" x2="48.8" y2="85.04"/><line class="cls-5" x1="59.11" y1="37.51" x2="74.02" y2="56.79"/><line class="cls-5" x1="108.6" y1="38.29" x2="101.05" y2="15.12"/><line class="cls-5" x1="282.75" y1="191.57" x2="259.52" y2="184.19"/><line class="cls-5" x1="262.82" y1="229.25" x2="242.86" y2="215.27"/><line class="cls-5" x1="231.75" y1="262.61" x2="217.17" y2="243.09"/><line class="cls-5" x1="182.28" y1="261" x2="189.44" y2="284.29"/><line class="cls-5" x1="100.93" y1="286.73" x2="109.76" y2="264.01"/><line class="cls-5" x1="64.58" y1="264.45" x2="79.8" y2="245.42"/><line class="cls-5" x1="33.25" y1="231.35" x2="53.65" y2="218.02"/><line class="cls-5" x1="37.98" y1="182.07" x2="14.28" y2="187.75"/></g></g></g></svg>