<?xml version="1.0" encoding="UTF-8"?><svg id="Layer_1" xmlns="http://www.w3.org/2000/svg" width="110mm" height="110mm" xmlns:xlink="http://www.w3.org/1999/xlink" viewBox="0 0 311.81 311.81"><defs><style>.cls-1{clip-path:url(#clippath-1);}.cls-2{clip-path:url(#clippath);}.cls-3,.cls-4{fill:none;}.cls-4{stroke:#000;stroke-miterlimit:10;stroke-width:7px;}</style><clipPath id="clippath"><rect class="cls-3" x="9.41" y="9.41" width="293" height="293"/></clipPath><clipPath id="clippath-1"><rect class="cls-3" x="9.41" y="9.41" width="293" height="293"/></clipPath></defs><g id="watch_frame"><g class="cls-2"><g class="cls-1"><circle class="cls-4" cx="155.91" cy="155.91" r="143"/><line class="cls-4" x1="155.91" y1="10.91" x2="155.91" y2="48.91"/><line class="cls-4" x1="13.41" y1="154.91" x2="51.41" y2="154.91"/><line class="cls-4" x1="261.41" y1="155.91" x2="299.41" y2="155.91"/><line class="cls-4" x1="155.91" y1="259.41" x2="155.91" y2="297.41"/><line class="cls-4" x1="201.51" y1="18.74" x2="193.65" y2="41.81"/><line class="cls-4" x1="238.78" y1="39.44" x2="224.38" y2="59.11"/><line class="cls-4" x1="271.49" y1="71.18" x2="251.67" y2="85.36"/><line class="cls-4" x1="268.86" y1="120.61" x2="292.3" y2="113.93"/><line class="cls-4" x1="16.4" y1="116.49" x2="39.75" y2="123.48"/><line class="cls-4" x1="35.7" y1="78.47" x2="55.88" y2="92.12"/><line class="cls-4" x1="66.19" y1="44.6" x2="81.1" y2="63.88"/><line class="cls-4" x1="115.69" y1="45.38" x2="108.14" y2="22.21"/><line class="cls-4" x1="289.84" y1="198.65" x2="266.61" y2="191.27"/><line class="cls-4" x1="269.9" y1="236.34" x2="249.95" y2="222.35"/><line class="cls-4" x1="238.84" y1="269.7" x2="224.26" y2="250.17"/><line class="cls-4" x1="189.37" y1="268.09" x2="196.53" y2="291.38"/><line class="cls-4" x1="108.02" y1="293.81" x2="116.85" y2="271.1"/><line class="cls-4" x1="71.66" y1="271.54" x2="86.88" y2="252.51"/><line class="cls-4" x1="40.33" y1="238.43" x2="60.74" y2="225.11"/><line class="cls-4" x1="45.07" y1="189.16" x2="21.37" y2="194.84"/></g></g></g></svg>